<svg width="772" height="408" viewBox="0 0 772 408" fill="none" xmlns="http://www.w3.org/2000/svg">
<path d="M142.178 359V297.8H0.578125V287.4L142.178 39H212.578L12.5781 287.4H142.178V159H192.578V287.4H240.578V297.8H192.578V359H142.178Z" fill="#1F1F1F"/>
<path d="M333.531 359.508C305.76 359.508 284.852 351.031 270.805 334.078C256.758 316.964 249.734 294.521 249.734 266.75C249.734 250.443 252.641 233.086 258.453 214.68C264.427 196.273 272.661 178.19 283.156 160.43C293.651 142.669 306.568 125.635 321.906 109.328C337.245 93.0208 353.714 78.7318 371.312 66.4609C389.073 54.1901 408.69 44.4219 430.164 37.1562C451.799 29.7292 473.516 26.0156 495.312 26.0156C519.531 26.0156 537.615 33.8464 549.562 49.5078C561.672 65.0078 567.727 85.6745 567.727 111.508C567.727 127.815 564.82 145.414 559.008 164.305C553.195 183.034 545.203 201.521 535.031 219.766C525.021 238.01 512.669 255.609 497.977 272.562C483.284 289.516 467.461 304.451 450.508 317.367C433.716 330.122 415.068 340.375 394.562 348.125C374.219 355.714 353.875 359.508 333.531 359.508ZM336.922 352C347.901 352 360.01 346.672 373.25 336.016C386.49 325.359 399.164 311.555 411.273 294.602C423.383 277.487 435.169 258.193 446.633 236.719C458.258 215.245 468.268 193.932 476.664 172.781C485.06 151.469 491.841 131.044 497.008 111.508C502.174 91.9714 504.758 75.7448 504.758 62.8281C504.758 43.2917 500.237 33.5234 491.195 33.5234C479.57 33.5234 466.977 38.6901 453.414 49.0234C439.852 59.3568 426.935 72.7578 414.664 89.2266C402.393 105.695 390.445 124.424 378.82 145.414C367.195 166.242 357.104 187.151 348.547 208.141C340.151 228.969 333.37 249.232 328.203 268.93C323.198 288.466 320.695 304.935 320.695 318.336C320.695 340.779 326.104 352 336.922 352Z" fill="#1F1F1F"/>
<path d="M331.998 351C280.501 323.5 404.504 18.5012 492.001 31C561.99 40.9977 394.498 394.5 331.998 351Z" fill="#E2063A"/>
<circle cx="414.5" cy="193" r="28" fill="black"/>
<path d="M673.178 359V297.8H531.578V287.4L673.178 39H743.578L543.578 287.4H673.178V159H723.578V287.4H771.578V297.8H723.578V359H673.178Z" fill="#1F1F1F"/>
</svg>
