<svg width="168" height="112" viewBox="0 0 168 112" fill="none" xmlns="http://www.w3.org/2000/svg">
<g clip-path="url(#clip0_6055_55045)">
<path d="M0 32C0 14.3269 14.3269 0 32 0H136C153.673 0 168 14.3269 168 32V96C168 104.837 160.837 112 152 112H32C14.3269 112 0 97.6731 0 80V32Z" fill="#1F1F1F"/>
<g opacity="0.4">
<path d="M33.5665 72.5655C41.5719 76.3611 51.1384 72.9483 54.934 64.943C58.7295 56.9376 55.3168 47.3711 47.3114 43.5756C39.306 39.78 29.7395 43.1928 25.944 51.1981C22.1484 59.2035 25.5612 68.77 33.5665 72.5655Z" stroke="#E2063A" stroke-width="4.8125" stroke-linecap="round" stroke-linejoin="round"/>
<path d="M44.7263 113.356C50.0456 102.137 43.1866 87.7711 29.4454 81.256C15.7041 74.741 0.240829 78.5231 -5.07843 89.7422" stroke="#E2063A" stroke-width="4.8125" stroke-linecap="round" stroke-linejoin="round"/>
</g>
</g>
<defs>
<clipPath id="clip0_6055_55045">
<path d="M0 32C0 14.3269 14.3269 0 32 0H136C153.673 0 168 14.3269 168 32V96C168 104.837 160.837 112 152 112H32C14.3269 112 0 97.6731 0 80V32Z" fill="white"/>
</clipPath>
</defs>
</svg>
