<svg width="1728" height="1728" viewBox="0 0 1728 1728" fill="none" xmlns="http://www.w3.org/2000/svg">
<g opacity="0.02">
<g clip-path="url(#clip0_6015_57722)">
<rect width="1728" height="1728" rx="22" fill="white"/>
<path d="M0 864C0 844.118 16.1177 828 36 828V828C55.8823 828 72 844.118 72 864V864C72 883.882 55.8823 900 36 900V900C16.1177 900 0 883.882 0 864V864Z" stroke="#1F1F1F" stroke-width="5"/>
<path d="M92 864C92 844.118 108.118 828 128 828V828C147.882 828 164 844.118 164 864V864C164 883.882 147.882 900 128 900V900C108.118 900 92 883.882 92 864V864Z" stroke="#1F1F1F" stroke-width="5"/>
<path d="M184 864C184 844.118 200.118 828 220 828V828C239.882 828 256 844.118 256 864V864C256 883.882 239.882 900 220 900V900C200.118 900 184 883.882 184 864V864Z" stroke="#1F1F1F" stroke-width="5"/>
<path d="M276 864C276 844.118 292.118 828 312 828V828C331.882 828 348 844.118 348 864V864C348 883.882 331.882 900 312 900V900C292.118 900 276 883.882 276 864V864Z" stroke="#1F1F1F" stroke-width="5"/>
<path d="M368 864C368 844.118 384.118 828 404 828V828C423.882 828 440 844.118 440 864V864C440 883.882 423.882 900 404 900V900C384.118 900 368 883.882 368 864V864Z" stroke="#1F1F1F" stroke-width="5"/>
<path d="M460 864C460 844.118 476.118 828 496 828V828C515.882 828 532 844.118 532 864V864C532 883.882 515.882 900 496 900V900C476.118 900 460 883.882 460 864V864Z" stroke="#1F1F1F" stroke-width="5"/>
<path d="M552 864C552 844.118 568.118 828 588 828V828C607.882 828 624 844.118 624 864V864C624 883.882 607.882 900 588 900V900C568.118 900 552 883.882 552 864V864Z" stroke="#1F1F1F" stroke-width="5"/>
<path d="M644 864C644 844.118 660.118 828 680 828V828C699.882 828 716 844.118 716 864V864C716 883.882 699.882 900 680 900V900C660.118 900 644 883.882 644 864V864Z" stroke="#1F1F1F" stroke-width="5"/>
<path d="M736 864C736 844.118 752.118 828 772 828V828C791.882 828 808 844.118 808 864V864C808 883.882 791.882 900 772 900V900C752.118 900 736 883.882 736 864V864Z" stroke="#1F1F1F" stroke-width="5"/>
<path d="M828 864C828 844.118 844.118 828 864 828V828C883.882 828 900 844.118 900 864V864C900 883.882 883.882 900 864 900V900C844.118 900 828 883.882 828 864V864Z" stroke="#1F1F1F" stroke-width="5"/>
<path d="M920 864C920 844.118 936.118 828 956 828V828C975.882 828 992 844.118 992 864V864C992 883.882 975.882 900 956 900V900C936.118 900 920 883.882 920 864V864Z" stroke="#1F1F1F" stroke-width="5"/>
<path d="M1012 864C1012 844.118 1028.12 828 1048 828V828C1067.88 828 1084 844.118 1084 864V864C1084 883.882 1067.88 900 1048 900V900C1028.12 900 1012 883.882 1012 864V864Z" stroke="#1F1F1F" stroke-width="5"/>
<path d="M1104 864C1104 844.118 1120.12 828 1140 828V828C1159.88 828 1176 844.118 1176 864V864C1176 883.882 1159.88 900 1140 900V900C1120.12 900 1104 883.882 1104 864V864Z" stroke="#1F1F1F" stroke-width="5"/>
<path d="M1196 864C1196 844.118 1212.12 828 1232 828V828C1251.88 828 1268 844.118 1268 864V864C1268 883.882 1251.88 900 1232 900V900C1212.12 900 1196 883.882 1196 864V864Z" stroke="#1F1F1F" stroke-width="5"/>
<path d="M1288 864C1288 844.118 1304.12 828 1324 828V828C1343.88 828 1360 844.118 1360 864V864C1360 883.882 1343.88 900 1324 900V900C1304.12 900 1288 883.882 1288 864V864Z" stroke="#1F1F1F" stroke-width="5"/>
<path d="M1380 864C1380 844.118 1396.12 828 1416 828V828C1435.88 828 1452 844.118 1452 864V864C1452 883.882 1435.88 900 1416 900V900C1396.12 900 1380 883.882 1380 864V864Z" stroke="#1F1F1F" stroke-width="5"/>
<path d="M1472 864C1472 844.118 1488.12 828 1508 828V828C1527.88 828 1544 844.118 1544 864V864C1544 883.882 1527.88 900 1508 900V900C1488.12 900 1472 883.882 1472 864V864Z" stroke="#1F1F1F" stroke-width="5"/>
<path d="M1564 864C1564 844.118 1580.12 828 1600 828V828C1619.88 828 1636 844.118 1636 864V864C1636 883.882 1619.88 900 1600 900V900C1580.12 900 1564 883.882 1564 864V864Z" stroke="#1F1F1F" stroke-width="5"/>
<path d="M1656 864C1656 844.118 1672.12 828 1692 828V828C1711.88 828 1728 844.118 1728 864V864C1728 883.882 1711.88 900 1692 900V900C1672.12 900 1656 883.882 1656 864V864Z" stroke="#1F1F1F" stroke-width="5"/>
<path d="M0 960C0 940.118 16.1177 924 36 924V924C55.8823 924 72 940.118 72 960V960C72 979.882 55.8823 996 36 996V996C16.1177 996 0 979.882 0 960V960Z" stroke="#1F1F1F" stroke-width="5"/>
<path d="M92 960C92 940.118 108.118 924 128 924V924C147.882 924 164 940.118 164 960V960C164 979.882 147.882 996 128 996V996C108.118 996 92 979.882 92 960V960Z" stroke="#1F1F1F" stroke-width="5"/>
<path d="M184 960C184 940.118 200.118 924 220 924V924C239.882 924 256 940.118 256 960V960C256 979.882 239.882 996 220 996V996C200.118 996 184 979.882 184 960V960Z" stroke="#1F1F1F" stroke-width="5"/>
<path d="M276 960C276 940.118 292.118 924 312 924V924C331.882 924 348 940.118 348 960V960C348 979.882 331.882 996 312 996V996C292.118 996 276 979.882 276 960V960Z" stroke="#1F1F1F" stroke-width="5"/>
<path d="M368 960C368 940.118 384.118 924 404 924V924C423.882 924 440 940.118 440 960V960C440 979.882 423.882 996 404 996V996C384.118 996 368 979.882 368 960V960Z" stroke="#1F1F1F" stroke-width="5"/>
<path d="M460 960C460 940.118 476.118 924 496 924V924C515.882 924 532 940.118 532 960V960C532 979.882 515.882 996 496 996V996C476.118 996 460 979.882 460 960V960Z" stroke="#1F1F1F" stroke-width="5"/>
<path d="M552 960C552 940.118 568.118 924 588 924V924C607.882 924 624 940.118 624 960V960C624 979.882 607.882 996 588 996V996C568.118 996 552 979.882 552 960V960Z" stroke="#1F1F1F" stroke-width="5"/>
<path d="M644 960C644 940.118 660.118 924 680 924V924C699.882 924 716 940.118 716 960V960C716 979.882 699.882 996 680 996V996C660.118 996 644 979.882 644 960V960Z" stroke="#1F1F1F" stroke-width="5"/>
<path d="M736 960C736 940.118 752.118 924 772 924V924C791.882 924 808 940.118 808 960V960C808 979.882 791.882 996 772 996V996C752.118 996 736 979.882 736 960V960Z" stroke="#1F1F1F" stroke-width="5"/>
<path d="M828 960C828 940.118 844.118 924 864 924V924C883.882 924 900 940.118 900 960V960C900 979.882 883.882 996 864 996V996C844.118 996 828 979.882 828 960V960Z" stroke="#1F1F1F" stroke-width="5"/>
<path d="M920 960C920 940.118 936.118 924 956 924V924C975.882 924 992 940.118 992 960V960C992 979.882 975.882 996 956 996V996C936.118 996 920 979.882 920 960V960Z" stroke="#1F1F1F" stroke-width="5"/>
<path d="M1012 960C1012 940.118 1028.12 924 1048 924V924C1067.88 924 1084 940.118 1084 960V960C1084 979.882 1067.88 996 1048 996V996C1028.12 996 1012 979.882 1012 960V960Z" stroke="#1F1F1F" stroke-width="5"/>
<path d="M1104 960C1104 940.118 1120.12 924 1140 924V924C1159.88 924 1176 940.118 1176 960V960C1176 979.882 1159.88 996 1140 996V996C1120.12 996 1104 979.882 1104 960V960Z" stroke="#1F1F1F" stroke-width="5"/>
<path d="M1196 960C1196 940.118 1212.12 924 1232 924V924C1251.88 924 1268 940.118 1268 960V960C1268 979.882 1251.88 996 1232 996V996C1212.12 996 1196 979.882 1196 960V960Z" stroke="#1F1F1F" stroke-width="5"/>
<path d="M1288 960C1288 940.118 1304.12 924 1324 924V924C1343.88 924 1360 940.118 1360 960V960C1360 979.882 1343.88 996 1324 996V996C1304.12 996 1288 979.882 1288 960V960Z" stroke="#1F1F1F" stroke-width="5"/>
<path d="M1380 960C1380 940.118 1396.12 924 1416 924V924C1435.88 924 1452 940.118 1452 960V960C1452 979.882 1435.88 996 1416 996V996C1396.12 996 1380 979.882 1380 960V960Z" stroke="#1F1F1F" stroke-width="5"/>
<path d="M1472 960C1472 940.118 1488.12 924 1508 924V924C1527.88 924 1544 940.118 1544 960V960C1544 979.882 1527.88 996 1508 996V996C1488.12 996 1472 979.882 1472 960V960Z" stroke="#1F1F1F" stroke-width="5"/>
<path d="M1564 960C1564 940.118 1580.12 924 1600 924V924C1619.88 924 1636 940.118 1636 960V960C1636 979.882 1619.88 996 1600 996V996C1580.12 996 1564 979.882 1564 960V960Z" stroke="#1F1F1F" stroke-width="5"/>
<path d="M1656 960C1656 940.118 1672.12 924 1692 924V924C1711.88 924 1728 940.118 1728 960V960C1728 979.882 1711.88 996 1692 996V996C1672.12 996 1656 979.882 1656 960V960Z" stroke="#1F1F1F" stroke-width="5"/>
<path d="M0 0C0 -19.8823 16.1177 -36 36 -36V-36C55.8823 -36 72 -19.8823 72 0V0C72 19.8823 55.8823 36 36 36V36C16.1177 36 0 19.8823 0 0V0Z" stroke="#1F1F1F" stroke-width="5"/>
<path d="M92 0C92 -19.8823 108.118 -36 128 -36V-36C147.882 -36 164 -19.8823 164 0V0C164 19.8823 147.882 36 128 36V36C108.118 36 92 19.8823 92 0V0Z" stroke="#1F1F1F" stroke-width="5"/>
<path d="M184 0C184 -19.8823 200.118 -36 220 -36V-36C239.882 -36 256 -19.8823 256 0V0C256 19.8823 239.882 36 220 36V36C200.118 36 184 19.8823 184 0V0Z" stroke="#1F1F1F" stroke-width="5"/>
<path d="M276 0C276 -19.8823 292.118 -36 312 -36V-36C331.882 -36 348 -19.8823 348 0V0C348 19.8823 331.882 36 312 36V36C292.118 36 276 19.8823 276 0V0Z" stroke="#1F1F1F" stroke-width="5"/>
<path d="M368 0C368 -19.8823 384.118 -36 404 -36V-36C423.882 -36 440 -19.8823 440 0V0C440 19.8823 423.882 36 404 36V36C384.118 36 368 19.8823 368 0V0Z" stroke="#1F1F1F" stroke-width="5"/>
<path d="M460 0C460 -19.8823 476.118 -36 496 -36V-36C515.882 -36 532 -19.8823 532 0V0C532 19.8823 515.882 36 496 36V36C476.118 36 460 19.8823 460 0V0Z" stroke="#1F1F1F" stroke-width="5"/>
<path d="M552 0C552 -19.8823 568.118 -36 588 -36V-36C607.882 -36 624 -19.8823 624 0V0C624 19.8823 607.882 36 588 36V36C568.118 36 552 19.8823 552 0V0Z" stroke="#1F1F1F" stroke-width="5"/>
<path d="M644 0C644 -19.8823 660.118 -36 680 -36V-36C699.882 -36 716 -19.8823 716 0V0C716 19.8823 699.882 36 680 36V36C660.118 36 644 19.8823 644 0V0Z" stroke="#1F1F1F" stroke-width="5"/>
<path d="M736 0C736 -19.8823 752.118 -36 772 -36V-36C791.882 -36 808 -19.8823 808 0V0C808 19.8823 791.882 36 772 36V36C752.118 36 736 19.8823 736 0V0Z" stroke="#1F1F1F" stroke-width="5"/>
<path d="M828 0C828 -19.8823 844.118 -36 864 -36V-36C883.882 -36 900 -19.8823 900 0V0C900 19.8823 883.882 36 864 36V36C844.118 36 828 19.8823 828 0V0Z" stroke="#1F1F1F" stroke-width="5"/>
<path d="M920 0C920 -19.8823 936.118 -36 956 -36V-36C975.882 -36 992 -19.8823 992 0V0C992 19.8823 975.882 36 956 36V36C936.118 36 920 19.8823 920 0V0Z" stroke="#1F1F1F" stroke-width="5"/>
<path d="M1012 0C1012 -19.8823 1028.12 -36 1048 -36V-36C1067.88 -36 1084 -19.8823 1084 0V0C1084 19.8823 1067.88 36 1048 36V36C1028.12 36 1012 19.8823 1012 0V0Z" stroke="#1F1F1F" stroke-width="5"/>
<path d="M1104 0C1104 -19.8823 1120.12 -36 1140 -36V-36C1159.88 -36 1176 -19.8823 1176 0V0C1176 19.8823 1159.88 36 1140 36V36C1120.12 36 1104 19.8823 1104 0V0Z" stroke="#1F1F1F" stroke-width="5"/>
<path d="M1196 0C1196 -19.8823 1212.12 -36 1232 -36V-36C1251.88 -36 1268 -19.8823 1268 0V0C1268 19.8823 1251.88 36 1232 36V36C1212.12 36 1196 19.8823 1196 0V0Z" stroke="#1F1F1F" stroke-width="5"/>
<path d="M1288 0C1288 -19.8823 1304.12 -36 1324 -36V-36C1343.88 -36 1360 -19.8823 1360 0V0C1360 19.8823 1343.88 36 1324 36V36C1304.12 36 1288 19.8823 1288 0V0Z" stroke="#1F1F1F" stroke-width="5"/>
<path d="M1380 0C1380 -19.8823 1396.12 -36 1416 -36V-36C1435.88 -36 1452 -19.8823 1452 0V0C1452 19.8823 1435.88 36 1416 36V36C1396.12 36 1380 19.8823 1380 0V0Z" stroke="#1F1F1F" stroke-width="5"/>
<path d="M1472 0C1472 -19.8823 1488.12 -36 1508 -36V-36C1527.88 -36 1544 -19.8823 1544 0V0C1544 19.8823 1527.88 36 1508 36V36C1488.12 36 1472 19.8823 1472 0V0Z" stroke="#1F1F1F" stroke-width="5"/>
<path d="M1564 0C1564 -19.8823 1580.12 -36 1600 -36V-36C1619.88 -36 1636 -19.8823 1636 0V0C1636 19.8823 1619.88 36 1600 36V36C1580.12 36 1564 19.8823 1564 0V0Z" stroke="#1F1F1F" stroke-width="5"/>
<path d="M1656 0C1656 -19.8823 1672.12 -36 1692 -36V-36C1711.88 -36 1728 -19.8823 1728 0V0C1728 19.8823 1711.88 36 1692 36V36C1672.12 36 1656 19.8823 1656 0V0Z" stroke="#1F1F1F" stroke-width="5"/>
<path d="M0 1056C0 1036.12 16.1177 1020 36 1020V1020C55.8823 1020 72 1036.12 72 1056V1056C72 1075.88 55.8823 1092 36 1092V1092C16.1177 1092 0 1075.88 0 1056V1056Z" stroke="#1F1F1F" stroke-width="5"/>
<path d="M92 1056C92 1036.12 108.118 1020 128 1020V1020C147.882 1020 164 1036.12 164 1056V1056C164 1075.88 147.882 1092 128 1092V1092C108.118 1092 92 1075.88 92 1056V1056Z" stroke="#1F1F1F" stroke-width="5"/>
<path d="M184 1056C184 1036.12 200.118 1020 220 1020V1020C239.882 1020 256 1036.12 256 1056V1056C256 1075.88 239.882 1092 220 1092V1092C200.118 1092 184 1075.88 184 1056V1056Z" stroke="#1F1F1F" stroke-width="5"/>
<path d="M276 1056C276 1036.12 292.118 1020 312 1020V1020C331.882 1020 348 1036.12 348 1056V1056C348 1075.88 331.882 1092 312 1092V1092C292.118 1092 276 1075.88 276 1056V1056Z" stroke="#1F1F1F" stroke-width="5"/>
<path d="M368 1056C368 1036.12 384.118 1020 404 1020V1020C423.882 1020 440 1036.12 440 1056V1056C440 1075.88 423.882 1092 404 1092V1092C384.118 1092 368 1075.88 368 1056V1056Z" stroke="#1F1F1F" stroke-width="5"/>
<path d="M460 1056C460 1036.12 476.118 1020 496 1020V1020C515.882 1020 532 1036.12 532 1056V1056C532 1075.88 515.882 1092 496 1092V1092C476.118 1092 460 1075.88 460 1056V1056Z" stroke="#1F1F1F" stroke-width="5"/>
<path d="M552 1056C552 1036.12 568.118 1020 588 1020V1020C607.882 1020 624 1036.12 624 1056V1056C624 1075.88 607.882 1092 588 1092V1092C568.118 1092 552 1075.88 552 1056V1056Z" stroke="#1F1F1F" stroke-width="5"/>
<path d="M644 1056C644 1036.12 660.118 1020 680 1020V1020C699.882 1020 716 1036.12 716 1056V1056C716 1075.88 699.882 1092 680 1092V1092C660.118 1092 644 1075.88 644 1056V1056Z" stroke="#1F1F1F" stroke-width="5"/>
<path d="M736 1056C736 1036.12 752.118 1020 772 1020V1020C791.882 1020 808 1036.12 808 1056V1056C808 1075.88 791.882 1092 772 1092V1092C752.118 1092 736 1075.88 736 1056V1056Z" stroke="#1F1F1F" stroke-width="5"/>
<path d="M828 1056C828 1036.12 844.118 1020 864 1020V1020C883.882 1020 900 1036.12 900 1056V1056C900 1075.88 883.882 1092 864 1092V1092C844.118 1092 828 1075.88 828 1056V1056Z" stroke="#1F1F1F" stroke-width="5"/>
<path d="M920 1056C920 1036.12 936.118 1020 956 1020V1020C975.882 1020 992 1036.12 992 1056V1056C992 1075.88 975.882 1092 956 1092V1092C936.118 1092 920 1075.88 920 1056V1056Z" stroke="#1F1F1F" stroke-width="5"/>
<path d="M1012 1056C1012 1036.12 1028.12 1020 1048 1020V1020C1067.88 1020 1084 1036.12 1084 1056V1056C1084 1075.88 1067.88 1092 1048 1092V1092C1028.12 1092 1012 1075.88 1012 1056V1056Z" stroke="#1F1F1F" stroke-width="5"/>
<path d="M1104 1056C1104 1036.12 1120.12 1020 1140 1020V1020C1159.88 1020 1176 1036.12 1176 1056V1056C1176 1075.88 1159.88 1092 1140 1092V1092C1120.12 1092 1104 1075.88 1104 1056V1056Z" stroke="#1F1F1F" stroke-width="5"/>
<path d="M1196 1056C1196 1036.12 1212.12 1020 1232 1020V1020C1251.88 1020 1268 1036.12 1268 1056V1056C1268 1075.88 1251.88 1092 1232 1092V1092C1212.12 1092 1196 1075.88 1196 1056V1056Z" stroke="#1F1F1F" stroke-width="5"/>
<path d="M1288 1056C1288 1036.12 1304.12 1020 1324 1020V1020C1343.88 1020 1360 1036.12 1360 1056V1056C1360 1075.88 1343.88 1092 1324 1092V1092C1304.12 1092 1288 1075.88 1288 1056V1056Z" stroke="#1F1F1F" stroke-width="5"/>
<path d="M1380 1056C1380 1036.12 1396.12 1020 1416 1020V1020C1435.88 1020 1452 1036.12 1452 1056V1056C1452 1075.88 1435.88 1092 1416 1092V1092C1396.12 1092 1380 1075.88 1380 1056V1056Z" stroke="#1F1F1F" stroke-width="5"/>
<path d="M1472 1056C1472 1036.12 1488.12 1020 1508 1020V1020C1527.88 1020 1544 1036.12 1544 1056V1056C1544 1075.88 1527.88 1092 1508 1092V1092C1488.12 1092 1472 1075.88 1472 1056V1056Z" stroke="#1F1F1F" stroke-width="5"/>
<path d="M1564 1056C1564 1036.12 1580.12 1020 1600 1020V1020C1619.88 1020 1636 1036.12 1636 1056V1056C1636 1075.88 1619.88 1092 1600 1092V1092C1580.12 1092 1564 1075.88 1564 1056V1056Z" stroke="#1F1F1F" stroke-width="5"/>
<path d="M1656 1056C1656 1036.12 1672.12 1020 1692 1020V1020C1711.88 1020 1728 1036.12 1728 1056V1056C1728 1075.88 1711.88 1092 1692 1092V1092C1672.12 1092 1656 1075.88 1656 1056V1056Z" stroke="#1F1F1F" stroke-width="5"/>
<path d="M0 96C0 76.1177 16.1177 60 36 60V60C55.8823 60 72 76.1177 72 96V96C72 115.882 55.8823 132 36 132V132C16.1177 132 0 115.882 0 96V96Z" stroke="#1F1F1F" stroke-width="5"/>
<path d="M92 96C92 76.1177 108.118 60 128 60V60C147.882 60 164 76.1177 164 96V96C164 115.882 147.882 132 128 132V132C108.118 132 92 115.882 92 96V96Z" stroke="#1F1F1F" stroke-width="5"/>
<path d="M184 96C184 76.1177 200.118 60 220 60V60C239.882 60 256 76.1177 256 96V96C256 115.882 239.882 132 220 132V132C200.118 132 184 115.882 184 96V96Z" stroke="#1F1F1F" stroke-width="5"/>
<path d="M276 96C276 76.1177 292.118 60 312 60V60C331.882 60 348 76.1177 348 96V96C348 115.882 331.882 132 312 132V132C292.118 132 276 115.882 276 96V96Z" stroke="#1F1F1F" stroke-width="5"/>
<path d="M368 96C368 76.1177 384.118 60 404 60V60C423.882 60 440 76.1177 440 96V96C440 115.882 423.882 132 404 132V132C384.118 132 368 115.882 368 96V96Z" stroke="#1F1F1F" stroke-width="5"/>
<path d="M460 96C460 76.1177 476.118 60 496 60V60C515.882 60 532 76.1177 532 96V96C532 115.882 515.882 132 496 132V132C476.118 132 460 115.882 460 96V96Z" stroke="#1F1F1F" stroke-width="5"/>
<path d="M552 96C552 76.1177 568.118 60 588 60V60C607.882 60 624 76.1177 624 96V96C624 115.882 607.882 132 588 132V132C568.118 132 552 115.882 552 96V96Z" stroke="#1F1F1F" stroke-width="5"/>
<path d="M644 96C644 76.1177 660.118 60 680 60V60C699.882 60 716 76.1177 716 96V96C716 115.882 699.882 132 680 132V132C660.118 132 644 115.882 644 96V96Z" stroke="#1F1F1F" stroke-width="5"/>
<path d="M736 96C736 76.1177 752.118 60 772 60V60C791.882 60 808 76.1177 808 96V96C808 115.882 791.882 132 772 132V132C752.118 132 736 115.882 736 96V96Z" stroke="#1F1F1F" stroke-width="5"/>
<path d="M828 96C828 76.1177 844.118 60 864 60V60C883.882 60 900 76.1177 900 96V96C900 115.882 883.882 132 864 132V132C844.118 132 828 115.882 828 96V96Z" stroke="#1F1F1F" stroke-width="5"/>
<path d="M920 96C920 76.1177 936.118 60 956 60V60C975.882 60 992 76.1177 992 96V96C992 115.882 975.882 132 956 132V132C936.118 132 920 115.882 920 96V96Z" stroke="#1F1F1F" stroke-width="5"/>
<path d="M1012 96C1012 76.1177 1028.12 60 1048 60V60C1067.88 60 1084 76.1177 1084 96V96C1084 115.882 1067.88 132 1048 132V132C1028.12 132 1012 115.882 1012 96V96Z" stroke="#1F1F1F" stroke-width="5"/>
<path d="M1104 96C1104 76.1177 1120.12 60 1140 60V60C1159.88 60 1176 76.1177 1176 96V96C1176 115.882 1159.88 132 1140 132V132C1120.12 132 1104 115.882 1104 96V96Z" stroke="#1F1F1F" stroke-width="5"/>
<path d="M1196 96C1196 76.1177 1212.12 60 1232 60V60C1251.88 60 1268 76.1177 1268 96V96C1268 115.882 1251.88 132 1232 132V132C1212.12 132 1196 115.882 1196 96V96Z" stroke="#1F1F1F" stroke-width="5"/>
<path d="M1288 96C1288 76.1177 1304.12 60 1324 60V60C1343.88 60 1360 76.1177 1360 96V96C1360 115.882 1343.88 132 1324 132V132C1304.12 132 1288 115.882 1288 96V96Z" stroke="#1F1F1F" stroke-width="5"/>
<path d="M1380 96C1380 76.1177 1396.12 60 1416 60V60C1435.88 60 1452 76.1177 1452 96V96C1452 115.882 1435.88 132 1416 132V132C1396.12 132 1380 115.882 1380 96V96Z" stroke="#1F1F1F" stroke-width="5"/>
<path d="M1472 96C1472 76.1177 1488.12 60 1508 60V60C1527.88 60 1544 76.1177 1544 96V96C1544 115.882 1527.88 132 1508 132V132C1488.12 132 1472 115.882 1472 96V96Z" stroke="#1F1F1F" stroke-width="5"/>
<path d="M1564 96C1564 76.1177 1580.12 60 1600 60V60C1619.88 60 1636 76.1177 1636 96V96C1636 115.882 1619.88 132 1600 132V132C1580.12 132 1564 115.882 1564 96V96Z" stroke="#1F1F1F" stroke-width="5"/>
<path d="M1656 96C1656 76.1177 1672.12 60 1692 60V60C1711.88 60 1728 76.1177 1728 96V96C1728 115.882 1711.88 132 1692 132V132C1672.12 132 1656 115.882 1656 96V96Z" stroke="#1F1F1F" stroke-width="5"/>
<path d="M0 1152C0 1132.12 16.1177 1116 36 1116V1116C55.8823 1116 72 1132.12 72 1152V1152C72 1171.88 55.8823 1188 36 1188V1188C16.1177 1188 0 1171.88 0 1152V1152Z" stroke="#1F1F1F" stroke-width="5"/>
<path d="M92 1152C92 1132.12 108.118 1116 128 1116V1116C147.882 1116 164 1132.12 164 1152V1152C164 1171.88 147.882 1188 128 1188V1188C108.118 1188 92 1171.88 92 1152V1152Z" stroke="#1F1F1F" stroke-width="5"/>
<path d="M184 1152C184 1132.12 200.118 1116 220 1116V1116C239.882 1116 256 1132.12 256 1152V1152C256 1171.88 239.882 1188 220 1188V1188C200.118 1188 184 1171.88 184 1152V1152Z" stroke="#1F1F1F" stroke-width="5"/>
<path d="M276 1152C276 1132.12 292.118 1116 312 1116V1116C331.882 1116 348 1132.12 348 1152V1152C348 1171.88 331.882 1188 312 1188V1188C292.118 1188 276 1171.88 276 1152V1152Z" stroke="#1F1F1F" stroke-width="5"/>
<path d="M368 1152C368 1132.12 384.118 1116 404 1116V1116C423.882 1116 440 1132.12 440 1152V1152C440 1171.88 423.882 1188 404 1188V1188C384.118 1188 368 1171.88 368 1152V1152Z" stroke="#1F1F1F" stroke-width="5"/>
<path d="M460 1152C460 1132.12 476.118 1116 496 1116V1116C515.882 1116 532 1132.12 532 1152V1152C532 1171.88 515.882 1188 496 1188V1188C476.118 1188 460 1171.88 460 1152V1152Z" stroke="#1F1F1F" stroke-width="5"/>
<path d="M552 1152C552 1132.12 568.118 1116 588 1116V1116C607.882 1116 624 1132.12 624 1152V1152C624 1171.88 607.882 1188 588 1188V1188C568.118 1188 552 1171.88 552 1152V1152Z" stroke="#1F1F1F" stroke-width="5"/>
<path d="M644 1152C644 1132.12 660.118 1116 680 1116V1116C699.882 1116 716 1132.12 716 1152V1152C716 1171.88 699.882 1188 680 1188V1188C660.118 1188 644 1171.88 644 1152V1152Z" stroke="#1F1F1F" stroke-width="5"/>
<path d="M736 1152C736 1132.12 752.118 1116 772 1116V1116C791.882 1116 808 1132.12 808 1152V1152C808 1171.88 791.882 1188 772 1188V1188C752.118 1188 736 1171.88 736 1152V1152Z" stroke="#1F1F1F" stroke-width="5"/>
<path d="M828 1152C828 1132.12 844.118 1116 864 1116V1116C883.882 1116 900 1132.12 900 1152V1152C900 1171.88 883.882 1188 864 1188V1188C844.118 1188 828 1171.88 828 1152V1152Z" stroke="#1F1F1F" stroke-width="5"/>
<path d="M920 1152C920 1132.12 936.118 1116 956 1116V1116C975.882 1116 992 1132.12 992 1152V1152C992 1171.88 975.882 1188 956 1188V1188C936.118 1188 920 1171.88 920 1152V1152Z" stroke="#1F1F1F" stroke-width="5"/>
<path d="M1012 1152C1012 1132.12 1028.12 1116 1048 1116V1116C1067.88 1116 1084 1132.12 1084 1152V1152C1084 1171.88 1067.88 1188 1048 1188V1188C1028.12 1188 1012 1171.88 1012 1152V1152Z" stroke="#1F1F1F" stroke-width="5"/>
<path d="M1104 1152C1104 1132.12 1120.12 1116 1140 1116V1116C1159.88 1116 1176 1132.12 1176 1152V1152C1176 1171.88 1159.88 1188 1140 1188V1188C1120.12 1188 1104 1171.88 1104 1152V1152Z" stroke="#1F1F1F" stroke-width="5"/>
<path d="M1196 1152C1196 1132.12 1212.12 1116 1232 1116V1116C1251.88 1116 1268 1132.12 1268 1152V1152C1268 1171.88 1251.88 1188 1232 1188V1188C1212.12 1188 1196 1171.88 1196 1152V1152Z" stroke="#1F1F1F" stroke-width="5"/>
<path d="M1288 1152C1288 1132.12 1304.12 1116 1324 1116V1116C1343.88 1116 1360 1132.12 1360 1152V1152C1360 1171.88 1343.88 1188 1324 1188V1188C1304.12 1188 1288 1171.88 1288 1152V1152Z" stroke="#1F1F1F" stroke-width="5"/>
<path d="M1380 1152C1380 1132.12 1396.12 1116 1416 1116V1116C1435.88 1116 1452 1132.12 1452 1152V1152C1452 1171.88 1435.88 1188 1416 1188V1188C1396.12 1188 1380 1171.88 1380 1152V1152Z" stroke="#1F1F1F" stroke-width="5"/>
<path d="M1472 1152C1472 1132.12 1488.12 1116 1508 1116V1116C1527.88 1116 1544 1132.12 1544 1152V1152C1544 1171.88 1527.88 1188 1508 1188V1188C1488.12 1188 1472 1171.88 1472 1152V1152Z" stroke="#1F1F1F" stroke-width="5"/>
<path d="M1564 1152C1564 1132.12 1580.12 1116 1600 1116V1116C1619.88 1116 1636 1132.12 1636 1152V1152C1636 1171.88 1619.88 1188 1600 1188V1188C1580.12 1188 1564 1171.88 1564 1152V1152Z" stroke="#1F1F1F" stroke-width="5"/>
<path d="M1656 1152C1656 1132.12 1672.12 1116 1692 1116V1116C1711.88 1116 1728 1132.12 1728 1152V1152C1728 1171.88 1711.88 1188 1692 1188V1188C1672.12 1188 1656 1171.88 1656 1152V1152Z" stroke="#1F1F1F" stroke-width="5"/>
<path d="M0 192C0 172.118 16.1177 156 36 156V156C55.8823 156 72 172.118 72 192V192C72 211.882 55.8823 228 36 228V228C16.1177 228 0 211.882 0 192V192Z" stroke="#1F1F1F" stroke-width="5"/>
<path d="M92 192C92 172.118 108.118 156 128 156V156C147.882 156 164 172.118 164 192V192C164 211.882 147.882 228 128 228V228C108.118 228 92 211.882 92 192V192Z" stroke="#1F1F1F" stroke-width="5"/>
<path d="M184 192C184 172.118 200.118 156 220 156V156C239.882 156 256 172.118 256 192V192C256 211.882 239.882 228 220 228V228C200.118 228 184 211.882 184 192V192Z" stroke="#1F1F1F" stroke-width="5"/>
<path d="M276 192C276 172.118 292.118 156 312 156V156C331.882 156 348 172.118 348 192V192C348 211.882 331.882 228 312 228V228C292.118 228 276 211.882 276 192V192Z" stroke="#1F1F1F" stroke-width="5"/>
<path d="M368 192C368 172.118 384.118 156 404 156V156C423.882 156 440 172.118 440 192V192C440 211.882 423.882 228 404 228V228C384.118 228 368 211.882 368 192V192Z" stroke="#1F1F1F" stroke-width="5"/>
<path d="M460 192C460 172.118 476.118 156 496 156V156C515.882 156 532 172.118 532 192V192C532 211.882 515.882 228 496 228V228C476.118 228 460 211.882 460 192V192Z" stroke="#1F1F1F" stroke-width="5"/>
<path d="M552 192C552 172.118 568.118 156 588 156V156C607.882 156 624 172.118 624 192V192C624 211.882 607.882 228 588 228V228C568.118 228 552 211.882 552 192V192Z" stroke="#1F1F1F" stroke-width="5"/>
<path d="M644 192C644 172.118 660.118 156 680 156V156C699.882 156 716 172.118 716 192V192C716 211.882 699.882 228 680 228V228C660.118 228 644 211.882 644 192V192Z" stroke="#1F1F1F" stroke-width="5"/>
<path d="M736 192C736 172.118 752.118 156 772 156V156C791.882 156 808 172.118 808 192V192C808 211.882 791.882 228 772 228V228C752.118 228 736 211.882 736 192V192Z" stroke="#1F1F1F" stroke-width="5"/>
<path d="M828 192C828 172.118 844.118 156 864 156V156C883.882 156 900 172.118 900 192V192C900 211.882 883.882 228 864 228V228C844.118 228 828 211.882 828 192V192Z" stroke="#1F1F1F" stroke-width="5"/>
<path d="M920 192C920 172.118 936.118 156 956 156V156C975.882 156 992 172.118 992 192V192C992 211.882 975.882 228 956 228V228C936.118 228 920 211.882 920 192V192Z" stroke="#1F1F1F" stroke-width="5"/>
<path d="M1012 192C1012 172.118 1028.12 156 1048 156V156C1067.88 156 1084 172.118 1084 192V192C1084 211.882 1067.88 228 1048 228V228C1028.12 228 1012 211.882 1012 192V192Z" stroke="#1F1F1F" stroke-width="5"/>
<path d="M1104 192C1104 172.118 1120.12 156 1140 156V156C1159.88 156 1176 172.118 1176 192V192C1176 211.882 1159.88 228 1140 228V228C1120.12 228 1104 211.882 1104 192V192Z" stroke="#1F1F1F" stroke-width="5"/>
<path d="M1196 192C1196 172.118 1212.12 156 1232 156V156C1251.88 156 1268 172.118 1268 192V192C1268 211.882 1251.88 228 1232 228V228C1212.12 228 1196 211.882 1196 192V192Z" stroke="#1F1F1F" stroke-width="5"/>
<path d="M1288 192C1288 172.118 1304.12 156 1324 156V156C1343.88 156 1360 172.118 1360 192V192C1360 211.882 1343.88 228 1324 228V228C1304.12 228 1288 211.882 1288 192V192Z" stroke="#1F1F1F" stroke-width="5"/>
<path d="M1380 192C1380 172.118 1396.12 156 1416 156V156C1435.88 156 1452 172.118 1452 192V192C1452 211.882 1435.88 228 1416 228V228C1396.12 228 1380 211.882 1380 192V192Z" stroke="#1F1F1F" stroke-width="5"/>
<path d="M1472 192C1472 172.118 1488.12 156 1508 156V156C1527.88 156 1544 172.118 1544 192V192C1544 211.882 1527.88 228 1508 228V228C1488.12 228 1472 211.882 1472 192V192Z" stroke="#1F1F1F" stroke-width="5"/>
<path d="M1564 192C1564 172.118 1580.12 156 1600 156V156C1619.88 156 1636 172.118 1636 192V192C1636 211.882 1619.88 228 1600 228V228C1580.12 228 1564 211.882 1564 192V192Z" stroke="#1F1F1F" stroke-width="5"/>
<path d="M1656 192C1656 172.118 1672.12 156 1692 156V156C1711.88 156 1728 172.118 1728 192V192C1728 211.882 1711.88 228 1692 228V228C1672.12 228 1656 211.882 1656 192V192Z" stroke="#1F1F1F" stroke-width="5"/>
<path d="M0 1248C0 1228.12 16.1177 1212 36 1212V1212C55.8823 1212 72 1228.12 72 1248V1248C72 1267.88 55.8823 1284 36 1284V1284C16.1177 1284 0 1267.88 0 1248V1248Z" stroke="#1F1F1F" stroke-width="5"/>
<path d="M92 1248C92 1228.12 108.118 1212 128 1212V1212C147.882 1212 164 1228.12 164 1248V1248C164 1267.88 147.882 1284 128 1284V1284C108.118 1284 92 1267.88 92 1248V1248Z" stroke="#1F1F1F" stroke-width="5"/>
<path d="M184 1248C184 1228.12 200.118 1212 220 1212V1212C239.882 1212 256 1228.12 256 1248V1248C256 1267.88 239.882 1284 220 1284V1284C200.118 1284 184 1267.88 184 1248V1248Z" stroke="#1F1F1F" stroke-width="5"/>
<path d="M276 1248C276 1228.12 292.118 1212 312 1212V1212C331.882 1212 348 1228.12 348 1248V1248C348 1267.88 331.882 1284 312 1284V1284C292.118 1284 276 1267.88 276 1248V1248Z" stroke="#1F1F1F" stroke-width="5"/>
<path d="M368 1248C368 1228.12 384.118 1212 404 1212V1212C423.882 1212 440 1228.12 440 1248V1248C440 1267.88 423.882 1284 404 1284V1284C384.118 1284 368 1267.88 368 1248V1248Z" stroke="#1F1F1F" stroke-width="5"/>
<path d="M460 1248C460 1228.12 476.118 1212 496 1212V1212C515.882 1212 532 1228.12 532 1248V1248C532 1267.88 515.882 1284 496 1284V1284C476.118 1284 460 1267.88 460 1248V1248Z" stroke="#1F1F1F" stroke-width="5"/>
<path d="M552 1248C552 1228.12 568.118 1212 588 1212V1212C607.882 1212 624 1228.12 624 1248V1248C624 1267.88 607.882 1284 588 1284V1284C568.118 1284 552 1267.88 552 1248V1248Z" stroke="#1F1F1F" stroke-width="5"/>
<path d="M644 1248C644 1228.12 660.118 1212 680 1212V1212C699.882 1212 716 1228.12 716 1248V1248C716 1267.88 699.882 1284 680 1284V1284C660.118 1284 644 1267.88 644 1248V1248Z" stroke="#1F1F1F" stroke-width="5"/>
<path d="M736 1248C736 1228.12 752.118 1212 772 1212V1212C791.882 1212 808 1228.12 808 1248V1248C808 1267.88 791.882 1284 772 1284V1284C752.118 1284 736 1267.88 736 1248V1248Z" stroke="#1F1F1F" stroke-width="5"/>
<path d="M828 1248C828 1228.12 844.118 1212 864 1212V1212C883.882 1212 900 1228.12 900 1248V1248C900 1267.88 883.882 1284 864 1284V1284C844.118 1284 828 1267.88 828 1248V1248Z" stroke="#1F1F1F" stroke-width="5"/>
<path d="M920 1248C920 1228.12 936.118 1212 956 1212V1212C975.882 1212 992 1228.12 992 1248V1248C992 1267.88 975.882 1284 956 1284V1284C936.118 1284 920 1267.88 920 1248V1248Z" stroke="#1F1F1F" stroke-width="5"/>
<path d="M1012 1248C1012 1228.12 1028.12 1212 1048 1212V1212C1067.88 1212 1084 1228.12 1084 1248V1248C1084 1267.88 1067.88 1284 1048 1284V1284C1028.12 1284 1012 1267.88 1012 1248V1248Z" stroke="#1F1F1F" stroke-width="5"/>
<path d="M1104 1248C1104 1228.12 1120.12 1212 1140 1212V1212C1159.88 1212 1176 1228.12 1176 1248V1248C1176 1267.88 1159.88 1284 1140 1284V1284C1120.12 1284 1104 1267.88 1104 1248V1248Z" stroke="#1F1F1F" stroke-width="5"/>
<path d="M1196 1248C1196 1228.12 1212.12 1212 1232 1212V1212C1251.88 1212 1268 1228.12 1268 1248V1248C1268 1267.88 1251.88 1284 1232 1284V1284C1212.12 1284 1196 1267.88 1196 1248V1248Z" stroke="#1F1F1F" stroke-width="5"/>
<path d="M1288 1248C1288 1228.12 1304.12 1212 1324 1212V1212C1343.88 1212 1360 1228.12 1360 1248V1248C1360 1267.88 1343.88 1284 1324 1284V1284C1304.12 1284 1288 1267.88 1288 1248V1248Z" stroke="#1F1F1F" stroke-width="5"/>
<path d="M1380 1248C1380 1228.12 1396.12 1212 1416 1212V1212C1435.88 1212 1452 1228.12 1452 1248V1248C1452 1267.88 1435.88 1284 1416 1284V1284C1396.12 1284 1380 1267.88 1380 1248V1248Z" stroke="#1F1F1F" stroke-width="5"/>
<path d="M1472 1248C1472 1228.12 1488.12 1212 1508 1212V1212C1527.88 1212 1544 1228.12 1544 1248V1248C1544 1267.88 1527.88 1284 1508 1284V1284C1488.12 1284 1472 1267.88 1472 1248V1248Z" stroke="#1F1F1F" stroke-width="5"/>
<path d="M1564 1248C1564 1228.12 1580.12 1212 1600 1212V1212C1619.88 1212 1636 1228.12 1636 1248V1248C1636 1267.88 1619.88 1284 1600 1284V1284C1580.12 1284 1564 1267.88 1564 1248V1248Z" stroke="#1F1F1F" stroke-width="5"/>
<path d="M1656 1248C1656 1228.12 1672.12 1212 1692 1212V1212C1711.88 1212 1728 1228.12 1728 1248V1248C1728 1267.88 1711.88 1284 1692 1284V1284C1672.12 1284 1656 1267.88 1656 1248V1248Z" stroke="#1F1F1F" stroke-width="5"/>
<path d="M0 288C0 268.118 16.1177 252 36 252V252C55.8823 252 72 268.118 72 288V288C72 307.882 55.8823 324 36 324V324C16.1177 324 0 307.882 0 288V288Z" stroke="#1F1F1F" stroke-width="5"/>
<path d="M92 288C92 268.118 108.118 252 128 252V252C147.882 252 164 268.118 164 288V288C164 307.882 147.882 324 128 324V324C108.118 324 92 307.882 92 288V288Z" stroke="#1F1F1F" stroke-width="5"/>
<path d="M184 288C184 268.118 200.118 252 220 252V252C239.882 252 256 268.118 256 288V288C256 307.882 239.882 324 220 324V324C200.118 324 184 307.882 184 288V288Z" stroke="#1F1F1F" stroke-width="5"/>
<path d="M276 288C276 268.118 292.118 252 312 252V252C331.882 252 348 268.118 348 288V288C348 307.882 331.882 324 312 324V324C292.118 324 276 307.882 276 288V288Z" stroke="#1F1F1F" stroke-width="5"/>
<path d="M368 288C368 268.118 384.118 252 404 252V252C423.882 252 440 268.118 440 288V288C440 307.882 423.882 324 404 324V324C384.118 324 368 307.882 368 288V288Z" stroke="#1F1F1F" stroke-width="5"/>
<path d="M460 288C460 268.118 476.118 252 496 252V252C515.882 252 532 268.118 532 288V288C532 307.882 515.882 324 496 324V324C476.118 324 460 307.882 460 288V288Z" stroke="#1F1F1F" stroke-width="5"/>
<path d="M552 288C552 268.118 568.118 252 588 252V252C607.882 252 624 268.118 624 288V288C624 307.882 607.882 324 588 324V324C568.118 324 552 307.882 552 288V288Z" stroke="#1F1F1F" stroke-width="5"/>
<path d="M644 288C644 268.118 660.118 252 680 252V252C699.882 252 716 268.118 716 288V288C716 307.882 699.882 324 680 324V324C660.118 324 644 307.882 644 288V288Z" stroke="#1F1F1F" stroke-width="5"/>
<path d="M736 288C736 268.118 752.118 252 772 252V252C791.882 252 808 268.118 808 288V288C808 307.882 791.882 324 772 324V324C752.118 324 736 307.882 736 288V288Z" stroke="#1F1F1F" stroke-width="5"/>
<path d="M828 288C828 268.118 844.118 252 864 252V252C883.882 252 900 268.118 900 288V288C900 307.882 883.882 324 864 324V324C844.118 324 828 307.882 828 288V288Z" stroke="#1F1F1F" stroke-width="5"/>
<path d="M920 288C920 268.118 936.118 252 956 252V252C975.882 252 992 268.118 992 288V288C992 307.882 975.882 324 956 324V324C936.118 324 920 307.882 920 288V288Z" stroke="#1F1F1F" stroke-width="5"/>
<path d="M1012 288C1012 268.118 1028.12 252 1048 252V252C1067.88 252 1084 268.118 1084 288V288C1084 307.882 1067.88 324 1048 324V324C1028.12 324 1012 307.882 1012 288V288Z" stroke="#1F1F1F" stroke-width="5"/>
<path d="M1104 288C1104 268.118 1120.12 252 1140 252V252C1159.88 252 1176 268.118 1176 288V288C1176 307.882 1159.88 324 1140 324V324C1120.12 324 1104 307.882 1104 288V288Z" stroke="#1F1F1F" stroke-width="5"/>
<path d="M1196 288C1196 268.118 1212.12 252 1232 252V252C1251.88 252 1268 268.118 1268 288V288C1268 307.882 1251.88 324 1232 324V324C1212.12 324 1196 307.882 1196 288V288Z" stroke="#1F1F1F" stroke-width="5"/>
<path d="M1288 288C1288 268.118 1304.12 252 1324 252V252C1343.88 252 1360 268.118 1360 288V288C1360 307.882 1343.88 324 1324 324V324C1304.12 324 1288 307.882 1288 288V288Z" stroke="#1F1F1F" stroke-width="5"/>
<path d="M1380 288C1380 268.118 1396.12 252 1416 252V252C1435.88 252 1452 268.118 1452 288V288C1452 307.882 1435.88 324 1416 324V324C1396.12 324 1380 307.882 1380 288V288Z" stroke="#1F1F1F" stroke-width="5"/>
<path d="M1472 288C1472 268.118 1488.12 252 1508 252V252C1527.88 252 1544 268.118 1544 288V288C1544 307.882 1527.88 324 1508 324V324C1488.12 324 1472 307.882 1472 288V288Z" stroke="#1F1F1F" stroke-width="5"/>
<path d="M1564 288C1564 268.118 1580.12 252 1600 252V252C1619.88 252 1636 268.118 1636 288V288C1636 307.882 1619.88 324 1600 324V324C1580.12 324 1564 307.882 1564 288V288Z" stroke="#1F1F1F" stroke-width="5"/>
<path d="M1656 288C1656 268.118 1672.12 252 1692 252V252C1711.88 252 1728 268.118 1728 288V288C1728 307.882 1711.88 324 1692 324V324C1672.12 324 1656 307.882 1656 288V288Z" stroke="#1F1F1F" stroke-width="5"/>
<path d="M0 1344C0 1324.12 16.1177 1308 36 1308V1308C55.8823 1308 72 1324.12 72 1344V1344C72 1363.88 55.8823 1380 36 1380V1380C16.1177 1380 0 1363.88 0 1344V1344Z" stroke="#1F1F1F" stroke-width="5"/>
<path d="M92 1344C92 1324.12 108.118 1308 128 1308V1308C147.882 1308 164 1324.12 164 1344V1344C164 1363.88 147.882 1380 128 1380V1380C108.118 1380 92 1363.88 92 1344V1344Z" stroke="#1F1F1F" stroke-width="5"/>
<path d="M184 1344C184 1324.12 200.118 1308 220 1308V1308C239.882 1308 256 1324.12 256 1344V1344C256 1363.88 239.882 1380 220 1380V1380C200.118 1380 184 1363.88 184 1344V1344Z" stroke="#1F1F1F" stroke-width="5"/>
<path d="M276 1344C276 1324.12 292.118 1308 312 1308V1308C331.882 1308 348 1324.12 348 1344V1344C348 1363.88 331.882 1380 312 1380V1380C292.118 1380 276 1363.88 276 1344V1344Z" stroke="#1F1F1F" stroke-width="5"/>
<path d="M368 1344C368 1324.12 384.118 1308 404 1308V1308C423.882 1308 440 1324.12 440 1344V1344C440 1363.88 423.882 1380 404 1380V1380C384.118 1380 368 1363.88 368 1344V1344Z" stroke="#1F1F1F" stroke-width="5"/>
<path d="M460 1344C460 1324.12 476.118 1308 496 1308V1308C515.882 1308 532 1324.12 532 1344V1344C532 1363.88 515.882 1380 496 1380V1380C476.118 1380 460 1363.88 460 1344V1344Z" stroke="#1F1F1F" stroke-width="5"/>
<path d="M552 1344C552 1324.12 568.118 1308 588 1308V1308C607.882 1308 624 1324.12 624 1344V1344C624 1363.88 607.882 1380 588 1380V1380C568.118 1380 552 1363.88 552 1344V1344Z" stroke="#1F1F1F" stroke-width="5"/>
<path d="M644 1344C644 1324.12 660.118 1308 680 1308V1308C699.882 1308 716 1324.12 716 1344V1344C716 1363.88 699.882 1380 680 1380V1380C660.118 1380 644 1363.88 644 1344V1344Z" stroke="#1F1F1F" stroke-width="5"/>
<path d="M736 1344C736 1324.12 752.118 1308 772 1308V1308C791.882 1308 808 1324.12 808 1344V1344C808 1363.88 791.882 1380 772 1380V1380C752.118 1380 736 1363.88 736 1344V1344Z" stroke="#1F1F1F" stroke-width="5"/>
<path d="M828 1344C828 1324.12 844.118 1308 864 1308V1308C883.882 1308 900 1324.12 900 1344V1344C900 1363.88 883.882 1380 864 1380V1380C844.118 1380 828 1363.88 828 1344V1344Z" stroke="#1F1F1F" stroke-width="5"/>
<path d="M920 1344C920 1324.12 936.118 1308 956 1308V1308C975.882 1308 992 1324.12 992 1344V1344C992 1363.88 975.882 1380 956 1380V1380C936.118 1380 920 1363.88 920 1344V1344Z" stroke="#1F1F1F" stroke-width="5"/>
<path d="M1012 1344C1012 1324.12 1028.12 1308 1048 1308V1308C1067.88 1308 1084 1324.12 1084 1344V1344C1084 1363.88 1067.88 1380 1048 1380V1380C1028.12 1380 1012 1363.88 1012 1344V1344Z" stroke="#1F1F1F" stroke-width="5"/>
<path d="M1104 1344C1104 1324.12 1120.12 1308 1140 1308V1308C1159.88 1308 1176 1324.12 1176 1344V1344C1176 1363.88 1159.88 1380 1140 1380V1380C1120.12 1380 1104 1363.88 1104 1344V1344Z" stroke="#1F1F1F" stroke-width="5"/>
<path d="M1196 1344C1196 1324.12 1212.12 1308 1232 1308V1308C1251.88 1308 1268 1324.12 1268 1344V1344C1268 1363.88 1251.88 1380 1232 1380V1380C1212.12 1380 1196 1363.88 1196 1344V1344Z" stroke="#1F1F1F" stroke-width="5"/>
<path d="M1288 1344C1288 1324.12 1304.12 1308 1324 1308V1308C1343.88 1308 1360 1324.12 1360 1344V1344C1360 1363.88 1343.88 1380 1324 1380V1380C1304.12 1380 1288 1363.88 1288 1344V1344Z" stroke="#1F1F1F" stroke-width="5"/>
<path d="M1380 1344C1380 1324.12 1396.12 1308 1416 1308V1308C1435.88 1308 1452 1324.12 1452 1344V1344C1452 1363.88 1435.88 1380 1416 1380V1380C1396.12 1380 1380 1363.88 1380 1344V1344Z" stroke="#1F1F1F" stroke-width="5"/>
<path d="M1472 1344C1472 1324.12 1488.12 1308 1508 1308V1308C1527.88 1308 1544 1324.12 1544 1344V1344C1544 1363.88 1527.88 1380 1508 1380V1380C1488.12 1380 1472 1363.88 1472 1344V1344Z" stroke="#1F1F1F" stroke-width="5"/>
<path d="M1564 1344C1564 1324.12 1580.12 1308 1600 1308V1308C1619.88 1308 1636 1324.12 1636 1344V1344C1636 1363.88 1619.88 1380 1600 1380V1380C1580.12 1380 1564 1363.88 1564 1344V1344Z" stroke="#1F1F1F" stroke-width="5"/>
<path d="M1656 1344C1656 1324.12 1672.12 1308 1692 1308V1308C1711.88 1308 1728 1324.12 1728 1344V1344C1728 1363.88 1711.88 1380 1692 1380V1380C1672.12 1380 1656 1363.88 1656 1344V1344Z" stroke="#1F1F1F" stroke-width="5"/>
<path d="M0 384C0 364.118 16.1177 348 36 348V348C55.8823 348 72 364.118 72 384V384C72 403.882 55.8823 420 36 420V420C16.1177 420 0 403.882 0 384V384Z" stroke="#1F1F1F" stroke-width="5"/>
<path d="M92 384C92 364.118 108.118 348 128 348V348C147.882 348 164 364.118 164 384V384C164 403.882 147.882 420 128 420V420C108.118 420 92 403.882 92 384V384Z" stroke="#1F1F1F" stroke-width="5"/>
<path d="M184 384C184 364.118 200.118 348 220 348V348C239.882 348 256 364.118 256 384V384C256 403.882 239.882 420 220 420V420C200.118 420 184 403.882 184 384V384Z" stroke="#1F1F1F" stroke-width="5"/>
<path d="M276 384C276 364.118 292.118 348 312 348V348C331.882 348 348 364.118 348 384V384C348 403.882 331.882 420 312 420V420C292.118 420 276 403.882 276 384V384Z" stroke="#1F1F1F" stroke-width="5"/>
<path d="M368 384C368 364.118 384.118 348 404 348V348C423.882 348 440 364.118 440 384V384C440 403.882 423.882 420 404 420V420C384.118 420 368 403.882 368 384V384Z" stroke="#1F1F1F" stroke-width="5"/>
<path d="M460 384C460 364.118 476.118 348 496 348V348C515.882 348 532 364.118 532 384V384C532 403.882 515.882 420 496 420V420C476.118 420 460 403.882 460 384V384Z" stroke="#1F1F1F" stroke-width="5"/>
<path d="M552 384C552 364.118 568.118 348 588 348V348C607.882 348 624 364.118 624 384V384C624 403.882 607.882 420 588 420V420C568.118 420 552 403.882 552 384V384Z" stroke="#1F1F1F" stroke-width="5"/>
<path d="M644 384C644 364.118 660.118 348 680 348V348C699.882 348 716 364.118 716 384V384C716 403.882 699.882 420 680 420V420C660.118 420 644 403.882 644 384V384Z" stroke="#1F1F1F" stroke-width="5"/>
<path d="M736 384C736 364.118 752.118 348 772 348V348C791.882 348 808 364.118 808 384V384C808 403.882 791.882 420 772 420V420C752.118 420 736 403.882 736 384V384Z" stroke="#1F1F1F" stroke-width="5"/>
<path d="M828 384C828 364.118 844.118 348 864 348V348C883.882 348 900 364.118 900 384V384C900 403.882 883.882 420 864 420V420C844.118 420 828 403.882 828 384V384Z" stroke="#1F1F1F" stroke-width="5"/>
<path d="M920 384C920 364.118 936.118 348 956 348V348C975.882 348 992 364.118 992 384V384C992 403.882 975.882 420 956 420V420C936.118 420 920 403.882 920 384V384Z" stroke="#1F1F1F" stroke-width="5"/>
<path d="M1012 384C1012 364.118 1028.12 348 1048 348V348C1067.88 348 1084 364.118 1084 384V384C1084 403.882 1067.88 420 1048 420V420C1028.12 420 1012 403.882 1012 384V384Z" stroke="#1F1F1F" stroke-width="5"/>
<path d="M1104 384C1104 364.118 1120.12 348 1140 348V348C1159.88 348 1176 364.118 1176 384V384C1176 403.882 1159.88 420 1140 420V420C1120.12 420 1104 403.882 1104 384V384Z" stroke="#1F1F1F" stroke-width="5"/>
<path d="M1196 384C1196 364.118 1212.12 348 1232 348V348C1251.88 348 1268 364.118 1268 384V384C1268 403.882 1251.88 420 1232 420V420C1212.12 420 1196 403.882 1196 384V384Z" stroke="#1F1F1F" stroke-width="5"/>
<path d="M1288 384C1288 364.118 1304.12 348 1324 348V348C1343.88 348 1360 364.118 1360 384V384C1360 403.882 1343.88 420 1324 420V420C1304.12 420 1288 403.882 1288 384V384Z" stroke="#1F1F1F" stroke-width="5"/>
<path d="M1380 384C1380 364.118 1396.12 348 1416 348V348C1435.88 348 1452 364.118 1452 384V384C1452 403.882 1435.88 420 1416 420V420C1396.12 420 1380 403.882 1380 384V384Z" stroke="#1F1F1F" stroke-width="5"/>
<path d="M1472 384C1472 364.118 1488.12 348 1508 348V348C1527.88 348 1544 364.118 1544 384V384C1544 403.882 1527.88 420 1508 420V420C1488.12 420 1472 403.882 1472 384V384Z" stroke="#1F1F1F" stroke-width="5"/>
<path d="M1564 384C1564 364.118 1580.12 348 1600 348V348C1619.88 348 1636 364.118 1636 384V384C1636 403.882 1619.88 420 1600 420V420C1580.12 420 1564 403.882 1564 384V384Z" stroke="#1F1F1F" stroke-width="5"/>
<path d="M1656 384C1656 364.118 1672.12 348 1692 348V348C1711.88 348 1728 364.118 1728 384V384C1728 403.882 1711.88 420 1692 420V420C1672.12 420 1656 403.882 1656 384V384Z" stroke="#1F1F1F" stroke-width="5"/>
<path d="M0 1440C0 1420.12 16.1177 1404 36 1404V1404C55.8823 1404 72 1420.12 72 1440V1440C72 1459.88 55.8823 1476 36 1476V1476C16.1177 1476 0 1459.88 0 1440V1440Z" stroke="#1F1F1F" stroke-width="5"/>
<path d="M92 1440C92 1420.12 108.118 1404 128 1404V1404C147.882 1404 164 1420.12 164 1440V1440C164 1459.88 147.882 1476 128 1476V1476C108.118 1476 92 1459.88 92 1440V1440Z" stroke="#1F1F1F" stroke-width="5"/>
<path d="M184 1440C184 1420.12 200.118 1404 220 1404V1404C239.882 1404 256 1420.12 256 1440V1440C256 1459.88 239.882 1476 220 1476V1476C200.118 1476 184 1459.88 184 1440V1440Z" stroke="#1F1F1F" stroke-width="5"/>
<path d="M276 1440C276 1420.12 292.118 1404 312 1404V1404C331.882 1404 348 1420.12 348 1440V1440C348 1459.88 331.882 1476 312 1476V1476C292.118 1476 276 1459.88 276 1440V1440Z" stroke="#1F1F1F" stroke-width="5"/>
<path d="M368 1440C368 1420.12 384.118 1404 404 1404V1404C423.882 1404 440 1420.12 440 1440V1440C440 1459.88 423.882 1476 404 1476V1476C384.118 1476 368 1459.88 368 1440V1440Z" stroke="#1F1F1F" stroke-width="5"/>
<path d="M460 1440C460 1420.12 476.118 1404 496 1404V1404C515.882 1404 532 1420.12 532 1440V1440C532 1459.88 515.882 1476 496 1476V1476C476.118 1476 460 1459.88 460 1440V1440Z" stroke="#1F1F1F" stroke-width="5"/>
<path d="M552 1440C552 1420.12 568.118 1404 588 1404V1404C607.882 1404 624 1420.12 624 1440V1440C624 1459.88 607.882 1476 588 1476V1476C568.118 1476 552 1459.88 552 1440V1440Z" stroke="#1F1F1F" stroke-width="5"/>
<path d="M644 1440C644 1420.12 660.118 1404 680 1404V1404C699.882 1404 716 1420.12 716 1440V1440C716 1459.88 699.882 1476 680 1476V1476C660.118 1476 644 1459.88 644 1440V1440Z" stroke="#1F1F1F" stroke-width="5"/>
<path d="M736 1440C736 1420.12 752.118 1404 772 1404V1404C791.882 1404 808 1420.12 808 1440V1440C808 1459.88 791.882 1476 772 1476V1476C752.118 1476 736 1459.88 736 1440V1440Z" stroke="#1F1F1F" stroke-width="5"/>
<path d="M828 1440C828 1420.12 844.118 1404 864 1404V1404C883.882 1404 900 1420.12 900 1440V1440C900 1459.88 883.882 1476 864 1476V1476C844.118 1476 828 1459.88 828 1440V1440Z" stroke="#1F1F1F" stroke-width="5"/>
<path d="M920 1440C920 1420.12 936.118 1404 956 1404V1404C975.882 1404 992 1420.12 992 1440V1440C992 1459.88 975.882 1476 956 1476V1476C936.118 1476 920 1459.88 920 1440V1440Z" stroke="#1F1F1F" stroke-width="5"/>
<path d="M1012 1440C1012 1420.12 1028.12 1404 1048 1404V1404C1067.88 1404 1084 1420.12 1084 1440V1440C1084 1459.88 1067.88 1476 1048 1476V1476C1028.12 1476 1012 1459.88 1012 1440V1440Z" stroke="#1F1F1F" stroke-width="5"/>
<path d="M1104 1440C1104 1420.12 1120.12 1404 1140 1404V1404C1159.88 1404 1176 1420.12 1176 1440V1440C1176 1459.88 1159.88 1476 1140 1476V1476C1120.12 1476 1104 1459.88 1104 1440V1440Z" stroke="#1F1F1F" stroke-width="5"/>
<path d="M1196 1440C1196 1420.12 1212.12 1404 1232 1404V1404C1251.88 1404 1268 1420.12 1268 1440V1440C1268 1459.88 1251.88 1476 1232 1476V1476C1212.12 1476 1196 1459.88 1196 1440V1440Z" stroke="#1F1F1F" stroke-width="5"/>
<path d="M1288 1440C1288 1420.12 1304.12 1404 1324 1404V1404C1343.88 1404 1360 1420.12 1360 1440V1440C1360 1459.88 1343.88 1476 1324 1476V1476C1304.12 1476 1288 1459.88 1288 1440V1440Z" stroke="#1F1F1F" stroke-width="5"/>
<path d="M1380 1440C1380 1420.12 1396.12 1404 1416 1404V1404C1435.88 1404 1452 1420.12 1452 1440V1440C1452 1459.88 1435.88 1476 1416 1476V1476C1396.12 1476 1380 1459.88 1380 1440V1440Z" stroke="#1F1F1F" stroke-width="5"/>
<path d="M1472 1440C1472 1420.12 1488.12 1404 1508 1404V1404C1527.88 1404 1544 1420.12 1544 1440V1440C1544 1459.88 1527.88 1476 1508 1476V1476C1488.12 1476 1472 1459.88 1472 1440V1440Z" stroke="#1F1F1F" stroke-width="5"/>
<path d="M1564 1440C1564 1420.12 1580.12 1404 1600 1404V1404C1619.88 1404 1636 1420.12 1636 1440V1440C1636 1459.88 1619.88 1476 1600 1476V1476C1580.12 1476 1564 1459.88 1564 1440V1440Z" stroke="#1F1F1F" stroke-width="5"/>
<path d="M1656 1440C1656 1420.12 1672.12 1404 1692 1404V1404C1711.88 1404 1728 1420.12 1728 1440V1440C1728 1459.88 1711.88 1476 1692 1476V1476C1672.12 1476 1656 1459.88 1656 1440V1440Z" stroke="#1F1F1F" stroke-width="5"/>
<path d="M0 480C0 460.118 16.1177 444 36 444V444C55.8823 444 72 460.118 72 480V480C72 499.882 55.8823 516 36 516V516C16.1177 516 0 499.882 0 480V480Z" stroke="#1F1F1F" stroke-width="5"/>
<path d="M92 480C92 460.118 108.118 444 128 444V444C147.882 444 164 460.118 164 480V480C164 499.882 147.882 516 128 516V516C108.118 516 92 499.882 92 480V480Z" stroke="#1F1F1F" stroke-width="5"/>
<path d="M184 480C184 460.118 200.118 444 220 444V444C239.882 444 256 460.118 256 480V480C256 499.882 239.882 516 220 516V516C200.118 516 184 499.882 184 480V480Z" stroke="#1F1F1F" stroke-width="5"/>
<path d="M276 480C276 460.118 292.118 444 312 444V444C331.882 444 348 460.118 348 480V480C348 499.882 331.882 516 312 516V516C292.118 516 276 499.882 276 480V480Z" stroke="#1F1F1F" stroke-width="5"/>
<path d="M368 480C368 460.118 384.118 444 404 444V444C423.882 444 440 460.118 440 480V480C440 499.882 423.882 516 404 516V516C384.118 516 368 499.882 368 480V480Z" stroke="#1F1F1F" stroke-width="5"/>
<path d="M460 480C460 460.118 476.118 444 496 444V444C515.882 444 532 460.118 532 480V480C532 499.882 515.882 516 496 516V516C476.118 516 460 499.882 460 480V480Z" stroke="#1F1F1F" stroke-width="5"/>
<path d="M552 480C552 460.118 568.118 444 588 444V444C607.882 444 624 460.118 624 480V480C624 499.882 607.882 516 588 516V516C568.118 516 552 499.882 552 480V480Z" stroke="#1F1F1F" stroke-width="5"/>
<path d="M644 480C644 460.118 660.118 444 680 444V444C699.882 444 716 460.118 716 480V480C716 499.882 699.882 516 680 516V516C660.118 516 644 499.882 644 480V480Z" stroke="#1F1F1F" stroke-width="5"/>
<path d="M736 480C736 460.118 752.118 444 772 444V444C791.882 444 808 460.118 808 480V480C808 499.882 791.882 516 772 516V516C752.118 516 736 499.882 736 480V480Z" stroke="#1F1F1F" stroke-width="5"/>
<path d="M828 480C828 460.118 844.118 444 864 444V444C883.882 444 900 460.118 900 480V480C900 499.882 883.882 516 864 516V516C844.118 516 828 499.882 828 480V480Z" stroke="#1F1F1F" stroke-width="5"/>
<path d="M920 480C920 460.118 936.118 444 956 444V444C975.882 444 992 460.118 992 480V480C992 499.882 975.882 516 956 516V516C936.118 516 920 499.882 920 480V480Z" stroke="#1F1F1F" stroke-width="5"/>
<path d="M1012 480C1012 460.118 1028.12 444 1048 444V444C1067.88 444 1084 460.118 1084 480V480C1084 499.882 1067.88 516 1048 516V516C1028.12 516 1012 499.882 1012 480V480Z" stroke="#1F1F1F" stroke-width="5"/>
<path d="M1104 480C1104 460.118 1120.12 444 1140 444V444C1159.88 444 1176 460.118 1176 480V480C1176 499.882 1159.88 516 1140 516V516C1120.12 516 1104 499.882 1104 480V480Z" stroke="#1F1F1F" stroke-width="5"/>
<path d="M1196 480C1196 460.118 1212.12 444 1232 444V444C1251.88 444 1268 460.118 1268 480V480C1268 499.882 1251.88 516 1232 516V516C1212.12 516 1196 499.882 1196 480V480Z" stroke="#1F1F1F" stroke-width="5"/>
<path d="M1288 480C1288 460.118 1304.12 444 1324 444V444C1343.88 444 1360 460.118 1360 480V480C1360 499.882 1343.88 516 1324 516V516C1304.12 516 1288 499.882 1288 480V480Z" stroke="#1F1F1F" stroke-width="5"/>
<path d="M1380 480C1380 460.118 1396.12 444 1416 444V444C1435.88 444 1452 460.118 1452 480V480C1452 499.882 1435.88 516 1416 516V516C1396.12 516 1380 499.882 1380 480V480Z" stroke="#1F1F1F" stroke-width="5"/>
<path d="M1472 480C1472 460.118 1488.12 444 1508 444V444C1527.88 444 1544 460.118 1544 480V480C1544 499.882 1527.88 516 1508 516V516C1488.12 516 1472 499.882 1472 480V480Z" stroke="#1F1F1F" stroke-width="5"/>
<path d="M1564 480C1564 460.118 1580.12 444 1600 444V444C1619.88 444 1636 460.118 1636 480V480C1636 499.882 1619.88 516 1600 516V516C1580.12 516 1564 499.882 1564 480V480Z" stroke="#1F1F1F" stroke-width="5"/>
<path d="M1656 480C1656 460.118 1672.12 444 1692 444V444C1711.88 444 1728 460.118 1728 480V480C1728 499.882 1711.88 516 1692 516V516C1672.12 516 1656 499.882 1656 480V480Z" stroke="#1F1F1F" stroke-width="5"/>
<path d="M0 1536C0 1516.12 16.1177 1500 36 1500V1500C55.8823 1500 72 1516.12 72 1536V1536C72 1555.88 55.8823 1572 36 1572V1572C16.1177 1572 0 1555.88 0 1536V1536Z" stroke="#1F1F1F" stroke-width="5"/>
<path d="M92 1536C92 1516.12 108.118 1500 128 1500V1500C147.882 1500 164 1516.12 164 1536V1536C164 1555.88 147.882 1572 128 1572V1572C108.118 1572 92 1555.88 92 1536V1536Z" stroke="#1F1F1F" stroke-width="5"/>
<path d="M184 1536C184 1516.12 200.118 1500 220 1500V1500C239.882 1500 256 1516.12 256 1536V1536C256 1555.88 239.882 1572 220 1572V1572C200.118 1572 184 1555.88 184 1536V1536Z" stroke="#1F1F1F" stroke-width="5"/>
<path d="M276 1536C276 1516.12 292.118 1500 312 1500V1500C331.882 1500 348 1516.12 348 1536V1536C348 1555.88 331.882 1572 312 1572V1572C292.118 1572 276 1555.88 276 1536V1536Z" stroke="#1F1F1F" stroke-width="5"/>
<path d="M368 1536C368 1516.12 384.118 1500 404 1500V1500C423.882 1500 440 1516.12 440 1536V1536C440 1555.88 423.882 1572 404 1572V1572C384.118 1572 368 1555.88 368 1536V1536Z" stroke="#1F1F1F" stroke-width="5"/>
<path d="M460 1536C460 1516.12 476.118 1500 496 1500V1500C515.882 1500 532 1516.12 532 1536V1536C532 1555.88 515.882 1572 496 1572V1572C476.118 1572 460 1555.88 460 1536V1536Z" stroke="#1F1F1F" stroke-width="5"/>
<path d="M552 1536C552 1516.12 568.118 1500 588 1500V1500C607.882 1500 624 1516.12 624 1536V1536C624 1555.88 607.882 1572 588 1572V1572C568.118 1572 552 1555.88 552 1536V1536Z" stroke="#1F1F1F" stroke-width="5"/>
<path d="M644 1536C644 1516.12 660.118 1500 680 1500V1500C699.882 1500 716 1516.12 716 1536V1536C716 1555.88 699.882 1572 680 1572V1572C660.118 1572 644 1555.88 644 1536V1536Z" stroke="#1F1F1F" stroke-width="5"/>
<path d="M736 1536C736 1516.12 752.118 1500 772 1500V1500C791.882 1500 808 1516.12 808 1536V1536C808 1555.88 791.882 1572 772 1572V1572C752.118 1572 736 1555.88 736 1536V1536Z" stroke="#1F1F1F" stroke-width="5"/>
<path d="M828 1536C828 1516.12 844.118 1500 864 1500V1500C883.882 1500 900 1516.12 900 1536V1536C900 1555.88 883.882 1572 864 1572V1572C844.118 1572 828 1555.88 828 1536V1536Z" stroke="#1F1F1F" stroke-width="5"/>
<path d="M920 1536C920 1516.12 936.118 1500 956 1500V1500C975.882 1500 992 1516.12 992 1536V1536C992 1555.88 975.882 1572 956 1572V1572C936.118 1572 920 1555.88 920 1536V1536Z" stroke="#1F1F1F" stroke-width="5"/>
<path d="M1012 1536C1012 1516.12 1028.12 1500 1048 1500V1500C1067.88 1500 1084 1516.12 1084 1536V1536C1084 1555.88 1067.88 1572 1048 1572V1572C1028.12 1572 1012 1555.88 1012 1536V1536Z" stroke="#1F1F1F" stroke-width="5"/>
<path d="M1104 1536C1104 1516.12 1120.12 1500 1140 1500V1500C1159.88 1500 1176 1516.12 1176 1536V1536C1176 1555.88 1159.88 1572 1140 1572V1572C1120.12 1572 1104 1555.88 1104 1536V1536Z" stroke="#1F1F1F" stroke-width="5"/>
<path d="M1196 1536C1196 1516.12 1212.12 1500 1232 1500V1500C1251.88 1500 1268 1516.12 1268 1536V1536C1268 1555.88 1251.88 1572 1232 1572V1572C1212.12 1572 1196 1555.88 1196 1536V1536Z" stroke="#1F1F1F" stroke-width="5"/>
<path d="M1288 1536C1288 1516.12 1304.12 1500 1324 1500V1500C1343.88 1500 1360 1516.12 1360 1536V1536C1360 1555.88 1343.88 1572 1324 1572V1572C1304.12 1572 1288 1555.88 1288 1536V1536Z" stroke="#1F1F1F" stroke-width="5"/>
<path d="M1380 1536C1380 1516.12 1396.12 1500 1416 1500V1500C1435.88 1500 1452 1516.12 1452 1536V1536C1452 1555.88 1435.88 1572 1416 1572V1572C1396.12 1572 1380 1555.88 1380 1536V1536Z" stroke="#1F1F1F" stroke-width="5"/>
<path d="M1472 1536C1472 1516.12 1488.12 1500 1508 1500V1500C1527.88 1500 1544 1516.12 1544 1536V1536C1544 1555.88 1527.88 1572 1508 1572V1572C1488.12 1572 1472 1555.88 1472 1536V1536Z" stroke="#1F1F1F" stroke-width="5"/>
<path d="M1564 1536C1564 1516.12 1580.12 1500 1600 1500V1500C1619.88 1500 1636 1516.12 1636 1536V1536C1636 1555.88 1619.88 1572 1600 1572V1572C1580.12 1572 1564 1555.88 1564 1536V1536Z" stroke="#1F1F1F" stroke-width="5"/>
<path d="M1656 1536C1656 1516.12 1672.12 1500 1692 1500V1500C1711.88 1500 1728 1516.12 1728 1536V1536C1728 1555.88 1711.88 1572 1692 1572V1572C1672.12 1572 1656 1555.88 1656 1536V1536Z" stroke="#1F1F1F" stroke-width="5"/>
<path d="M0 576C0 556.118 16.1177 540 36 540V540C55.8823 540 72 556.118 72 576V576C72 595.882 55.8823 612 36 612V612C16.1177 612 0 595.882 0 576V576Z" stroke="#1F1F1F" stroke-width="5"/>
<path d="M92 576C92 556.118 108.118 540 128 540V540C147.882 540 164 556.118 164 576V576C164 595.882 147.882 612 128 612V612C108.118 612 92 595.882 92 576V576Z" stroke="#1F1F1F" stroke-width="5"/>
<path d="M184 576C184 556.118 200.118 540 220 540V540C239.882 540 256 556.118 256 576V576C256 595.882 239.882 612 220 612V612C200.118 612 184 595.882 184 576V576Z" stroke="#1F1F1F" stroke-width="5"/>
<path d="M276 576C276 556.118 292.118 540 312 540V540C331.882 540 348 556.118 348 576V576C348 595.882 331.882 612 312 612V612C292.118 612 276 595.882 276 576V576Z" stroke="#1F1F1F" stroke-width="5"/>
<path d="M368 576C368 556.118 384.118 540 404 540V540C423.882 540 440 556.118 440 576V576C440 595.882 423.882 612 404 612V612C384.118 612 368 595.882 368 576V576Z" stroke="#1F1F1F" stroke-width="5"/>
<path d="M460 576C460 556.118 476.118 540 496 540V540C515.882 540 532 556.118 532 576V576C532 595.882 515.882 612 496 612V612C476.118 612 460 595.882 460 576V576Z" stroke="#1F1F1F" stroke-width="5"/>
<path d="M552 576C552 556.118 568.118 540 588 540V540C607.882 540 624 556.118 624 576V576C624 595.882 607.882 612 588 612V612C568.118 612 552 595.882 552 576V576Z" stroke="#1F1F1F" stroke-width="5"/>
<path d="M644 576C644 556.118 660.118 540 680 540V540C699.882 540 716 556.118 716 576V576C716 595.882 699.882 612 680 612V612C660.118 612 644 595.882 644 576V576Z" stroke="#1F1F1F" stroke-width="5"/>
<path d="M736 576C736 556.118 752.118 540 772 540V540C791.882 540 808 556.118 808 576V576C808 595.882 791.882 612 772 612V612C752.118 612 736 595.882 736 576V576Z" stroke="#1F1F1F" stroke-width="5"/>
<path d="M828 576C828 556.118 844.118 540 864 540V540C883.882 540 900 556.118 900 576V576C900 595.882 883.882 612 864 612V612C844.118 612 828 595.882 828 576V576Z" stroke="#1F1F1F" stroke-width="5"/>
<path d="M920 576C920 556.118 936.118 540 956 540V540C975.882 540 992 556.118 992 576V576C992 595.882 975.882 612 956 612V612C936.118 612 920 595.882 920 576V576Z" stroke="#1F1F1F" stroke-width="5"/>
<path d="M1012 576C1012 556.118 1028.12 540 1048 540V540C1067.88 540 1084 556.118 1084 576V576C1084 595.882 1067.88 612 1048 612V612C1028.12 612 1012 595.882 1012 576V576Z" stroke="#1F1F1F" stroke-width="5"/>
<path d="M1104 576C1104 556.118 1120.12 540 1140 540V540C1159.88 540 1176 556.118 1176 576V576C1176 595.882 1159.88 612 1140 612V612C1120.12 612 1104 595.882 1104 576V576Z" stroke="#1F1F1F" stroke-width="5"/>
<path d="M1196 576C1196 556.118 1212.12 540 1232 540V540C1251.88 540 1268 556.118 1268 576V576C1268 595.882 1251.88 612 1232 612V612C1212.12 612 1196 595.882 1196 576V576Z" stroke="#1F1F1F" stroke-width="5"/>
<path d="M1288 576C1288 556.118 1304.12 540 1324 540V540C1343.88 540 1360 556.118 1360 576V576C1360 595.882 1343.88 612 1324 612V612C1304.12 612 1288 595.882 1288 576V576Z" stroke="#1F1F1F" stroke-width="5"/>
<path d="M1380 576C1380 556.118 1396.12 540 1416 540V540C1435.88 540 1452 556.118 1452 576V576C1452 595.882 1435.88 612 1416 612V612C1396.12 612 1380 595.882 1380 576V576Z" stroke="#1F1F1F" stroke-width="5"/>
<path d="M1472 576C1472 556.118 1488.12 540 1508 540V540C1527.88 540 1544 556.118 1544 576V576C1544 595.882 1527.88 612 1508 612V612C1488.12 612 1472 595.882 1472 576V576Z" stroke="#1F1F1F" stroke-width="5"/>
<path d="M1564 576C1564 556.118 1580.12 540 1600 540V540C1619.88 540 1636 556.118 1636 576V576C1636 595.882 1619.88 612 1600 612V612C1580.12 612 1564 595.882 1564 576V576Z" stroke="#1F1F1F" stroke-width="5"/>
<path d="M1656 576C1656 556.118 1672.12 540 1692 540V540C1711.88 540 1728 556.118 1728 576V576C1728 595.882 1711.88 612 1692 612V612C1672.12 612 1656 595.882 1656 576V576Z" stroke="#1F1F1F" stroke-width="5"/>
<path d="M0 1632C0 1612.12 16.1177 1596 36 1596V1596C55.8823 1596 72 1612.12 72 1632V1632C72 1651.88 55.8823 1668 36 1668V1668C16.1177 1668 0 1651.88 0 1632V1632Z" stroke="#1F1F1F" stroke-width="5"/>
<path d="M92 1632C92 1612.12 108.118 1596 128 1596V1596C147.882 1596 164 1612.12 164 1632V1632C164 1651.88 147.882 1668 128 1668V1668C108.118 1668 92 1651.88 92 1632V1632Z" stroke="#1F1F1F" stroke-width="5"/>
<path d="M184 1632C184 1612.12 200.118 1596 220 1596V1596C239.882 1596 256 1612.12 256 1632V1632C256 1651.88 239.882 1668 220 1668V1668C200.118 1668 184 1651.88 184 1632V1632Z" stroke="#1F1F1F" stroke-width="5"/>
<path d="M276 1632C276 1612.12 292.118 1596 312 1596V1596C331.882 1596 348 1612.12 348 1632V1632C348 1651.88 331.882 1668 312 1668V1668C292.118 1668 276 1651.88 276 1632V1632Z" stroke="#1F1F1F" stroke-width="5"/>
<path d="M368 1632C368 1612.12 384.118 1596 404 1596V1596C423.882 1596 440 1612.12 440 1632V1632C440 1651.88 423.882 1668 404 1668V1668C384.118 1668 368 1651.88 368 1632V1632Z" stroke="#1F1F1F" stroke-width="5"/>
<path d="M460 1632C460 1612.12 476.118 1596 496 1596V1596C515.882 1596 532 1612.12 532 1632V1632C532 1651.88 515.882 1668 496 1668V1668C476.118 1668 460 1651.88 460 1632V1632Z" stroke="#1F1F1F" stroke-width="5"/>
<path d="M552 1632C552 1612.12 568.118 1596 588 1596V1596C607.882 1596 624 1612.12 624 1632V1632C624 1651.88 607.882 1668 588 1668V1668C568.118 1668 552 1651.88 552 1632V1632Z" stroke="#1F1F1F" stroke-width="5"/>
<path d="M644 1632C644 1612.12 660.118 1596 680 1596V1596C699.882 1596 716 1612.12 716 1632V1632C716 1651.88 699.882 1668 680 1668V1668C660.118 1668 644 1651.88 644 1632V1632Z" stroke="#1F1F1F" stroke-width="5"/>
<path d="M736 1632C736 1612.12 752.118 1596 772 1596V1596C791.882 1596 808 1612.12 808 1632V1632C808 1651.88 791.882 1668 772 1668V1668C752.118 1668 736 1651.88 736 1632V1632Z" stroke="#1F1F1F" stroke-width="5"/>
<path d="M828 1632C828 1612.12 844.118 1596 864 1596V1596C883.882 1596 900 1612.12 900 1632V1632C900 1651.88 883.882 1668 864 1668V1668C844.118 1668 828 1651.88 828 1632V1632Z" stroke="#1F1F1F" stroke-width="5"/>
<path d="M920 1632C920 1612.12 936.118 1596 956 1596V1596C975.882 1596 992 1612.12 992 1632V1632C992 1651.88 975.882 1668 956 1668V1668C936.118 1668 920 1651.88 920 1632V1632Z" stroke="#1F1F1F" stroke-width="5"/>
<path d="M1012 1632C1012 1612.12 1028.12 1596 1048 1596V1596C1067.88 1596 1084 1612.12 1084 1632V1632C1084 1651.88 1067.88 1668 1048 1668V1668C1028.12 1668 1012 1651.88 1012 1632V1632Z" stroke="#1F1F1F" stroke-width="5"/>
<path d="M1104 1632C1104 1612.12 1120.12 1596 1140 1596V1596C1159.88 1596 1176 1612.12 1176 1632V1632C1176 1651.88 1159.88 1668 1140 1668V1668C1120.12 1668 1104 1651.88 1104 1632V1632Z" stroke="#1F1F1F" stroke-width="5"/>
<path d="M1196 1632C1196 1612.12 1212.12 1596 1232 1596V1596C1251.88 1596 1268 1612.12 1268 1632V1632C1268 1651.88 1251.88 1668 1232 1668V1668C1212.12 1668 1196 1651.88 1196 1632V1632Z" stroke="#1F1F1F" stroke-width="5"/>
<path d="M1288 1632C1288 1612.12 1304.12 1596 1324 1596V1596C1343.88 1596 1360 1612.12 1360 1632V1632C1360 1651.88 1343.88 1668 1324 1668V1668C1304.12 1668 1288 1651.88 1288 1632V1632Z" stroke="#1F1F1F" stroke-width="5"/>
<path d="M1380 1632C1380 1612.12 1396.12 1596 1416 1596V1596C1435.88 1596 1452 1612.12 1452 1632V1632C1452 1651.88 1435.88 1668 1416 1668V1668C1396.12 1668 1380 1651.88 1380 1632V1632Z" stroke="#1F1F1F" stroke-width="5"/>
<path d="M1472 1632C1472 1612.12 1488.12 1596 1508 1596V1596C1527.88 1596 1544 1612.12 1544 1632V1632C1544 1651.88 1527.88 1668 1508 1668V1668C1488.12 1668 1472 1651.88 1472 1632V1632Z" stroke="#1F1F1F" stroke-width="5"/>
<path d="M1564 1632C1564 1612.12 1580.12 1596 1600 1596V1596C1619.88 1596 1636 1612.12 1636 1632V1632C1636 1651.88 1619.88 1668 1600 1668V1668C1580.12 1668 1564 1651.88 1564 1632V1632Z" stroke="#1F1F1F" stroke-width="5"/>
<path d="M1656 1632C1656 1612.12 1672.12 1596 1692 1596V1596C1711.88 1596 1728 1612.12 1728 1632V1632C1728 1651.88 1711.88 1668 1692 1668V1668C1672.12 1668 1656 1651.88 1656 1632V1632Z" stroke="#1F1F1F" stroke-width="5"/>
<path d="M0 672C0 652.118 16.1177 636 36 636V636C55.8823 636 72 652.118 72 672V672C72 691.882 55.8823 708 36 708V708C16.1177 708 0 691.882 0 672V672Z" stroke="#1F1F1F" stroke-width="5"/>
<path d="M92 672C92 652.118 108.118 636 128 636V636C147.882 636 164 652.118 164 672V672C164 691.882 147.882 708 128 708V708C108.118 708 92 691.882 92 672V672Z" stroke="#1F1F1F" stroke-width="5"/>
<path d="M184 672C184 652.118 200.118 636 220 636V636C239.882 636 256 652.118 256 672V672C256 691.882 239.882 708 220 708V708C200.118 708 184 691.882 184 672V672Z" stroke="#1F1F1F" stroke-width="5"/>
<path d="M276 672C276 652.118 292.118 636 312 636V636C331.882 636 348 652.118 348 672V672C348 691.882 331.882 708 312 708V708C292.118 708 276 691.882 276 672V672Z" stroke="#1F1F1F" stroke-width="5"/>
<path d="M368 672C368 652.118 384.118 636 404 636V636C423.882 636 440 652.118 440 672V672C440 691.882 423.882 708 404 708V708C384.118 708 368 691.882 368 672V672Z" stroke="#1F1F1F" stroke-width="5"/>
<path d="M460 672C460 652.118 476.118 636 496 636V636C515.882 636 532 652.118 532 672V672C532 691.882 515.882 708 496 708V708C476.118 708 460 691.882 460 672V672Z" stroke="#1F1F1F" stroke-width="5"/>
<path d="M552 672C552 652.118 568.118 636 588 636V636C607.882 636 624 652.118 624 672V672C624 691.882 607.882 708 588 708V708C568.118 708 552 691.882 552 672V672Z" stroke="#1F1F1F" stroke-width="5"/>
<path d="M644 672C644 652.118 660.118 636 680 636V636C699.882 636 716 652.118 716 672V672C716 691.882 699.882 708 680 708V708C660.118 708 644 691.882 644 672V672Z" stroke="#1F1F1F" stroke-width="5"/>
<path d="M736 672C736 652.118 752.118 636 772 636V636C791.882 636 808 652.118 808 672V672C808 691.882 791.882 708 772 708V708C752.118 708 736 691.882 736 672V672Z" stroke="#1F1F1F" stroke-width="5"/>
<path d="M828 672C828 652.118 844.118 636 864 636V636C883.882 636 900 652.118 900 672V672C900 691.882 883.882 708 864 708V708C844.118 708 828 691.882 828 672V672Z" stroke="#1F1F1F" stroke-width="5"/>
<path d="M920 672C920 652.118 936.118 636 956 636V636C975.882 636 992 652.118 992 672V672C992 691.882 975.882 708 956 708V708C936.118 708 920 691.882 920 672V672Z" stroke="#1F1F1F" stroke-width="5"/>
<path d="M1012 672C1012 652.118 1028.12 636 1048 636V636C1067.88 636 1084 652.118 1084 672V672C1084 691.882 1067.88 708 1048 708V708C1028.12 708 1012 691.882 1012 672V672Z" stroke="#1F1F1F" stroke-width="5"/>
<path d="M1104 672C1104 652.118 1120.12 636 1140 636V636C1159.88 636 1176 652.118 1176 672V672C1176 691.882 1159.88 708 1140 708V708C1120.12 708 1104 691.882 1104 672V672Z" stroke="#1F1F1F" stroke-width="5"/>
<path d="M1196 672C1196 652.118 1212.12 636 1232 636V636C1251.88 636 1268 652.118 1268 672V672C1268 691.882 1251.88 708 1232 708V708C1212.12 708 1196 691.882 1196 672V672Z" stroke="#1F1F1F" stroke-width="5"/>
<path d="M1288 672C1288 652.118 1304.12 636 1324 636V636C1343.88 636 1360 652.118 1360 672V672C1360 691.882 1343.88 708 1324 708V708C1304.12 708 1288 691.882 1288 672V672Z" stroke="#1F1F1F" stroke-width="5"/>
<path d="M1380 672C1380 652.118 1396.12 636 1416 636V636C1435.88 636 1452 652.118 1452 672V672C1452 691.882 1435.88 708 1416 708V708C1396.12 708 1380 691.882 1380 672V672Z" stroke="#1F1F1F" stroke-width="5"/>
<path d="M1472 672C1472 652.118 1488.12 636 1508 636V636C1527.88 636 1544 652.118 1544 672V672C1544 691.882 1527.88 708 1508 708V708C1488.12 708 1472 691.882 1472 672V672Z" stroke="#1F1F1F" stroke-width="5"/>
<path d="M1564 672C1564 652.118 1580.12 636 1600 636V636C1619.88 636 1636 652.118 1636 672V672C1636 691.882 1619.88 708 1600 708V708C1580.12 708 1564 691.882 1564 672V672Z" stroke="#1F1F1F" stroke-width="5"/>
<path d="M1656 672C1656 652.118 1672.12 636 1692 636V636C1711.88 636 1728 652.118 1728 672V672C1728 691.882 1711.88 708 1692 708V708C1672.12 708 1656 691.882 1656 672V672Z" stroke="#1F1F1F" stroke-width="5"/>
<path d="M0 1728C0 1708.12 16.1177 1692 36 1692V1692C55.8823 1692 72 1708.12 72 1728V1728C72 1747.88 55.8823 1764 36 1764V1764C16.1177 1764 0 1747.88 0 1728V1728Z" stroke="#1F1F1F" stroke-width="5"/>
<path d="M92 1728C92 1708.12 108.118 1692 128 1692V1692C147.882 1692 164 1708.12 164 1728V1728C164 1747.88 147.882 1764 128 1764V1764C108.118 1764 92 1747.88 92 1728V1728Z" stroke="#1F1F1F" stroke-width="5"/>
<path d="M184 1728C184 1708.12 200.118 1692 220 1692V1692C239.882 1692 256 1708.12 256 1728V1728C256 1747.88 239.882 1764 220 1764V1764C200.118 1764 184 1747.88 184 1728V1728Z" stroke="#1F1F1F" stroke-width="5"/>
<path d="M276 1728C276 1708.12 292.118 1692 312 1692V1692C331.882 1692 348 1708.12 348 1728V1728C348 1747.88 331.882 1764 312 1764V1764C292.118 1764 276 1747.88 276 1728V1728Z" stroke="#1F1F1F" stroke-width="5"/>
<path d="M368 1728C368 1708.12 384.118 1692 404 1692V1692C423.882 1692 440 1708.12 440 1728V1728C440 1747.88 423.882 1764 404 1764V1764C384.118 1764 368 1747.88 368 1728V1728Z" stroke="#1F1F1F" stroke-width="5"/>
<path d="M460 1728C460 1708.12 476.118 1692 496 1692V1692C515.882 1692 532 1708.12 532 1728V1728C532 1747.88 515.882 1764 496 1764V1764C476.118 1764 460 1747.88 460 1728V1728Z" stroke="#1F1F1F" stroke-width="5"/>
<path d="M552 1728C552 1708.12 568.118 1692 588 1692V1692C607.882 1692 624 1708.12 624 1728V1728C624 1747.88 607.882 1764 588 1764V1764C568.118 1764 552 1747.88 552 1728V1728Z" stroke="#1F1F1F" stroke-width="5"/>
<path d="M644 1728C644 1708.12 660.118 1692 680 1692V1692C699.882 1692 716 1708.12 716 1728V1728C716 1747.88 699.882 1764 680 1764V1764C660.118 1764 644 1747.88 644 1728V1728Z" stroke="#1F1F1F" stroke-width="5"/>
<path d="M736 1728C736 1708.12 752.118 1692 772 1692V1692C791.882 1692 808 1708.12 808 1728V1728C808 1747.88 791.882 1764 772 1764V1764C752.118 1764 736 1747.88 736 1728V1728Z" stroke="#1F1F1F" stroke-width="5"/>
<path d="M828 1728C828 1708.12 844.118 1692 864 1692V1692C883.882 1692 900 1708.12 900 1728V1728C900 1747.88 883.882 1764 864 1764V1764C844.118 1764 828 1747.88 828 1728V1728Z" stroke="#1F1F1F" stroke-width="5"/>
<path d="M920 1728C920 1708.12 936.118 1692 956 1692V1692C975.882 1692 992 1708.12 992 1728V1728C992 1747.88 975.882 1764 956 1764V1764C936.118 1764 920 1747.88 920 1728V1728Z" stroke="#1F1F1F" stroke-width="5"/>
<path d="M1012 1728C1012 1708.12 1028.12 1692 1048 1692V1692C1067.88 1692 1084 1708.12 1084 1728V1728C1084 1747.88 1067.88 1764 1048 1764V1764C1028.12 1764 1012 1747.88 1012 1728V1728Z" stroke="#1F1F1F" stroke-width="5"/>
<path d="M1104 1728C1104 1708.12 1120.12 1692 1140 1692V1692C1159.88 1692 1176 1708.12 1176 1728V1728C1176 1747.88 1159.88 1764 1140 1764V1764C1120.12 1764 1104 1747.88 1104 1728V1728Z" stroke="#1F1F1F" stroke-width="5"/>
<path d="M1196 1728C1196 1708.12 1212.12 1692 1232 1692V1692C1251.88 1692 1268 1708.12 1268 1728V1728C1268 1747.88 1251.88 1764 1232 1764V1764C1212.12 1764 1196 1747.88 1196 1728V1728Z" stroke="#1F1F1F" stroke-width="5"/>
<path d="M1288 1728C1288 1708.12 1304.12 1692 1324 1692V1692C1343.88 1692 1360 1708.12 1360 1728V1728C1360 1747.88 1343.88 1764 1324 1764V1764C1304.12 1764 1288 1747.88 1288 1728V1728Z" stroke="#1F1F1F" stroke-width="5"/>
<path d="M1380 1728C1380 1708.12 1396.12 1692 1416 1692V1692C1435.88 1692 1452 1708.12 1452 1728V1728C1452 1747.88 1435.88 1764 1416 1764V1764C1396.12 1764 1380 1747.88 1380 1728V1728Z" stroke="#1F1F1F" stroke-width="5"/>
<path d="M1472 1728C1472 1708.12 1488.12 1692 1508 1692V1692C1527.88 1692 1544 1708.12 1544 1728V1728C1544 1747.88 1527.88 1764 1508 1764V1764C1488.12 1764 1472 1747.88 1472 1728V1728Z" stroke="#1F1F1F" stroke-width="5"/>
<path d="M1564 1728C1564 1708.12 1580.12 1692 1600 1692V1692C1619.88 1692 1636 1708.12 1636 1728V1728C1636 1747.88 1619.88 1764 1600 1764V1764C1580.12 1764 1564 1747.88 1564 1728V1728Z" stroke="#1F1F1F" stroke-width="5"/>
<path d="M1656 1728C1656 1708.12 1672.12 1692 1692 1692V1692C1711.88 1692 1728 1708.12 1728 1728V1728C1728 1747.88 1711.88 1764 1692 1764V1764C1672.12 1764 1656 1747.88 1656 1728V1728Z" stroke="#1F1F1F" stroke-width="5"/>
<path d="M0 768C0 748.118 16.1177 732 36 732V732C55.8823 732 72 748.118 72 768V768C72 787.882 55.8823 804 36 804V804C16.1177 804 0 787.882 0 768V768Z" stroke="#1F1F1F" stroke-width="5"/>
<path d="M92 768C92 748.118 108.118 732 128 732V732C147.882 732 164 748.118 164 768V768C164 787.882 147.882 804 128 804V804C108.118 804 92 787.882 92 768V768Z" stroke="#1F1F1F" stroke-width="5"/>
<path d="M184 768C184 748.118 200.118 732 220 732V732C239.882 732 256 748.118 256 768V768C256 787.882 239.882 804 220 804V804C200.118 804 184 787.882 184 768V768Z" stroke="#1F1F1F" stroke-width="5"/>
<path d="M276 768C276 748.118 292.118 732 312 732V732C331.882 732 348 748.118 348 768V768C348 787.882 331.882 804 312 804V804C292.118 804 276 787.882 276 768V768Z" stroke="#1F1F1F" stroke-width="5"/>
<path d="M368 768C368 748.118 384.118 732 404 732V732C423.882 732 440 748.118 440 768V768C440 787.882 423.882 804 404 804V804C384.118 804 368 787.882 368 768V768Z" stroke="#1F1F1F" stroke-width="5"/>
<path d="M460 768C460 748.118 476.118 732 496 732V732C515.882 732 532 748.118 532 768V768C532 787.882 515.882 804 496 804V804C476.118 804 460 787.882 460 768V768Z" stroke="#1F1F1F" stroke-width="5"/>
<path d="M552 768C552 748.118 568.118 732 588 732V732C607.882 732 624 748.118 624 768V768C624 787.882 607.882 804 588 804V804C568.118 804 552 787.882 552 768V768Z" stroke="#1F1F1F" stroke-width="5"/>
<path d="M644 768C644 748.118 660.118 732 680 732V732C699.882 732 716 748.118 716 768V768C716 787.882 699.882 804 680 804V804C660.118 804 644 787.882 644 768V768Z" stroke="#1F1F1F" stroke-width="5"/>
<path d="M736 768C736 748.118 752.118 732 772 732V732C791.882 732 808 748.118 808 768V768C808 787.882 791.882 804 772 804V804C752.118 804 736 787.882 736 768V768Z" stroke="#1F1F1F" stroke-width="5"/>
<path d="M828 768C828 748.118 844.118 732 864 732V732C883.882 732 900 748.118 900 768V768C900 787.882 883.882 804 864 804V804C844.118 804 828 787.882 828 768V768Z" stroke="#1F1F1F" stroke-width="5"/>
<path d="M920 768C920 748.118 936.118 732 956 732V732C975.882 732 992 748.118 992 768V768C992 787.882 975.882 804 956 804V804C936.118 804 920 787.882 920 768V768Z" stroke="#1F1F1F" stroke-width="5"/>
<path d="M1012 768C1012 748.118 1028.12 732 1048 732V732C1067.88 732 1084 748.118 1084 768V768C1084 787.882 1067.88 804 1048 804V804C1028.12 804 1012 787.882 1012 768V768Z" stroke="#1F1F1F" stroke-width="5"/>
<path d="M1104 768C1104 748.118 1120.12 732 1140 732V732C1159.88 732 1176 748.118 1176 768V768C1176 787.882 1159.88 804 1140 804V804C1120.12 804 1104 787.882 1104 768V768Z" stroke="#1F1F1F" stroke-width="5"/>
<path d="M1196 768C1196 748.118 1212.12 732 1232 732V732C1251.88 732 1268 748.118 1268 768V768C1268 787.882 1251.88 804 1232 804V804C1212.12 804 1196 787.882 1196 768V768Z" stroke="#1F1F1F" stroke-width="5"/>
<path d="M1288 768C1288 748.118 1304.12 732 1324 732V732C1343.88 732 1360 748.118 1360 768V768C1360 787.882 1343.88 804 1324 804V804C1304.12 804 1288 787.882 1288 768V768Z" stroke="#1F1F1F" stroke-width="5"/>
<path d="M1380 768C1380 748.118 1396.12 732 1416 732V732C1435.88 732 1452 748.118 1452 768V768C1452 787.882 1435.88 804 1416 804V804C1396.12 804 1380 787.882 1380 768V768Z" stroke="#1F1F1F" stroke-width="5"/>
<path d="M1472 768C1472 748.118 1488.12 732 1508 732V732C1527.88 732 1544 748.118 1544 768V768C1544 787.882 1527.88 804 1508 804V804C1488.12 804 1472 787.882 1472 768V768Z" stroke="#1F1F1F" stroke-width="5"/>
<path d="M1564 768C1564 748.118 1580.12 732 1600 732V732C1619.88 732 1636 748.118 1636 768V768C1636 787.882 1619.88 804 1600 804V804C1580.12 804 1564 787.882 1564 768V768Z" stroke="#1F1F1F" stroke-width="5"/>
<path d="M1656 768C1656 748.118 1672.12 732 1692 732V732C1711.88 732 1728 748.118 1728 768V768C1728 787.882 1711.88 804 1692 804V804C1672.12 804 1656 787.882 1656 768V768Z" stroke="#1F1F1F" stroke-width="5"/>
</g>
</g>
<defs>
<clipPath id="clip0_6015_57722">
<rect width="1728" height="1728" rx="22" fill="white"/>
</clipPath>
</defs>
</svg>
