<svg width="41" height="40" viewBox="0 0 41 40" fill="none" xmlns="http://www.w3.org/2000/svg">
<path fill-rule="evenodd" clip-rule="evenodd" d="M23.834 8.33333C23.993 8.33342 24.1486 8.37896 24.2825 8.4646C24.4164 8.55024 24.5231 8.6724 24.5898 8.81667L25.9107 11.6667H30.1882C30.307 11.6666 30.4244 11.6919 30.5326 11.7409C30.6409 11.7899 30.7374 11.8615 30.8157 11.9508L34.4615 16.1175C34.5671 16.238 34.6357 16.3864 34.6591 16.5449C34.6825 16.7033 34.6597 16.8652 34.5935 17.0111C34.5273 17.157 34.4205 17.2807 34.2858 17.3674C34.151 17.4541 33.9942 17.5001 33.834 17.5H28.614L30.2557 21.0417C31.5667 20.6645 32.9719 20.7959 34.1902 21.4097C35.4086 22.0235 36.3505 23.0744 36.8277 24.3525C37.3049 25.6306 37.2823 27.0416 36.7643 28.3037C36.2463 29.5658 35.2712 30.586 34.0338 31.1604C32.7963 31.7348 31.3877 31.8211 30.0894 31.402C28.7911 30.983 27.6988 30.0894 27.0306 28.9C26.3625 27.7106 26.1678 26.3128 26.4854 24.986C26.8031 23.6593 27.6096 22.5012 28.744 21.7433L27.4998 19.06L24.804 21.4558C24.7619 21.4934 24.7161 21.5267 24.6673 21.555V25C24.6673 25.663 24.4039 26.2989 23.9351 26.7678C23.4663 27.2366 22.8304 27.5 22.1673 27.5H18.834C18.3422 27.5001 17.8613 27.3552 17.4515 27.0833H14.604C14.391 28.4288 13.6789 29.6448 12.6097 30.4889C11.5405 31.333 10.1925 31.7434 8.83431 31.6383C7.47609 31.5332 6.2073 30.9203 5.28065 29.9218C4.354 28.9232 3.83748 27.6123 3.83399 26.25C3.83211 24.8845 4.34606 23.5686 5.27296 22.5658C6.19986 21.563 7.47131 20.9473 8.83278 20.842C10.1943 20.7367 11.5453 21.1494 12.6154 21.9977C13.6855 22.8459 14.3958 24.0671 14.604 25.4167H16.3682C16.3452 25.279 16.3337 25.1396 16.334 25V22.5C16.334 22.0283 16.4648 21.5875 16.6915 21.2117L16.3998 20.8017L4.58149 19.5792C4.37639 19.5579 4.18644 19.4614 4.04838 19.3083C3.91031 19.1551 3.83392 18.9562 3.83399 18.75V15.8333C3.83399 15.6123 3.92179 15.4004 4.07807 15.2441C4.23435 15.0878 4.44631 15 4.66732 15H13.5007L13.5673 14.9742L17.2507 13.7283C18.0244 13.4668 18.8356 13.3334 19.6523 13.3333H24.6673V12.9467L23.3015 10H19.6673V8.33333H23.834ZM26.684 13.3333L27.8423 15.8333H31.9973L29.8098 13.3333H26.684ZM18.0007 22.5C18.0007 22.279 18.0885 22.067 18.2447 21.9107C18.401 21.7545 18.613 21.6667 18.834 21.6667H23.0007V25C23.0007 25.221 22.9129 25.433 22.7566 25.5893C22.6003 25.7455 22.3883 25.8333 22.1673 25.8333H18.834C18.613 25.8333 18.401 25.7455 18.2447 25.5893C18.0885 25.433 18.0007 25.221 18.0007 25V22.5ZM26.7682 17.4808L23.934 20H17.8748L15.1632 16.1942L17.784 15.3075C18.3861 15.1038 19.0175 15 19.6532 15H25.619L26.7682 17.4808ZM15.1107 18.9917L13.454 16.6667H5.50066V17.9983L15.1107 18.9917ZM29.4573 23.2817C28.7279 23.8456 28.2318 24.6585 28.0638 25.565C27.8958 26.4716 28.0676 27.4082 28.5465 28.1961C29.0254 28.984 29.7777 29.5678 30.6598 29.8361C31.5419 30.1044 32.4919 30.0383 33.3283 29.6505C34.1648 29.2627 34.8291 28.5804 35.1943 27.7338C35.5595 26.8873 35.6 25.9358 35.3082 25.0613C35.0163 24.1867 34.4125 23.4503 33.6121 22.9928C32.8116 22.5352 31.8707 22.3886 30.969 22.5808L32.5065 25.8992C32.5914 26.0984 32.5954 26.3229 32.5177 26.525C32.4399 26.7271 32.2865 26.891 32.09 26.982C31.8935 27.073 31.6693 27.084 31.4649 27.0125C31.2604 26.941 31.0918 26.7928 30.9948 26.5992L29.4573 23.2817ZM9.25066 30C8.54478 29.9998 7.8533 29.8003 7.25574 29.4245C6.65818 29.0488 6.17881 28.512 5.87275 27.8759C5.56669 27.2399 5.44638 26.5303 5.52564 25.8289C5.6049 25.1275 5.88052 24.4627 6.32081 23.911C6.76109 23.3592 7.34816 22.943 8.0145 22.71C8.68084 22.4771 9.39939 22.437 10.0875 22.5943C10.7757 22.7516 11.4054 23.0999 11.9044 23.5992C12.4034 24.0985 12.7513 24.7284 12.9082 25.4167H9.25066C9.02964 25.4167 8.81768 25.5045 8.6614 25.6607C8.50512 25.817 8.41732 26.029 8.41732 26.25C8.41732 26.471 8.50512 26.683 8.6614 26.8393C8.81768 26.9955 9.02964 27.0833 9.25066 27.0833H12.9082C12.7193 27.912 12.2545 28.652 11.59 29.1819C10.9254 29.7118 10.1006 30.0003 9.25066 30Z" fill="#1F1F1F"/>
</svg>
