<svg width="145" height="144" viewBox="0 0 145 144" fill="none" xmlns="http://www.w3.org/2000/svg">
<path d="M72.4004 130.5C69.5014 130.5 67.057 129.485 64.9861 127.414C64.2967 126.725 64.0752 126.087 64.0611 125.556C64.0464 125.005 64.2523 124.391 64.7297 123.775C65.7068 122.516 67.6502 121.5 69.8351 121.5H74.9657C77.1506 121.5 79.094 122.516 80.0711 123.775C80.5485 124.391 80.7544 125.005 80.7397 125.556C80.7255 126.087 80.5041 126.725 79.8147 127.414C77.7438 129.485 75.2994 130.5 72.4004 130.5ZM54.4004 112.5C51.9151 112.5 49.9004 110.485 49.9004 108C49.9004 105.515 51.9151 103.5 54.4004 103.5H90.4004C92.8857 103.5 94.9004 105.515 94.9004 108C94.9004 110.485 92.8857 112.5 90.4004 112.5H54.4004ZM53.1966 94.5C51.2882 94.5 49.4605 94.0108 47.9764 92.9875C42.5504 89.2462 38.1506 84.5019 34.769 78.7407C30.8559 72.0739 28.9004 64.8365 28.9004 57C28.9004 44.8933 33.1206 34.6512 41.5861 26.1857C50.0516 17.7202 60.2937 13.5 72.4004 13.5C84.5071 13.5 94.7492 17.7202 103.215 26.1857C111.68 34.6512 115.9 44.8933 115.9 57C115.9 64.8365 113.945 72.0739 110.032 78.7407C106.65 84.5019 102.25 89.2462 96.8244 92.9875C95.3403 94.0108 93.5126 94.5 91.6042 94.5H53.1966ZM49.5054 82.7446C51.7072 84.691 54.5629 85.5 57.332 85.5H87.4687C90.2379 85.5 93.0936 84.691 95.2954 82.7446C98.5058 79.9065 101.095 76.6042 103.056 72.8434C105.619 67.9251 106.9 62.6367 106.9 57C106.9 47.4095 103.548 39.2258 96.8611 32.5393C90.1746 25.8529 81.9909 22.5 72.4004 22.5C62.8099 22.5 54.6262 25.8529 47.9397 32.5393C41.2533 39.2258 37.9004 47.4095 37.9004 57C37.9004 62.6367 39.1815 67.9251 41.7453 72.8434C43.7057 76.6042 46.295 79.9065 49.5054 82.7446Z" fill="#E2063A" stroke="white" stroke-width="3"/>
</svg>
