<svg width="28" height="28" viewBox="0 0 28 28" fill="none" xmlns="http://www.w3.org/2000/svg">
<g clip-path="url(#clip0_3676_58977)">
<path fill-rule="evenodd" clip-rule="evenodd" d="M20.1386 3.61723C19.8041 3.51158 19.4514 3.47642 19.1026 3.51398C18.4626 3.58258 17.8708 3.88627 17.4419 4.36623H15.0041C10.2188 4.36623 6.33988 8.28623 6.33988 13.1206V13.8556L1.17913 16.835C0.15101 17.3862 -0.0589904 18.4397 0.0127596 19.145C0.0810096 19.817 0.384635 20.4216 0.713635 20.8784C1.36551 21.784 2.59138 22.75 4.17426 22.75C5.85251 22.75 7.14226 21.8741 7.93676 21.3342L8.03476 21.2686C8.18643 21.1659 8.32176 21.0755 8.44076 20.9974C8.58951 21.0948 8.75051 21.2015 8.92376 21.3176L9.02351 21.3841C10.3605 22.2775 12.3756 23.625 15.0041 23.625C18.0911 23.625 20.2043 21.7096 21.7863 20.1232H25.4009C26.8368 20.1232 28.0005 18.9472 28.0005 17.4974V14.8706C28.0005 10.9445 25.8681 7.5241 22.7155 5.7216C22.605 5.2905 22.3864 4.8947 22.0804 4.57164C21.7743 4.24858 21.3909 4.00893 20.9664 3.87535L20.1386 3.61723ZM8.47838 18.9945C6.36088 17.9366 3.62126 17.9655 2.00776 18.3732L8.06101 14.8776C9.38051 14.9004 10.6913 14.98 11.995 15.169C14.9306 15.5942 17.8339 16.5751 20.738 18.7066C19.1123 20.3394 17.4384 21.8741 15.0041 21.8741C12.9015 21.8741 11.2626 20.7804 9.87926 19.8572C9.70352 19.7395 9.52706 19.6228 9.34988 19.5072C9.20989 19.4162 9.0728 19.3299 8.93863 19.2482C8.78892 19.1571 8.63536 19.0724 8.47838 18.9945ZM8.07238 13.1267C9.69726 13.1539 11.3344 13.265 12.9803 13.5546C16.3403 14.1461 19.7353 15.4831 23.1215 18.3724H25.4009C25.8795 18.3724 26.2671 17.9804 26.2671 17.4974V14.8706C26.2715 13.1562 25.7727 11.4782 24.8325 10.0446C23.8922 8.61096 22.552 7.48481 20.9778 6.80573C19.9112 6.3504 18.7634 6.11614 17.6038 6.1171H15.0041C11.176 6.1171 8.07238 9.25223 8.07238 13.1206V13.1267Z" fill="#DDDDDD"/>
</g>
<defs>
<clipPath id="clip0_3676_58977">
<rect width="28" height="28" fill="white"/>
</clipPath>
</defs>
</svg>
