<svg width="49" height="49" viewBox="0 0 49 49" fill="none" xmlns="http://www.w3.org/2000/svg">
<path d="M0.5 24.5C0.5 11.2452 11.2452 0.5 24.5 0.5C37.7548 0.5 48.5 11.2452 48.5 24.5C48.5 37.7548 37.7548 48.5 24.5 48.5C11.2452 48.5 0.5 37.7548 0.5 24.5Z" fill="#E2063A"/>
<rect x="4.5" y="4.5" width="40" height="40" rx="20" fill="#1F1F1F"/>
<path d="M25.8937 27.6911L25.8033 28.0755L26.7565 28.3699L27.0265 27.6699L27.0491 27.6114L27.5311 27.136L27.5311 27.136L27.5336 27.1336C27.8188 26.8483 28.078 26.654 28.3097 26.5341L28.3267 26.5253L28.3429 26.5153C28.7455 26.2664 29.2746 26.2088 29.837 26.4413C30.0637 26.5373 30.3118 26.6698 30.5818 26.8586C30.5823 26.8589 30.5828 26.8593 30.5833 26.8596L33.9003 29.2175L33.9002 29.2176L33.9101 29.2243C34.2053 29.4238 34.4077 29.6684 34.5271 29.949C34.6556 30.2762 34.71 30.5623 34.71 30.84C34.71 31.2433 34.6176 31.6514 34.4369 32.0386C34.2481 32.4431 34.0164 32.7904 33.7214 33.1121L33.7192 33.1145C33.1932 33.696 32.634 34.0981 31.9932 34.3562L31.992 34.3567C31.362 34.6123 30.6759 34.75 29.95 34.75C28.8999 34.75 27.7764 34.499 26.5949 33.9995C25.4351 33.5066 24.2582 32.8268 23.1041 31.9957C21.955 31.1508 20.8446 30.2075 19.7927 29.1756C18.7519 28.1247 17.8093 27.0152 16.9749 25.8766C16.1333 24.702 15.4636 23.5351 14.9908 22.416C14.4923 21.2269 14.25 20.0929 14.25 19.04C14.25 18.3211 14.3788 17.6432 14.6254 17.0128C14.8768 16.3755 15.283 15.7771 15.8414 15.2553L15.8415 15.2555L15.8512 15.2459C16.54 14.566 17.2979 14.25 18.09 14.25C18.4073 14.25 18.7345 14.3241 19.0071 14.4524L19.0071 14.4524L19.0105 14.454C19.3234 14.5984 19.5792 14.8101 19.764 15.0873L19.768 15.0934L19.7722 15.0993L22.0922 18.3693L22.0922 18.3693L22.095 18.3733C22.2865 18.6377 22.4234 18.8807 22.5146 19.1128L22.5178 19.1209L22.5212 19.1288C22.6293 19.3782 22.68 19.6105 22.68 19.82C22.68 20.0997 22.5999 20.3817 22.4313 20.6628L22.427 20.6699L22.4229 20.6772C22.3021 20.8946 22.1049 21.148 21.8364 21.4164L21.8364 21.4164L21.8289 21.4242L21.1489 22.1342L20.9403 22.352L21.0357 22.6381C21.057 22.702 21.0799 22.7478 21.0918 22.7716L21.0928 22.7736L21.099 22.786L21.1059 22.7981C21.2451 23.0418 21.5049 23.4273 21.9794 23.9842L21.9793 23.9843L21.9837 23.9893C22.4763 24.5522 22.9432 25.0701 23.4127 25.5497L23.4126 25.5498L23.4195 25.5566C24.0116 26.1387 24.5133 26.6103 24.9897 27.0039C25.3591 27.3149 25.6566 27.5363 25.8937 27.6911ZM29.2204 26.7541C28.9789 26.7346 28.766 26.8222 28.566 26.9431C28.3046 27.0778 28.0861 27.2669 27.8776 27.4753C27.8772 27.4757 27.8768 27.4761 27.8764 27.4764L27.1211 28.2219C27.1207 28.2222 27.1204 28.2225 27.1201 28.2228C26.8835 28.4525 26.4996 28.518 26.2065 28.4157L25.9705 28.3109C25.6052 28.1127 25.1607 27.7993 24.6543 27.3694C24.1863 26.9697 23.6762 26.4991 23.0539 25.8868C22.5725 25.3954 22.0909 24.8744 21.5892 24.2941C21.1409 23.7694 20.8307 23.3384 20.6433 22.997L20.5461 22.7541C20.4981 22.5653 20.49 22.4858 20.49 22.41C20.49 22.1787 20.57 21.9871 20.7236 21.8336L20.7236 21.8336L20.7304 21.8266L21.4771 21.05C21.6958 20.8308 21.8727 20.6105 21.9985 20.3976C22.1155 20.2061 22.18 20.008 22.18 19.8C22.18 19.6255 22.123 19.4352 22.0615 19.2877L22.0616 19.2877L22.0581 19.2796C21.9687 19.0753 21.8372 18.8637 21.6855 18.6574L19.3682 15.3813L19.3682 15.3813L19.3669 15.3794C19.2181 15.1711 19.0314 15.0142 18.8014 14.9069L18.8015 14.9068L18.7904 14.9019C18.5763 14.8082 18.3382 14.75 18.09 14.75C17.3781 14.75 16.7503 15.0656 16.1943 15.6087C15.6871 16.0839 15.3242 16.6129 15.0954 17.1951C14.86 17.7791 14.75 18.3926 14.75 19.04C14.75 20.048 14.9881 21.1242 15.4495 22.2148L15.4498 22.2154C15.9164 23.3146 16.5663 24.4475 17.3856 25.5741C18.2009 26.695 19.1273 27.7843 20.1447 28.8118L20.1447 28.8118L20.1482 28.8153C21.1657 29.8227 22.2648 30.7589 23.3953 31.5839C24.5018 32.3933 25.6451 33.0535 26.7854 33.5306C28.5611 34.2883 30.3098 34.503 31.8013 33.8819C32.3843 33.6417 32.8945 33.2766 33.3507 32.7656C33.6148 32.4779 33.8218 32.1664 33.9918 31.8042C34.142 31.4905 34.22 31.1576 34.22 30.82C34.22 30.5901 34.1753 30.3609 34.0669 30.1169L34.0623 30.1065L34.0572 30.0964C33.9975 29.977 33.887 29.7963 33.6163 29.6101L30.2997 27.2525L30.2967 27.2504C30.073 27.0938 29.8609 26.9743 29.6504 26.8877L29.6493 26.8872C29.6291 26.8789 29.6097 26.8704 29.5846 26.8594C29.5619 26.8493 29.5307 26.8355 29.4986 26.8227C29.4323 26.7963 29.3372 26.7636 29.2204 26.7541Z" stroke="white"/>
<path d="M30.75 21.5C30.75 21.6339 30.8661 21.75 31 21.75C31.1339 21.75 31.25 21.6339 31.25 21.5C31.25 20.8799 30.8031 19.9069 30.0147 19.0614C29.1859 18.1769 28.2893 17.75 27.5 17.75C27.3661 17.75 27.25 17.8661 27.25 18C27.25 18.1339 27.3661 18.25 27.5 18.25C28.2538 18.25 29.0271 18.7379 29.6548 19.408L30.75 21.5ZM30.75 21.5C30.75 21.1948 30.6124 20.8284 30.4372 20.4965M30.75 21.5L30.4372 20.4965M30.4372 20.4965C30.2516 20.1451 29.9858 19.7611 29.655 19.4082L30.4372 20.4965Z" stroke="white"/>
</svg>
