<svg width="32" height="32" viewBox="0 0 32 32" fill="none" xmlns="http://www.w3.org/2000/svg">
<rect width="32" height="32" rx="16" fill="#1F1F1F"/>
<path d="M9.39844 9.89658C9.39844 9.62043 9.6223 9.39658 9.89844 9.39658H10.3368C11.0637 9.39658 11.4811 9.86965 11.7229 10.3412C11.8886 10.6644 12.0079 11.0586 12.1064 11.4H22.4012C23.0648 11.4 23.5443 12.0344 23.3633 12.6728L21.8678 17.9473C21.6238 18.8078 20.8381 19.4017 19.9437 19.4017H14.8644C13.9626 19.4017 13.1724 18.7982 12.935 17.9282L12.2926 15.5739C12.2886 15.5632 12.285 15.5523 12.2817 15.5412L11.2524 12.0434C11.217 11.9273 11.1845 11.8149 11.1532 11.7063C11.0533 11.3608 10.9648 11.0545 10.833 10.7974C10.6737 10.4866 10.5273 10.3966 10.3368 10.3966H9.89844C9.6223 10.3966 9.39844 10.1727 9.39844 9.89658ZM13.2461 15.2692L13.8997 17.6649C14.0184 18.0999 14.4135 18.4017 14.8644 18.4017H19.9437C20.3909 18.4017 20.7837 18.1048 20.9057 17.6745L22.4012 12.4H12.402L13.2461 15.2692ZM16.4014 21.9C16.4014 22.7284 15.7298 23.4 14.9014 23.4C14.0729 23.4 13.4014 22.7284 13.4014 21.9C13.4014 21.0716 14.0729 20.4 14.9014 20.4C15.7298 20.4 16.4014 21.0716 16.4014 21.9ZM15.4014 21.9C15.4014 21.6239 15.1775 21.4 14.9014 21.4C14.6252 21.4 14.4014 21.6239 14.4014 21.9C14.4014 22.1761 14.6252 22.4 14.9014 22.4C15.1775 22.4 15.4014 22.1761 15.4014 21.9ZM21.4014 21.9C21.4014 22.7284 20.7298 23.4 19.9014 23.4C19.0729 23.4 18.4014 22.7284 18.4014 21.9C18.4014 21.0716 19.0729 20.4 19.9014 20.4C20.7298 20.4 21.4014 21.0716 21.4014 21.9ZM20.4014 21.9C20.4014 21.6239 20.1775 21.4 19.9014 21.4C19.6252 21.4 19.4014 21.6239 19.4014 21.9C19.4014 22.1761 19.6252 22.4 19.9014 22.4C20.1775 22.4 20.4014 22.1761 20.4014 21.9Z" fill="white"/>
</svg>
