<svg width="48" height="48" viewBox="0 0 48 48" fill="none" xmlns="http://www.w3.org/2000/svg">
<path d="M14.5 16.25C14.5 15.8358 14.8358 15.5 15.25 15.5H15.8083C16.7587 15.5 17.3278 16.139 17.6532 16.733C17.8702 17.1289 18.0271 17.5882 18.1498 18.004C18.1831 18.0013 18.2167 18 18.2508 18H30.7481C31.5783 18 32.1778 18.7944 31.9502 19.5928L30.1224 26.0019C29.7856 27.1832 28.7062 27.9978 27.4779 27.9978H21.5298C20.2913 27.9978 19.2056 27.1699 18.8778 25.9756L18.1173 23.2045L16.8587 18.9558L16.8567 18.9483C16.701 18.3805 16.5549 17.85 16.3377 17.4537C16.1269 17.0688 15.9588 17 15.8083 17H15.25C14.8358 17 14.5 16.6642 14.5 16.25ZM19.5728 22.8403L20.3243 25.5786C20.4733 26.1215 20.9668 26.4978 21.5298 26.4978H27.4779C28.0362 26.4978 28.5268 26.1275 28.68 25.5906L30.4168 19.5H18.5855L19.5591 22.7868C19.5643 22.8046 19.5689 22.8224 19.5728 22.8403ZM23 31C23 32.1046 22.1046 33 21 33C19.8954 33 19 32.1046 19 31C19 29.8954 19.8954 29 21 29C22.1046 29 23 29.8954 23 31ZM21.5 31C21.5 30.7239 21.2761 30.5 21 30.5C20.7239 30.5 20.5 30.7239 20.5 31C20.5 31.2761 20.7239 31.5 21 31.5C21.2761 31.5 21.5 31.2761 21.5 31ZM30 31C30 32.1046 29.1046 33 28 33C26.8954 33 26 32.1046 26 31C26 29.8954 26.8954 29 28 29C29.1046 29 30 29.8954 30 31ZM28.5 31C28.5 30.7239 28.2761 30.5 28 30.5C27.7239 30.5 27.5 30.7239 27.5 31C27.5 31.2761 27.7239 31.5 28 31.5C28.2761 31.5 28.5 31.2761 28.5 31Z" fill="black"/>
</svg>
