<svg width="837" height="842" viewBox="0 0 837 842" fill="none" xmlns="http://www.w3.org/2000/svg">
<g clip-path="url(#clip0_2085_12458)">
<rect width="837" height="842" rx="24" fill="black"/>
<path d="M16 421C16 401.118 32.1178 385 52 385C71.8823 385 88 401.118 88 421C88 440.882 71.8823 457 52 457C32.1178 457 16 440.882 16 421Z" stroke="#E2063A" stroke-width="5"/>
<path d="M108 421C108 401.118 124.118 385 144 385C163.882 385 180 401.118 180 421C180 440.882 163.882 457 144 457C124.118 457 108 440.882 108 421Z" stroke="#E2063A" stroke-width="5"/>
<path d="M200 421C200 401.118 216.118 385 236 385C255.882 385 272 401.118 272 421C272 440.882 255.882 457 236 457C216.118 457 200 440.882 200 421Z" stroke="#E2063A" stroke-width="5"/>
<path d="M292 421C292 401.118 308.118 385 328 385C347.882 385 364 401.118 364 421C364 440.882 347.882 457 328 457C308.118 457 292 440.882 292 421Z" stroke="#E2063A" stroke-width="5"/>
<path d="M384 421C384 401.118 400.118 385 420 385C439.882 385 456 401.118 456 421C456 440.882 439.882 457 420 457C400.118 457 384 440.882 384 421Z" stroke="#E2063A" stroke-width="5"/>
<path d="M476 421C476 401.118 492.118 385 512 385C531.882 385 548 401.118 548 421C548 440.882 531.882 457 512 457C492.118 457 476 440.882 476 421Z" stroke="#E2063A" stroke-width="5"/>
<path d="M568 421C568 401.118 584.118 385 604 385C623.882 385 640 401.118 640 421C640 440.882 623.882 457 604 457C584.118 457 568 440.882 568 421Z" stroke="#E2063A" stroke-width="5"/>
<path d="M660 421C660 401.118 676.118 385 696 385C715.882 385 732 401.118 732 421C732 440.882 715.882 457 696 457C676.118 457 660 440.882 660 421Z" stroke="#E2063A" stroke-width="5"/>
<path d="M752 421C752 401.118 768.118 385 788 385C807.882 385 824 401.118 824 421C824 440.882 807.882 457 788 457C768.118 457 752 440.882 752 421Z" stroke="#E2063A" stroke-width="5"/>
<path d="M16 517C16 497.118 32.1178 481 52 481C71.8823 481 88 497.118 88 517C88 536.882 71.8823 553 52 553C32.1178 553 16 536.882 16 517Z" stroke="#E2063A" stroke-width="5"/>
<path d="M108 517C108 497.118 124.118 481 144 481C163.882 481 180 497.118 180 517C180 536.882 163.882 553 144 553C124.118 553 108 536.882 108 517Z" stroke="#E2063A" stroke-width="5"/>
<path d="M200 517C200 497.118 216.118 481 236 481C255.882 481 272 497.118 272 517C272 536.882 255.882 553 236 553C216.118 553 200 536.882 200 517Z" stroke="#E2063A" stroke-width="5"/>
<path d="M292 517C292 497.118 308.118 481 328 481C347.882 481 364 497.118 364 517C364 536.882 347.882 553 328 553C308.118 553 292 536.882 292 517Z" stroke="#E2063A" stroke-width="5"/>
<path d="M384 517C384 497.118 400.118 481 420 481C439.882 481 456 497.118 456 517C456 536.882 439.882 553 420 553C400.118 553 384 536.882 384 517Z" stroke="#E2063A" stroke-width="5"/>
<path d="M476 517C476 497.118 492.118 481 512 481C531.882 481 548 497.118 548 517C548 536.882 531.882 553 512 553C492.118 553 476 536.882 476 517Z" stroke="#E2063A" stroke-width="5"/>
<path d="M568 517C568 497.118 584.118 481 604 481C623.882 481 640 497.118 640 517C640 536.882 623.882 553 604 553C584.118 553 568 536.882 568 517Z" stroke="#E2063A" stroke-width="5"/>
<path d="M660 517C660 497.118 676.118 481 696 481C715.882 481 732 497.118 732 517C732 536.882 715.882 553 696 553C676.118 553 660 536.882 660 517Z" stroke="#E2063A" stroke-width="5"/>
<path d="M752 517C752 497.118 768.118 481 788 481C807.882 481 824 497.118 824 517C824 536.882 807.882 553 788 553C768.118 553 752 536.882 752 517Z" stroke="#E2063A" stroke-width="5"/>
<path d="M16 613C16 593.118 32.1178 577 52 577C71.8823 577 88 593.118 88 613C88 632.882 71.8823 649 52 649C32.1178 649 16 632.882 16 613Z" stroke="#E2063A" stroke-width="5"/>
<path d="M108 613C108 593.118 124.118 577 144 577C163.882 577 180 593.118 180 613C180 632.882 163.882 649 144 649C124.118 649 108 632.882 108 613Z" stroke="#E2063A" stroke-width="5"/>
<path d="M200 613C200 593.118 216.118 577 236 577C255.882 577 272 593.118 272 613C272 632.882 255.882 649 236 649C216.118 649 200 632.882 200 613Z" stroke="#E2063A" stroke-width="5"/>
<path d="M292 613C292 593.118 308.118 577 328 577C347.882 577 364 593.118 364 613C364 632.882 347.882 649 328 649C308.118 649 292 632.882 292 613Z" stroke="#E2063A" stroke-width="5"/>
<path d="M384 613C384 593.118 400.118 577 420 577C439.882 577 456 593.118 456 613C456 632.882 439.882 649 420 649C400.118 649 384 632.882 384 613Z" stroke="#E2063A" stroke-width="5"/>
<path d="M476 613C476 593.118 492.118 577 512 577C531.882 577 548 593.118 548 613C548 632.882 531.882 649 512 649C492.118 649 476 632.882 476 613Z" stroke="#E2063A" stroke-width="5"/>
<path d="M568 613C568 593.118 584.118 577 604 577C623.882 577 640 593.118 640 613C640 632.882 623.882 649 604 649C584.118 649 568 632.882 568 613Z" stroke="#E2063A" stroke-width="5"/>
<path d="M660 613C660 593.118 676.118 577 696 577C715.882 577 732 593.118 732 613C732 632.882 715.882 649 696 649C676.118 649 660 632.882 660 613Z" stroke="#E2063A" stroke-width="5"/>
<path d="M752 613C752 593.118 768.118 577 788 577C807.882 577 824 593.118 824 613C824 632.882 807.882 649 788 649C768.118 649 752 632.882 752 613Z" stroke="#E2063A" stroke-width="5"/>
<path d="M16 709C16 689.118 32.1178 673 52 673C71.8823 673 88 689.118 88 709C88 728.882 71.8823 745 52 745C32.1178 745 16 728.882 16 709Z" stroke="#E2063A" stroke-width="5"/>
<path d="M108 709C108 689.118 124.118 673 144 673C163.882 673 180 689.118 180 709C180 728.882 163.882 745 144 745C124.118 745 108 728.882 108 709Z" stroke="#E2063A" stroke-width="5"/>
<path d="M200 709C200 689.118 216.118 673 236 673C255.882 673 272 689.118 272 709C272 728.882 255.882 745 236 745C216.118 745 200 728.882 200 709Z" stroke="#E2063A" stroke-width="5"/>
<path d="M292 709C292 689.118 308.118 673 328 673C347.882 673 364 689.118 364 709C364 728.882 347.882 745 328 745C308.118 745 292 728.882 292 709Z" stroke="#E2063A" stroke-width="5"/>
<path d="M384 709C384 689.118 400.118 673 420 673C439.882 673 456 689.118 456 709C456 728.882 439.882 745 420 745C400.118 745 384 728.882 384 709Z" stroke="#E2063A" stroke-width="5"/>
<path d="M476 709C476 689.118 492.118 673 512 673C531.882 673 548 689.118 548 709C548 728.882 531.882 745 512 745C492.118 745 476 728.882 476 709Z" stroke="#E2063A" stroke-width="5"/>
<path d="M568 709C568 689.118 584.118 673 604 673C623.882 673 640 689.118 640 709C640 728.882 623.882 745 604 745C584.118 745 568 728.882 568 709Z" stroke="#E2063A" stroke-width="5"/>
<path d="M660 709C660 689.118 676.118 673 696 673C715.882 673 732 689.118 732 709C732 728.882 715.882 745 696 745C676.118 745 660 728.882 660 709Z" stroke="#E2063A" stroke-width="5"/>
<path d="M752 709C752 689.118 768.118 673 788 673C807.882 673 824 689.118 824 709C824 728.882 807.882 745 788 745C768.118 745 752 728.882 752 709Z" stroke="#E2063A" stroke-width="5"/>
<path d="M16 805C16 785.118 32.1178 769 52 769C71.8823 769 88 785.118 88 805C88 824.882 71.8823 841 52 841C32.1178 841 16 824.882 16 805Z" stroke="#E2063A" stroke-width="5"/>
<path d="M108 805C108 785.118 124.118 769 144 769C163.882 769 180 785.118 180 805C180 824.882 163.882 841 144 841C124.118 841 108 824.882 108 805Z" stroke="#E2063A" stroke-width="5"/>
<path d="M200 805C200 785.118 216.118 769 236 769C255.882 769 272 785.118 272 805C272 824.882 255.882 841 236 841C216.118 841 200 824.882 200 805Z" stroke="#E2063A" stroke-width="5"/>
<path d="M292 805C292 785.118 308.118 769 328 769C347.882 769 364 785.118 364 805C364 824.882 347.882 841 328 841C308.118 841 292 824.882 292 805Z" stroke="#E2063A" stroke-width="5"/>
<path d="M384 805C384 785.118 400.118 769 420 769C439.882 769 456 785.118 456 805C456 824.882 439.882 841 420 841C400.118 841 384 824.882 384 805Z" stroke="#E2063A" stroke-width="5"/>
<path d="M476 805C476 785.118 492.118 769 512 769C531.882 769 548 785.118 548 805C548 824.882 531.882 841 512 841C492.118 841 476 824.882 476 805Z" stroke="#E2063A" stroke-width="5"/>
<path d="M568 805C568 785.118 584.118 769 604 769C623.882 769 640 785.118 640 805C640 824.882 623.882 841 604 841C584.118 841 568 824.882 568 805Z" stroke="#E2063A" stroke-width="5"/>
<path d="M660 805C660 785.118 676.118 769 696 769C715.882 769 732 785.118 732 805C732 824.882 715.882 841 696 841C676.118 841 660 824.882 660 805Z" stroke="#E2063A" stroke-width="5"/>
<path d="M752 805C752 785.118 768.118 769 788 769C807.882 769 824 785.118 824 805C824 824.882 807.882 841 788 841C768.118 841 752 824.882 752 805Z" stroke="#E2063A" stroke-width="5"/>
<path d="M16 37C16 17.1178 32.1178 1 52 1C71.8823 1 88 17.1178 88 37C88 56.8823 71.8823 73 52 73C32.1178 73 16 56.8823 16 37Z" stroke="#E2063A" stroke-width="5"/>
<path d="M108 37C108 17.1178 124.118 1 144 1C163.882 1 180 17.1178 180 37C180 56.8823 163.882 73 144 73C124.118 73 108 56.8823 108 37Z" stroke="#E2063A" stroke-width="5"/>
<path d="M200 37C200 17.1178 216.118 1 236 1C255.882 1 272 17.1178 272 37C272 56.8823 255.882 73 236 73C216.118 73 200 56.8823 200 37Z" stroke="#E2063A" stroke-width="5"/>
<path d="M292 37C292 17.1178 308.118 1 328 1C347.882 1 364 17.1178 364 37C364 56.8823 347.882 73 328 73C308.118 73 292 56.8823 292 37Z" stroke="#E2063A" stroke-width="5"/>
<path d="M384 37C384 17.1178 400.118 1 420 1C439.882 1 456 17.1178 456 37C456 56.8823 439.882 73 420 73C400.118 73 384 56.8823 384 37Z" stroke="#E2063A" stroke-width="5"/>
<path d="M476 37C476 17.1178 492.118 1 512 1C531.882 1 548 17.1178 548 37C548 56.8823 531.882 73 512 73C492.118 73 476 56.8823 476 37Z" stroke="#E2063A" stroke-width="5"/>
<path d="M568 37C568 17.1178 584.118 1 604 1C623.882 1 640 17.1178 640 37C640 56.8823 623.882 73 604 73C584.118 73 568 56.8823 568 37Z" stroke="#E2063A" stroke-width="5"/>
<path d="M660 37C660 17.1178 676.118 1 696 1C715.882 1 732 17.1178 732 37C732 56.8823 715.882 73 696 73C676.118 73 660 56.8823 660 37Z" stroke="#E2063A" stroke-width="5"/>
<path d="M752 37C752 17.1178 768.118 1 788 1C807.882 1 824 17.1178 824 37C824 56.8823 807.882 73 788 73C768.118 73 752 56.8823 752 37Z" stroke="#E2063A" stroke-width="5"/>
<path d="M16 133C16 113.118 32.1178 97 52 97C71.8823 97 88 113.118 88 133C88 152.882 71.8823 169 52 169C32.1178 169 16 152.882 16 133Z" stroke="#E2063A" stroke-width="5"/>
<path d="M108 133C108 113.118 124.118 97 144 97C163.882 97 180 113.118 180 133C180 152.882 163.882 169 144 169C124.118 169 108 152.882 108 133Z" stroke="#E2063A" stroke-width="5"/>
<path d="M200 133C200 113.118 216.118 97 236 97C255.882 97 272 113.118 272 133C272 152.882 255.882 169 236 169C216.118 169 200 152.882 200 133Z" stroke="#E2063A" stroke-width="5"/>
<path d="M292 133C292 113.118 308.118 97 328 97C347.882 97 364 113.118 364 133C364 152.882 347.882 169 328 169C308.118 169 292 152.882 292 133Z" stroke="#E2063A" stroke-width="5"/>
<path d="M384 133C384 113.118 400.118 97 420 97C439.882 97 456 113.118 456 133C456 152.882 439.882 169 420 169C400.118 169 384 152.882 384 133Z" stroke="#E2063A" stroke-width="5"/>
<path d="M476 133C476 113.118 492.118 97 512 97C531.882 97 548 113.118 548 133C548 152.882 531.882 169 512 169C492.118 169 476 152.882 476 133Z" stroke="#E2063A" stroke-width="5"/>
<path d="M568 133C568 113.118 584.118 97 604 97C623.882 97 640 113.118 640 133C640 152.882 623.882 169 604 169C584.118 169 568 152.882 568 133Z" stroke="#E2063A" stroke-width="5"/>
<path d="M660 133C660 113.118 676.118 97 696 97C715.882 97 732 113.118 732 133C732 152.882 715.882 169 696 169C676.118 169 660 152.882 660 133Z" stroke="#E2063A" stroke-width="5"/>
<path d="M752 133C752 113.118 768.118 97 788 97C807.882 97 824 113.118 824 133C824 152.882 807.882 169 788 169C768.118 169 752 152.882 752 133Z" stroke="#E2063A" stroke-width="5"/>
<path d="M16 229C16 209.118 32.1178 193 52 193C71.8823 193 88 209.118 88 229C88 248.882 71.8823 265 52 265C32.1178 265 16 248.882 16 229Z" stroke="#E2063A" stroke-width="5"/>
<path d="M108 229C108 209.118 124.118 193 144 193C163.882 193 180 209.118 180 229C180 248.882 163.882 265 144 265C124.118 265 108 248.882 108 229Z" stroke="#E2063A" stroke-width="5"/>
<path d="M200 229C200 209.118 216.118 193 236 193C255.882 193 272 209.118 272 229C272 248.882 255.882 265 236 265C216.118 265 200 248.882 200 229Z" stroke="#E2063A" stroke-width="5"/>
<path d="M292 229C292 209.118 308.118 193 328 193C347.882 193 364 209.118 364 229C364 248.882 347.882 265 328 265C308.118 265 292 248.882 292 229Z" stroke="#E2063A" stroke-width="5"/>
<path d="M384 229C384 209.118 400.118 193 420 193C439.882 193 456 209.118 456 229C456 248.882 439.882 265 420 265C400.118 265 384 248.882 384 229Z" stroke="#E2063A" stroke-width="5"/>
<path d="M476 229C476 209.118 492.118 193 512 193C531.882 193 548 209.118 548 229C548 248.882 531.882 265 512 265C492.118 265 476 248.882 476 229Z" stroke="#E2063A" stroke-width="5"/>
<path d="M568 229C568 209.118 584.118 193 604 193C623.882 193 640 209.118 640 229C640 248.882 623.882 265 604 265C584.118 265 568 248.882 568 229Z" stroke="#E2063A" stroke-width="5"/>
<path d="M660 229C660 209.118 676.118 193 696 193C715.882 193 732 209.118 732 229C732 248.882 715.882 265 696 265C676.118 265 660 248.882 660 229Z" stroke="#E2063A" stroke-width="5"/>
<path d="M752 229C752 209.118 768.118 193 788 193C807.882 193 824 209.118 824 229C824 248.882 807.882 265 788 265C768.118 265 752 248.882 752 229Z" stroke="#E2063A" stroke-width="5"/>
<path d="M16 325C16 305.118 32.1178 289 52 289C71.8823 289 88 305.118 88 325C88 344.882 71.8823 361 52 361C32.1178 361 16 344.882 16 325Z" stroke="#E2063A" stroke-width="5"/>
<path d="M108 325C108 305.118 124.118 289 144 289C163.882 289 180 305.118 180 325C180 344.882 163.882 361 144 361C124.118 361 108 344.882 108 325Z" stroke="#E2063A" stroke-width="5"/>
<path d="M200 325C200 305.118 216.118 289 236 289C255.882 289 272 305.118 272 325C272 344.882 255.882 361 236 361C216.118 361 200 344.882 200 325Z" stroke="#E2063A" stroke-width="5"/>
<path d="M292 325C292 305.118 308.118 289 328 289C347.882 289 364 305.118 364 325C364 344.882 347.882 361 328 361C308.118 361 292 344.882 292 325Z" stroke="#E2063A" stroke-width="5"/>
<path d="M384 325C384 305.118 400.118 289 420 289C439.882 289 456 305.118 456 325C456 344.882 439.882 361 420 361C400.118 361 384 344.882 384 325Z" stroke="#E2063A" stroke-width="5"/>
<path d="M476 325C476 305.118 492.118 289 512 289C531.882 289 548 305.118 548 325C548 344.882 531.882 361 512 361C492.118 361 476 344.882 476 325Z" stroke="#E2063A" stroke-width="5"/>
<path d="M568 325C568 305.118 584.118 289 604 289C623.882 289 640 305.118 640 325C640 344.882 623.882 361 604 361C584.118 361 568 344.882 568 325Z" stroke="#E2063A" stroke-width="5"/>
<path d="M660 325C660 305.118 676.118 289 696 289C715.882 289 732 305.118 732 325C732 344.882 715.882 361 696 361C676.118 361 660 344.882 660 325Z" stroke="#E2063A" stroke-width="5"/>
<path d="M752 325C752 305.118 768.118 289 788 289C807.882 289 824 305.118 824 325C824 344.882 807.882 361 788 361C768.118 361 752 344.882 752 325Z" stroke="#E2063A" stroke-width="5"/>
</g>
<defs>
<clipPath id="clip0_2085_12458">
<rect width="837" height="842" rx="24" fill="white"/>
</clipPath>
</defs>
</svg>
