<svg width="145" height="144" viewBox="0 0 145 144" fill="none" xmlns="http://www.w3.org/2000/svg">
<mask id="path-1-inside-1_2243_10383" fill="white">
<path d="M53.3008 134.55C48.7008 134.55 44.5758 133.35 40.9258 130.95C37.9296 128.98 35.4894 126.403 33.6051 123.221C33.0331 122.254 31.6269 122.107 30.8191 122.886C29.5381 124.123 28.057 125.136 26.3758 125.925C23.9258 127.075 21.4008 127.65 18.8008 127.65C13.7008 127.65 9.42578 125.9 5.97578 122.4C2.52578 118.9 0.800781 114.65 0.800781 109.65C0.800781 105.35 2.20078 101.475 5.00078 98.025C7.24599 95.2586 9.97343 93.4406 13.1831 92.5709C14.2793 92.2739 14.8682 90.9632 14.3112 89.9735C13.5441 88.6107 12.9156 87.1945 12.4258 85.725C11.6758 83.475 11.3008 81.1 11.3008 78.6C11.3008 74.6 12.3258 70.85 14.3758 67.35C16.1103 64.3887 18.4354 61.8926 21.3511 59.862C22.1623 59.297 23.2625 59.7382 23.5708 60.6774C23.9795 61.9221 24.4645 63.2213 25.0258 64.575C25.6593 66.103 26.3623 67.4782 27.1348 68.7006C27.567 69.3846 27.4378 70.2897 26.8631 70.8592C25.9681 71.7463 25.2306 72.7515 24.6508 73.875C23.8508 75.425 23.4508 77.05 23.4508 78.75C23.4508 84.35 25.7508 87.8 30.3508 89.1C34.7051 90.3306 38.8355 91.3371 42.7418 92.1197C43.161 92.2037 43.5256 92.4602 43.7438 92.8277L45.8964 96.4531C46.1212 96.8317 46.1682 97.2903 46.0249 97.7067C45.0202 100.624 44.1455 103.13 43.4008 105.225C42.6008 107.475 42.2008 109.5 42.2008 111.3C42.2008 114.3 43.2758 116.925 45.4258 119.175C47.5758 121.425 50.2008 122.55 53.3008 122.55C57.1008 122.55 60.2508 120.85 62.7508 117.45C65.2508 114.05 67.3008 110.05 68.9008 105.45C70.5008 100.85 71.7258 96.2 72.5758 91.5C73.2617 87.7075 73.8336 84.6312 74.2916 82.2711C74.4568 81.4199 75.3102 80.891 76.1475 81.1164L84.9444 83.4848C85.7075 83.6903 86.1806 84.4522 86.0233 85.2267C85.1776 89.3919 84.1701 94.083 83.0008 99.3C81.7008 105.1 79.8758 110.625 77.5258 115.875C75.1758 121.125 72.0758 125.55 68.2258 129.15C64.3758 132.75 59.4008 134.55 53.3008 134.55ZM18.8008 115.65C20.5008 115.65 21.9258 115.075 23.0758 113.925C24.2258 112.775 24.8008 111.35 24.8008 109.65C24.8008 107.95 24.2258 106.525 23.0758 105.375C21.9258 104.225 20.5008 103.65 18.8008 103.65C17.1008 103.65 15.6758 104.225 14.5258 105.375C13.3758 106.525 12.8008 107.95 12.8008 109.65C12.8008 111.35 13.3758 112.775 14.5258 113.925C15.6758 115.075 17.1008 115.65 18.8008 115.65ZM62.4022 90.9485C61.8401 91.5107 60.9366 91.5365 60.3442 91.0064C56.1594 87.2617 52.3366 83.7512 48.8758 80.475C45.1258 76.925 41.9008 73.475 39.2008 70.125C36.5008 66.775 34.4258 63.425 32.9758 60.075C31.5258 56.725 30.8008 53.25 30.8008 49.65C30.8008 43.15 33.0258 37.675 37.4758 33.225C41.9258 28.775 47.4008 26.55 53.9008 26.55C54.3008 26.55 54.6508 26.575 54.9508 26.625C55.4487 26.708 55.7977 26.1896 55.6377 25.7108C55.4138 25.0405 55.2348 24.3703 55.1008 23.7C54.9008 22.7 54.8008 21.65 54.8008 20.55C54.8008 15.55 56.5508 11.3 60.0508 7.79999C63.5508 4.29999 67.8008 2.54999 72.8008 2.54999C77.8008 2.54999 82.0508 4.29999 85.5508 7.79999C89.0508 11.3 90.8008 15.55 90.8008 20.55C90.8008 21.65 90.7008 22.675 90.5008 23.625C90.4356 23.9346 90.3598 24.2468 90.2734 24.5617C90.0072 25.5317 90.6949 26.55 91.7008 26.55C97.7008 26.55 102.801 28.475 107.001 32.325C110.697 35.7131 113.076 39.8176 114.139 44.6385C114.358 45.6278 113.483 46.4837 112.475 46.3848C111.217 46.2616 109.868 46.2 108.426 46.2C106.653 46.2 104.989 46.2621 103.434 46.3862C102.717 46.4434 102.059 45.9984 101.783 45.3348C101.039 43.5504 99.9036 42.0388 98.3758 40.8C96.5258 39.3 94.3008 38.55 91.7008 38.55C88.2008 38.55 85.4758 39.575 83.5258 41.625C81.6625 43.5838 79.1372 46.3873 75.95 50.0353C75.6648 50.3617 75.252 50.55 74.8185 50.55H70.6425C70.2036 50.55 69.7862 50.3569 69.5006 50.0236C66.2163 46.1901 63.6414 43.3406 61.7758 41.475C59.8258 39.525 57.2008 38.55 53.9008 38.55C50.7008 38.55 48.0508 39.6 45.9508 41.7C43.8508 43.8 42.8008 46.45 42.8008 49.65C42.8008 51.95 43.4508 54.325 44.7508 56.775C46.0508 59.225 47.8758 61.825 50.2258 64.575C52.5758 67.325 55.4258 70.25 58.7758 73.35C61.7955 76.1444 65.1199 79.1419 68.7491 82.3425C69.3991 82.9158 69.4318 83.9189 68.819 84.5318L62.4022 90.9485ZM72.8008 26.55C74.5008 26.55 75.9258 25.975 77.0758 24.825C78.2258 23.675 78.8008 22.25 78.8008 20.55C78.8008 18.85 78.2258 17.425 77.0758 16.275C75.9258 15.125 74.5008 14.55 72.8008 14.55C71.1008 14.55 69.6758 15.125 68.5258 16.275C67.3758 17.425 66.8008 18.85 66.8008 20.55C66.8008 22.25 67.3758 23.675 68.5258 24.825C69.6758 25.975 71.1008 26.55 72.8008 26.55ZM92.1508 134.55C89.9508 134.55 87.7758 134.25 85.6258 133.65C83.9746 133.189 82.3677 132.522 80.805 131.648C80.0356 131.218 79.8714 130.204 80.3818 129.485C81.1548 128.397 81.9278 127.185 82.7008 125.85C83.4929 124.482 84.2331 123.191 84.9215 121.979C85.3463 121.231 86.3074 120.999 87.0818 121.374C87.7215 121.683 88.3611 121.926 89.0008 122.1C90.1008 122.4 91.2008 122.55 92.3008 122.55C95.5008 122.55 98.1758 121.425 100.326 119.175C102.476 116.925 103.551 114.25 103.551 111.15C103.551 109.25 103.151 107.2 102.351 105C101.606 102.952 100.731 100.471 99.7268 97.5566C99.5833 97.1403 99.6304 96.6817 99.8552 96.3031L102.006 92.6812C102.225 92.3116 102.593 92.0544 103.014 91.9718C107.011 91.1889 111.165 90.1817 115.476 88.95C120.026 87.65 122.301 84.2 122.301 78.6C122.301 74.6 120.826 71.7 117.876 69.9C114.926 68.1 111.701 67.2 108.201 67.2C104.001 67.2 99.1008 68 93.5008 69.6C88.2799 71.0917 82.2333 72.9745 75.3609 75.2484C74.5416 75.5196 73.6616 75.0472 73.4372 74.2139L71.0728 65.4317C70.8645 64.6583 71.3009 63.8575 72.064 63.6144C79.3129 61.3051 85.8084 59.3503 91.5508 57.75C97.6508 56.05 103.251 55.2 108.351 55.2C115.251 55.2 121.301 57.25 126.501 61.35C131.701 65.45 134.301 71.2 134.301 78.6C134.301 81.1 133.926 83.475 133.176 85.725C132.686 87.1945 132.057 88.6107 131.29 89.9735C130.733 90.9632 131.322 92.2739 132.418 92.5709C135.628 93.4406 138.356 95.2586 140.601 98.025C143.401 101.475 144.801 105.35 144.801 109.65C144.801 114.65 143.076 118.9 139.626 122.4C136.176 125.9 131.901 127.65 126.801 127.65C124.201 127.65 121.676 127.075 119.226 125.925C117.545 125.136 116.063 124.123 114.782 122.886C113.975 122.107 112.568 122.254 111.997 123.221C110.112 126.403 107.672 128.98 104.676 130.95C101.026 133.35 96.8508 134.55 92.1508 134.55ZM126.951 115.65C128.651 115.65 130.051 115.075 131.151 113.925C132.251 112.775 132.801 111.35 132.801 109.65C132.801 107.95 132.226 106.5 131.076 105.3C129.926 104.1 128.501 103.5 126.801 103.5C125.101 103.5 123.676 104.075 122.526 105.225C121.376 106.375 120.801 107.8 120.801 109.5C120.801 111.2 121.401 112.65 122.601 113.85C123.801 115.05 125.251 115.65 126.951 115.65Z"/>
</mask>
<path d="M53.3008 134.55C48.7008 134.55 44.5758 133.35 40.9258 130.95C37.9296 128.98 35.4894 126.403 33.6051 123.221C33.0331 122.254 31.6269 122.107 30.8191 122.886C29.5381 124.123 28.057 125.136 26.3758 125.925C23.9258 127.075 21.4008 127.65 18.8008 127.65C13.7008 127.65 9.42578 125.9 5.97578 122.4C2.52578 118.9 0.800781 114.65 0.800781 109.65C0.800781 105.35 2.20078 101.475 5.00078 98.025C7.24599 95.2586 9.97343 93.4406 13.1831 92.5709C14.2793 92.2739 14.8682 90.9632 14.3112 89.9735C13.5441 88.6107 12.9156 87.1945 12.4258 85.725C11.6758 83.475 11.3008 81.1 11.3008 78.6C11.3008 74.6 12.3258 70.85 14.3758 67.35C16.1103 64.3887 18.4354 61.8926 21.3511 59.862C22.1623 59.297 23.2625 59.7382 23.5708 60.6774C23.9795 61.9221 24.4645 63.2213 25.0258 64.575C25.6593 66.103 26.3623 67.4782 27.1348 68.7006C27.567 69.3846 27.4378 70.2897 26.8631 70.8592C25.9681 71.7463 25.2306 72.7515 24.6508 73.875C23.8508 75.425 23.4508 77.05 23.4508 78.75C23.4508 84.35 25.7508 87.8 30.3508 89.1C34.7051 90.3306 38.8355 91.3371 42.7418 92.1197C43.161 92.2037 43.5256 92.4602 43.7438 92.8277L45.8964 96.4531C46.1212 96.8317 46.1682 97.2903 46.0249 97.7067C45.0202 100.624 44.1455 103.13 43.4008 105.225C42.6008 107.475 42.2008 109.5 42.2008 111.3C42.2008 114.3 43.2758 116.925 45.4258 119.175C47.5758 121.425 50.2008 122.55 53.3008 122.55C57.1008 122.55 60.2508 120.85 62.7508 117.45C65.2508 114.05 67.3008 110.05 68.9008 105.45C70.5008 100.85 71.7258 96.2 72.5758 91.5C73.2617 87.7075 73.8336 84.6312 74.2916 82.2711C74.4568 81.4199 75.3102 80.891 76.1475 81.1164L84.9444 83.4848C85.7075 83.6903 86.1806 84.4522 86.0233 85.2267C85.1776 89.3919 84.1701 94.083 83.0008 99.3C81.7008 105.1 79.8758 110.625 77.5258 115.875C75.1758 121.125 72.0758 125.55 68.2258 129.15C64.3758 132.75 59.4008 134.55 53.3008 134.55ZM18.8008 115.65C20.5008 115.65 21.9258 115.075 23.0758 113.925C24.2258 112.775 24.8008 111.35 24.8008 109.65C24.8008 107.95 24.2258 106.525 23.0758 105.375C21.9258 104.225 20.5008 103.65 18.8008 103.65C17.1008 103.65 15.6758 104.225 14.5258 105.375C13.3758 106.525 12.8008 107.95 12.8008 109.65C12.8008 111.35 13.3758 112.775 14.5258 113.925C15.6758 115.075 17.1008 115.65 18.8008 115.65ZM62.4022 90.9485C61.8401 91.5107 60.9366 91.5365 60.3442 91.0064C56.1594 87.2617 52.3366 83.7512 48.8758 80.475C45.1258 76.925 41.9008 73.475 39.2008 70.125C36.5008 66.775 34.4258 63.425 32.9758 60.075C31.5258 56.725 30.8008 53.25 30.8008 49.65C30.8008 43.15 33.0258 37.675 37.4758 33.225C41.9258 28.775 47.4008 26.55 53.9008 26.55C54.3008 26.55 54.6508 26.575 54.9508 26.625C55.4487 26.708 55.7977 26.1896 55.6377 25.7108C55.4138 25.0405 55.2348 24.3703 55.1008 23.7C54.9008 22.7 54.8008 21.65 54.8008 20.55C54.8008 15.55 56.5508 11.3 60.0508 7.79999C63.5508 4.29999 67.8008 2.54999 72.8008 2.54999C77.8008 2.54999 82.0508 4.29999 85.5508 7.79999C89.0508 11.3 90.8008 15.55 90.8008 20.55C90.8008 21.65 90.7008 22.675 90.5008 23.625C90.4356 23.9346 90.3598 24.2468 90.2734 24.5617C90.0072 25.5317 90.6949 26.55 91.7008 26.55C97.7008 26.55 102.801 28.475 107.001 32.325C110.697 35.7131 113.076 39.8176 114.139 44.6385C114.358 45.6278 113.483 46.4837 112.475 46.3848C111.217 46.2616 109.868 46.2 108.426 46.2C106.653 46.2 104.989 46.2621 103.434 46.3862C102.717 46.4434 102.059 45.9984 101.783 45.3348C101.039 43.5504 99.9036 42.0388 98.3758 40.8C96.5258 39.3 94.3008 38.55 91.7008 38.55C88.2008 38.55 85.4758 39.575 83.5258 41.625C81.6625 43.5838 79.1372 46.3873 75.95 50.0353C75.6648 50.3617 75.252 50.55 74.8185 50.55H70.6425C70.2036 50.55 69.7862 50.3569 69.5006 50.0236C66.2163 46.1901 63.6414 43.3406 61.7758 41.475C59.8258 39.525 57.2008 38.55 53.9008 38.55C50.7008 38.55 48.0508 39.6 45.9508 41.7C43.8508 43.8 42.8008 46.45 42.8008 49.65C42.8008 51.95 43.4508 54.325 44.7508 56.775C46.0508 59.225 47.8758 61.825 50.2258 64.575C52.5758 67.325 55.4258 70.25 58.7758 73.35C61.7955 76.1444 65.1199 79.1419 68.7491 82.3425C69.3991 82.9158 69.4318 83.9189 68.819 84.5318L62.4022 90.9485ZM72.8008 26.55C74.5008 26.55 75.9258 25.975 77.0758 24.825C78.2258 23.675 78.8008 22.25 78.8008 20.55C78.8008 18.85 78.2258 17.425 77.0758 16.275C75.9258 15.125 74.5008 14.55 72.8008 14.55C71.1008 14.55 69.6758 15.125 68.5258 16.275C67.3758 17.425 66.8008 18.85 66.8008 20.55C66.8008 22.25 67.3758 23.675 68.5258 24.825C69.6758 25.975 71.1008 26.55 72.8008 26.55ZM92.1508 134.55C89.9508 134.55 87.7758 134.25 85.6258 133.65C83.9746 133.189 82.3677 132.522 80.805 131.648C80.0356 131.218 79.8714 130.204 80.3818 129.485C81.1548 128.397 81.9278 127.185 82.7008 125.85C83.4929 124.482 84.2331 123.191 84.9215 121.979C85.3463 121.231 86.3074 120.999 87.0818 121.374C87.7215 121.683 88.3611 121.926 89.0008 122.1C90.1008 122.4 91.2008 122.55 92.3008 122.55C95.5008 122.55 98.1758 121.425 100.326 119.175C102.476 116.925 103.551 114.25 103.551 111.15C103.551 109.25 103.151 107.2 102.351 105C101.606 102.952 100.731 100.471 99.7268 97.5566C99.5833 97.1403 99.6304 96.6817 99.8552 96.3031L102.006 92.6812C102.225 92.3116 102.593 92.0544 103.014 91.9718C107.011 91.1889 111.165 90.1817 115.476 88.95C120.026 87.65 122.301 84.2 122.301 78.6C122.301 74.6 120.826 71.7 117.876 69.9C114.926 68.1 111.701 67.2 108.201 67.2C104.001 67.2 99.1008 68 93.5008 69.6C88.2799 71.0917 82.2333 72.9745 75.3609 75.2484C74.5416 75.5196 73.6616 75.0472 73.4372 74.2139L71.0728 65.4317C70.8645 64.6583 71.3009 63.8575 72.064 63.6144C79.3129 61.3051 85.8084 59.3503 91.5508 57.75C97.6508 56.05 103.251 55.2 108.351 55.2C115.251 55.2 121.301 57.25 126.501 61.35C131.701 65.45 134.301 71.2 134.301 78.6C134.301 81.1 133.926 83.475 133.176 85.725C132.686 87.1945 132.057 88.6107 131.29 89.9735C130.733 90.9632 131.322 92.2739 132.418 92.5709C135.628 93.4406 138.356 95.2586 140.601 98.025C143.401 101.475 144.801 105.35 144.801 109.65C144.801 114.65 143.076 118.9 139.626 122.4C136.176 125.9 131.901 127.65 126.801 127.65C124.201 127.65 121.676 127.075 119.226 125.925C117.545 125.136 116.063 124.123 114.782 122.886C113.975 122.107 112.568 122.254 111.997 123.221C110.112 126.403 107.672 128.98 104.676 130.95C101.026 133.35 96.8508 134.55 92.1508 134.55ZM126.951 115.65C128.651 115.65 130.051 115.075 131.151 113.925C132.251 112.775 132.801 111.35 132.801 109.65C132.801 107.95 132.226 106.5 131.076 105.3C129.926 104.1 128.501 103.5 126.801 103.5C125.101 103.5 123.676 104.075 122.526 105.225C121.376 106.375 120.801 107.8 120.801 109.5C120.801 111.2 121.401 112.65 122.601 113.85C123.801 115.05 125.251 115.65 126.951 115.65Z" fill="#E2063A" stroke="white" stroke-width="6" mask="url(#path-1-inside-1_2243_10383)"/>
</svg>
