<svg width="40" height="40" viewBox="0 0 40 40" fill="none" xmlns="http://www.w3.org/2000/svg">
<rect width="40" height="40" rx="20" fill="#1F1F1F"/>
<path d="M15.5 25H24.5C24.7761 25 25 25.2239 25 25.5C25 25.7455 24.8231 25.9496 24.5899 25.9919L24.5 26H15.5C15.2239 26 15 25.7761 15 25.5C15 25.2545 15.1769 25.0504 15.4101 25.0081L15.5 25H24.5H15.5ZM19.9101 13.0081L20 13C20.2455 13 20.4496 13.1769 20.4919 13.4101L20.5 13.5V22.292L23.182 19.6109C23.3555 19.4373 23.625 19.4181 23.8198 19.5531L23.8891 19.6109C24.0627 19.7845 24.0819 20.0539 23.9469 20.2488L23.8891 20.318L20.3536 23.8536C20.18 24.0271 19.9106 24.0464 19.7157 23.9114L19.6464 23.8536L16.1109 20.318C15.9157 20.1228 15.9157 19.8062 16.1109 19.6109C16.2845 19.4373 16.5539 19.4181 16.7488 19.5531L16.818 19.6109L19.5 22.292V13.5C19.5 13.2545 19.6769 13.0504 19.9101 13.0081L20 13L19.9101 13.0081Z" fill="white"/>
</svg>
