<svg width="24" height="24" viewBox="0 0 24 24" fill="none" xmlns="http://www.w3.org/2000/svg">
<path d="M9.5 4H14.5C14.5 2.61929 13.3807 1.5 12 1.5C10.6193 1.5 9.5 2.61929 9.5 4ZM8 4C8 1.79086 9.79086 0 12 0C14.2091 0 16 1.79086 16 4H22.25C22.6642 4 23 4.33579 23 4.75C23 5.16421 22.6642 5.5 22.25 5.5H20.9401L19.7233 20.1029C19.5398 22.3057 17.6984 24 15.488 24H8.51227C6.3019 24 4.46053 22.3057 4.27695 20.103L3.05991 5.5H1.75C1.33579 5.5 1 5.16421 1 4.75C1 4.33579 1.33579 4 1.75 4H8ZM5.77177 19.9784C5.89055 21.4037 7.08203 22.5 8.51227 22.5H15.488C16.9183 22.5 18.1097 21.4037 18.2285 19.9784L19.4349 5.5H4.56511L5.77177 19.9784ZM9.75 9C10.1642 9 10.5 9.33579 10.5 9.75V18.25C10.5 18.6642 10.1642 19 9.75 19C9.33579 19 9 18.6642 9 18.25V9.75C9 9.33579 9.33579 9 9.75 9ZM15 9.75C15 9.33579 14.6642 9 14.25 9C13.8358 9 13.5 9.33579 13.5 9.75V18.25C13.5 18.6642 13.8358 19 14.25 19C14.6642 19 15 18.6642 15 18.25V9.75Z" fill="#1F1F1F"/>
</svg>
