<svg width="251" height="250" viewBox="0 0 251 250" fill="none" xmlns="http://www.w3.org/2000/svg">
<g clip-path="url(#clip0_334_6448)">
<path d="M3 125C3 57.3451 57.8451 2.5 125.5 2.5C193.155 2.5 248 57.3451 248 125C248 192.655 193.155 247.5 125.5 247.5C57.8451 247.5 3 192.655 3 125Z" fill="white"/>
<path d="M126 149.52C101.936 149.52 82.48 130.064 82.48 106C82.48 81.936 101.936 62.48 126 62.48C150.064 62.48 169.52 81.936 169.52 106C169.52 130.064 150.064 149.52 126 149.52ZM126 67.6C104.752 67.6 87.6 84.752 87.6 106C87.6 127.248 104.752 144.4 126 144.4C147.248 144.4 164.4 127.248 164.4 106C164.4 84.752 147.248 67.6 126 67.6Z" fill="black"/>
<path d="M141.36 126.48C140.37 127.47 138.766 127.47 137.776 126.48L125.783 114.487C124.283 112.987 123.44 110.952 123.44 108.83V85.52C123.44 84.1061 124.586 82.96 126 82.96C127.414 82.96 128.56 84.1061 128.56 85.52V106.782C128.56 108.904 129.403 110.939 130.903 112.439L141.36 122.896C142.35 123.886 142.35 125.49 141.36 126.48Z" fill="black"/>
<path d="M75.9379 194.432H84.9139V197H73.1539V180.2H84.7699V182.72H75.9379V187.232H84.3619V189.728H75.9379V194.432ZM94.0723 186.464H91.7443V197H88.3363V186.464H86.8243V183.704H88.3363V183.032C88.3363 181.4 88.8003 180.2 89.7283 179.432C90.6563 178.664 92.0563 178.304 93.9283 178.352V181.184C93.1123 181.168 92.5443 181.304 92.2243 181.592C91.9043 181.88 91.7443 182.4 91.7443 183.152V183.704H94.0723V186.464ZM102.346 186.464H100.018V197H96.6098V186.464H95.0978V183.704H96.6098V183.032C96.6098 181.4 97.0738 180.2 98.0018 179.432C98.9298 178.664 100.33 178.304 102.202 178.352V181.184C101.386 181.168 100.818 181.304 100.498 181.592C100.178 181.88 100.018 182.4 100.018 183.152V183.704H102.346V186.464ZM105.963 183.368C105.467 183.368 105.051 183.216 104.715 182.912C104.395 182.592 104.235 182.2 104.235 181.736C104.235 181.24 104.395 180.84 104.715 180.536C105.035 180.216 105.451 180.056 105.963 180.056C106.475 180.056 106.891 180.216 107.211 180.536C107.531 180.84 107.691 181.24 107.691 181.736C107.691 182.2 107.523 182.592 107.187 182.912C106.867 183.216 106.459 183.368 105.963 183.368ZM104.643 185.144H107.331V197H104.643V185.144ZM116.206 197.264C115.038 197.264 113.982 197.032 113.038 196.568C112.094 196.088 111.342 195.384 110.782 194.456C110.238 193.512 109.966 192.392 109.966 191.096C109.966 189.816 110.246 188.712 110.806 187.784C111.366 186.84 112.126 186.12 113.086 185.624C114.046 185.128 115.126 184.88 116.326 184.88C117.11 184.88 117.846 184.992 118.534 185.216C119.238 185.424 119.862 185.728 120.406 186.128L119.086 188.144C118.302 187.552 117.382 187.256 116.326 187.256C115.254 187.256 114.374 187.6 113.686 188.288C112.998 188.976 112.654 189.896 112.654 191.048C112.654 192.248 112.99 193.192 113.662 193.88C114.35 194.552 115.206 194.888 116.23 194.888C116.806 194.888 117.342 194.808 117.838 194.648C118.334 194.488 118.838 194.2 119.35 193.784L120.574 195.848C119.95 196.328 119.278 196.688 118.558 196.928C117.854 197.152 117.07 197.264 116.206 197.264ZM124.362 183.368C123.866 183.368 123.45 183.216 123.114 182.912C122.794 182.592 122.634 182.2 122.634 181.736C122.634 181.24 122.794 180.84 123.114 180.536C123.434 180.216 123.85 180.056 124.362 180.056C124.874 180.056 125.29 180.216 125.61 180.536C125.93 180.84 126.09 181.24 126.09 181.736C126.09 182.2 125.922 182.592 125.586 182.912C125.266 183.216 124.858 183.368 124.362 183.368ZM123.042 185.144H125.73V197H123.042V185.144ZM140.196 190.952C140.196 191.224 140.18 191.584 140.148 192.032H131.076C131.156 192.928 131.524 193.64 132.18 194.168C132.852 194.696 133.684 194.96 134.676 194.96C135.3 194.96 135.94 194.856 136.596 194.648C137.252 194.424 137.836 194.088 138.348 193.64L139.62 195.416C139.044 196.024 138.3 196.488 137.388 196.808C136.476 197.112 135.54 197.264 134.58 197.264C133.348 197.264 132.26 197.016 131.316 196.52C130.388 196.008 129.66 195.288 129.132 194.36C128.62 193.416 128.364 192.32 128.364 191.072C128.364 189.856 128.628 188.784 129.156 187.856C129.7 186.912 130.444 186.184 131.388 185.672C132.348 185.144 133.428 184.88 134.628 184.88C136.292 184.88 137.636 185.4 138.66 186.44C139.684 187.48 140.196 188.984 140.196 190.952ZM134.532 187.184C133.62 187.184 132.86 187.424 132.252 187.904C131.644 188.368 131.26 189.064 131.1 189.992H137.652C137.588 189.08 137.276 188.384 136.716 187.904C136.156 187.424 135.428 187.184 134.532 187.184ZM145.131 185.144C145.131 185.672 145.107 186.392 145.059 187.304H145.131C145.483 186.504 146.011 185.904 146.715 185.504C147.435 185.104 148.291 184.904 149.283 184.904C150.883 184.904 152.107 185.376 152.955 186.32C153.803 187.248 154.227 188.584 154.227 190.328V197H151.539V190.568C151.539 189.528 151.291 188.72 150.795 188.144C150.315 187.568 149.603 187.28 148.659 187.28C147.699 187.28 146.907 187.608 146.283 188.264C145.659 188.92 145.347 189.752 145.347 190.76V197H142.659V185.144H145.131ZM162.917 197.264C161.749 197.264 160.693 197.032 159.749 196.568C158.805 196.088 158.053 195.384 157.493 194.456C156.949 193.512 156.677 192.392 156.677 191.096C156.677 189.816 156.957 188.712 157.517 187.784C158.077 186.84 158.837 186.12 159.797 185.624C160.757 185.128 161.837 184.88 163.037 184.88C163.821 184.88 164.557 184.992 165.245 185.216C165.949 185.424 166.573 185.728 167.117 186.128L165.797 188.144C165.013 187.552 164.093 187.256 163.037 187.256C161.965 187.256 161.085 187.6 160.397 188.288C159.709 188.976 159.365 189.896 159.365 191.048C159.365 192.248 159.701 193.192 160.373 193.88C161.061 194.552 161.917 194.888 162.941 194.888C163.517 194.888 164.053 194.808 164.549 194.648C165.045 194.488 165.549 194.2 166.061 193.784L167.285 195.848C166.661 196.328 165.989 196.688 165.269 196.928C164.565 197.152 163.781 197.264 162.917 197.264ZM180.795 185.144L175.059 199.52C174.611 200.64 174.067 201.456 173.427 201.968C172.803 202.48 172.027 202.736 171.099 202.736C170.251 202.736 169.427 202.504 168.627 202.04L169.539 199.856C169.987 200.128 170.459 200.264 170.955 200.264C171.371 200.264 171.707 200.144 171.963 199.904C172.235 199.68 172.499 199.248 172.755 198.608L173.283 197.336L168.147 185.144H171.075L173.379 190.952C173.795 191.992 174.211 193.136 174.627 194.384H174.675L174.915 193.664C175.411 192.176 175.715 191.28 175.827 190.976L177.891 185.144H180.795Z" fill="black"/>
<path fill-rule="evenodd" clip-rule="evenodd" d="M19 4.37109C15.2527 4.37109 11.659 5.85969 9.00925 8.5094C6.35954 11.1591 4.87094 14.7529 4.87094 18.5002C4.87094 22.2474 6.35954 25.8412 9.00925 28.4909C11.659 31.1406 15.2527 32.6292 19 32.6292C22.7473 32.6292 26.3411 31.1406 28.9908 28.4909C31.6405 25.8412 33.1291 22.2474 33.1291 18.5002C33.1291 14.7529 31.6405 11.1591 28.9908 8.5094C26.3411 5.85969 22.7473 4.37109 19 4.37109ZM6.89761 18.5002C6.89761 15.2904 8.17268 12.2121 10.4423 9.94247C12.712 7.67283 15.7903 6.39776 19 6.39776C22.2098 6.39776 25.2881 7.67283 27.5577 9.94247C29.8273 12.2121 31.1024 15.2904 31.1024 18.5002C31.1024 21.7099 29.8273 24.7882 27.5577 27.0578C25.2881 29.3275 22.2098 30.6026 19 30.6026C15.7903 30.6026 12.712 29.3275 10.4423 27.0578C8.17268 24.7882 6.89761 21.7099 6.89761 18.5002ZM20.0667 12.1002C20.0667 11.8173 19.9543 11.546 19.7543 11.3459C19.5542 11.1459 19.2829 11.0335 19 11.0335C18.7171 11.0335 18.4458 11.1459 18.2458 11.3459C18.0457 11.546 17.9333 11.8173 17.9333 12.1002V18.5002C17.9331 18.6403 17.9605 18.7792 18.0139 18.9088C18.0674 19.0383 18.1458 19.1561 18.2448 19.2554L22.5115 23.522C22.7118 23.7223 22.9834 23.8348 23.2667 23.8348C23.5499 23.8348 23.8216 23.7223 24.0219 23.522C24.2222 23.3217 24.3347 23.0501 24.3347 22.7668C24.3347 22.4836 24.2222 22.2119 24.0219 22.0116L20.0667 18.0586V12.1002Z" fill="black"/>
</g>
<path d="M3 125C3 57.3451 57.8451 2.5 125.5 2.5C193.155 2.5 248 57.3451 248 125C248 192.655 193.155 247.5 125.5 247.5C57.8451 247.5 3 192.655 3 125Z" stroke="black" stroke-width="5"/>
<defs>
<clipPath id="clip0_334_6448">
<path d="M3 125C3 57.3451 57.8451 2.5 125.5 2.5C193.155 2.5 248 57.3451 248 125C248 192.655 193.155 247.5 125.5 247.5C57.8451 247.5 3 192.655 3 125Z" fill="white"/>
</clipPath>
</defs>
</svg>
