<svg width="251" height="250" viewBox="0 0 251 250" fill="none" xmlns="http://www.w3.org/2000/svg">
<path d="M3 125C3 57.3451 57.8451 2.5 125.5 2.5C193.155 2.5 248 57.3451 248 125C248 192.655 193.155 247.5 125.5 247.5C57.8451 247.5 3 192.655 3 125Z" fill="white"/>
<path d="M3 125C3 57.3451 57.8451 2.5 125.5 2.5C193.155 2.5 248 57.3451 248 125C248 192.655 193.155 247.5 125.5 247.5C57.8451 247.5 3 192.655 3 125Z" stroke="black" stroke-width="5"/>
<path d="M113.432 103.032L122.568 93.8718L114.352 85.6318L111.14 88.8478C110.767 89.2211 110.311 89.4238 109.772 89.4558C109.239 89.4905 108.751 89.2878 108.308 88.8478C107.868 88.4051 107.648 87.9291 107.648 87.4198C107.648 86.9105 107.868 86.4345 108.308 85.9918L111.5 82.7998L103.692 74.9918L94.532 84.1518L113.432 103.032ZM144.768 134.392L153.928 125.232L146.124 117.424L142.908 120.616C142.519 121.005 142.06 121.213 141.532 121.24C141.004 121.266 140.519 121.058 140.076 120.616C139.636 120.173 139.416 119.701 139.416 119.2C139.416 118.698 139.636 118.226 140.076 117.784L143.268 114.568L135.108 106.432L125.968 115.568L144.768 134.392ZM96.232 136C95.304 136 94.5333 135.693 93.92 135.08C93.3067 134.466 93 133.696 93 132.768V124.7C93 124.268 93.0747 123.866 93.224 123.496C93.3733 123.122 93.6213 122.762 93.968 122.416L110.576 105.808L91.584 86.7398C90.8613 86.0145 90.5 85.1518 90.5 84.1518C90.5 83.1518 90.8613 82.2905 91.584 81.5678L101.104 72.0478C101.829 71.3225 102.692 70.9638 103.692 70.9718C104.692 70.9798 105.553 71.3451 106.276 72.0678L125.448 91.1398L143.316 73.2478C143.756 72.8051 144.22 72.4865 144.708 72.2918C145.196 72.0971 145.716 71.9998 146.268 71.9998C146.823 71.9998 147.343 72.0971 147.828 72.2918C148.313 72.4865 148.779 72.8051 149.224 73.2478L155.752 80.0318C156.195 80.4718 156.501 80.9358 156.672 81.4238C156.84 81.9091 156.924 82.4291 156.924 82.9838C156.924 83.5385 156.839 84.0425 156.668 84.4958C156.5 84.9491 156.195 85.3971 155.752 85.8398L138.04 103.652L156.952 122.724C157.677 123.444 158.04 124.305 158.04 125.308C158.04 126.31 157.677 127.172 156.952 127.892L147.432 137.412C146.709 138.137 145.848 138.5 144.848 138.5C143.848 138.5 142.985 138.138 142.26 137.416L123.192 118.424L106.584 135.032C106.237 135.378 105.877 135.626 105.504 135.776C105.131 135.925 104.729 136 104.3 136H96.232ZM97 132H103.908L143.188 92.7478L136.252 85.8158L97 125.096V132ZM139.768 89.2518L136.252 85.8158L143.184 92.7478L139.768 89.2518Z" fill="black"/>
<path d="M76.391 180.432H85.367V183H73.607V166.2H85.223V168.72H76.391V173.232H84.815V175.728H76.391V180.432ZM98.8694 183H95.6534L94.1654 180.696C93.4454 179.528 93.0374 178.8 92.9414 178.512H92.8934C92.7174 178.928 92.2854 179.664 91.5974 180.72L90.1094 183H86.9414L91.1414 176.928L87.1814 171.144H90.3974L91.9574 173.616C92.4534 174.384 92.7654 174.928 92.8934 175.248H92.9414C93.1014 174.848 93.4054 174.304 93.8534 173.616L95.3894 171.144H98.5574L94.6214 176.856L98.8694 183ZM103.447 171.144C103.447 171.528 103.399 172.184 103.303 173.112H103.351C103.671 172.488 104.215 171.96 104.983 171.528C105.751 171.096 106.631 170.88 107.623 170.88C108.711 170.88 109.695 171.136 110.575 171.648C111.455 172.16 112.143 172.888 112.639 173.832C113.135 174.76 113.383 175.84 113.383 177.072C113.383 178.304 113.127 179.392 112.615 180.336C112.119 181.264 111.423 181.984 110.527 182.496C109.647 183.008 108.655 183.264 107.551 183.264C106.575 183.264 105.727 183.064 105.007 182.664C104.287 182.248 103.759 181.72 103.423 181.08H103.351C103.447 181.816 103.495 182.72 103.495 183.792V188.472H100.807V171.144H103.447ZM107.023 180.888C108.095 180.888 108.975 180.536 109.663 179.832C110.351 179.128 110.695 178.224 110.695 177.12C110.695 175.984 110.359 175.056 109.687 174.336C109.015 173.616 108.143 173.256 107.071 173.256C106.015 173.256 105.151 173.616 104.479 174.336C103.807 175.04 103.471 175.936 103.471 177.024C103.471 178.16 103.799 179.088 104.455 179.808C105.127 180.528 105.983 180.888 107.023 180.888ZM126.938 176.952C126.938 177.224 126.922 177.584 126.89 178.032H117.818C117.898 178.928 118.266 179.64 118.922 180.168C119.594 180.696 120.426 180.96 121.418 180.96C122.042 180.96 122.682 180.856 123.338 180.648C123.994 180.424 124.578 180.088 125.09 179.64L126.362 181.416C125.786 182.024 125.042 182.488 124.13 182.808C123.218 183.112 122.282 183.264 121.322 183.264C120.09 183.264 119.002 183.016 118.058 182.52C117.13 182.008 116.402 181.288 115.874 180.36C115.362 179.416 115.106 178.32 115.106 177.072C115.106 175.856 115.37 174.784 115.898 173.856C116.442 172.912 117.186 172.184 118.13 171.672C119.09 171.144 120.17 170.88 121.37 170.88C123.034 170.88 124.378 171.4 125.402 172.44C126.426 173.48 126.938 174.984 126.938 176.952ZM121.274 173.184C120.362 173.184 119.602 173.424 118.994 173.904C118.386 174.368 118.002 175.064 117.842 175.992H124.394C124.33 175.08 124.018 174.384 123.458 173.904C122.898 173.424 122.17 173.184 121.274 173.184ZM131.897 171.144C131.897 171.736 131.873 172.384 131.825 173.088H131.873C132.129 172.464 132.569 171.944 133.193 171.528C133.817 171.112 134.561 170.904 135.425 170.904C136.033 170.904 136.569 170.984 137.033 171.144L136.337 173.52C136.017 173.392 135.625 173.328 135.161 173.328C134.233 173.328 133.489 173.648 132.929 174.288C132.369 174.928 132.089 175.784 132.089 176.856V183H129.401V171.144H131.897ZM146.856 182.592C146.392 182.8 145.952 182.944 145.536 183.024C145.136 183.12 144.688 183.168 144.192 183.168C142.944 183.168 141.984 182.808 141.312 182.088C140.64 181.368 140.304 180.32 140.304 178.944V173.376H138.072V171.144H140.304V168.048L142.968 167.76V171.144H146.376V173.376H142.968V178.872C142.968 180.184 143.52 180.84 144.624 180.84C145.104 180.84 145.6 180.712 146.112 180.456L146.856 182.592ZM150.338 169.368C149.842 169.368 149.426 169.216 149.09 168.912C148.77 168.592 148.61 168.2 148.61 167.736C148.61 167.24 148.77 166.84 149.09 166.536C149.41 166.216 149.826 166.056 150.338 166.056C150.85 166.056 151.266 166.216 151.586 166.536C151.906 166.84 152.066 167.24 152.066 167.736C152.066 168.2 151.898 168.592 151.562 168.912C151.242 169.216 150.834 169.368 150.338 169.368ZM149.018 171.144H151.706V183H149.018V171.144ZM159.525 183.336C158.597 183.336 157.709 183.224 156.861 183C156.013 182.76 155.141 182.392 154.245 181.896L155.349 179.856C156.805 180.64 158.213 181.032 159.573 181.032C160.229 181.032 160.757 180.896 161.157 180.624C161.557 180.352 161.757 179.992 161.757 179.544C161.757 179.096 161.557 178.752 161.157 178.512C160.773 178.256 160.165 178.088 159.333 178.008C157.829 177.848 156.685 177.472 155.901 176.88C155.133 176.272 154.749 175.472 154.749 174.48C154.749 173.408 155.189 172.544 156.069 171.888C156.949 171.232 158.101 170.904 159.525 170.904C160.277 170.904 161.021 171 161.757 171.192C162.509 171.368 163.197 171.624 163.821 171.96L162.981 174.024C162.389 173.72 161.781 173.488 161.157 173.328C160.549 173.168 159.981 173.088 159.453 173.088C158.797 173.088 158.285 173.208 157.917 173.448C157.549 173.688 157.365 174.016 157.365 174.432C157.365 174.848 157.541 175.176 157.893 175.416C158.245 175.64 158.813 175.8 159.597 175.896C161.325 176.12 162.557 176.52 163.293 177.096C164.029 177.656 164.397 178.488 164.397 179.592C164.397 180.712 163.949 181.616 163.053 182.304C162.157 182.992 160.981 183.336 159.525 183.336ZM177.938 176.952C177.938 177.224 177.922 177.584 177.89 178.032H168.818C168.898 178.928 169.266 179.64 169.922 180.168C170.594 180.696 171.426 180.96 172.418 180.96C173.042 180.96 173.682 180.856 174.338 180.648C174.994 180.424 175.578 180.088 176.09 179.64L177.362 181.416C176.786 182.024 176.042 182.488 175.13 182.808C174.218 183.112 173.282 183.264 172.322 183.264C171.09 183.264 170.002 183.016 169.058 182.52C168.13 182.008 167.402 181.288 166.874 180.36C166.362 179.416 166.106 178.32 166.106 177.072C166.106 175.856 166.37 174.784 166.898 173.856C167.442 172.912 168.186 172.184 169.13 171.672C170.09 171.144 171.17 170.88 172.37 170.88C174.034 170.88 175.378 171.4 176.402 172.44C177.426 173.48 177.938 174.984 177.938 176.952ZM172.274 173.184C171.362 173.184 170.602 173.424 169.994 173.904C169.386 174.368 169.002 175.064 168.842 175.992H175.394C175.33 175.08 175.018 174.384 174.458 173.904C173.898 173.424 173.17 173.184 172.274 173.184Z" fill="black"/>
</svg>
