<svg width="48" height="49" viewBox="0 0 48 49" fill="none" xmlns="http://www.w3.org/2000/svg">
<path d="M26.6667 20.8287V24.6954H30.1333C30.4 24.6954 30.5333 24.962 30.5333 25.2287L30 27.762C30 27.8954 29.7333 28.0287 29.6 28.0287H26.6667V37.762H22.6667V28.162H20.4C20.1333 28.162 20 28.0287 20 27.762V25.2287C20 24.962 20.1333 24.8287 20.4 24.8287H22.6667V20.4287C22.6667 18.162 24.4 16.4287 26.6667 16.4287H30.2667C30.5333 16.4287 30.6667 16.562 30.6667 16.8287V20.0287C30.6667 20.2954 30.5333 20.4287 30.2667 20.4287H27.0667C26.8 20.4287 26.6667 20.562 26.6667 20.8287Z" stroke="#9A9A9A" stroke-width="1.5" stroke-miterlimit="10" stroke-linecap="round"/>
<path d="M28.0013 37.7619H20.0013C13.3346 37.7619 10.668 35.0952 10.668 28.4285V20.4285C10.668 13.7619 13.3346 11.0952 20.0013 11.0952H28.0013C34.668 11.0952 37.3346 13.7619 37.3346 20.4285V28.4285C37.3346 35.0952 34.668 37.7619 28.0013 37.7619Z" stroke="#9A9A9A" stroke-width="1.5" stroke-linecap="round" stroke-linejoin="round"/>
</svg>
