<svg width="362" height="195" viewBox="0 0 362 195" fill="none" xmlns="http://www.w3.org/2000/svg">
<g clip-path="url(#clip0_6056_55104)">
<path d="M0 32C0 14.3269 14.3269 0 32 0H264.5C318.348 0 362 43.6522 362 97.5V97.5C362 151.348 318.348 195 264.5 195H32C14.3269 195 0 180.673 0 163V32Z" fill="#1F1F1F"/>
<g opacity="0.4">
<path d="M286.665 98.1121C284.981 99.7074 281.689 101.173 279.376 101.358C259.737 103.128 210.835 95.8096 192.513 54.6599C184.426 36.4952 192.52 15.2818 210.567 7.24667C221.266 2.4832 233.034 3.44247 242.531 8.79381C244.909 -1.84447 252.129 -11.2576 262.769 -15.9949C280.816 -24.03 301.997 -15.8507 310.084 2.31397C328.405 43.4637 301.122 84.7022 286.665 98.1121Z" stroke="#E2063A" stroke-width="9.65229" stroke-linecap="round" stroke-linejoin="round"/>
</g>
</g>
<defs>
<clipPath id="clip0_6056_55104">
<path d="M0 32C0 14.3269 14.3269 0 32 0H264.5C318.348 0 362 43.6522 362 97.5V97.5C362 151.348 318.348 195 264.5 195H32C14.3269 195 0 180.673 0 163V32Z" fill="white"/>
</clipPath>
</defs>
</svg>
