<svg width="168" height="112" viewBox="0 0 168 112" fill="none" xmlns="http://www.w3.org/2000/svg">
<g clip-path="url(#clip0_6055_55079)">
<path d="M0 16C0 7.16344 7.16344 0 16 0H136C153.673 0 168 14.3269 168 32V80C168 97.6731 153.673 112 136 112H32C14.3269 112 0 97.6731 0 80V16Z" fill="#1F1F1F"/>
<g opacity="0.4">
<path d="M119.309 89.0316C118.467 89.8293 116.821 90.5621 115.664 90.6543C105.845 91.5395 81.3938 87.8804 72.2333 67.3055C68.1896 58.2232 72.2367 47.6165 81.2603 43.5989C86.6098 41.2172 92.4936 41.6968 97.242 44.3725C98.4309 39.0534 102.041 34.3468 107.361 31.9781C116.385 27.9606 126.975 32.0502 131.019 41.1326C140.179 61.7075 126.537 82.3267 119.309 89.0316Z" stroke="#E2063A" stroke-width="4.82615" stroke-linecap="round" stroke-linejoin="round"/>
</g>
</g>
<defs>
<clipPath id="clip0_6055_55079">
<path d="M0 16C0 7.16344 7.16344 0 16 0H136C153.673 0 168 14.3269 168 32V80C168 97.6731 153.673 112 136 112H32C14.3269 112 0 97.6731 0 80V16Z" fill="white"/>
</clipPath>
</defs>
</svg>
