<svg width="32" height="32" viewBox="0 0 32 32" fill="none" xmlns="http://www.w3.org/2000/svg">
<rect width="32" height="32" rx="16" fill="#1F1F1F"/>
<path d="M11.4004 12.9C11.4004 12.6239 11.6242 12.4 11.9004 12.4H20.9004C21.1765 12.4 21.4004 12.6239 21.4004 12.9C21.4004 13.1761 21.1765 13.4 20.9004 13.4H11.9004C11.6242 13.4 11.4004 13.1761 11.4004 12.9ZM13.4004 15.9C13.4004 15.6239 13.6242 15.4 13.9004 15.4H18.9004C19.1765 15.4 19.4004 15.6239 19.4004 15.9C19.4004 16.1761 19.1765 16.4 18.9004 16.4H13.9004C13.6242 16.4 13.4004 16.1761 13.4004 15.9ZM15.4004 18.4C15.1242 18.4 14.9004 18.6239 14.9004 18.9C14.9004 19.1761 15.1242 19.4 15.4004 19.4H17.4004C17.6765 19.4 17.9004 19.1761 17.9004 18.9C17.9004 18.6239 17.6765 18.4 17.4004 18.4H15.4004Z" fill="white" stroke="white" stroke-width="0.8" stroke-linecap="round"/>
</svg>
