<svg width="123" height="32" viewBox="0 0 123 32" fill="none" xmlns="http://www.w3.org/2000/svg">
<g clip-path="url(#clip0_4377_60743)">
<path d="M39.8715 10.9211H37.7344V21.8429H39.8715V10.9211Z" fill="#2A3362"/>
<path d="M48.1539 17.9696C48.1539 19.4715 47.1716 20.1566 45.8707 20.1566C44.5699 20.1566 43.6938 19.4847 43.6938 18.0486V14.1489H41.5566V18.5361C41.5566 20.7231 42.9372 22.0011 45.2336 22.0011C46.6805 22.0011 47.4769 21.4741 48.0211 20.8812H48.1406L48.3265 21.8561H50.291V14.1489H48.1539V17.9696Z" fill="#2A3362"/>
<path d="M69.1266 20.3278C67.5602 20.3278 66.6841 19.6164 66.5381 18.5888H73.3212C73.3477 18.378 73.3743 18.154 73.361 17.9432C73.3477 15.1765 71.2372 14.004 68.9806 14.004C66.3655 14.004 64.3877 15.5586 64.3877 18.0618C64.3877 20.4464 66.2726 22.001 69.1133 22.001C71.4894 22.001 73.069 20.9602 73.3876 19.3529H71.277C71.038 19.9853 70.2814 20.3278 69.1266 20.3278ZM68.9938 15.6772C70.3611 15.6772 71.1442 16.2832 71.277 17.1264H66.5912C66.7903 16.3095 67.5868 15.6772 68.9938 15.6772Z" fill="#2A3362"/>
<path d="M77.0121 15.2556H76.8793L76.6802 14.1489H74.7422V21.843H76.8793V18.5361C76.8793 17.0474 77.7421 16.2174 79.3616 16.2174C79.6536 16.2174 79.9457 16.2437 80.2377 16.2964V14.1489H79.9457C78.4988 14.1489 77.6227 14.4519 77.0121 15.2556Z" fill="#2A3362"/>
<path d="M90.7234 19.4452H90.6039L88.7721 14.6364H86.5686L84.7766 19.432H84.6306L82.9315 14.1489H80.8076L83.4226 21.843H85.7456L87.604 16.942H87.7367L89.5685 21.843H91.9048L94.5198 14.1489H92.3959L90.7234 19.4452Z" fill="#2A3362"/>
<path d="M103.029 19.6032V17.0342C103.029 14.9394 101.25 14.004 99.0336 14.004C96.684 14.004 95.2106 15.1106 95.0115 16.7707H97.1486C97.3079 16.046 97.9185 15.6508 99.0336 15.6508C100.149 15.6508 100.892 16.0724 100.892 16.9156V17.1132L97.4009 17.3767C95.7947 17.4953 94.6133 18.2067 94.6133 19.7218C94.6133 21.2764 95.9672 22.0142 97.9451 22.0142C99.5513 22.0142 100.52 21.5663 101.118 20.9075H101.224C101.556 21.6585 102.246 21.8693 102.976 21.8693H103.879V20.3015H103.68C103.241 20.2751 103.029 20.0643 103.029 19.6032ZM100.892 18.7864C100.892 19.9985 99.4318 20.4069 98.184 20.4069C97.3345 20.4069 96.777 20.1961 96.777 19.6032C96.777 19.0762 97.2548 18.8259 97.9716 18.76L100.905 18.5492L100.892 18.7864Z" fill="#2A3362"/>
<path d="M110.941 14.1489L108.446 19.7218H108.313L105.777 14.1489H103.468L107.078 21.843H109.64L113.238 14.1489H110.941Z" fill="#2A3362"/>
<path d="M120.074 19.3529C119.808 19.9853 119.052 20.3278 117.91 20.3278C116.344 20.3278 115.468 19.6164 115.322 18.5888H122.105C122.131 18.378 122.158 18.154 122.145 17.9432C122.131 15.1765 120.021 14.004 117.764 14.004C115.149 14.004 113.185 15.5586 113.185 18.0618C113.185 20.4464 115.069 22.001 117.91 22.001C120.286 22.001 121.866 20.9602 122.184 19.3529H120.074ZM117.764 15.6772C119.131 15.6772 119.915 16.2832 120.047 17.1264H115.362C115.561 16.3095 116.344 15.6772 117.764 15.6772Z" fill="#2A3362"/>
<path d="M34.2699 13.5824C34.2699 12.9105 34.7478 12.6206 35.3717 12.6206C35.6637 12.6206 35.9425 12.6601 36.2212 12.7392L36.5796 11.1978C36.0619 11.0133 35.5177 10.9211 34.9735 10.9211C33.3938 10.9211 32.1195 11.7511 32.1195 13.477V14.1489H30.2744V15.8353H32.1195V21.8429H34.2699V15.8353H36.6858V14.1489H34.2699V13.5824Z" fill="#2A3362"/>
<path d="M55.0302 11.9882H53.0391L52.9329 14.1621H51.2471V15.8484H52.8931V19.6427C52.8931 20.9339 53.5568 22.0142 55.5479 22.0142C56.0656 22.0142 56.5833 21.9615 57.0877 21.8429V20.2224C56.7957 20.2883 56.5036 20.3278 56.1983 20.3278C55.1364 20.3278 55.0302 19.7218 55.0302 19.2607V15.8352H57.1541V14.1489H55.0302V11.9882Z" fill="#2A3362"/>
<path d="M61.7464 11.9882H59.7686L59.6624 14.1621H57.9766V15.8484H59.6226V19.6427C59.6226 20.9339 60.2863 22.0142 62.2774 22.0142C62.7951 22.0142 63.2995 21.9483 63.8039 21.8429V20.2224C63.5119 20.2883 63.2198 20.3278 62.9145 20.3278C61.8526 20.3278 61.7464 19.7218 61.7464 19.2607V15.8352H63.8703V14.1489H61.7331V11.9882H61.7464Z" fill="#2A3362"/>
<path d="M0.5 10.6312C0.5 9.39277 0.858402 8.33879 1.6283 7.58783L2.95572 8.9053C1.48229 10.3677 2.76988 14.913 6.97778 19.0894C11.1857 23.2658 15.7653 24.5437 17.2387 23.0813L18.5661 24.3988C16.0706 26.8756 10.4025 25.1102 5.65037 20.4068C2.35838 17.1263 0.5 13.4242 0.5 10.6312Z" fill="#009A46"/>
<path d="M8.8759 25.5318C7.62813 25.5318 6.5662 25.1761 5.80957 24.412L7.13698 23.0945C8.61041 24.5569 13.19 23.2789 17.3979 19.1026C21.6058 14.9262 22.8934 10.3809 21.42 8.91849L22.7474 7.60101C25.2429 10.0779 23.4642 15.7035 18.7253 20.42C15.42 23.6874 11.6767 25.5318 8.8759 25.5318Z" fill="#FF5805"/>
<path d="M19.1495 18.5361C18.3398 16.2305 16.6938 13.7669 14.5168 11.6062C9.76468 6.88965 4.09662 5.13741 1.60109 7.60109C1.42852 7.78553 1.58781 8.2203 1.94621 8.57601C2.30462 8.93173 2.75594 9.08983 2.9285 8.91856C4.40193 7.45616 8.98151 8.73411 13.1894 12.9105C15.1805 14.8867 16.6672 17.1001 17.384 19.1421C18.0079 20.9339 17.9548 22.3831 17.2247 23.1077C17.0522 23.279 17.1982 23.7138 17.5699 24.0827C17.9416 24.4516 18.3796 24.5965 18.5522 24.4252C19.8265 23.1473 20.0389 21.0525 19.1495 18.5361Z" fill="#F5AFCB"/>
<path d="M22.7337 7.60105C21.4594 6.33628 19.3488 6.12548 16.8134 6.99501C14.4905 7.79867 12.0082 9.43234 9.83125 11.593C5.07911 16.3095 3.31365 21.9352 5.80919 24.412C5.98175 24.5833 6.43307 24.4384 6.79147 24.0695C7.14988 23.7006 7.30917 23.2658 7.1366 23.0945C5.66317 21.6321 6.95076 17.0869 11.1587 12.9105C13.1498 10.9343 15.3798 9.45869 17.4241 8.74725C19.2293 8.12804 20.6895 8.18074 21.4196 8.90535C21.5921 9.07662 22.0302 8.9317 22.4019 8.56281C22.7735 8.19391 22.9196 7.7855 22.7337 7.60105Z" fill="#FF9B00"/>
</g>
<defs>
<clipPath id="clip0_4377_60743">
<rect width="121.684" height="19.0638" fill="white" transform="translate(0.5 6.46808)"/>
</clipPath>
</defs>
</svg>
