<svg width="179" height="47" viewBox="0 0 179 47" fill="none" xmlns="http://www.w3.org/2000/svg">
<g clip-path="url(#clip0_3325_48142)">
<path d="M57.8254 16.0404H54.6865V32.0819H57.8254V16.0404Z" fill="#2A3362"/>
<path d="M69.9905 26.3929C69.9905 28.5988 68.5478 29.6051 66.6371 29.6051C64.7265 29.6051 63.4397 28.6182 63.4397 26.509V20.7813H60.3008V27.225C60.3008 30.4371 62.3284 32.3141 65.7013 32.3141C67.8264 32.3141 68.9962 31.5401 69.7955 30.6693H69.971L70.2439 32.1013H73.1294V20.7813H69.9905V26.3929Z" fill="#2A3362"/>
<path d="M100.794 29.8566C98.4936 29.8566 97.2069 28.8117 96.9924 27.3023H106.955C106.994 26.9927 107.033 26.6638 107.014 26.3542C106.994 22.2906 103.894 20.5684 100.58 20.5684C96.739 20.5684 93.834 22.8517 93.834 26.5283C93.834 30.0307 96.6025 32.3141 100.775 32.3141C104.265 32.3141 106.585 30.7854 107.053 28.4247H103.953C103.602 29.3535 102.49 29.8566 100.794 29.8566ZM100.599 23.0259C102.607 23.0259 103.758 23.916 103.953 25.1544H97.0704C97.3628 23.9547 98.5326 23.0259 100.599 23.0259Z" fill="#2A3362"/>
<path d="M112.376 22.4067H112.181L111.888 20.7813H109.042V32.0819H112.181V27.225C112.181 25.0384 113.448 23.8193 115.827 23.8193C116.256 23.8193 116.685 23.858 117.114 23.9354V20.7813H116.685C114.559 20.7813 113.273 21.2263 112.376 22.4067Z" fill="#2A3362"/>
<path d="M132.515 28.5601H132.34L129.649 21.4972H126.413L123.781 28.5408H123.566L121.071 20.7813H117.951L121.792 32.0819H125.204L127.933 24.8836H128.128L130.819 32.0819H134.25L138.091 20.7813H134.972L132.515 28.5601Z" fill="#2A3362"/>
<path d="M150.589 28.7923V25.019C150.589 21.9423 147.977 20.5684 144.721 20.5684C141.27 20.5684 139.106 22.1938 138.813 24.632H141.952C142.186 23.5677 143.083 22.9872 144.721 22.9872C146.359 22.9872 147.45 23.6064 147.45 24.8448V25.1351L142.323 25.5221C139.964 25.6963 138.229 26.7412 138.229 28.9665C138.229 31.2498 140.217 32.3334 143.122 32.3334C145.481 32.3334 146.904 31.6755 147.782 30.708H147.938C148.425 31.811 149.439 32.1206 150.511 32.1206H151.837V29.8179H151.545C150.901 29.7792 150.589 29.4696 150.589 28.7923ZM147.45 27.5926C147.45 29.3728 145.306 29.9727 143.473 29.9727C142.225 29.9727 141.406 29.6631 141.406 28.7923C141.406 28.0183 142.108 27.6506 143.161 27.5539L147.47 27.2443L147.45 27.5926Z" fill="#2A3362"/>
<path d="M162.21 20.7813L158.545 28.9665H158.35L154.626 20.7813H151.233L156.536 32.0819H160.299L165.583 20.7813H162.21Z" fill="#2A3362"/>
<path d="M175.623 28.4247C175.233 29.3535 174.121 29.8566 172.445 29.8566C170.144 29.8566 168.857 28.8117 168.643 27.3023H178.605C178.644 26.9927 178.683 26.6638 178.664 26.3542C178.644 22.2906 175.545 20.5684 172.23 20.5684C168.389 20.5684 165.504 22.8517 165.504 26.5283C165.504 30.0307 168.272 32.3141 172.445 32.3141C175.934 32.3141 178.255 30.7854 178.722 28.4247H175.623ZM172.23 23.0259C174.238 23.0259 175.389 23.916 175.584 25.1544H168.701C168.994 23.9547 170.144 23.0259 172.23 23.0259Z" fill="#2A3362"/>
<path d="M49.5989 19.9492C49.5989 18.9623 50.3008 18.5366 51.2171 18.5366C51.646 18.5366 52.0554 18.5947 52.4649 18.7108L52.9913 16.4468C52.2309 16.1759 51.4315 16.0404 50.6322 16.0404C48.3121 16.0404 46.4405 17.2595 46.4405 19.7944V20.7813H43.7305V23.2581H46.4405V32.0819H49.5989V23.2581H53.1472V20.7813H49.5989V19.9492Z" fill="#2A3362"/>
<path d="M80.0897 17.6078H77.1652L77.0092 20.8006H74.5332V23.2775H76.9508V28.8504C76.9508 30.7467 77.9256 32.3334 80.85 32.3334C81.6104 32.3334 82.3708 32.256 83.1116 32.0819V29.7018C82.6827 29.7985 82.2538 29.8566 81.8054 29.8566C80.2456 29.8566 80.0897 28.9665 80.0897 28.2892V23.2581H83.2091V20.7813H80.0897V17.6078Z" fill="#2A3362"/>
<path d="M89.9549 17.6078H87.05L86.894 20.8006H84.418V23.2775H86.8355V28.8504C86.8355 30.7467 87.8103 32.3334 90.7348 32.3334C91.4952 32.3334 92.236 32.2367 92.9769 32.0819V29.7018C92.548 29.7985 92.119 29.8566 91.6706 29.8566C90.1109 29.8566 89.9549 28.9665 89.9549 28.2892V23.2581H93.0744V20.7813H89.9354V17.6078H89.9549Z" fill="#2A3362"/>
<path d="M-0.000976562 15.6147C-0.000976562 13.7958 0.525426 12.2477 1.65622 11.1448L3.60586 13.0798C1.44176 15.2277 3.33291 21.9036 9.51326 28.0376C15.6936 34.1717 22.4199 36.0487 24.584 33.9008L26.5336 35.8358C22.8683 39.4737 14.5433 36.8808 7.56362 29.9727C2.72852 25.1544 -0.000976562 19.717 -0.000976562 15.6147Z" fill="#009A46"/>
<path d="M12.3005 37.5C10.4679 37.5 8.90817 36.9775 7.79688 35.8552L9.74651 33.9202C11.9106 36.0681 18.6369 34.1911 24.8172 28.057C30.9976 21.9229 32.8887 15.2471 30.7246 13.0992L32.6743 11.1641C36.3396 14.802 33.7271 23.0646 26.7669 29.992C21.9123 34.7909 16.4143 37.5 12.3005 37.5Z" fill="#FF5805"/>
<path d="M27.3905 27.2249C26.2012 23.8386 23.7836 20.2201 20.5862 17.0466C13.6065 10.1192 5.28157 7.54559 1.61624 11.1641C1.36279 11.435 1.59675 12.0736 2.12315 12.596C2.64955 13.1185 3.31243 13.3507 3.56588 13.0991C5.72998 10.9513 12.4562 12.8282 18.6366 18.9623C21.5611 21.8649 23.7446 25.1157 24.7975 28.115C25.7138 30.7467 25.6358 32.8752 24.5635 33.9395C24.31 34.1911 24.5245 34.8296 25.0704 35.3714C25.6163 35.9132 26.2597 36.1261 26.5131 35.8745C28.3848 33.9976 28.6967 30.9209 27.3905 27.2249Z" fill="#F5AFCB"/>
<path d="M32.655 11.1641C30.7834 9.30649 27.6834 8.99688 23.9596 10.274C20.5477 11.4544 16.9019 13.8538 13.7045 17.0273C6.72481 23.9547 4.13179 32.2173 7.79711 35.8552C8.05056 36.1068 8.71344 35.8939 9.23984 35.3521C9.76624 34.8103 10.0002 34.1717 9.74675 33.9202C7.58265 31.7723 9.4738 25.0964 15.6542 18.9623C18.5786 16.0598 21.854 13.8925 24.8564 12.8476C27.508 11.9381 29.6526 12.0155 30.7249 13.0798C30.9783 13.3314 31.6217 13.1185 32.1676 12.5767C32.7135 12.0349 32.928 11.435 32.655 11.1641Z" fill="#FF9B00"/>
</g>
<defs>
<clipPath id="clip0_3325_48142">
<rect width="178.723" height="28" fill="white" transform="translate(0 9.5)"/>
</clipPath>
</defs>
</svg>
