<svg width="33" height="32" viewBox="0 0 33 32" fill="none" xmlns="http://www.w3.org/2000/svg">
<rect x="0.978516" y="0.00170898" width="32" height="32" rx="16" fill="#1F1F1F"/>
<path d="M10.2438 16.7522L10.1532 16.8787H10.3089H18.1169H18.2726L18.1819 16.7522C17.7246 16.1135 17.0134 15.7059 16.2805 15.458C15.5471 15.2097 14.7842 15.1187 14.2129 15.1187C13.6415 15.1187 12.8787 15.2097 12.1452 15.458C11.4124 15.7059 10.7012 16.1135 10.2438 16.7522ZM21.7329 10.3987V10.4787H21.8129H25.7245L24.4135 23.613C24.4134 23.6133 24.4134 23.6136 24.4134 23.6139C24.3376 24.2316 23.818 24.7187 23.1889 24.7187H21.8929V23.2787H22.9249H22.9973L23.0045 23.2067L24.1245 12.0067L24.1333 11.9187H24.0449H16.4682L16.3026 10.4787H20.2129H20.2929V10.3987V7.27873H21.7329V10.3987ZM9.01289 24.7187C8.61759 24.7187 8.29289 24.3871 8.29289 23.9987V23.2787H20.1329V23.9987C20.1329 24.3876 19.8157 24.7187 19.4129 24.7187H9.01289ZM8.29353 18.3187C8.31806 16.7874 9.0468 15.6372 10.1343 14.8639C11.2429 14.0755 12.7258 13.6787 14.2129 13.6787C15.7 13.6787 17.1828 14.0755 18.2915 14.8639C19.379 15.6372 20.1077 16.7874 20.1323 18.3187H8.29353ZM20.1329 20.0787V21.5187H8.29289V20.0787H20.1329Z" fill="white" stroke="black" stroke-width="0.16"/>
</svg>
