<svg width="40" height="40" viewBox="0 0 40 40" fill="none" xmlns="http://www.w3.org/2000/svg">
<rect width="40" height="40" rx="20" fill="#1F1F1F"/>
<path d="M23.4492 14.86L23.7341 14.4491C22.914 13.8805 21.7464 13.37 20.1992 13.37C20.1956 13.37 20.1918 13.37 20.1878 13.37C20.1342 13.3699 20.0457 13.3698 19.956 13.3811C17.4045 13.468 15.2419 15.0505 14.2523 17.2769C14.166 17.4711 14.0902 17.666 14.0249 17.8619L14.0249 17.8619L14.0234 17.8665C13.8092 18.5305 13.6792 19.2523 13.6792 20C13.6792 20.7489 13.8096 21.4622 14.0348 22.1378C14.8753 24.6697 17.2003 26.5217 19.9586 26.6189C20.0514 26.6301 20.1312 26.63 20.1912 26.63L20.1992 26.63C21.7869 26.63 23.0172 26.1912 23.9543 25.5408L23.9557 25.5398C25.415 24.5194 26.0807 22.9947 26.2057 21.9494L26.2726 21.39H25.7092H21.1992C20.9254 21.39 20.6992 21.1639 20.6992 20.89V19.18C20.6992 18.9061 20.9254 18.68 21.1992 18.68H28.7492C29.0081 18.68 29.2173 18.8709 29.2416 19.1188L29.2415 19.1188L29.2425 19.1268C29.28 19.4552 29.2992 19.806 29.2992 20.22C29.2992 23.1476 28.2556 25.5686 26.4795 27.2131L26.4793 27.2134C24.9306 28.6493 22.7859 29.5 20.1992 29.5C20.1263 29.5 20.1 29.4993 20.0699 29.495L20.0393 29.4906L20.0084 29.4901C16.3813 29.4236 13.2561 27.3161 11.7262 24.2658L11.5878 23.99H11.5835C11.0187 22.7675 10.6992 21.4201 10.6992 20C10.6992 18.4721 11.0691 17.0285 11.7163 15.7339C13.2461 12.684 16.3711 10.5764 20.0084 10.5099L20.0393 10.5094L20.0699 10.505C20.1 10.5007 20.1263 10.5 20.1992 10.5C22.3516 10.5 24.1879 11.1553 25.6929 12.2627L25.6929 12.2627L25.6971 12.2658C25.9344 12.4366 25.9672 12.8001 25.7398 13.0224L25.7395 13.0226L24.351 14.3812C24.3508 14.3814 24.3506 14.3816 24.3504 14.3818C24.17 14.5564 23.914 14.5736 23.7338 14.4489L23.4492 14.86ZM23.4492 14.86C23.8392 15.13 24.3592 15.07 24.6992 14.74L14.5092 21.98C14.2992 21.35 14.1792 20.69 14.1792 20C14.1792 19.31 14.2992 18.64 14.4992 18.02C14.5592 17.84 14.6292 17.66 14.7092 17.48C15.6292 15.41 17.6392 13.95 19.9992 13.88C20.0592 13.87 20.1292 13.87 20.1992 13.87C21.6292 13.87 22.6992 14.34 23.4492 14.86Z" stroke="white"/>
</svg>
