<svg width="24" height="24" viewBox="0 0 24 24" fill="none" xmlns="http://www.w3.org/2000/svg">
<path d="M5.06577 17.5272C7.13165 19.6439 9.57646 20.9857 11.1343 21.5182C11.4086 21.6143 11.7227 21.6496 12 21.6496C12.2773 21.6496 12.5914 21.6143 12.8657 21.5182C14.4235 20.9857 16.8683 19.6439 18.9342 17.5272C21.0107 15.3997 22.75 12.4391 22.75 8.68961C22.75 5.1889 19.9277 2.34961 16.44 2.34961C14.7122 2.34961 13.1385 3.05525 12.0003 4.19433C10.8646 3.0556 9.29674 2.34961 7.56 2.34961C4.07229 2.34961 1.25 5.1889 1.25 8.68961C1.25 12.4391 2.98932 15.3997 5.06577 17.5272Z" fill="#E2063A" stroke="#E2063A" stroke-width="1.5" stroke-linecap="round" stroke-linejoin="round"/>
</svg>
