<svg width="1728" height="863" viewBox="0 0 1728 863" fill="none" xmlns="http://www.w3.org/2000/svg">
<g opacity="0.06">
<g clip-path="url(#clip0_2291_6475)">
<rect y="-432" width="1728" height="1728" rx="22" fill="white"/>
<path d="M0 432C0 412.118 16.1178 396 36 396C55.8823 396 72 412.118 72 432C72 451.882 55.8823 468 36 468C16.1178 468 0 451.882 0 432Z" stroke="#1F1F1F" stroke-width="5"/>
<path d="M92 432C92 412.118 108.118 396 128 396C147.882 396 164 412.118 164 432C164 451.882 147.882 468 128 468C108.118 468 92 451.882 92 432Z" stroke="#1F1F1F" stroke-width="5"/>
<path d="M184 432C184 412.118 200.118 396 220 396C239.882 396 256 412.118 256 432C256 451.882 239.882 468 220 468C200.118 468 184 451.882 184 432Z" stroke="#1F1F1F" stroke-width="5"/>
<path d="M276 432C276 412.118 292.118 396 312 396C331.882 396 348 412.118 348 432C348 451.882 331.882 468 312 468C292.118 468 276 451.882 276 432Z" stroke="#1F1F1F" stroke-width="5"/>
<path d="M368 432C368 412.118 384.118 396 404 396C423.882 396 440 412.118 440 432C440 451.882 423.882 468 404 468C384.118 468 368 451.882 368 432Z" stroke="#1F1F1F" stroke-width="5"/>
<path d="M460 432C460 412.118 476.118 396 496 396C515.882 396 532 412.118 532 432C532 451.882 515.882 468 496 468C476.118 468 460 451.882 460 432Z" stroke="#1F1F1F" stroke-width="5"/>
<path d="M552 432C552 412.118 568.118 396 588 396C607.882 396 624 412.118 624 432C624 451.882 607.882 468 588 468C568.118 468 552 451.882 552 432Z" stroke="#1F1F1F" stroke-width="5"/>
<path d="M644 432C644 412.118 660.118 396 680 396C699.882 396 716 412.118 716 432C716 451.882 699.882 468 680 468C660.118 468 644 451.882 644 432Z" stroke="#1F1F1F" stroke-width="5"/>
<path d="M736 432C736 412.118 752.118 396 772 396C791.882 396 808 412.118 808 432C808 451.882 791.882 468 772 468C752.118 468 736 451.882 736 432Z" stroke="#1F1F1F" stroke-width="5"/>
<path d="M828 432C828 412.118 844.118 396 864 396C883.882 396 900 412.118 900 432C900 451.882 883.882 468 864 468C844.118 468 828 451.882 828 432Z" stroke="#1F1F1F" stroke-width="5"/>
<path d="M920 432C920 412.118 936.118 396 956 396C975.882 396 992 412.118 992 432C992 451.882 975.882 468 956 468C936.118 468 920 451.882 920 432Z" stroke="#1F1F1F" stroke-width="5"/>
<path d="M1012 432C1012 412.118 1028.12 396 1048 396C1067.88 396 1084 412.118 1084 432C1084 451.882 1067.88 468 1048 468C1028.12 468 1012 451.882 1012 432Z" stroke="#1F1F1F" stroke-width="5"/>
<path d="M1104 432C1104 412.118 1120.12 396 1140 396C1159.88 396 1176 412.118 1176 432C1176 451.882 1159.88 468 1140 468C1120.12 468 1104 451.882 1104 432Z" stroke="#1F1F1F" stroke-width="5"/>
<path d="M1196 432C1196 412.118 1212.12 396 1232 396C1251.88 396 1268 412.118 1268 432C1268 451.882 1251.88 468 1232 468C1212.12 468 1196 451.882 1196 432Z" stroke="#1F1F1F" stroke-width="5"/>
<path d="M1288 432C1288 412.118 1304.12 396 1324 396C1343.88 396 1360 412.118 1360 432C1360 451.882 1343.88 468 1324 468C1304.12 468 1288 451.882 1288 432Z" stroke="#1F1F1F" stroke-width="5"/>
<path d="M1380 432C1380 412.118 1396.12 396 1416 396C1435.88 396 1452 412.118 1452 432C1452 451.882 1435.88 468 1416 468C1396.12 468 1380 451.882 1380 432Z" stroke="#1F1F1F" stroke-width="5"/>
<path d="M1472 432C1472 412.118 1488.12 396 1508 396C1527.88 396 1544 412.118 1544 432C1544 451.882 1527.88 468 1508 468C1488.12 468 1472 451.882 1472 432Z" stroke="#1F1F1F" stroke-width="5"/>
<path d="M1564 432C1564 412.118 1580.12 396 1600 396C1619.88 396 1636 412.118 1636 432C1636 451.882 1619.88 468 1600 468C1580.12 468 1564 451.882 1564 432Z" stroke="#1F1F1F" stroke-width="5"/>
<path d="M1656 432C1656 412.118 1672.12 396 1692 396C1711.88 396 1728 412.118 1728 432C1728 451.882 1711.88 468 1692 468C1672.12 468 1656 451.882 1656 432Z" stroke="#1F1F1F" stroke-width="5"/>
<path d="M0 528C0 508.118 16.1178 492 36 492C55.8823 492 72 508.118 72 528C72 547.882 55.8823 564 36 564C16.1178 564 0 547.882 0 528Z" stroke="#1F1F1F" stroke-width="5"/>
<path d="M92 528C92 508.118 108.118 492 128 492C147.882 492 164 508.118 164 528C164 547.882 147.882 564 128 564C108.118 564 92 547.882 92 528Z" stroke="#1F1F1F" stroke-width="5"/>
<path d="M184 528C184 508.118 200.118 492 220 492C239.882 492 256 508.118 256 528C256 547.882 239.882 564 220 564C200.118 564 184 547.882 184 528Z" stroke="#1F1F1F" stroke-width="5"/>
<path d="M276 528C276 508.118 292.118 492 312 492C331.882 492 348 508.118 348 528C348 547.882 331.882 564 312 564C292.118 564 276 547.882 276 528Z" stroke="#1F1F1F" stroke-width="5"/>
<path d="M368 528C368 508.118 384.118 492 404 492C423.882 492 440 508.118 440 528C440 547.882 423.882 564 404 564C384.118 564 368 547.882 368 528Z" stroke="#1F1F1F" stroke-width="5"/>
<path d="M460 528C460 508.118 476.118 492 496 492C515.882 492 532 508.118 532 528C532 547.882 515.882 564 496 564C476.118 564 460 547.882 460 528Z" stroke="#1F1F1F" stroke-width="5"/>
<path d="M552 528C552 508.118 568.118 492 588 492C607.882 492 624 508.118 624 528C624 547.882 607.882 564 588 564C568.118 564 552 547.882 552 528Z" stroke="#1F1F1F" stroke-width="5"/>
<path d="M644 528C644 508.118 660.118 492 680 492C699.882 492 716 508.118 716 528C716 547.882 699.882 564 680 564C660.118 564 644 547.882 644 528Z" stroke="#1F1F1F" stroke-width="5"/>
<path d="M736 528C736 508.118 752.118 492 772 492C791.882 492 808 508.118 808 528C808 547.882 791.882 564 772 564C752.118 564 736 547.882 736 528Z" stroke="#1F1F1F" stroke-width="5"/>
<path d="M828 528C828 508.118 844.118 492 864 492C883.882 492 900 508.118 900 528C900 547.882 883.882 564 864 564C844.118 564 828 547.882 828 528Z" stroke="#1F1F1F" stroke-width="5"/>
<path d="M920 528C920 508.118 936.118 492 956 492C975.882 492 992 508.118 992 528C992 547.882 975.882 564 956 564C936.118 564 920 547.882 920 528Z" stroke="#1F1F1F" stroke-width="5"/>
<path d="M1012 528C1012 508.118 1028.12 492 1048 492C1067.88 492 1084 508.118 1084 528C1084 547.882 1067.88 564 1048 564C1028.12 564 1012 547.882 1012 528Z" stroke="#1F1F1F" stroke-width="5"/>
<path d="M1104 528C1104 508.118 1120.12 492 1140 492C1159.88 492 1176 508.118 1176 528C1176 547.882 1159.88 564 1140 564C1120.12 564 1104 547.882 1104 528Z" stroke="#1F1F1F" stroke-width="5"/>
<path d="M1196 528C1196 508.118 1212.12 492 1232 492C1251.88 492 1268 508.118 1268 528C1268 547.882 1251.88 564 1232 564C1212.12 564 1196 547.882 1196 528Z" stroke="#1F1F1F" stroke-width="5"/>
<path d="M1288 528C1288 508.118 1304.12 492 1324 492C1343.88 492 1360 508.118 1360 528C1360 547.882 1343.88 564 1324 564C1304.12 564 1288 547.882 1288 528Z" stroke="#1F1F1F" stroke-width="5"/>
<path d="M1380 528C1380 508.118 1396.12 492 1416 492C1435.88 492 1452 508.118 1452 528C1452 547.882 1435.88 564 1416 564C1396.12 564 1380 547.882 1380 528Z" stroke="#1F1F1F" stroke-width="5"/>
<path d="M1472 528C1472 508.118 1488.12 492 1508 492C1527.88 492 1544 508.118 1544 528C1544 547.882 1527.88 564 1508 564C1488.12 564 1472 547.882 1472 528Z" stroke="#1F1F1F" stroke-width="5"/>
<path d="M1564 528C1564 508.118 1580.12 492 1600 492C1619.88 492 1636 508.118 1636 528C1636 547.882 1619.88 564 1600 564C1580.12 564 1564 547.882 1564 528Z" stroke="#1F1F1F" stroke-width="5"/>
<path d="M1656 528C1656 508.118 1672.12 492 1692 492C1711.88 492 1728 508.118 1728 528C1728 547.882 1711.88 564 1692 564C1672.12 564 1656 547.882 1656 528Z" stroke="#1F1F1F" stroke-width="5"/>
<path d="M0 624C0 604.118 16.1178 588 36 588C55.8823 588 72 604.118 72 624C72 643.882 55.8823 660 36 660C16.1178 660 0 643.882 0 624Z" stroke="#1F1F1F" stroke-width="5"/>
<path d="M92 624C92 604.118 108.118 588 128 588C147.882 588 164 604.118 164 624C164 643.882 147.882 660 128 660C108.118 660 92 643.882 92 624Z" stroke="#1F1F1F" stroke-width="5"/>
<path d="M184 624C184 604.118 200.118 588 220 588C239.882 588 256 604.118 256 624C256 643.882 239.882 660 220 660C200.118 660 184 643.882 184 624Z" stroke="#1F1F1F" stroke-width="5"/>
<path d="M276 624C276 604.118 292.118 588 312 588C331.882 588 348 604.118 348 624C348 643.882 331.882 660 312 660C292.118 660 276 643.882 276 624Z" stroke="#1F1F1F" stroke-width="5"/>
<path d="M368 624C368 604.118 384.118 588 404 588C423.882 588 440 604.118 440 624C440 643.882 423.882 660 404 660C384.118 660 368 643.882 368 624Z" stroke="#1F1F1F" stroke-width="5"/>
<path d="M460 624C460 604.118 476.118 588 496 588C515.882 588 532 604.118 532 624C532 643.882 515.882 660 496 660C476.118 660 460 643.882 460 624Z" stroke="#1F1F1F" stroke-width="5"/>
<path d="M552 624C552 604.118 568.118 588 588 588C607.882 588 624 604.118 624 624C624 643.882 607.882 660 588 660C568.118 660 552 643.882 552 624Z" stroke="#1F1F1F" stroke-width="5"/>
<path d="M644 624C644 604.118 660.118 588 680 588C699.882 588 716 604.118 716 624C716 643.882 699.882 660 680 660C660.118 660 644 643.882 644 624Z" stroke="#1F1F1F" stroke-width="5"/>
<path d="M736 624C736 604.118 752.118 588 772 588C791.882 588 808 604.118 808 624C808 643.882 791.882 660 772 660C752.118 660 736 643.882 736 624Z" stroke="#1F1F1F" stroke-width="5"/>
<path d="M828 624C828 604.118 844.118 588 864 588C883.882 588 900 604.118 900 624C900 643.882 883.882 660 864 660C844.118 660 828 643.882 828 624Z" stroke="#1F1F1F" stroke-width="5"/>
<path d="M920 624C920 604.118 936.118 588 956 588C975.882 588 992 604.118 992 624C992 643.882 975.882 660 956 660C936.118 660 920 643.882 920 624Z" stroke="#1F1F1F" stroke-width="5"/>
<path d="M1012 624C1012 604.118 1028.12 588 1048 588C1067.88 588 1084 604.118 1084 624C1084 643.882 1067.88 660 1048 660C1028.12 660 1012 643.882 1012 624Z" stroke="#1F1F1F" stroke-width="5"/>
<path d="M1104 624C1104 604.118 1120.12 588 1140 588C1159.88 588 1176 604.118 1176 624C1176 643.882 1159.88 660 1140 660C1120.12 660 1104 643.882 1104 624Z" stroke="#1F1F1F" stroke-width="5"/>
<path d="M1196 624C1196 604.118 1212.12 588 1232 588C1251.88 588 1268 604.118 1268 624C1268 643.882 1251.88 660 1232 660C1212.12 660 1196 643.882 1196 624Z" stroke="#1F1F1F" stroke-width="5"/>
<path d="M1288 624C1288 604.118 1304.12 588 1324 588C1343.88 588 1360 604.118 1360 624C1360 643.882 1343.88 660 1324 660C1304.12 660 1288 643.882 1288 624Z" stroke="#1F1F1F" stroke-width="5"/>
<path d="M1380 624C1380 604.118 1396.12 588 1416 588C1435.88 588 1452 604.118 1452 624C1452 643.882 1435.88 660 1416 660C1396.12 660 1380 643.882 1380 624Z" stroke="#1F1F1F" stroke-width="5"/>
<path d="M1472 624C1472 604.118 1488.12 588 1508 588C1527.88 588 1544 604.118 1544 624C1544 643.882 1527.88 660 1508 660C1488.12 660 1472 643.882 1472 624Z" stroke="#1F1F1F" stroke-width="5"/>
<path d="M1564 624C1564 604.118 1580.12 588 1600 588C1619.88 588 1636 604.118 1636 624C1636 643.882 1619.88 660 1600 660C1580.12 660 1564 643.882 1564 624Z" stroke="#1F1F1F" stroke-width="5"/>
<path d="M1656 624C1656 604.118 1672.12 588 1692 588C1711.88 588 1728 604.118 1728 624C1728 643.882 1711.88 660 1692 660C1672.12 660 1656 643.882 1656 624Z" stroke="#1F1F1F" stroke-width="5"/>
<path d="M0 720C0 700.118 16.1178 684 36 684C55.8823 684 72 700.118 72 720C72 739.882 55.8823 756 36 756C16.1178 756 0 739.882 0 720Z" stroke="#1F1F1F" stroke-width="5"/>
<path d="M92 720C92 700.118 108.118 684 128 684C147.882 684 164 700.118 164 720C164 739.882 147.882 756 128 756C108.118 756 92 739.882 92 720Z" stroke="#1F1F1F" stroke-width="5"/>
<path d="M184 720C184 700.118 200.118 684 220 684C239.882 684 256 700.118 256 720C256 739.882 239.882 756 220 756C200.118 756 184 739.882 184 720Z" stroke="#1F1F1F" stroke-width="5"/>
<path d="M276 720C276 700.118 292.118 684 312 684C331.882 684 348 700.118 348 720C348 739.882 331.882 756 312 756C292.118 756 276 739.882 276 720Z" stroke="#1F1F1F" stroke-width="5"/>
<path d="M368 720C368 700.118 384.118 684 404 684C423.882 684 440 700.118 440 720C440 739.882 423.882 756 404 756C384.118 756 368 739.882 368 720Z" stroke="#1F1F1F" stroke-width="5"/>
<path d="M460 720C460 700.118 476.118 684 496 684C515.882 684 532 700.118 532 720C532 739.882 515.882 756 496 756C476.118 756 460 739.882 460 720Z" stroke="#1F1F1F" stroke-width="5"/>
<path d="M552 720C552 700.118 568.118 684 588 684C607.882 684 624 700.118 624 720C624 739.882 607.882 756 588 756C568.118 756 552 739.882 552 720Z" stroke="#1F1F1F" stroke-width="5"/>
<path d="M644 720C644 700.118 660.118 684 680 684C699.882 684 716 700.118 716 720C716 739.882 699.882 756 680 756C660.118 756 644 739.882 644 720Z" stroke="#1F1F1F" stroke-width="5"/>
<path d="M736 720C736 700.118 752.118 684 772 684C791.882 684 808 700.118 808 720C808 739.882 791.882 756 772 756C752.118 756 736 739.882 736 720Z" stroke="#1F1F1F" stroke-width="5"/>
<path d="M828 720C828 700.118 844.118 684 864 684C883.882 684 900 700.118 900 720C900 739.882 883.882 756 864 756C844.118 756 828 739.882 828 720Z" stroke="#1F1F1F" stroke-width="5"/>
<path d="M920 720C920 700.118 936.118 684 956 684C975.882 684 992 700.118 992 720C992 739.882 975.882 756 956 756C936.118 756 920 739.882 920 720Z" stroke="#1F1F1F" stroke-width="5"/>
<path d="M1012 720C1012 700.118 1028.12 684 1048 684C1067.88 684 1084 700.118 1084 720C1084 739.882 1067.88 756 1048 756C1028.12 756 1012 739.882 1012 720Z" stroke="#1F1F1F" stroke-width="5"/>
<path d="M1104 720C1104 700.118 1120.12 684 1140 684C1159.88 684 1176 700.118 1176 720C1176 739.882 1159.88 756 1140 756C1120.12 756 1104 739.882 1104 720Z" stroke="#1F1F1F" stroke-width="5"/>
<path d="M1196 720C1196 700.118 1212.12 684 1232 684C1251.88 684 1268 700.118 1268 720C1268 739.882 1251.88 756 1232 756C1212.12 756 1196 739.882 1196 720Z" stroke="#1F1F1F" stroke-width="5"/>
<path d="M1288 720C1288 700.118 1304.12 684 1324 684C1343.88 684 1360 700.118 1360 720C1360 739.882 1343.88 756 1324 756C1304.12 756 1288 739.882 1288 720Z" stroke="#1F1F1F" stroke-width="5"/>
<path d="M1380 720C1380 700.118 1396.12 684 1416 684C1435.88 684 1452 700.118 1452 720C1452 739.882 1435.88 756 1416 756C1396.12 756 1380 739.882 1380 720Z" stroke="#1F1F1F" stroke-width="5"/>
<path d="M1472 720C1472 700.118 1488.12 684 1508 684C1527.88 684 1544 700.118 1544 720C1544 739.882 1527.88 756 1508 756C1488.12 756 1472 739.882 1472 720Z" stroke="#1F1F1F" stroke-width="5"/>
<path d="M1564 720C1564 700.118 1580.12 684 1600 684C1619.88 684 1636 700.118 1636 720C1636 739.882 1619.88 756 1600 756C1580.12 756 1564 739.882 1564 720Z" stroke="#1F1F1F" stroke-width="5"/>
<path d="M1656 720C1656 700.118 1672.12 684 1692 684C1711.88 684 1728 700.118 1728 720C1728 739.882 1711.88 756 1692 756C1672.12 756 1656 739.882 1656 720Z" stroke="#1F1F1F" stroke-width="5"/>
<path d="M0 816C0 796.118 16.1178 780 36 780C55.8823 780 72 796.118 72 816C72 835.882 55.8823 852 36 852C16.1178 852 0 835.882 0 816Z" stroke="#1F1F1F" stroke-width="5"/>
<path d="M92 816C92 796.118 108.118 780 128 780C147.882 780 164 796.118 164 816C164 835.882 147.882 852 128 852C108.118 852 92 835.882 92 816Z" stroke="#1F1F1F" stroke-width="5"/>
<path d="M184 816C184 796.118 200.118 780 220 780C239.882 780 256 796.118 256 816C256 835.882 239.882 852 220 852C200.118 852 184 835.882 184 816Z" stroke="#1F1F1F" stroke-width="5"/>
<path d="M276 816C276 796.118 292.118 780 312 780C331.882 780 348 796.118 348 816C348 835.882 331.882 852 312 852C292.118 852 276 835.882 276 816Z" stroke="#1F1F1F" stroke-width="5"/>
<path d="M368 816C368 796.118 384.118 780 404 780C423.882 780 440 796.118 440 816C440 835.882 423.882 852 404 852C384.118 852 368 835.882 368 816Z" stroke="#1F1F1F" stroke-width="5"/>
<path d="M460 816C460 796.118 476.118 780 496 780C515.882 780 532 796.118 532 816C532 835.882 515.882 852 496 852C476.118 852 460 835.882 460 816Z" stroke="#1F1F1F" stroke-width="5"/>
<path d="M552 816C552 796.118 568.118 780 588 780C607.882 780 624 796.118 624 816C624 835.882 607.882 852 588 852C568.118 852 552 835.882 552 816Z" stroke="#1F1F1F" stroke-width="5"/>
<path d="M644 816C644 796.118 660.118 780 680 780C699.882 780 716 796.118 716 816C716 835.882 699.882 852 680 852C660.118 852 644 835.882 644 816Z" stroke="#1F1F1F" stroke-width="5"/>
<path d="M736 816C736 796.118 752.118 780 772 780C791.882 780 808 796.118 808 816C808 835.882 791.882 852 772 852C752.118 852 736 835.882 736 816Z" stroke="#1F1F1F" stroke-width="5"/>
<path d="M828 816C828 796.118 844.118 780 864 780C883.882 780 900 796.118 900 816C900 835.882 883.882 852 864 852C844.118 852 828 835.882 828 816Z" stroke="#1F1F1F" stroke-width="5"/>
<path d="M920 816C920 796.118 936.118 780 956 780C975.882 780 992 796.118 992 816C992 835.882 975.882 852 956 852C936.118 852 920 835.882 920 816Z" stroke="#1F1F1F" stroke-width="5"/>
<path d="M1012 816C1012 796.118 1028.12 780 1048 780C1067.88 780 1084 796.118 1084 816C1084 835.882 1067.88 852 1048 852C1028.12 852 1012 835.882 1012 816Z" stroke="#1F1F1F" stroke-width="5"/>
<path d="M1104 816C1104 796.118 1120.12 780 1140 780C1159.88 780 1176 796.118 1176 816C1176 835.882 1159.88 852 1140 852C1120.12 852 1104 835.882 1104 816Z" stroke="#1F1F1F" stroke-width="5"/>
<path d="M1196 816C1196 796.118 1212.12 780 1232 780C1251.88 780 1268 796.118 1268 816C1268 835.882 1251.88 852 1232 852C1212.12 852 1196 835.882 1196 816Z" stroke="#1F1F1F" stroke-width="5"/>
<path d="M1288 816C1288 796.118 1304.12 780 1324 780C1343.88 780 1360 796.118 1360 816C1360 835.882 1343.88 852 1324 852C1304.12 852 1288 835.882 1288 816Z" stroke="#1F1F1F" stroke-width="5"/>
<path d="M1380 816C1380 796.118 1396.12 780 1416 780C1435.88 780 1452 796.118 1452 816C1452 835.882 1435.88 852 1416 852C1396.12 852 1380 835.882 1380 816Z" stroke="#1F1F1F" stroke-width="5"/>
<path d="M1472 816C1472 796.118 1488.12 780 1508 780C1527.88 780 1544 796.118 1544 816C1544 835.882 1527.88 852 1508 852C1488.12 852 1472 835.882 1472 816Z" stroke="#1F1F1F" stroke-width="5"/>
<path d="M1564 816C1564 796.118 1580.12 780 1600 780C1619.88 780 1636 796.118 1636 816C1636 835.882 1619.88 852 1600 852C1580.12 852 1564 835.882 1564 816Z" stroke="#1F1F1F" stroke-width="5"/>
<path d="M1656 816C1656 796.118 1672.12 780 1692 780C1711.88 780 1728 796.118 1728 816C1728 835.882 1711.88 852 1692 852C1672.12 852 1656 835.882 1656 816Z" stroke="#1F1F1F" stroke-width="5"/>
<path d="M0 48C0 28.1178 16.1178 12 36 12C55.8823 12 72 28.1178 72 48C72 67.8823 55.8823 84 36 84C16.1178 84 0 67.8823 0 48Z" stroke="#1F1F1F" stroke-width="5"/>
<path d="M92 48C92 28.1178 108.118 12 128 12C147.882 12 164 28.1178 164 48C164 67.8823 147.882 84 128 84C108.118 84 92 67.8823 92 48Z" stroke="#1F1F1F" stroke-width="5"/>
<path d="M184 48C184 28.1178 200.118 12 220 12C239.882 12 256 28.1178 256 48C256 67.8823 239.882 84 220 84C200.118 84 184 67.8823 184 48Z" stroke="#1F1F1F" stroke-width="5"/>
<path d="M276 48C276 28.1178 292.118 12 312 12C331.882 12 348 28.1178 348 48C348 67.8823 331.882 84 312 84C292.118 84 276 67.8823 276 48Z" stroke="#1F1F1F" stroke-width="5"/>
<path d="M368 48C368 28.1178 384.118 12 404 12C423.882 12 440 28.1178 440 48C440 67.8823 423.882 84 404 84C384.118 84 368 67.8823 368 48Z" stroke="#1F1F1F" stroke-width="5"/>
<path d="M460 48C460 28.1178 476.118 12 496 12C515.882 12 532 28.1178 532 48C532 67.8823 515.882 84 496 84C476.118 84 460 67.8823 460 48Z" stroke="#1F1F1F" stroke-width="5"/>
<path d="M552 48C552 28.1178 568.118 12 588 12C607.882 12 624 28.1178 624 48C624 67.8823 607.882 84 588 84C568.118 84 552 67.8823 552 48Z" stroke="#1F1F1F" stroke-width="5"/>
<path d="M644 48C644 28.1178 660.118 12 680 12C699.882 12 716 28.1178 716 48C716 67.8823 699.882 84 680 84C660.118 84 644 67.8823 644 48Z" stroke="#1F1F1F" stroke-width="5"/>
<path d="M736 48C736 28.1178 752.118 12 772 12C791.882 12 808 28.1178 808 48C808 67.8823 791.882 84 772 84C752.118 84 736 67.8823 736 48Z" stroke="#1F1F1F" stroke-width="5"/>
<path d="M828 48C828 28.1178 844.118 12 864 12C883.882 12 900 28.1178 900 48C900 67.8823 883.882 84 864 84C844.118 84 828 67.8823 828 48Z" stroke="#1F1F1F" stroke-width="5"/>
<path d="M920 48C920 28.1178 936.118 12 956 12C975.882 12 992 28.1178 992 48C992 67.8823 975.882 84 956 84C936.118 84 920 67.8823 920 48Z" stroke="#1F1F1F" stroke-width="5"/>
<path d="M1012 48C1012 28.1178 1028.12 12 1048 12C1067.88 12 1084 28.1178 1084 48C1084 67.8823 1067.88 84 1048 84C1028.12 84 1012 67.8823 1012 48Z" stroke="#1F1F1F" stroke-width="5"/>
<path d="M1104 48C1104 28.1178 1120.12 12 1140 12C1159.88 12 1176 28.1178 1176 48C1176 67.8823 1159.88 84 1140 84C1120.12 84 1104 67.8823 1104 48Z" stroke="#1F1F1F" stroke-width="5"/>
<path d="M1196 48C1196 28.1178 1212.12 12 1232 12C1251.88 12 1268 28.1178 1268 48C1268 67.8823 1251.88 84 1232 84C1212.12 84 1196 67.8823 1196 48Z" stroke="#1F1F1F" stroke-width="5"/>
<path d="M1288 48C1288 28.1178 1304.12 12 1324 12C1343.88 12 1360 28.1178 1360 48C1360 67.8823 1343.88 84 1324 84C1304.12 84 1288 67.8823 1288 48Z" stroke="#1F1F1F" stroke-width="5"/>
<path d="M1380 48C1380 28.1178 1396.12 12 1416 12C1435.88 12 1452 28.1178 1452 48C1452 67.8823 1435.88 84 1416 84C1396.12 84 1380 67.8823 1380 48Z" stroke="#1F1F1F" stroke-width="5"/>
<path d="M1472 48C1472 28.1178 1488.12 12 1508 12C1527.88 12 1544 28.1178 1544 48C1544 67.8823 1527.88 84 1508 84C1488.12 84 1472 67.8823 1472 48Z" stroke="#1F1F1F" stroke-width="5"/>
<path d="M1564 48C1564 28.1178 1580.12 12 1600 12C1619.88 12 1636 28.1178 1636 48C1636 67.8823 1619.88 84 1600 84C1580.12 84 1564 67.8823 1564 48Z" stroke="#1F1F1F" stroke-width="5"/>
<path d="M1656 48C1656 28.1178 1672.12 12 1692 12C1711.88 12 1728 28.1178 1728 48C1728 67.8823 1711.88 84 1692 84C1672.12 84 1656 67.8823 1656 48Z" stroke="#1F1F1F" stroke-width="5"/>
<path d="M0 144C0 124.118 16.1178 108 36 108C55.8823 108 72 124.118 72 144C72 163.882 55.8823 180 36 180C16.1178 180 0 163.882 0 144Z" stroke="#1F1F1F" stroke-width="5"/>
<path d="M92 144C92 124.118 108.118 108 128 108C147.882 108 164 124.118 164 144C164 163.882 147.882 180 128 180C108.118 180 92 163.882 92 144Z" stroke="#1F1F1F" stroke-width="5"/>
<path d="M184 144C184 124.118 200.118 108 220 108C239.882 108 256 124.118 256 144C256 163.882 239.882 180 220 180C200.118 180 184 163.882 184 144Z" stroke="#1F1F1F" stroke-width="5"/>
<path d="M276 144C276 124.118 292.118 108 312 108C331.882 108 348 124.118 348 144C348 163.882 331.882 180 312 180C292.118 180 276 163.882 276 144Z" stroke="#1F1F1F" stroke-width="5"/>
<path d="M368 144C368 124.118 384.118 108 404 108C423.882 108 440 124.118 440 144C440 163.882 423.882 180 404 180C384.118 180 368 163.882 368 144Z" stroke="#1F1F1F" stroke-width="5"/>
<path d="M460 144C460 124.118 476.118 108 496 108C515.882 108 532 124.118 532 144C532 163.882 515.882 180 496 180C476.118 180 460 163.882 460 144Z" stroke="#1F1F1F" stroke-width="5"/>
<path d="M552 144C552 124.118 568.118 108 588 108C607.882 108 624 124.118 624 144C624 163.882 607.882 180 588 180C568.118 180 552 163.882 552 144Z" stroke="#1F1F1F" stroke-width="5"/>
<path d="M644 144C644 124.118 660.118 108 680 108C699.882 108 716 124.118 716 144C716 163.882 699.882 180 680 180C660.118 180 644 163.882 644 144Z" stroke="#1F1F1F" stroke-width="5"/>
<path d="M736 144C736 124.118 752.118 108 772 108C791.882 108 808 124.118 808 144C808 163.882 791.882 180 772 180C752.118 180 736 163.882 736 144Z" stroke="#1F1F1F" stroke-width="5"/>
<path d="M828 144C828 124.118 844.118 108 864 108C883.882 108 900 124.118 900 144C900 163.882 883.882 180 864 180C844.118 180 828 163.882 828 144Z" stroke="#1F1F1F" stroke-width="5"/>
<path d="M920 144C920 124.118 936.118 108 956 108C975.882 108 992 124.118 992 144C992 163.882 975.882 180 956 180C936.118 180 920 163.882 920 144Z" stroke="#1F1F1F" stroke-width="5"/>
<path d="M1012 144C1012 124.118 1028.12 108 1048 108C1067.88 108 1084 124.118 1084 144C1084 163.882 1067.88 180 1048 180C1028.12 180 1012 163.882 1012 144Z" stroke="#1F1F1F" stroke-width="5"/>
<path d="M1104 144C1104 124.118 1120.12 108 1140 108C1159.88 108 1176 124.118 1176 144C1176 163.882 1159.88 180 1140 180C1120.12 180 1104 163.882 1104 144Z" stroke="#1F1F1F" stroke-width="5"/>
<path d="M1196 144C1196 124.118 1212.12 108 1232 108C1251.88 108 1268 124.118 1268 144C1268 163.882 1251.88 180 1232 180C1212.12 180 1196 163.882 1196 144Z" stroke="#1F1F1F" stroke-width="5"/>
<path d="M1288 144C1288 124.118 1304.12 108 1324 108C1343.88 108 1360 124.118 1360 144C1360 163.882 1343.88 180 1324 180C1304.12 180 1288 163.882 1288 144Z" stroke="#1F1F1F" stroke-width="5"/>
<path d="M1380 144C1380 124.118 1396.12 108 1416 108C1435.88 108 1452 124.118 1452 144C1452 163.882 1435.88 180 1416 180C1396.12 180 1380 163.882 1380 144Z" stroke="#1F1F1F" stroke-width="5"/>
<path d="M1472 144C1472 124.118 1488.12 108 1508 108C1527.88 108 1544 124.118 1544 144C1544 163.882 1527.88 180 1508 180C1488.12 180 1472 163.882 1472 144Z" stroke="#1F1F1F" stroke-width="5"/>
<path d="M1564 144C1564 124.118 1580.12 108 1600 108C1619.88 108 1636 124.118 1636 144C1636 163.882 1619.88 180 1600 180C1580.12 180 1564 163.882 1564 144Z" stroke="#1F1F1F" stroke-width="5"/>
<path d="M1656 144C1656 124.118 1672.12 108 1692 108C1711.88 108 1728 124.118 1728 144C1728 163.882 1711.88 180 1692 180C1672.12 180 1656 163.882 1656 144Z" stroke="#1F1F1F" stroke-width="5"/>
<path d="M0 240C0 220.118 16.1178 204 36 204C55.8823 204 72 220.118 72 240C72 259.882 55.8823 276 36 276C16.1178 276 0 259.882 0 240Z" stroke="#1F1F1F" stroke-width="5"/>
<path d="M92 240C92 220.118 108.118 204 128 204C147.882 204 164 220.118 164 240C164 259.882 147.882 276 128 276C108.118 276 92 259.882 92 240Z" stroke="#1F1F1F" stroke-width="5"/>
<path d="M184 240C184 220.118 200.118 204 220 204C239.882 204 256 220.118 256 240C256 259.882 239.882 276 220 276C200.118 276 184 259.882 184 240Z" stroke="#1F1F1F" stroke-width="5"/>
<path d="M276 240C276 220.118 292.118 204 312 204C331.882 204 348 220.118 348 240C348 259.882 331.882 276 312 276C292.118 276 276 259.882 276 240Z" stroke="#1F1F1F" stroke-width="5"/>
<path d="M368 240C368 220.118 384.118 204 404 204C423.882 204 440 220.118 440 240C440 259.882 423.882 276 404 276C384.118 276 368 259.882 368 240Z" stroke="#1F1F1F" stroke-width="5"/>
<path d="M460 240C460 220.118 476.118 204 496 204C515.882 204 532 220.118 532 240C532 259.882 515.882 276 496 276C476.118 276 460 259.882 460 240Z" stroke="#1F1F1F" stroke-width="5"/>
<path d="M552 240C552 220.118 568.118 204 588 204C607.882 204 624 220.118 624 240C624 259.882 607.882 276 588 276C568.118 276 552 259.882 552 240Z" stroke="#1F1F1F" stroke-width="5"/>
<path d="M644 240C644 220.118 660.118 204 680 204C699.882 204 716 220.118 716 240C716 259.882 699.882 276 680 276C660.118 276 644 259.882 644 240Z" stroke="#1F1F1F" stroke-width="5"/>
<path d="M736 240C736 220.118 752.118 204 772 204C791.882 204 808 220.118 808 240C808 259.882 791.882 276 772 276C752.118 276 736 259.882 736 240Z" stroke="#1F1F1F" stroke-width="5"/>
<path d="M828 240C828 220.118 844.118 204 864 204C883.882 204 900 220.118 900 240C900 259.882 883.882 276 864 276C844.118 276 828 259.882 828 240Z" stroke="#1F1F1F" stroke-width="5"/>
<path d="M920 240C920 220.118 936.118 204 956 204C975.882 204 992 220.118 992 240C992 259.882 975.882 276 956 276C936.118 276 920 259.882 920 240Z" stroke="#1F1F1F" stroke-width="5"/>
<path d="M1012 240C1012 220.118 1028.12 204 1048 204C1067.88 204 1084 220.118 1084 240C1084 259.882 1067.88 276 1048 276C1028.12 276 1012 259.882 1012 240Z" stroke="#1F1F1F" stroke-width="5"/>
<path d="M1104 240C1104 220.118 1120.12 204 1140 204C1159.88 204 1176 220.118 1176 240C1176 259.882 1159.88 276 1140 276C1120.12 276 1104 259.882 1104 240Z" stroke="#1F1F1F" stroke-width="5"/>
<path d="M1196 240C1196 220.118 1212.12 204 1232 204C1251.88 204 1268 220.118 1268 240C1268 259.882 1251.88 276 1232 276C1212.12 276 1196 259.882 1196 240Z" stroke="#1F1F1F" stroke-width="5"/>
<path d="M1288 240C1288 220.118 1304.12 204 1324 204C1343.88 204 1360 220.118 1360 240C1360 259.882 1343.88 276 1324 276C1304.12 276 1288 259.882 1288 240Z" stroke="#1F1F1F" stroke-width="5"/>
<path d="M1380 240C1380 220.118 1396.12 204 1416 204C1435.88 204 1452 220.118 1452 240C1452 259.882 1435.88 276 1416 276C1396.12 276 1380 259.882 1380 240Z" stroke="#1F1F1F" stroke-width="5"/>
<path d="M1472 240C1472 220.118 1488.12 204 1508 204C1527.88 204 1544 220.118 1544 240C1544 259.882 1527.88 276 1508 276C1488.12 276 1472 259.882 1472 240Z" stroke="#1F1F1F" stroke-width="5"/>
<path d="M1564 240C1564 220.118 1580.12 204 1600 204C1619.88 204 1636 220.118 1636 240C1636 259.882 1619.88 276 1600 276C1580.12 276 1564 259.882 1564 240Z" stroke="#1F1F1F" stroke-width="5"/>
<path d="M1656 240C1656 220.118 1672.12 204 1692 204C1711.88 204 1728 220.118 1728 240C1728 259.882 1711.88 276 1692 276C1672.12 276 1656 259.882 1656 240Z" stroke="#1F1F1F" stroke-width="5"/>
<path d="M0 336C0 316.118 16.1178 300 36 300C55.8823 300 72 316.118 72 336C72 355.882 55.8823 372 36 372C16.1178 372 0 355.882 0 336Z" stroke="#1F1F1F" stroke-width="5"/>
<path d="M92 336C92 316.118 108.118 300 128 300C147.882 300 164 316.118 164 336C164 355.882 147.882 372 128 372C108.118 372 92 355.882 92 336Z" stroke="#1F1F1F" stroke-width="5"/>
<path d="M184 336C184 316.118 200.118 300 220 300C239.882 300 256 316.118 256 336C256 355.882 239.882 372 220 372C200.118 372 184 355.882 184 336Z" stroke="#1F1F1F" stroke-width="5"/>
<path d="M276 336C276 316.118 292.118 300 312 300C331.882 300 348 316.118 348 336C348 355.882 331.882 372 312 372C292.118 372 276 355.882 276 336Z" stroke="#1F1F1F" stroke-width="5"/>
<path d="M368 336C368 316.118 384.118 300 404 300C423.882 300 440 316.118 440 336C440 355.882 423.882 372 404 372C384.118 372 368 355.882 368 336Z" stroke="#1F1F1F" stroke-width="5"/>
<path d="M460 336C460 316.118 476.118 300 496 300C515.882 300 532 316.118 532 336C532 355.882 515.882 372 496 372C476.118 372 460 355.882 460 336Z" stroke="#1F1F1F" stroke-width="5"/>
<path d="M552 336C552 316.118 568.118 300 588 300C607.882 300 624 316.118 624 336C624 355.882 607.882 372 588 372C568.118 372 552 355.882 552 336Z" stroke="#1F1F1F" stroke-width="5"/>
<path d="M644 336C644 316.118 660.118 300 680 300C699.882 300 716 316.118 716 336C716 355.882 699.882 372 680 372C660.118 372 644 355.882 644 336Z" stroke="#1F1F1F" stroke-width="5"/>
<path d="M736 336C736 316.118 752.118 300 772 300C791.882 300 808 316.118 808 336C808 355.882 791.882 372 772 372C752.118 372 736 355.882 736 336Z" stroke="#1F1F1F" stroke-width="5"/>
<path d="M828 336C828 316.118 844.118 300 864 300C883.882 300 900 316.118 900 336C900 355.882 883.882 372 864 372C844.118 372 828 355.882 828 336Z" stroke="#1F1F1F" stroke-width="5"/>
<path d="M920 336C920 316.118 936.118 300 956 300C975.882 300 992 316.118 992 336C992 355.882 975.882 372 956 372C936.118 372 920 355.882 920 336Z" stroke="#1F1F1F" stroke-width="5"/>
<path d="M1012 336C1012 316.118 1028.12 300 1048 300C1067.88 300 1084 316.118 1084 336C1084 355.882 1067.88 372 1048 372C1028.12 372 1012 355.882 1012 336Z" stroke="#1F1F1F" stroke-width="5"/>
<path d="M1104 336C1104 316.118 1120.12 300 1140 300C1159.88 300 1176 316.118 1176 336C1176 355.882 1159.88 372 1140 372C1120.12 372 1104 355.882 1104 336Z" stroke="#1F1F1F" stroke-width="5"/>
<path d="M1196 336C1196 316.118 1212.12 300 1232 300C1251.88 300 1268 316.118 1268 336C1268 355.882 1251.88 372 1232 372C1212.12 372 1196 355.882 1196 336Z" stroke="#1F1F1F" stroke-width="5"/>
<path d="M1288 336C1288 316.118 1304.12 300 1324 300C1343.88 300 1360 316.118 1360 336C1360 355.882 1343.88 372 1324 372C1304.12 372 1288 355.882 1288 336Z" stroke="#1F1F1F" stroke-width="5"/>
<path d="M1380 336C1380 316.118 1396.12 300 1416 300C1435.88 300 1452 316.118 1452 336C1452 355.882 1435.88 372 1416 372C1396.12 372 1380 355.882 1380 336Z" stroke="#1F1F1F" stroke-width="5"/>
<path d="M1472 336C1472 316.118 1488.12 300 1508 300C1527.88 300 1544 316.118 1544 336C1544 355.882 1527.88 372 1508 372C1488.12 372 1472 355.882 1472 336Z" stroke="#1F1F1F" stroke-width="5"/>
<path d="M1564 336C1564 316.118 1580.12 300 1600 300C1619.88 300 1636 316.118 1636 336C1636 355.882 1619.88 372 1600 372C1580.12 372 1564 355.882 1564 336Z" stroke="#1F1F1F" stroke-width="5"/>
<path d="M1656 336C1656 316.118 1672.12 300 1692 300C1711.88 300 1728 316.118 1728 336C1728 355.882 1711.88 372 1692 372C1672.12 372 1656 355.882 1656 336Z" stroke="#1F1F1F" stroke-width="5"/>
</g>
</g>
<defs>
<clipPath id="clip0_2291_6475">
<rect y="-432" width="1728" height="1728" rx="22" fill="white"/>
</clipPath>
</defs>
</svg>
