<svg width="28" height="28" viewBox="0 0 28 28" fill="none" xmlns="http://www.w3.org/2000/svg">
<path d="M20.5761 13.9999C20.4594 14.869 20.5061 15.7499 20.5983 17.5127L20.9961 22.7755C20.9961 23.6004 20.8561 24.0414 20.1153 24.4392C17.0668 26.076 10.9254 26.076 7.87693 24.4392C7.13609 24.0414 6.99609 23.5992 6.99609 22.7755L7.39393 17.5139C7.48726 15.751 7.53276 14.869 7.41493 13.9999" stroke="#DDDDDD" stroke-width="1.75" stroke-linecap="round" stroke-linejoin="round"/>
<path d="M16.3294 19.8332C16.3294 20.854 16.8182 21.4887 17.4961 22.1665M11.6627 19.8332C11.6627 20.854 11.1739 21.4887 10.4961 22.1665M8.62939 8.04634L13.1584 10.2047C13.5714 10.4018 13.7779 10.4998 13.9961 10.4998C14.2142 10.4998 14.4207 10.4018 14.8337 10.2047L19.3627 8.04634C20.3661 7.56918 20.8677 7.33001 20.9751 6.71868C21.0836 6.10618 20.7651 5.74684 20.1304 5.02701C16.9547 1.43484 11.0374 1.43484 7.86172 5.02701C7.22589 5.74684 6.90856 6.10618 7.01706 6.71868C7.12556 7.33118 7.62722 7.56918 8.62939 8.04634Z" stroke="#DDDDDD" stroke-width="1.75" stroke-linecap="round" stroke-linejoin="round"/>
<path d="M16.3278 6.99982L13.9945 10.4998L11.6611 6.99982M7.44246 7.58315C5.86746 7.89465 4.45929 9.35648 3.48162 10.6655C2.85512 11.5032 2.54246 11.9232 2.38729 12.6967C2.23212 13.4713 2.39546 14.1177 2.72212 15.4092L4.23879 21.3942C4.50712 22.4535 5.82779 22.296 6.99446 21.1188M20.5465 7.58315C22.1215 7.89465 23.5296 9.35648 24.5073 10.6655C25.1338 11.5032 25.4465 11.9232 25.6016 12.6967C25.7568 13.4713 25.5935 14.1177 25.2668 15.4092L23.7501 21.3942C23.4818 22.4535 22.1611 22.2867 20.9945 21.7068" stroke="#DDDDDD" stroke-width="1.75" stroke-linecap="round" stroke-linejoin="round"/>
</svg>
