<svg width="306" height="177" viewBox="0 0 306 177" fill="none" xmlns="http://www.w3.org/2000/svg">
<g opacity="0.06">
<path d="M26.7363 116.737L27.9346 115.557C30.7141 112.82 35.6465 112.367 38.6436 114.891C42.2256 117.885 42.3688 123.244 39.1198 126.444L37.4151 128.123" stroke="#1F1F1F" stroke-width="4.33483" stroke-miterlimit="10" stroke-linecap="round" stroke-linejoin="round"/>
<path d="M10.8585 136.026L18.1589 143.438C23.0501 148.404 25.9151 147.335 28.5919 145.21L36.9165 138.836C40.2593 136.2 41.8659 132.914 36.6705 127.639L26.9367 117.757C21.7413 112.482 18.4312 114.038 15.7455 117.341L9.24593 125.567C7.08016 128.212 5.96729 131.06 10.8585 136.026Z" stroke="#1F1F1F" stroke-width="4.33483" stroke-miterlimit="10" stroke-linecap="round" stroke-linejoin="round"/>
<path d="M31.1168 131.882L31.1277 131.893" stroke="#1F1F1F" stroke-width="4.33483" stroke-linecap="round" stroke-linejoin="round"/>
<path d="M22.5973 123.234L22.6082 123.245" stroke="#1F1F1F" stroke-width="3.46786" stroke-linecap="round" stroke-linejoin="round"/>
<path d="M257.162 27.7442C281.971 29.0042 294.667 -2.18413 300.362 -26.364C304.263 -42.9288 298.969 -62.5117 287.502 -75.3554C276.459 -87.7231 255.485 -95.5493 239.531 -98.218C216.099 -102.138 196.303 -97.8656 179.109 -81.1731C167.212 -69.623 157.612 -56.9665 150.531 -41.98C146.689 -33.8501 143.65 -25.38 139.508 -17.3823C135.701 -10.0325 130.767 -3.35995 126.545 3.74523C116.918 19.9481 108.674 37.0419 97.865 52.5324C89.3722 64.7037 78.6128 74.9487 68.1641 85.3975" stroke="black" stroke-width="7.10912" stroke-linecap="round" stroke-linejoin="round" stroke-dasharray="19.07 19.07"/>
<g clip-path="url(#clip0_3329_19246)">
<path d="M45.7887 101.447C45.4951 103.771 47.0915 105.778 49.2232 106.19C49.3301 108.672 51.516 110.521 53.9591 110.259C55.0063 113.211 58.9021 114.121 61.0815 111.757C62.6944 113.966 65.9544 114.137 67.7355 112.064L69.8744 109.573C71.104 108.142 71.6518 106.241 71.3773 104.358L70.3003 96.9683C70.2534 96.6467 70.3736 96.6078 71.4 95.4129C72.0637 94.6401 71.9753 93.4757 71.2026 92.812L60.1844 83.3481C59.4117 82.6844 58.2472 82.7728 57.5835 83.5455C56.7005 84.5736 56.4733 84.9279 55.8182 85.2485L50.2028 87.9971C49.4039 88.3881 48.7057 88.9277 48.1275 89.6009L43.8296 94.6047C41.8453 96.915 42.8747 100.521 45.7887 101.447ZM50.2262 91.4035C50.5567 91.0181 50.9627 90.7045 51.4191 90.482L57.0345 87.7334C57.7202 87.3977 58.3195 86.9347 58.8156 86.3571L59.0813 86.0477L68.7004 94.3098L68.3141 94.7595C67.6994 95.4753 67.4254 96.4258 67.5627 97.3673L68.6397 104.757C68.7987 105.848 68.4837 106.946 67.7757 107.771L65.6368 110.261C64.3897 111.713 62.1037 109.774 63.3886 108.278L64.9369 106.476C65.0228 106.376 65.0863 106.259 65.123 106.132C65.1598 106.005 65.1689 105.872 65.1499 105.742L65.0728 105.213C65.0472 105.037 64.9719 104.873 64.8556 104.74C64.7394 104.606 64.5872 104.509 64.4173 104.46C64.2473 104.411 64.0667 104.411 63.8971 104.462C63.7275 104.512 63.576 104.61 63.4607 104.745L59.0828 109.842C57.8399 111.289 55.5427 109.363 56.8346 107.859L57.8393 106.689C58.1711 106.303 58.1269 105.721 57.7406 105.389L57.4345 105.126C57.0482 104.794 56.4659 104.839 56.1341 105.225L54.589 107.024C53.3446 108.472 51.0507 106.543 52.3408 105.041L53.8605 103.272C54.1923 102.886 54.1482 102.303 53.7618 101.972L53.4557 101.709C53.0693 101.377 52.4871 101.421 52.1553 101.807L51.1252 103.007C49.8847 104.451 47.583 102.531 48.877 101.024L49.8816 99.8545C50.2135 99.4682 50.1693 98.886 49.7829 98.5541L49.4769 98.2912C49.0905 97.9593 48.5083 98.0036 48.1764 98.3899C46.9316 99.8391 44.6405 97.9067 45.9283 96.4074L50.2262 91.4035Z" fill="#1F1F1F" stroke="black" stroke-width="1.21375"/>
</g>
</g>
<defs>
<clipPath id="clip0_3329_19246">
<rect width="29.5104" height="29.5104" fill="white" transform="matrix(-0.758587 -0.651571 0.651569 -0.758589 60.6953 120.259)"/>
</clipPath>
</defs>
</svg>
