<svg width="378" height="217" viewBox="0 0 378 217" fill="none" xmlns="http://www.w3.org/2000/svg">
<g opacity="0.1">
<path d="M56.7177 147.805L58.0999 146.443C61.3059 143.286 66.9952 142.763 70.4522 145.674C74.5838 149.128 74.749 155.31 71.0015 159.001L69.0351 160.938" stroke="#1F1F1F" stroke-width="5" stroke-miterlimit="10" stroke-linecap="round" stroke-linejoin="round"/>
<path d="M38.4034 170.053L46.824 178.602C52.4658 184.331 55.7703 183.097 58.8579 180.645L68.4599 173.294C72.3157 170.254 74.1688 166.464 68.1762 160.379L56.9487 148.98C50.956 142.896 47.138 144.691 44.0402 148.5L36.5433 157.989C34.0452 161.039 32.7616 164.325 38.4034 170.053Z" stroke="#1F1F1F" stroke-width="5" stroke-miterlimit="10" stroke-linecap="round" stroke-linejoin="round"/>
<path d="M61.7706 165.273L61.7832 165.286" stroke="#1F1F1F" stroke-width="5" stroke-linecap="round" stroke-linejoin="round"/>
<path d="M51.9425 155.298L51.9551 155.311" stroke="#1F1F1F" stroke-width="4" stroke-linecap="round" stroke-linejoin="round"/>
<path d="M322.5 45.1548C351.115 46.6082 365.76 10.6341 372.329 -17.2561C376.829 -36.3628 370.722 -58.9505 357.495 -73.765C344.758 -88.0305 320.566 -97.0577 302.163 -100.136C275.136 -104.657 252.301 -99.7294 232.469 -80.4755C218.746 -67.153 207.674 -52.5544 199.506 -35.2683C195.074 -25.8909 191.569 -16.1211 186.791 -6.89618C182.4 1.58138 176.709 9.27784 171.84 17.4733C160.736 36.1624 151.226 55.8792 138.759 73.7467C128.962 87.7857 116.552 99.6027 104.5 111.655" stroke="black" stroke-width="8.2" stroke-linecap="round" stroke-linejoin="round" stroke-dasharray="22 22"/>
<g clip-path="url(#clip0_3329_1091)">
<path d="M78.6877 130.168C78.3491 132.847 80.1905 135.163 82.6493 135.637C82.7726 138.501 85.2939 140.634 88.1119 140.331C89.3199 143.737 93.8134 144.785 96.3273 142.059C98.1876 144.607 101.948 144.805 104.002 142.413L106.469 139.541C107.888 137.889 108.52 135.697 108.203 133.525L106.961 125.001C106.907 124.63 107.045 124.585 108.229 123.207C108.995 122.316 108.893 120.973 108.001 120.207L95.2925 109.291C94.4012 108.526 93.058 108.627 92.2925 109.519C91.274 110.705 91.0119 111.113 90.2563 111.483L83.7792 114.653C82.8577 115.104 82.0524 115.727 81.3855 116.503L76.4281 122.275C74.1392 124.94 75.3266 129.099 78.6877 130.168ZM83.8062 118.583C84.1875 118.138 84.6557 117.776 85.1821 117.52L91.6592 114.349C92.4502 113.962 93.1414 113.428 93.7136 112.762L94.0202 112.405L105.115 121.935L104.67 122.454C103.961 123.279 103.645 124.376 103.803 125.462L105.045 133.985C105.229 135.243 104.865 136.51 104.049 137.461L101.582 140.334C100.143 142.008 97.5063 139.772 98.9884 138.047L100.774 135.968C100.873 135.852 100.947 135.717 100.989 135.571C101.031 135.425 101.042 135.272 101.02 135.121L100.931 134.511C100.902 134.309 100.815 134.119 100.681 133.965C100.546 133.811 100.371 133.699 100.175 133.642C99.9788 133.586 99.7706 133.586 99.5749 133.645C99.3793 133.703 99.2045 133.816 99.0715 133.971L94.0219 139.85C92.5882 141.519 89.9385 139.298 91.4287 137.563L92.5875 136.214C92.9702 135.769 92.9193 135.097 92.4737 134.714L92.1206 134.411C91.675 134.028 91.0034 134.079 90.6206 134.525L88.8384 136.6C87.4031 138.271 84.7572 136.045 86.2453 134.313L87.9981 132.272C88.3809 131.827 88.33 131.155 87.8843 130.772L87.5313 130.469C87.0856 130.086 86.414 130.137 86.0313 130.583L84.8431 131.966C83.4123 133.632 80.7574 131.417 82.25 129.68L83.4088 128.33C83.7915 127.885 83.7406 127.213 83.2949 126.83L82.9419 126.527C82.4962 126.144 81.8246 126.195 81.4419 126.641C80.0061 128.313 77.3634 126.084 78.8487 124.354L83.8062 118.583Z" fill="#1F1F1F" stroke="black" stroke-width="1.4"/>
</g>
</g>
<defs>
<clipPath id="clip0_3329_1091">
<rect width="34.0387" height="34.0387" fill="white" transform="translate(95.8828 151.866) rotate(-139.34)"/>
</clipPath>
</defs>
</svg>
