<svg width="1728" height="835" viewBox="0 0 1728 835" fill="none" xmlns="http://www.w3.org/2000/svg">
<g opacity="0.06">
<g clip-path="url(#clip0_2291_6475)">
<rect y="-446" width="1728" height="1728" rx="22" fill="white"/>
<path d="M0 418C0 398.118 16.1178 382 36 382C55.8823 382 72 398.118 72 418C72 437.882 55.8823 454 36 454C16.1178 454 0 437.882 0 418Z" stroke="#1F1F1F" stroke-width="5"/>
<path d="M92 418C92 398.118 108.118 382 128 382C147.882 382 164 398.118 164 418C164 437.882 147.882 454 128 454C108.118 454 92 437.882 92 418Z" stroke="#1F1F1F" stroke-width="5"/>
<path d="M184 418C184 398.118 200.118 382 220 382C239.882 382 256 398.118 256 418C256 437.882 239.882 454 220 454C200.118 454 184 437.882 184 418Z" stroke="#1F1F1F" stroke-width="5"/>
<path d="M276 418C276 398.118 292.118 382 312 382C331.882 382 348 398.118 348 418C348 437.882 331.882 454 312 454C292.118 454 276 437.882 276 418Z" stroke="#1F1F1F" stroke-width="5"/>
<path d="M368 418C368 398.118 384.118 382 404 382C423.882 382 440 398.118 440 418C440 437.882 423.882 454 404 454C384.118 454 368 437.882 368 418Z" stroke="#1F1F1F" stroke-width="5"/>
<path d="M460 418C460 398.118 476.118 382 496 382C515.882 382 532 398.118 532 418C532 437.882 515.882 454 496 454C476.118 454 460 437.882 460 418Z" stroke="#1F1F1F" stroke-width="5"/>
<path d="M552 418C552 398.118 568.118 382 588 382C607.882 382 624 398.118 624 418C624 437.882 607.882 454 588 454C568.118 454 552 437.882 552 418Z" stroke="#1F1F1F" stroke-width="5"/>
<path d="M644 418C644 398.118 660.118 382 680 382C699.882 382 716 398.118 716 418C716 437.882 699.882 454 680 454C660.118 454 644 437.882 644 418Z" stroke="#1F1F1F" stroke-width="5"/>
<path d="M736 418C736 398.118 752.118 382 772 382C791.882 382 808 398.118 808 418C808 437.882 791.882 454 772 454C752.118 454 736 437.882 736 418Z" stroke="#1F1F1F" stroke-width="5"/>
<path d="M828 418C828 398.118 844.118 382 864 382C883.882 382 900 398.118 900 418C900 437.882 883.882 454 864 454C844.118 454 828 437.882 828 418Z" stroke="#1F1F1F" stroke-width="5"/>
<path d="M920 418C920 398.118 936.118 382 956 382C975.882 382 992 398.118 992 418C992 437.882 975.882 454 956 454C936.118 454 920 437.882 920 418Z" stroke="#1F1F1F" stroke-width="5"/>
<path d="M1012 418C1012 398.118 1028.12 382 1048 382C1067.88 382 1084 398.118 1084 418C1084 437.882 1067.88 454 1048 454C1028.12 454 1012 437.882 1012 418Z" stroke="#1F1F1F" stroke-width="5"/>
<path d="M1104 418C1104 398.118 1120.12 382 1140 382C1159.88 382 1176 398.118 1176 418C1176 437.882 1159.88 454 1140 454C1120.12 454 1104 437.882 1104 418Z" stroke="#1F1F1F" stroke-width="5"/>
<path d="M1196 418C1196 398.118 1212.12 382 1232 382C1251.88 382 1268 398.118 1268 418C1268 437.882 1251.88 454 1232 454C1212.12 454 1196 437.882 1196 418Z" stroke="#1F1F1F" stroke-width="5"/>
<path d="M1288 418C1288 398.118 1304.12 382 1324 382C1343.88 382 1360 398.118 1360 418C1360 437.882 1343.88 454 1324 454C1304.12 454 1288 437.882 1288 418Z" stroke="#1F1F1F" stroke-width="5"/>
<path d="M1380 418C1380 398.118 1396.12 382 1416 382C1435.88 382 1452 398.118 1452 418C1452 437.882 1435.88 454 1416 454C1396.12 454 1380 437.882 1380 418Z" stroke="#1F1F1F" stroke-width="5"/>
<path d="M1472 418C1472 398.118 1488.12 382 1508 382C1527.88 382 1544 398.118 1544 418C1544 437.882 1527.88 454 1508 454C1488.12 454 1472 437.882 1472 418Z" stroke="#1F1F1F" stroke-width="5"/>
<path d="M1564 418C1564 398.118 1580.12 382 1600 382C1619.88 382 1636 398.118 1636 418C1636 437.882 1619.88 454 1600 454C1580.12 454 1564 437.882 1564 418Z" stroke="#1F1F1F" stroke-width="5"/>
<path d="M1656 418C1656 398.118 1672.12 382 1692 382C1711.88 382 1728 398.118 1728 418C1728 437.882 1711.88 454 1692 454C1672.12 454 1656 437.882 1656 418Z" stroke="#1F1F1F" stroke-width="5"/>
<path d="M0 514C0 494.118 16.1178 478 36 478C55.8823 478 72 494.118 72 514C72 533.882 55.8823 550 36 550C16.1178 550 0 533.882 0 514Z" stroke="#1F1F1F" stroke-width="5"/>
<path d="M92 514C92 494.118 108.118 478 128 478C147.882 478 164 494.118 164 514C164 533.882 147.882 550 128 550C108.118 550 92 533.882 92 514Z" stroke="#1F1F1F" stroke-width="5"/>
<path d="M184 514C184 494.118 200.118 478 220 478C239.882 478 256 494.118 256 514C256 533.882 239.882 550 220 550C200.118 550 184 533.882 184 514Z" stroke="#1F1F1F" stroke-width="5"/>
<path d="M276 514C276 494.118 292.118 478 312 478C331.882 478 348 494.118 348 514C348 533.882 331.882 550 312 550C292.118 550 276 533.882 276 514Z" stroke="#1F1F1F" stroke-width="5"/>
<path d="M368 514C368 494.118 384.118 478 404 478C423.882 478 440 494.118 440 514C440 533.882 423.882 550 404 550C384.118 550 368 533.882 368 514Z" stroke="#1F1F1F" stroke-width="5"/>
<path d="M460 514C460 494.118 476.118 478 496 478C515.882 478 532 494.118 532 514C532 533.882 515.882 550 496 550C476.118 550 460 533.882 460 514Z" stroke="#1F1F1F" stroke-width="5"/>
<path d="M552 514C552 494.118 568.118 478 588 478C607.882 478 624 494.118 624 514C624 533.882 607.882 550 588 550C568.118 550 552 533.882 552 514Z" stroke="#1F1F1F" stroke-width="5"/>
<path d="M644 514C644 494.118 660.118 478 680 478C699.882 478 716 494.118 716 514C716 533.882 699.882 550 680 550C660.118 550 644 533.882 644 514Z" stroke="#1F1F1F" stroke-width="5"/>
<path d="M736 514C736 494.118 752.118 478 772 478C791.882 478 808 494.118 808 514C808 533.882 791.882 550 772 550C752.118 550 736 533.882 736 514Z" stroke="#1F1F1F" stroke-width="5"/>
<path d="M828 514C828 494.118 844.118 478 864 478C883.882 478 900 494.118 900 514C900 533.882 883.882 550 864 550C844.118 550 828 533.882 828 514Z" stroke="#1F1F1F" stroke-width="5"/>
<path d="M920 514C920 494.118 936.118 478 956 478C975.882 478 992 494.118 992 514C992 533.882 975.882 550 956 550C936.118 550 920 533.882 920 514Z" stroke="#1F1F1F" stroke-width="5"/>
<path d="M1012 514C1012 494.118 1028.12 478 1048 478C1067.88 478 1084 494.118 1084 514C1084 533.882 1067.88 550 1048 550C1028.12 550 1012 533.882 1012 514Z" stroke="#1F1F1F" stroke-width="5"/>
<path d="M1104 514C1104 494.118 1120.12 478 1140 478C1159.88 478 1176 494.118 1176 514C1176 533.882 1159.88 550 1140 550C1120.12 550 1104 533.882 1104 514Z" stroke="#1F1F1F" stroke-width="5"/>
<path d="M1196 514C1196 494.118 1212.12 478 1232 478C1251.88 478 1268 494.118 1268 514C1268 533.882 1251.88 550 1232 550C1212.12 550 1196 533.882 1196 514Z" stroke="#1F1F1F" stroke-width="5"/>
<path d="M1288 514C1288 494.118 1304.12 478 1324 478C1343.88 478 1360 494.118 1360 514C1360 533.882 1343.88 550 1324 550C1304.12 550 1288 533.882 1288 514Z" stroke="#1F1F1F" stroke-width="5"/>
<path d="M1380 514C1380 494.118 1396.12 478 1416 478C1435.88 478 1452 494.118 1452 514C1452 533.882 1435.88 550 1416 550C1396.12 550 1380 533.882 1380 514Z" stroke="#1F1F1F" stroke-width="5"/>
<path d="M1472 514C1472 494.118 1488.12 478 1508 478C1527.88 478 1544 494.118 1544 514C1544 533.882 1527.88 550 1508 550C1488.12 550 1472 533.882 1472 514Z" stroke="#1F1F1F" stroke-width="5"/>
<path d="M1564 514C1564 494.118 1580.12 478 1600 478C1619.88 478 1636 494.118 1636 514C1636 533.882 1619.88 550 1600 550C1580.12 550 1564 533.882 1564 514Z" stroke="#1F1F1F" stroke-width="5"/>
<path d="M1656 514C1656 494.118 1672.12 478 1692 478C1711.88 478 1728 494.118 1728 514C1728 533.882 1711.88 550 1692 550C1672.12 550 1656 533.882 1656 514Z" stroke="#1F1F1F" stroke-width="5"/>
<path d="M0 610C0 590.118 16.1178 574 36 574C55.8823 574 72 590.118 72 610C72 629.882 55.8823 646 36 646C16.1178 646 0 629.882 0 610Z" stroke="#1F1F1F" stroke-width="5"/>
<path d="M92 610C92 590.118 108.118 574 128 574C147.882 574 164 590.118 164 610C164 629.882 147.882 646 128 646C108.118 646 92 629.882 92 610Z" stroke="#1F1F1F" stroke-width="5"/>
<path d="M184 610C184 590.118 200.118 574 220 574C239.882 574 256 590.118 256 610C256 629.882 239.882 646 220 646C200.118 646 184 629.882 184 610Z" stroke="#1F1F1F" stroke-width="5"/>
<path d="M276 610C276 590.118 292.118 574 312 574C331.882 574 348 590.118 348 610C348 629.882 331.882 646 312 646C292.118 646 276 629.882 276 610Z" stroke="#1F1F1F" stroke-width="5"/>
<path d="M368 610C368 590.118 384.118 574 404 574C423.882 574 440 590.118 440 610C440 629.882 423.882 646 404 646C384.118 646 368 629.882 368 610Z" stroke="#1F1F1F" stroke-width="5"/>
<path d="M460 610C460 590.118 476.118 574 496 574C515.882 574 532 590.118 532 610C532 629.882 515.882 646 496 646C476.118 646 460 629.882 460 610Z" stroke="#1F1F1F" stroke-width="5"/>
<path d="M552 610C552 590.118 568.118 574 588 574C607.882 574 624 590.118 624 610C624 629.882 607.882 646 588 646C568.118 646 552 629.882 552 610Z" stroke="#1F1F1F" stroke-width="5"/>
<path d="M644 610C644 590.118 660.118 574 680 574C699.882 574 716 590.118 716 610C716 629.882 699.882 646 680 646C660.118 646 644 629.882 644 610Z" stroke="#1F1F1F" stroke-width="5"/>
<path d="M736 610C736 590.118 752.118 574 772 574C791.882 574 808 590.118 808 610C808 629.882 791.882 646 772 646C752.118 646 736 629.882 736 610Z" stroke="#1F1F1F" stroke-width="5"/>
<path d="M828 610C828 590.118 844.118 574 864 574C883.882 574 900 590.118 900 610C900 629.882 883.882 646 864 646C844.118 646 828 629.882 828 610Z" stroke="#1F1F1F" stroke-width="5"/>
<path d="M920 610C920 590.118 936.118 574 956 574C975.882 574 992 590.118 992 610C992 629.882 975.882 646 956 646C936.118 646 920 629.882 920 610Z" stroke="#1F1F1F" stroke-width="5"/>
<path d="M1012 610C1012 590.118 1028.12 574 1048 574C1067.88 574 1084 590.118 1084 610C1084 629.882 1067.88 646 1048 646C1028.12 646 1012 629.882 1012 610Z" stroke="#1F1F1F" stroke-width="5"/>
<path d="M1104 610C1104 590.118 1120.12 574 1140 574C1159.88 574 1176 590.118 1176 610C1176 629.882 1159.88 646 1140 646C1120.12 646 1104 629.882 1104 610Z" stroke="#1F1F1F" stroke-width="5"/>
<path d="M1196 610C1196 590.118 1212.12 574 1232 574C1251.88 574 1268 590.118 1268 610C1268 629.882 1251.88 646 1232 646C1212.12 646 1196 629.882 1196 610Z" stroke="#1F1F1F" stroke-width="5"/>
<path d="M1288 610C1288 590.118 1304.12 574 1324 574C1343.88 574 1360 590.118 1360 610C1360 629.882 1343.88 646 1324 646C1304.12 646 1288 629.882 1288 610Z" stroke="#1F1F1F" stroke-width="5"/>
<path d="M1380 610C1380 590.118 1396.12 574 1416 574C1435.88 574 1452 590.118 1452 610C1452 629.882 1435.88 646 1416 646C1396.12 646 1380 629.882 1380 610Z" stroke="#1F1F1F" stroke-width="5"/>
<path d="M1472 610C1472 590.118 1488.12 574 1508 574C1527.88 574 1544 590.118 1544 610C1544 629.882 1527.88 646 1508 646C1488.12 646 1472 629.882 1472 610Z" stroke="#1F1F1F" stroke-width="5"/>
<path d="M1564 610C1564 590.118 1580.12 574 1600 574C1619.88 574 1636 590.118 1636 610C1636 629.882 1619.88 646 1600 646C1580.12 646 1564 629.882 1564 610Z" stroke="#1F1F1F" stroke-width="5"/>
<path d="M1656 610C1656 590.118 1672.12 574 1692 574C1711.88 574 1728 590.118 1728 610C1728 629.882 1711.88 646 1692 646C1672.12 646 1656 629.882 1656 610Z" stroke="#1F1F1F" stroke-width="5"/>
<path d="M0 706C0 686.118 16.1178 670 36 670C55.8823 670 72 686.118 72 706C72 725.882 55.8823 742 36 742C16.1178 742 0 725.882 0 706Z" stroke="#1F1F1F" stroke-width="5"/>
<path d="M92 706C92 686.118 108.118 670 128 670C147.882 670 164 686.118 164 706C164 725.882 147.882 742 128 742C108.118 742 92 725.882 92 706Z" stroke="#1F1F1F" stroke-width="5"/>
<path d="M184 706C184 686.118 200.118 670 220 670C239.882 670 256 686.118 256 706C256 725.882 239.882 742 220 742C200.118 742 184 725.882 184 706Z" stroke="#1F1F1F" stroke-width="5"/>
<path d="M276 706C276 686.118 292.118 670 312 670C331.882 670 348 686.118 348 706C348 725.882 331.882 742 312 742C292.118 742 276 725.882 276 706Z" stroke="#1F1F1F" stroke-width="5"/>
<path d="M368 706C368 686.118 384.118 670 404 670C423.882 670 440 686.118 440 706C440 725.882 423.882 742 404 742C384.118 742 368 725.882 368 706Z" stroke="#1F1F1F" stroke-width="5"/>
<path d="M460 706C460 686.118 476.118 670 496 670C515.882 670 532 686.118 532 706C532 725.882 515.882 742 496 742C476.118 742 460 725.882 460 706Z" stroke="#1F1F1F" stroke-width="5"/>
<path d="M552 706C552 686.118 568.118 670 588 670C607.882 670 624 686.118 624 706C624 725.882 607.882 742 588 742C568.118 742 552 725.882 552 706Z" stroke="#1F1F1F" stroke-width="5"/>
<path d="M644 706C644 686.118 660.118 670 680 670C699.882 670 716 686.118 716 706C716 725.882 699.882 742 680 742C660.118 742 644 725.882 644 706Z" stroke="#1F1F1F" stroke-width="5"/>
<path d="M736 706C736 686.118 752.118 670 772 670C791.882 670 808 686.118 808 706C808 725.882 791.882 742 772 742C752.118 742 736 725.882 736 706Z" stroke="#1F1F1F" stroke-width="5"/>
<path d="M828 706C828 686.118 844.118 670 864 670C883.882 670 900 686.118 900 706C900 725.882 883.882 742 864 742C844.118 742 828 725.882 828 706Z" stroke="#1F1F1F" stroke-width="5"/>
<path d="M920 706C920 686.118 936.118 670 956 670C975.882 670 992 686.118 992 706C992 725.882 975.882 742 956 742C936.118 742 920 725.882 920 706Z" stroke="#1F1F1F" stroke-width="5"/>
<path d="M1012 706C1012 686.118 1028.12 670 1048 670C1067.88 670 1084 686.118 1084 706C1084 725.882 1067.88 742 1048 742C1028.12 742 1012 725.882 1012 706Z" stroke="#1F1F1F" stroke-width="5"/>
<path d="M1104 706C1104 686.118 1120.12 670 1140 670C1159.88 670 1176 686.118 1176 706C1176 725.882 1159.88 742 1140 742C1120.12 742 1104 725.882 1104 706Z" stroke="#1F1F1F" stroke-width="5"/>
<path d="M1196 706C1196 686.118 1212.12 670 1232 670C1251.88 670 1268 686.118 1268 706C1268 725.882 1251.88 742 1232 742C1212.12 742 1196 725.882 1196 706Z" stroke="#1F1F1F" stroke-width="5"/>
<path d="M1288 706C1288 686.118 1304.12 670 1324 670C1343.88 670 1360 686.118 1360 706C1360 725.882 1343.88 742 1324 742C1304.12 742 1288 725.882 1288 706Z" stroke="#1F1F1F" stroke-width="5"/>
<path d="M1380 706C1380 686.118 1396.12 670 1416 670C1435.88 670 1452 686.118 1452 706C1452 725.882 1435.88 742 1416 742C1396.12 742 1380 725.882 1380 706Z" stroke="#1F1F1F" stroke-width="5"/>
<path d="M1472 706C1472 686.118 1488.12 670 1508 670C1527.88 670 1544 686.118 1544 706C1544 725.882 1527.88 742 1508 742C1488.12 742 1472 725.882 1472 706Z" stroke="#1F1F1F" stroke-width="5"/>
<path d="M1564 706C1564 686.118 1580.12 670 1600 670C1619.88 670 1636 686.118 1636 706C1636 725.882 1619.88 742 1600 742C1580.12 742 1564 725.882 1564 706Z" stroke="#1F1F1F" stroke-width="5"/>
<path d="M1656 706C1656 686.118 1672.12 670 1692 670C1711.88 670 1728 686.118 1728 706C1728 725.882 1711.88 742 1692 742C1672.12 742 1656 725.882 1656 706Z" stroke="#1F1F1F" stroke-width="5"/>
<path d="M0 802C0 782.118 16.1178 766 36 766C55.8823 766 72 782.118 72 802C72 821.882 55.8823 838 36 838C16.1178 838 0 821.882 0 802Z" stroke="#1F1F1F" stroke-width="5"/>
<path d="M92 802C92 782.118 108.118 766 128 766C147.882 766 164 782.118 164 802C164 821.882 147.882 838 128 838C108.118 838 92 821.882 92 802Z" stroke="#1F1F1F" stroke-width="5"/>
<path d="M184 802C184 782.118 200.118 766 220 766C239.882 766 256 782.118 256 802C256 821.882 239.882 838 220 838C200.118 838 184 821.882 184 802Z" stroke="#1F1F1F" stroke-width="5"/>
<path d="M276 802C276 782.118 292.118 766 312 766C331.882 766 348 782.118 348 802C348 821.882 331.882 838 312 838C292.118 838 276 821.882 276 802Z" stroke="#1F1F1F" stroke-width="5"/>
<path d="M368 802C368 782.118 384.118 766 404 766C423.882 766 440 782.118 440 802C440 821.882 423.882 838 404 838C384.118 838 368 821.882 368 802Z" stroke="#1F1F1F" stroke-width="5"/>
<path d="M460 802C460 782.118 476.118 766 496 766C515.882 766 532 782.118 532 802C532 821.882 515.882 838 496 838C476.118 838 460 821.882 460 802Z" stroke="#1F1F1F" stroke-width="5"/>
<path d="M552 802C552 782.118 568.118 766 588 766C607.882 766 624 782.118 624 802C624 821.882 607.882 838 588 838C568.118 838 552 821.882 552 802Z" stroke="#1F1F1F" stroke-width="5"/>
<path d="M644 802C644 782.118 660.118 766 680 766C699.882 766 716 782.118 716 802C716 821.882 699.882 838 680 838C660.118 838 644 821.882 644 802Z" stroke="#1F1F1F" stroke-width="5"/>
<path d="M736 802C736 782.118 752.118 766 772 766C791.882 766 808 782.118 808 802C808 821.882 791.882 838 772 838C752.118 838 736 821.882 736 802Z" stroke="#1F1F1F" stroke-width="5"/>
<path d="M828 802C828 782.118 844.118 766 864 766C883.882 766 900 782.118 900 802C900 821.882 883.882 838 864 838C844.118 838 828 821.882 828 802Z" stroke="#1F1F1F" stroke-width="5"/>
<path d="M920 802C920 782.118 936.118 766 956 766C975.882 766 992 782.118 992 802C992 821.882 975.882 838 956 838C936.118 838 920 821.882 920 802Z" stroke="#1F1F1F" stroke-width="5"/>
<path d="M1012 802C1012 782.118 1028.12 766 1048 766C1067.88 766 1084 782.118 1084 802C1084 821.882 1067.88 838 1048 838C1028.12 838 1012 821.882 1012 802Z" stroke="#1F1F1F" stroke-width="5"/>
<path d="M1104 802C1104 782.118 1120.12 766 1140 766C1159.88 766 1176 782.118 1176 802C1176 821.882 1159.88 838 1140 838C1120.12 838 1104 821.882 1104 802Z" stroke="#1F1F1F" stroke-width="5"/>
<path d="M1196 802C1196 782.118 1212.12 766 1232 766C1251.88 766 1268 782.118 1268 802C1268 821.882 1251.88 838 1232 838C1212.12 838 1196 821.882 1196 802Z" stroke="#1F1F1F" stroke-width="5"/>
<path d="M1288 802C1288 782.118 1304.12 766 1324 766C1343.88 766 1360 782.118 1360 802C1360 821.882 1343.88 838 1324 838C1304.12 838 1288 821.882 1288 802Z" stroke="#1F1F1F" stroke-width="5"/>
<path d="M1380 802C1380 782.118 1396.12 766 1416 766C1435.88 766 1452 782.118 1452 802C1452 821.882 1435.88 838 1416 838C1396.12 838 1380 821.882 1380 802Z" stroke="#1F1F1F" stroke-width="5"/>
<path d="M1472 802C1472 782.118 1488.12 766 1508 766C1527.88 766 1544 782.118 1544 802C1544 821.882 1527.88 838 1508 838C1488.12 838 1472 821.882 1472 802Z" stroke="#1F1F1F" stroke-width="5"/>
<path d="M1564 802C1564 782.118 1580.12 766 1600 766C1619.88 766 1636 782.118 1636 802C1636 821.882 1619.88 838 1600 838C1580.12 838 1564 821.882 1564 802Z" stroke="#1F1F1F" stroke-width="5"/>
<path d="M1656 802C1656 782.118 1672.12 766 1692 766C1711.88 766 1728 782.118 1728 802C1728 821.882 1711.88 838 1692 838C1672.12 838 1656 821.882 1656 802Z" stroke="#1F1F1F" stroke-width="5"/>
<path d="M0 34C0 14.1178 16.1178 -2 36 -2C55.8823 -2 72 14.1178 72 34C72 53.8823 55.8823 70 36 70C16.1178 70 0 53.8823 0 34Z" stroke="#1F1F1F" stroke-width="5"/>
<path d="M92 34C92 14.1178 108.118 -2 128 -2C147.882 -2 164 14.1178 164 34C164 53.8823 147.882 70 128 70C108.118 70 92 53.8823 92 34Z" stroke="#1F1F1F" stroke-width="5"/>
<path d="M184 34C184 14.1178 200.118 -2 220 -2C239.882 -2 256 14.1178 256 34C256 53.8823 239.882 70 220 70C200.118 70 184 53.8823 184 34Z" stroke="#1F1F1F" stroke-width="5"/>
<path d="M276 34C276 14.1178 292.118 -2 312 -2C331.882 -2 348 14.1178 348 34C348 53.8823 331.882 70 312 70C292.118 70 276 53.8823 276 34Z" stroke="#1F1F1F" stroke-width="5"/>
<path d="M368 34C368 14.1178 384.118 -2 404 -2C423.882 -2 440 14.1178 440 34C440 53.8823 423.882 70 404 70C384.118 70 368 53.8823 368 34Z" stroke="#1F1F1F" stroke-width="5"/>
<path d="M460 34C460 14.1178 476.118 -2 496 -2C515.882 -2 532 14.1178 532 34C532 53.8823 515.882 70 496 70C476.118 70 460 53.8823 460 34Z" stroke="#1F1F1F" stroke-width="5"/>
<path d="M552 34C552 14.1178 568.118 -2 588 -2C607.882 -2 624 14.1178 624 34C624 53.8823 607.882 70 588 70C568.118 70 552 53.8823 552 34Z" stroke="#1F1F1F" stroke-width="5"/>
<path d="M644 34C644 14.1178 660.118 -2 680 -2C699.882 -2 716 14.1178 716 34C716 53.8823 699.882 70 680 70C660.118 70 644 53.8823 644 34Z" stroke="#1F1F1F" stroke-width="5"/>
<path d="M736 34C736 14.1178 752.118 -2 772 -2C791.882 -2 808 14.1178 808 34C808 53.8823 791.882 70 772 70C752.118 70 736 53.8823 736 34Z" stroke="#1F1F1F" stroke-width="5"/>
<path d="M828 34C828 14.1178 844.118 -2 864 -2C883.882 -2 900 14.1178 900 34C900 53.8823 883.882 70 864 70C844.118 70 828 53.8823 828 34Z" stroke="#1F1F1F" stroke-width="5"/>
<path d="M920 34C920 14.1178 936.118 -2 956 -2C975.882 -2 992 14.1178 992 34C992 53.8823 975.882 70 956 70C936.118 70 920 53.8823 920 34Z" stroke="#1F1F1F" stroke-width="5"/>
<path d="M1012 34C1012 14.1178 1028.12 -2 1048 -2C1067.88 -2 1084 14.1178 1084 34C1084 53.8823 1067.88 70 1048 70C1028.12 70 1012 53.8823 1012 34Z" stroke="#1F1F1F" stroke-width="5"/>
<path d="M1104 34C1104 14.1178 1120.12 -2 1140 -2C1159.88 -2 1176 14.1178 1176 34C1176 53.8823 1159.88 70 1140 70C1120.12 70 1104 53.8823 1104 34Z" stroke="#1F1F1F" stroke-width="5"/>
<path d="M1196 34C1196 14.1178 1212.12 -2 1232 -2C1251.88 -2 1268 14.1178 1268 34C1268 53.8823 1251.88 70 1232 70C1212.12 70 1196 53.8823 1196 34Z" stroke="#1F1F1F" stroke-width="5"/>
<path d="M1288 34C1288 14.1178 1304.12 -2 1324 -2C1343.88 -2 1360 14.1178 1360 34C1360 53.8823 1343.88 70 1324 70C1304.12 70 1288 53.8823 1288 34Z" stroke="#1F1F1F" stroke-width="5"/>
<path d="M1380 34C1380 14.1178 1396.12 -2 1416 -2C1435.88 -2 1452 14.1178 1452 34C1452 53.8823 1435.88 70 1416 70C1396.12 70 1380 53.8823 1380 34Z" stroke="#1F1F1F" stroke-width="5"/>
<path d="M1472 34C1472 14.1178 1488.12 -2 1508 -2C1527.88 -2 1544 14.1178 1544 34C1544 53.8823 1527.88 70 1508 70C1488.12 70 1472 53.8823 1472 34Z" stroke="#1F1F1F" stroke-width="5"/>
<path d="M1564 34C1564 14.1178 1580.12 -2 1600 -2C1619.88 -2 1636 14.1178 1636 34C1636 53.8823 1619.88 70 1600 70C1580.12 70 1564 53.8823 1564 34Z" stroke="#1F1F1F" stroke-width="5"/>
<path d="M1656 34C1656 14.1178 1672.12 -2 1692 -2C1711.88 -2 1728 14.1178 1728 34C1728 53.8823 1711.88 70 1692 70C1672.12 70 1656 53.8823 1656 34Z" stroke="#1F1F1F" stroke-width="5"/>
<path d="M0 130C0 110.118 16.1178 94 36 94C55.8823 94 72 110.118 72 130C72 149.882 55.8823 166 36 166C16.1178 166 0 149.882 0 130Z" stroke="#1F1F1F" stroke-width="5"/>
<path d="M92 130C92 110.118 108.118 94 128 94C147.882 94 164 110.118 164 130C164 149.882 147.882 166 128 166C108.118 166 92 149.882 92 130Z" stroke="#1F1F1F" stroke-width="5"/>
<path d="M184 130C184 110.118 200.118 94 220 94C239.882 94 256 110.118 256 130C256 149.882 239.882 166 220 166C200.118 166 184 149.882 184 130Z" stroke="#1F1F1F" stroke-width="5"/>
<path d="M276 130C276 110.118 292.118 94 312 94C331.882 94 348 110.118 348 130C348 149.882 331.882 166 312 166C292.118 166 276 149.882 276 130Z" stroke="#1F1F1F" stroke-width="5"/>
<path d="M368 130C368 110.118 384.118 94 404 94C423.882 94 440 110.118 440 130C440 149.882 423.882 166 404 166C384.118 166 368 149.882 368 130Z" stroke="#1F1F1F" stroke-width="5"/>
<path d="M460 130C460 110.118 476.118 94 496 94C515.882 94 532 110.118 532 130C532 149.882 515.882 166 496 166C476.118 166 460 149.882 460 130Z" stroke="#1F1F1F" stroke-width="5"/>
<path d="M552 130C552 110.118 568.118 94 588 94C607.882 94 624 110.118 624 130C624 149.882 607.882 166 588 166C568.118 166 552 149.882 552 130Z" stroke="#1F1F1F" stroke-width="5"/>
<path d="M644 130C644 110.118 660.118 94 680 94C699.882 94 716 110.118 716 130C716 149.882 699.882 166 680 166C660.118 166 644 149.882 644 130Z" stroke="#1F1F1F" stroke-width="5"/>
<path d="M736 130C736 110.118 752.118 94 772 94C791.882 94 808 110.118 808 130C808 149.882 791.882 166 772 166C752.118 166 736 149.882 736 130Z" stroke="#1F1F1F" stroke-width="5"/>
<path d="M828 130C828 110.118 844.118 94 864 94C883.882 94 900 110.118 900 130C900 149.882 883.882 166 864 166C844.118 166 828 149.882 828 130Z" stroke="#1F1F1F" stroke-width="5"/>
<path d="M920 130C920 110.118 936.118 94 956 94C975.882 94 992 110.118 992 130C992 149.882 975.882 166 956 166C936.118 166 920 149.882 920 130Z" stroke="#1F1F1F" stroke-width="5"/>
<path d="M1012 130C1012 110.118 1028.12 94 1048 94C1067.88 94 1084 110.118 1084 130C1084 149.882 1067.88 166 1048 166C1028.12 166 1012 149.882 1012 130Z" stroke="#1F1F1F" stroke-width="5"/>
<path d="M1104 130C1104 110.118 1120.12 94 1140 94C1159.88 94 1176 110.118 1176 130C1176 149.882 1159.88 166 1140 166C1120.12 166 1104 149.882 1104 130Z" stroke="#1F1F1F" stroke-width="5"/>
<path d="M1196 130C1196 110.118 1212.12 94 1232 94C1251.88 94 1268 110.118 1268 130C1268 149.882 1251.88 166 1232 166C1212.12 166 1196 149.882 1196 130Z" stroke="#1F1F1F" stroke-width="5"/>
<path d="M1288 130C1288 110.118 1304.12 94 1324 94C1343.88 94 1360 110.118 1360 130C1360 149.882 1343.88 166 1324 166C1304.12 166 1288 149.882 1288 130Z" stroke="#1F1F1F" stroke-width="5"/>
<path d="M1380 130C1380 110.118 1396.12 94 1416 94C1435.88 94 1452 110.118 1452 130C1452 149.882 1435.88 166 1416 166C1396.12 166 1380 149.882 1380 130Z" stroke="#1F1F1F" stroke-width="5"/>
<path d="M1472 130C1472 110.118 1488.12 94 1508 94C1527.88 94 1544 110.118 1544 130C1544 149.882 1527.88 166 1508 166C1488.12 166 1472 149.882 1472 130Z" stroke="#1F1F1F" stroke-width="5"/>
<path d="M1564 130C1564 110.118 1580.12 94 1600 94C1619.88 94 1636 110.118 1636 130C1636 149.882 1619.88 166 1600 166C1580.12 166 1564 149.882 1564 130Z" stroke="#1F1F1F" stroke-width="5"/>
<path d="M1656 130C1656 110.118 1672.12 94 1692 94C1711.88 94 1728 110.118 1728 130C1728 149.882 1711.88 166 1692 166C1672.12 166 1656 149.882 1656 130Z" stroke="#1F1F1F" stroke-width="5"/>
<path d="M0 226C0 206.118 16.1178 190 36 190C55.8823 190 72 206.118 72 226C72 245.882 55.8823 262 36 262C16.1178 262 0 245.882 0 226Z" stroke="#1F1F1F" stroke-width="5"/>
<path d="M92 226C92 206.118 108.118 190 128 190C147.882 190 164 206.118 164 226C164 245.882 147.882 262 128 262C108.118 262 92 245.882 92 226Z" stroke="#1F1F1F" stroke-width="5"/>
<path d="M184 226C184 206.118 200.118 190 220 190C239.882 190 256 206.118 256 226C256 245.882 239.882 262 220 262C200.118 262 184 245.882 184 226Z" stroke="#1F1F1F" stroke-width="5"/>
<path d="M276 226C276 206.118 292.118 190 312 190C331.882 190 348 206.118 348 226C348 245.882 331.882 262 312 262C292.118 262 276 245.882 276 226Z" stroke="#1F1F1F" stroke-width="5"/>
<path d="M368 226C368 206.118 384.118 190 404 190C423.882 190 440 206.118 440 226C440 245.882 423.882 262 404 262C384.118 262 368 245.882 368 226Z" stroke="#1F1F1F" stroke-width="5"/>
<path d="M460 226C460 206.118 476.118 190 496 190C515.882 190 532 206.118 532 226C532 245.882 515.882 262 496 262C476.118 262 460 245.882 460 226Z" stroke="#1F1F1F" stroke-width="5"/>
<path d="M552 226C552 206.118 568.118 190 588 190C607.882 190 624 206.118 624 226C624 245.882 607.882 262 588 262C568.118 262 552 245.882 552 226Z" stroke="#1F1F1F" stroke-width="5"/>
<path d="M644 226C644 206.118 660.118 190 680 190C699.882 190 716 206.118 716 226C716 245.882 699.882 262 680 262C660.118 262 644 245.882 644 226Z" stroke="#1F1F1F" stroke-width="5"/>
<path d="M736 226C736 206.118 752.118 190 772 190C791.882 190 808 206.118 808 226C808 245.882 791.882 262 772 262C752.118 262 736 245.882 736 226Z" stroke="#1F1F1F" stroke-width="5"/>
<path d="M828 226C828 206.118 844.118 190 864 190C883.882 190 900 206.118 900 226C900 245.882 883.882 262 864 262C844.118 262 828 245.882 828 226Z" stroke="#1F1F1F" stroke-width="5"/>
<path d="M920 226C920 206.118 936.118 190 956 190C975.882 190 992 206.118 992 226C992 245.882 975.882 262 956 262C936.118 262 920 245.882 920 226Z" stroke="#1F1F1F" stroke-width="5"/>
<path d="M1012 226C1012 206.118 1028.12 190 1048 190C1067.88 190 1084 206.118 1084 226C1084 245.882 1067.88 262 1048 262C1028.12 262 1012 245.882 1012 226Z" stroke="#1F1F1F" stroke-width="5"/>
<path d="M1104 226C1104 206.118 1120.12 190 1140 190C1159.88 190 1176 206.118 1176 226C1176 245.882 1159.88 262 1140 262C1120.12 262 1104 245.882 1104 226Z" stroke="#1F1F1F" stroke-width="5"/>
<path d="M1196 226C1196 206.118 1212.12 190 1232 190C1251.88 190 1268 206.118 1268 226C1268 245.882 1251.88 262 1232 262C1212.12 262 1196 245.882 1196 226Z" stroke="#1F1F1F" stroke-width="5"/>
<path d="M1288 226C1288 206.118 1304.12 190 1324 190C1343.88 190 1360 206.118 1360 226C1360 245.882 1343.88 262 1324 262C1304.12 262 1288 245.882 1288 226Z" stroke="#1F1F1F" stroke-width="5"/>
<path d="M1380 226C1380 206.118 1396.12 190 1416 190C1435.88 190 1452 206.118 1452 226C1452 245.882 1435.88 262 1416 262C1396.12 262 1380 245.882 1380 226Z" stroke="#1F1F1F" stroke-width="5"/>
<path d="M1472 226C1472 206.118 1488.12 190 1508 190C1527.88 190 1544 206.118 1544 226C1544 245.882 1527.88 262 1508 262C1488.12 262 1472 245.882 1472 226Z" stroke="#1F1F1F" stroke-width="5"/>
<path d="M1564 226C1564 206.118 1580.12 190 1600 190C1619.88 190 1636 206.118 1636 226C1636 245.882 1619.88 262 1600 262C1580.12 262 1564 245.882 1564 226Z" stroke="#1F1F1F" stroke-width="5"/>
<path d="M1656 226C1656 206.118 1672.12 190 1692 190C1711.88 190 1728 206.118 1728 226C1728 245.882 1711.88 262 1692 262C1672.12 262 1656 245.882 1656 226Z" stroke="#1F1F1F" stroke-width="5"/>
<path d="M0 322C0 302.118 16.1178 286 36 286C55.8823 286 72 302.118 72 322C72 341.882 55.8823 358 36 358C16.1178 358 0 341.882 0 322Z" stroke="#1F1F1F" stroke-width="5"/>
<path d="M92 322C92 302.118 108.118 286 128 286C147.882 286 164 302.118 164 322C164 341.882 147.882 358 128 358C108.118 358 92 341.882 92 322Z" stroke="#1F1F1F" stroke-width="5"/>
<path d="M184 322C184 302.118 200.118 286 220 286C239.882 286 256 302.118 256 322C256 341.882 239.882 358 220 358C200.118 358 184 341.882 184 322Z" stroke="#1F1F1F" stroke-width="5"/>
<path d="M276 322C276 302.118 292.118 286 312 286C331.882 286 348 302.118 348 322C348 341.882 331.882 358 312 358C292.118 358 276 341.882 276 322Z" stroke="#1F1F1F" stroke-width="5"/>
<path d="M368 322C368 302.118 384.118 286 404 286C423.882 286 440 302.118 440 322C440 341.882 423.882 358 404 358C384.118 358 368 341.882 368 322Z" stroke="#1F1F1F" stroke-width="5"/>
<path d="M460 322C460 302.118 476.118 286 496 286C515.882 286 532 302.118 532 322C532 341.882 515.882 358 496 358C476.118 358 460 341.882 460 322Z" stroke="#1F1F1F" stroke-width="5"/>
<path d="M552 322C552 302.118 568.118 286 588 286C607.882 286 624 302.118 624 322C624 341.882 607.882 358 588 358C568.118 358 552 341.882 552 322Z" stroke="#1F1F1F" stroke-width="5"/>
<path d="M644 322C644 302.118 660.118 286 680 286C699.882 286 716 302.118 716 322C716 341.882 699.882 358 680 358C660.118 358 644 341.882 644 322Z" stroke="#1F1F1F" stroke-width="5"/>
<path d="M736 322C736 302.118 752.118 286 772 286C791.882 286 808 302.118 808 322C808 341.882 791.882 358 772 358C752.118 358 736 341.882 736 322Z" stroke="#1F1F1F" stroke-width="5"/>
<path d="M828 322C828 302.118 844.118 286 864 286C883.882 286 900 302.118 900 322C900 341.882 883.882 358 864 358C844.118 358 828 341.882 828 322Z" stroke="#1F1F1F" stroke-width="5"/>
<path d="M920 322C920 302.118 936.118 286 956 286C975.882 286 992 302.118 992 322C992 341.882 975.882 358 956 358C936.118 358 920 341.882 920 322Z" stroke="#1F1F1F" stroke-width="5"/>
<path d="M1012 322C1012 302.118 1028.12 286 1048 286C1067.88 286 1084 302.118 1084 322C1084 341.882 1067.88 358 1048 358C1028.12 358 1012 341.882 1012 322Z" stroke="#1F1F1F" stroke-width="5"/>
<path d="M1104 322C1104 302.118 1120.12 286 1140 286C1159.88 286 1176 302.118 1176 322C1176 341.882 1159.88 358 1140 358C1120.12 358 1104 341.882 1104 322Z" stroke="#1F1F1F" stroke-width="5"/>
<path d="M1196 322C1196 302.118 1212.12 286 1232 286C1251.88 286 1268 302.118 1268 322C1268 341.882 1251.88 358 1232 358C1212.12 358 1196 341.882 1196 322Z" stroke="#1F1F1F" stroke-width="5"/>
<path d="M1288 322C1288 302.118 1304.12 286 1324 286C1343.88 286 1360 302.118 1360 322C1360 341.882 1343.88 358 1324 358C1304.12 358 1288 341.882 1288 322Z" stroke="#1F1F1F" stroke-width="5"/>
<path d="M1380 322C1380 302.118 1396.12 286 1416 286C1435.88 286 1452 302.118 1452 322C1452 341.882 1435.88 358 1416 358C1396.12 358 1380 341.882 1380 322Z" stroke="#1F1F1F" stroke-width="5"/>
<path d="M1472 322C1472 302.118 1488.12 286 1508 286C1527.88 286 1544 302.118 1544 322C1544 341.882 1527.88 358 1508 358C1488.12 358 1472 341.882 1472 322Z" stroke="#1F1F1F" stroke-width="5"/>
<path d="M1564 322C1564 302.118 1580.12 286 1600 286C1619.88 286 1636 302.118 1636 322C1636 341.882 1619.88 358 1600 358C1580.12 358 1564 341.882 1564 322Z" stroke="#1F1F1F" stroke-width="5"/>
<path d="M1656 322C1656 302.118 1672.12 286 1692 286C1711.88 286 1728 302.118 1728 322C1728 341.882 1711.88 358 1692 358C1672.12 358 1656 341.882 1656 322Z" stroke="#1F1F1F" stroke-width="5"/>
</g>
</g>
<defs>
<clipPath id="clip0_2291_6475">
<rect y="-446" width="1728" height="1728" rx="22" fill="white"/>
</clipPath>
</defs>
</svg>
