<svg width="48" height="49" viewBox="0 0 48 49" fill="none" xmlns="http://www.w3.org/2000/svg">
<path d="M20.0013 37.7619H28.0013C34.668 37.7619 37.3346 35.0952 37.3346 28.4285V20.4285C37.3346 13.7619 34.668 11.0952 28.0013 11.0952H20.0013C13.3346 11.0952 10.668 13.7619 10.668 20.4285V28.4285C10.668 35.0952 13.3346 37.7619 20.0013 37.7619Z" stroke="#9A9A9A" stroke-width="1.5" stroke-linecap="round" stroke-linejoin="round"/>
<path d="M23.9987 29.0955C26.576 29.0955 28.6654 27.0062 28.6654 24.4289C28.6654 21.8515 26.576 19.7622 23.9987 19.7622C21.4214 19.7622 19.332 21.8515 19.332 24.4289C19.332 27.0062 21.4214 29.0955 23.9987 29.0955Z" stroke="#9A9A9A" stroke-width="1.5" stroke-linecap="round" stroke-linejoin="round"/>
<path d="M31.5161 17.7619H31.5315" stroke="#9A9A9A" stroke-width="1.5" stroke-linecap="round" stroke-linejoin="round"/>
</svg>
