<svg width="28" height="28" viewBox="0 0 28 28" fill="none" xmlns="http://www.w3.org/2000/svg">
<path d="M18.6693 3.5L14.0026 9.33333L9.33594 3.5" stroke="#DDDDDD" stroke-width="2.33333" stroke-linecap="round" stroke-linejoin="round"/>
<path d="M14.0013 22.1667C14.0013 22.7855 13.7555 23.379 13.3179 23.8166C12.8803 24.2542 12.2868 24.5 11.668 24.5H7.0013C6.38246 24.5 5.78897 24.2542 5.35139 23.8166C4.9138 23.379 4.66797 22.7855 4.66797 22.1667V12.6327C4.6681 12.0139 4.91402 11.4205 5.35164 10.983L6.31764 10.017C6.75525 9.57952 7.00117 8.98612 7.0013 8.36733V5.83333C7.0013 5.21449 7.24713 4.621 7.68472 4.18342C8.1223 3.74583 8.7158 3.5 9.33464 3.5H18.668C19.2868 3.5 19.8803 3.74583 20.3179 4.18342C20.7555 4.621 21.0013 5.21449 21.0013 5.83333V8.36733C21.0014 8.98612 21.2474 9.57952 21.685 10.017L22.651 10.983C23.0886 11.4205 23.3345 12.0139 23.3346 12.6327V22.1667C23.3346 22.7855 23.0888 23.379 22.6512 23.8166C22.2136 24.2542 21.6201 24.5 21.0013 24.5H16.3346C15.7158 24.5 15.1223 24.2542 14.6847 23.8166C14.2471 23.379 14.0013 22.7855 14.0013 22.1667Z" stroke="#DDDDDD" stroke-width="2.33333" stroke-linecap="round" stroke-linejoin="round"/>
<path d="M23.3346 15.1667H19.8346C19.5252 15.1667 19.2285 15.2896 19.0097 15.5084C18.7909 15.7272 18.668 16.024 18.668 16.3334V18.6667C18.668 18.9761 18.7909 19.2729 19.0097 19.4917C19.2285 19.7105 19.5252 19.8334 19.8346 19.8334H23.3346M4.66797 19.8334H8.16797C8.47739 19.8334 8.77413 19.7105 8.99293 19.4917C9.21172 19.2729 9.33464 18.9761 9.33464 18.6667V16.3334C9.33464 16.024 9.21172 15.7272 8.99293 15.5084C8.77413 15.2896 8.47739 15.1667 8.16797 15.1667H4.66797M14.0013 22.1667V9.33337" stroke="#DDDDDD" stroke-width="2.33333" stroke-linecap="round" stroke-linejoin="round"/>
</svg>
