<svg width="28" height="28" viewBox="0 0 28 28" fill="none" xmlns="http://www.w3.org/2000/svg">
<path d="M14.0088 4.04252C14.1271 4.04252 14.2406 3.99551 14.3243 3.91182C14.408 3.82813 14.455 3.71463 14.455 3.59627C14.455 3.47792 14.408 3.36442 14.3243 3.28073C14.2406 3.19704 14.1271 3.15002 14.0088 3.15002C13.8904 3.15002 13.7769 3.19704 13.6932 3.28073C13.6095 3.36442 13.5625 3.47792 13.5625 3.59627C13.5625 3.71463 13.6095 3.82813 13.6932 3.91182C13.7769 3.99551 13.8904 4.04252 14.0088 4.04252Z" fill="#DDDDDD"/>
<path d="M13.4067 25.4336C13.439 25.2411 13.4059 25.0434 13.3129 24.8719C13.2198 24.7003 13.0721 24.5648 12.8931 24.4869L14.1041 16.002L15.6572 24.4475C15.4497 24.5058 15.2709 24.6387 15.1553 24.8207C15.0397 25.0027 14.9953 25.2209 15.0307 25.4336L15.1795 26.3235C15.2157 26.5412 15.3328 26.7372 15.5074 26.8722C15.682 27.0072 15.9012 27.0713 16.121 27.0515L24.1421 26.3226C24.3595 26.3028 24.5616 26.2023 24.7088 26.0411C24.856 25.8799 24.9375 25.6694 24.9375 25.4511V24.5796C24.9377 24.4148 24.8913 24.2532 24.8037 24.1136C24.716 23.974 24.5908 23.8619 24.4422 23.7904C24.4464 23.6248 24.4368 23.4591 24.4134 23.2951L21.7122 3.11762C21.6343 2.49984 21.3341 1.93155 20.8678 1.51887C20.4015 1.10619 19.8009 0.877322 19.1782 0.875H8.70625L8.6625 0.87675C8.05183 0.90718 7.47232 1.15559 7.0292 1.57688C6.58608 1.99817 6.30872 2.5644 6.2475 3.17275L4.067 23.7615C3.90069 23.824 3.75736 23.9357 3.65608 24.0817C3.5548 24.2277 3.50036 24.4011 3.5 24.5788V25.4503C3.49999 25.6687 3.58168 25.8792 3.72902 26.0405C3.87636 26.2018 4.0787 26.3021 4.29625 26.3218L12.3165 27.0506C12.5365 27.0706 12.7558 27.0067 12.9306 26.8717C13.1054 26.7366 13.2227 26.5405 13.2589 26.3226L13.4067 25.4336ZM22.6879 23.821L17.4055 24.2795L14.8837 10.5612L15.001 10.5079C15.0994 10.509 15.1971 10.4907 15.2883 10.4538C15.3796 10.4169 15.4626 10.3623 15.5326 10.2932C15.6026 10.224 15.6581 10.1416 15.6961 10.0508C15.734 9.95997 15.7535 9.86254 15.7535 9.76413L15.7614 5.26137H17.5C17.4799 6.21338 17.7887 7.21263 18.375 7.96338C18.826 8.42543 19.3738 8.78191 19.9789 9.00725C20.1084 9.05625 20.4689 9.15162 20.7638 9.226L22.68 23.5375C22.694 23.6326 22.696 23.7271 22.6879 23.821ZM13.125 10.5H13.1224L11.1536 24.29L5.82137 23.8263L7.3815 9.0825L7.52937 9.06238C7.69125 9.04225 7.86187 9.02125 7.9835 8.97487C8.57574 8.74945 9.11193 8.39805 9.555 7.945C10.157 7.20213 10.4877 6.216 10.4913 5.2605H14.8768V9.401C14.8769 9.45842 14.8554 9.51379 14.8164 9.55598C14.7775 9.59818 14.724 9.62408 14.6667 9.6285H13.7287C13.7287 9.6285 13.1163 9.632 13.1163 10.367L13.125 10.5ZM7.47775 8.18125L7.78662 5.2605H9.625C9.62325 6.00863 9.36775 6.7935 8.89875 7.37625C8.53656 7.73434 8.10058 8.00906 7.62125 8.18125C7.57364 8.18782 7.52536 8.18782 7.47775 8.18125ZM7.88025 4.3785L7.98875 3.35037C8.00741 3.15813 8.09456 2.979 8.23431 2.84568C8.37406 2.71235 8.55709 2.63372 8.75 2.62413H19.1712C19.3699 2.62487 19.5614 2.69823 19.7097 2.83039C19.8579 2.96256 19.9528 3.14439 19.9762 3.34162L20.1154 4.3785H7.88025ZM20.2335 5.2605L20.636 8.27575C20.5449 8.25375 20.4542 8.23012 20.3639 8.20487C19.8799 8.03238 19.4399 7.75545 19.075 7.39375C18.6121 6.80225 18.3663 6.01125 18.375 5.2605H20.2335Z" fill="#DDDDDD"/>
</svg>
