<svg width="28" height="28" viewBox="0 0 28 28" fill="none" xmlns="http://www.w3.org/2000/svg">
<path d="M10.0242 1.50226L9.26406 1.69202C9.33516 4.24976 9.50469 6.92343 9.40078 9.25859C9.29141 11.7359 8.91406 13.8797 7.60156 15.0937V26.6328H20.3984V15.0937C19.0859 13.8797 18.7086 11.7359 18.5992 9.25859C18.4953 6.92343 18.6648 4.24976 18.7359 1.69202L17.9758 1.50226C17.9156 2.70976 17.6859 4.01898 17.1828 5.12531C16.5922 6.42577 15.5312 7.49218 14 7.49218C12.4688 7.49218 11.4078 6.42577 10.8172 5.12531C10.3141 4.01898 10.0844 2.70976 10.0242 1.50226ZM11.0195 1.68437C11.0961 2.73327 11.3148 3.84343 11.7141 4.71843C12.2172 5.82421 12.9062 6.5078 14 6.5078C15.0938 6.5078 15.7828 5.82421 16.2859 4.71843C16.6852 3.84343 16.9039 2.73327 16.9805 1.68437C15.6898 2.32257 14.875 2.67968 14 2.67968C13.125 2.67968 12.3102 2.32257 11.0195 1.68437ZM8.28516 1.93538L7.49766 2.13226C7.51953 4.1896 7.70547 6.44765 7.60156 8.55312C7.49219 10.7133 7.06563 12.7422 5.74219 14.1805V26.6328H6.61719V14.6398L6.80313 14.4922C7.83125 13.6609 8.30703 11.7141 8.41641 9.21484C8.51484 7.02187 8.36172 4.44937 8.28516 1.93538ZM19.7148 1.93538C19.6383 4.44937 19.4852 7.02187 19.5836 9.21484C19.693 11.7141 20.1688 13.6609 21.1969 14.4922L21.3828 14.6398V26.6328H22.2578V14.1805C20.9344 12.7422 20.5078 10.7133 20.3984 8.55312C20.2945 6.44765 20.4805 4.1896 20.5023 2.13226L19.7148 1.93538ZM16.1547 12.25C16.6687 12.25 17.0734 12.4031 17.3742 12.7094C17.675 13.0156 17.8227 13.4258 17.8227 13.9344C17.8227 14.2734 17.7406 14.6016 17.582 14.9187C17.4234 15.2359 17.1773 15.5586 16.8547 15.8867C16.4008 16.3516 16.0891 16.6797 15.9305 16.882C15.7719 17.0844 15.657 17.2867 15.5859 17.5H17.9047V18.5664H14.4102V17.6695C14.525 17.3305 14.6945 16.9914 14.9133 16.6523C15.132 16.3078 15.4492 15.9195 15.8703 15.4766C16.193 15.132 16.4062 14.8914 16.5047 14.7547C16.6031 14.6234 16.6797 14.4976 16.7344 14.3719C16.7891 14.2461 16.8164 14.1203 16.8164 13.9945C16.8164 13.7703 16.7617 13.6008 16.6523 13.475C16.5375 13.3492 16.3734 13.2836 16.1602 13.2836C15.9469 13.2836 15.7883 13.3601 15.6734 13.5078C15.5586 13.6555 15.4875 13.8742 15.4547 14.175L14.4539 14.1039C14.5086 13.4969 14.6836 13.0375 14.9734 12.7258C15.2633 12.4086 15.657 12.25 16.1547 12.25ZM11.982 12.3484H13.0977V16.2805H13.7648V17.243H13.0977V18.5664H12.1516V17.243H9.87656V16.2695L11.982 12.3484ZM12.1789 13.475C12.1187 13.6445 12.0094 13.8906 11.8453 14.2187L10.7133 16.2805H12.1516V14.3828C12.1516 14.2187 12.1516 14.0383 12.157 13.8469C12.168 13.6555 12.1734 13.5297 12.1789 13.475Z" fill="#DDDDDD"/>
</svg>
