<svg width="54" height="54" viewBox="0 0 54 54" fill="none" xmlns="http://www.w3.org/2000/svg">
<path d="M27 48.9375C25.9129 48.9375 24.9962 48.557 24.2196 47.7804C23.9611 47.5219 23.8781 47.2826 23.8728 47.0837C23.8673 46.8768 23.9445 46.6465 24.1235 46.4158C24.4899 45.9435 25.2187 45.5625 26.038 45.5625H27.962C28.7813 45.5625 29.5101 45.9435 29.8765 46.4158C30.0555 46.6465 30.1327 46.8768 30.1272 47.0837C30.1219 47.2826 30.0389 47.5219 29.7804 47.7804C29.0038 48.557 28.0871 48.9375 27 48.9375ZM20.25 42.1875C19.318 42.1875 18.5625 41.432 18.5625 40.5C18.5625 39.568 19.318 38.8125 20.25 38.8125H33.75C34.682 38.8125 35.4375 39.568 35.4375 40.5C35.4375 41.432 34.682 42.1875 33.75 42.1875H20.25ZM19.7986 35.4375C19.0829 35.4375 18.3975 35.2541 17.841 34.8703C15.8062 33.4673 14.1563 31.6882 12.8882 29.5278C11.4208 27.0277 10.6875 24.3137 10.6875 21.375C10.6875 16.835 12.2701 12.9942 15.4446 9.81962C18.6192 6.64506 22.46 5.0625 27 5.0625C31.54 5.0625 35.3808 6.64506 38.5554 9.81962C41.7299 12.9942 43.3125 16.835 43.3125 21.375C43.3125 24.3137 42.5792 27.0277 41.1118 29.5278C39.8437 31.6882 38.1938 33.4673 36.159 34.8703C35.6025 35.2541 34.9171 35.4375 34.2014 35.4375H19.7986ZM18.4144 31.0292C19.2401 31.7591 20.3109 32.0625 21.3494 32.0625H32.6506C33.6891 32.0625 34.7599 31.7591 35.5856 31.0292C36.7895 29.965 37.7605 28.7266 38.4957 27.3163C39.4571 25.4719 39.9375 23.4888 39.9375 21.375C39.9375 17.7786 38.6802 14.7097 36.1727 12.2023C33.6653 9.69483 30.5964 8.4375 27 8.4375C23.4036 8.4375 20.3347 9.69483 17.8273 12.2023C15.3198 14.7097 14.0625 17.7786 14.0625 21.375C14.0625 23.4888 14.5429 25.4719 15.5043 27.3163C16.2395 28.7266 17.2105 29.965 18.4144 31.0292Z" fill="#DDDDDD" stroke="#DDDDDD" stroke-width="1.125"/>
</svg>
