<svg width="361" height="253" viewBox="0 0 361 253" fill="none" xmlns="http://www.w3.org/2000/svg">
<path d="M1.61719 126.616C1.61719 122.006 5.35422 118.269 9.96409 118.269C14.574 118.269 18.311 122.006 18.311 126.616C18.311 131.226 14.574 134.963 9.96409 134.963C5.35422 134.963 1.61719 131.226 1.61719 126.616Z" stroke="#E2063A" stroke-width="1.15929"/>
<path d="M22.9531 126.616C22.9531 122.006 26.6902 118.269 31.3 118.269C35.9099 118.269 39.6469 122.006 39.6469 126.616C39.6469 131.226 35.9099 134.963 31.3 134.963C26.6902 134.963 22.9531 131.226 22.9531 126.616Z" stroke="#E2063A" stroke-width="1.15929"/>
<path d="M44.2812 126.616C44.2812 122.006 48.0183 118.269 52.6282 118.269C57.238 118.269 60.9751 122.006 60.9751 126.616C60.9751 131.226 57.238 134.963 52.6282 134.963C48.0183 134.963 44.2812 131.226 44.2812 126.616Z" stroke="#E2063A" stroke-width="1.15929"/>
<path d="M65.6133 126.616C65.6133 122.006 69.3503 118.269 73.9602 118.269C78.5701 118.269 82.3071 122.006 82.3071 126.616C82.3071 131.226 78.5701 134.963 73.9602 134.963C69.3503 134.963 65.6133 131.226 65.6133 126.616Z" stroke="#E2063A" stroke-width="1.15929"/>
<path d="M86.9453 126.616C86.9453 122.006 90.6823 118.269 95.2922 118.269C99.9021 118.269 103.639 122.006 103.639 126.616C103.639 131.226 99.9021 134.963 95.2922 134.963C90.6823 134.963 86.9453 131.226 86.9453 126.616Z" stroke="#E2063A" stroke-width="1.15929"/>
<path d="M108.273 126.616C108.273 122.006 112.01 118.269 116.62 118.269C121.23 118.269 124.967 122.006 124.967 126.616C124.967 131.226 121.23 134.963 116.62 134.963C112.01 134.963 108.273 131.226 108.273 126.616Z" stroke="#E2063A" stroke-width="1.15929"/>
<path d="M129.605 126.616C129.605 122.006 133.343 118.269 137.952 118.269C142.562 118.269 146.299 122.006 146.299 126.616C146.299 131.226 142.562 134.963 137.952 134.963C133.343 134.963 129.605 131.226 129.605 126.616Z" stroke="#E2063A" stroke-width="1.15929"/>
<path d="M150.938 126.616C150.938 122.006 154.675 118.269 159.284 118.269C163.894 118.269 167.631 122.006 167.631 126.616C167.631 131.226 163.894 134.963 159.284 134.963C154.675 134.963 150.938 131.226 150.938 126.616Z" stroke="#E2063A" stroke-width="1.15929"/>
<path d="M172.27 126.616C172.27 122.006 176.007 118.269 180.616 118.269C185.226 118.269 188.963 122.006 188.963 126.616C188.963 131.226 185.226 134.963 180.616 134.963C176.007 134.963 172.27 131.226 172.27 126.616Z" stroke="#E2063A" stroke-width="1.15929"/>
<path d="M193.598 126.616C193.598 122.006 197.335 118.269 201.945 118.269C206.554 118.269 210.291 122.006 210.291 126.616C210.291 131.226 206.554 134.963 201.945 134.963C197.335 134.963 193.598 131.226 193.598 126.616Z" stroke="#E2063A" stroke-width="1.15929"/>
<path d="M214.93 126.616C214.93 122.006 218.667 118.269 223.277 118.269C227.886 118.269 231.623 122.006 231.623 126.616C231.623 131.226 227.886 134.963 223.277 134.963C218.667 134.963 214.93 131.226 214.93 126.616Z" stroke="#E2063A" stroke-width="1.15929"/>
<path d="M236.258 126.616C236.258 122.006 239.995 118.269 244.605 118.269C249.215 118.269 252.952 122.006 252.952 126.616C252.952 131.226 249.215 134.963 244.605 134.963C239.995 134.963 236.258 131.226 236.258 126.616Z" stroke="#E2063A" stroke-width="1.15929"/>
<path d="M257.594 126.616C257.594 122.006 261.331 118.269 265.941 118.269C270.551 118.269 274.288 122.006 274.288 126.616C274.288 131.226 270.551 134.963 265.941 134.963C261.331 134.963 257.594 131.226 257.594 126.616Z" stroke="#E2063A" stroke-width="1.15929"/>
<path d="M278.922 126.616C278.922 122.006 282.659 118.269 287.269 118.269C291.879 118.269 295.616 122.006 295.616 126.616C295.616 131.226 291.879 134.963 287.269 134.963C282.659 134.963 278.922 131.226 278.922 126.616Z" stroke="#E2063A" stroke-width="1.15929"/>
<path d="M300.254 126.616C300.254 122.006 303.991 118.269 308.601 118.269C313.211 118.269 316.948 122.006 316.948 126.616C316.948 131.226 313.211 134.963 308.601 134.963C303.991 134.963 300.254 131.226 300.254 126.616Z" stroke="#E2063A" stroke-width="1.15929"/>
<path d="M321.586 126.616C321.586 122.006 325.323 118.269 329.933 118.269C334.543 118.269 338.28 122.006 338.28 126.616C338.28 131.226 334.543 134.963 329.933 134.963C325.323 134.963 321.586 131.226 321.586 126.616Z" stroke="#E2063A" stroke-width="1.15929"/>
<path d="M342.914 126.616C342.914 122.006 346.651 118.269 351.261 118.269C355.871 118.269 359.608 122.006 359.608 126.616C359.608 131.226 355.871 134.963 351.261 134.963C346.651 134.963 342.914 131.226 342.914 126.616Z" stroke="#E2063A" stroke-width="1.15929"/>
<path d="M1.61719 148.874C1.61719 144.264 5.35422 140.527 9.96409 140.527C14.574 140.527 18.311 144.264 18.311 148.874C18.311 153.484 14.574 157.221 9.96409 157.221C5.35422 157.221 1.61719 153.484 1.61719 148.874Z" stroke="#E2063A" stroke-width="1.15929"/>
<path d="M22.9531 148.874C22.9531 144.264 26.6902 140.527 31.3 140.527C35.9099 140.527 39.6469 144.264 39.6469 148.874C39.6469 153.484 35.9099 157.221 31.3 157.221C26.6902 157.221 22.9531 153.484 22.9531 148.874Z" stroke="#E2063A" stroke-width="1.15929"/>
<path d="M44.2812 148.874C44.2812 144.264 48.0183 140.527 52.6282 140.527C57.238 140.527 60.9751 144.264 60.9751 148.874C60.9751 153.484 57.238 157.221 52.6282 157.221C48.0183 157.221 44.2812 153.484 44.2812 148.874Z" stroke="#E2063A" stroke-width="1.15929"/>
<path d="M65.6133 148.874C65.6133 144.264 69.3503 140.527 73.9602 140.527C78.5701 140.527 82.3071 144.264 82.3071 148.874C82.3071 153.484 78.5701 157.221 73.9602 157.221C69.3503 157.221 65.6133 153.484 65.6133 148.874Z" stroke="#E2063A" stroke-width="1.15929"/>
<path d="M86.9453 148.874C86.9453 144.264 90.6823 140.527 95.2922 140.527C99.9021 140.527 103.639 144.264 103.639 148.874C103.639 153.484 99.9021 157.221 95.2922 157.221C90.6823 157.221 86.9453 153.484 86.9453 148.874Z" stroke="#E2063A" stroke-width="1.15929"/>
<path d="M108.273 148.874C108.273 144.264 112.01 140.527 116.62 140.527C121.23 140.527 124.967 144.264 124.967 148.874C124.967 153.484 121.23 157.221 116.62 157.221C112.01 157.221 108.273 153.484 108.273 148.874Z" stroke="#E2063A" stroke-width="1.15929"/>
<path d="M129.605 148.874C129.605 144.264 133.343 140.527 137.952 140.527C142.562 140.527 146.299 144.264 146.299 148.874C146.299 153.484 142.562 157.221 137.952 157.221C133.343 157.221 129.605 153.484 129.605 148.874Z" stroke="#E2063A" stroke-width="1.15929"/>
<path d="M150.938 148.874C150.938 144.264 154.675 140.527 159.284 140.527C163.894 140.527 167.631 144.264 167.631 148.874C167.631 153.484 163.894 157.221 159.284 157.221C154.675 157.221 150.938 153.484 150.938 148.874Z" stroke="#E2063A" stroke-width="1.15929"/>
<path d="M172.27 148.874C172.27 144.264 176.007 140.527 180.616 140.527C185.226 140.527 188.963 144.264 188.963 148.874C188.963 153.484 185.226 157.221 180.616 157.221C176.007 157.221 172.27 153.484 172.27 148.874Z" stroke="#E2063A" stroke-width="1.15929"/>
<path d="M193.598 148.874C193.598 144.264 197.335 140.527 201.945 140.527C206.554 140.527 210.291 144.264 210.291 148.874C210.291 153.484 206.554 157.221 201.945 157.221C197.335 157.221 193.598 153.484 193.598 148.874Z" stroke="#E2063A" stroke-width="1.15929"/>
<path d="M214.93 148.874C214.93 144.264 218.667 140.527 223.277 140.527C227.886 140.527 231.623 144.264 231.623 148.874C231.623 153.484 227.886 157.221 223.277 157.221C218.667 157.221 214.93 153.484 214.93 148.874Z" stroke="#E2063A" stroke-width="1.15929"/>
<path d="M236.258 148.874C236.258 144.264 239.995 140.527 244.605 140.527C249.215 140.527 252.952 144.264 252.952 148.874C252.952 153.484 249.215 157.221 244.605 157.221C239.995 157.221 236.258 153.484 236.258 148.874Z" stroke="#E2063A" stroke-width="1.15929"/>
<path d="M257.594 148.874C257.594 144.264 261.331 140.527 265.941 140.527C270.551 140.527 274.288 144.264 274.288 148.874C274.288 153.484 270.551 157.221 265.941 157.221C261.331 157.221 257.594 153.484 257.594 148.874Z" stroke="#E2063A" stroke-width="1.15929"/>
<path d="M278.922 148.874C278.922 144.264 282.659 140.527 287.269 140.527C291.879 140.527 295.616 144.264 295.616 148.874C295.616 153.484 291.879 157.221 287.269 157.221C282.659 157.221 278.922 153.484 278.922 148.874Z" stroke="#E2063A" stroke-width="1.15929"/>
<path d="M300.254 148.874C300.254 144.264 303.991 140.527 308.601 140.527C313.211 140.527 316.948 144.264 316.948 148.874C316.948 153.484 313.211 157.221 308.601 157.221C303.991 157.221 300.254 153.484 300.254 148.874Z" stroke="#E2063A" stroke-width="1.15929"/>
<path d="M321.586 148.874C321.586 144.264 325.323 140.527 329.933 140.527C334.543 140.527 338.28 144.264 338.28 148.874C338.28 153.484 334.543 157.221 329.933 157.221C325.323 157.221 321.586 153.484 321.586 148.874Z" stroke="#E2063A" stroke-width="1.15929"/>
<path d="M342.914 148.874C342.914 144.264 346.651 140.527 351.261 140.527C355.871 140.527 359.608 144.264 359.608 148.874C359.608 153.484 355.871 157.221 351.261 157.221C346.651 157.221 342.914 153.484 342.914 148.874Z" stroke="#E2063A" stroke-width="1.15929"/>
<path d="M1.61719 171.132C1.61719 166.522 5.35422 162.785 9.96409 162.785C14.574 162.785 18.311 166.522 18.311 171.132C18.311 175.742 14.574 179.479 9.96409 179.479C5.35422 179.479 1.61719 175.742 1.61719 171.132Z" stroke="#E2063A" stroke-width="1.15929"/>
<path d="M22.9531 171.132C22.9531 166.522 26.6902 162.785 31.3 162.785C35.9099 162.785 39.6469 166.522 39.6469 171.132C39.6469 175.742 35.9099 179.479 31.3 179.479C26.6902 179.479 22.9531 175.742 22.9531 171.132Z" stroke="#E2063A" stroke-width="1.15929"/>
<path d="M44.2812 171.132C44.2812 166.522 48.0183 162.785 52.6282 162.785C57.238 162.785 60.9751 166.522 60.9751 171.132C60.9751 175.742 57.238 179.479 52.6282 179.479C48.0183 179.479 44.2812 175.742 44.2812 171.132Z" stroke="#E2063A" stroke-width="1.15929"/>
<path d="M65.6133 171.132C65.6133 166.522 69.3503 162.785 73.9602 162.785C78.5701 162.785 82.3071 166.522 82.3071 171.132C82.3071 175.742 78.5701 179.479 73.9602 179.479C69.3503 179.479 65.6133 175.742 65.6133 171.132Z" stroke="#E2063A" stroke-width="1.15929"/>
<path d="M86.9453 171.132C86.9453 166.522 90.6823 162.785 95.2922 162.785C99.9021 162.785 103.639 166.522 103.639 171.132C103.639 175.742 99.9021 179.479 95.2922 179.479C90.6823 179.479 86.9453 175.742 86.9453 171.132Z" stroke="#E2063A" stroke-width="1.15929"/>
<path d="M108.273 171.132C108.273 166.522 112.01 162.785 116.62 162.785C121.23 162.785 124.967 166.522 124.967 171.132C124.967 175.742 121.23 179.479 116.62 179.479C112.01 179.479 108.273 175.742 108.273 171.132Z" stroke="#E2063A" stroke-width="1.15929"/>
<path d="M129.605 171.132C129.605 166.522 133.343 162.785 137.952 162.785C142.562 162.785 146.299 166.522 146.299 171.132C146.299 175.742 142.562 179.479 137.952 179.479C133.343 179.479 129.605 175.742 129.605 171.132Z" stroke="#E2063A" stroke-width="1.15929"/>
<path d="M150.938 171.132C150.938 166.522 154.675 162.785 159.284 162.785C163.894 162.785 167.631 166.522 167.631 171.132C167.631 175.742 163.894 179.479 159.284 179.479C154.675 179.479 150.938 175.742 150.938 171.132Z" stroke="#E2063A" stroke-width="1.15929"/>
<path d="M172.27 171.132C172.27 166.522 176.007 162.785 180.616 162.785C185.226 162.785 188.963 166.522 188.963 171.132C188.963 175.742 185.226 179.479 180.616 179.479C176.007 179.479 172.27 175.742 172.27 171.132Z" stroke="#E2063A" stroke-width="1.15929"/>
<path d="M193.598 171.132C193.598 166.522 197.335 162.785 201.945 162.785C206.554 162.785 210.291 166.522 210.291 171.132C210.291 175.742 206.554 179.479 201.945 179.479C197.335 179.479 193.598 175.742 193.598 171.132Z" stroke="#E2063A" stroke-width="1.15929"/>
<path d="M214.93 171.132C214.93 166.522 218.667 162.785 223.277 162.785C227.886 162.785 231.623 166.522 231.623 171.132C231.623 175.742 227.886 179.479 223.277 179.479C218.667 179.479 214.93 175.742 214.93 171.132Z" stroke="#E2063A" stroke-width="1.15929"/>
<path d="M236.258 171.132C236.258 166.522 239.995 162.785 244.605 162.785C249.215 162.785 252.952 166.522 252.952 171.132C252.952 175.742 249.215 179.479 244.605 179.479C239.995 179.479 236.258 175.742 236.258 171.132Z" stroke="#E2063A" stroke-width="1.15929"/>
<path d="M257.594 171.132C257.594 166.522 261.331 162.785 265.941 162.785C270.551 162.785 274.288 166.522 274.288 171.132C274.288 175.742 270.551 179.479 265.941 179.479C261.331 179.479 257.594 175.742 257.594 171.132Z" stroke="#E2063A" stroke-width="1.15929"/>
<path d="M278.922 171.132C278.922 166.522 282.659 162.785 287.269 162.785C291.879 162.785 295.616 166.522 295.616 171.132C295.616 175.742 291.879 179.479 287.269 179.479C282.659 179.479 278.922 175.742 278.922 171.132Z" stroke="#E2063A" stroke-width="1.15929"/>
<path d="M300.254 171.132C300.254 166.522 303.991 162.785 308.601 162.785C313.211 162.785 316.948 166.522 316.948 171.132C316.948 175.742 313.211 179.479 308.601 179.479C303.991 179.479 300.254 175.742 300.254 171.132Z" stroke="#E2063A" stroke-width="1.15929"/>
<path d="M321.586 171.132C321.586 166.522 325.323 162.785 329.933 162.785C334.543 162.785 338.28 166.522 338.28 171.132C338.28 175.742 334.543 179.479 329.933 179.479C325.323 179.479 321.586 175.742 321.586 171.132Z" stroke="#E2063A" stroke-width="1.15929"/>
<path d="M342.914 171.132C342.914 166.522 346.651 162.785 351.261 162.785C355.871 162.785 359.608 166.522 359.608 171.132C359.608 175.742 355.871 179.479 351.261 179.479C346.651 179.479 342.914 175.742 342.914 171.132Z" stroke="#E2063A" stroke-width="1.15929"/>
<path d="M1.61719 193.391C1.61719 188.781 5.35422 185.044 9.96409 185.044C14.574 185.044 18.311 188.781 18.311 193.391C18.311 198.001 14.574 201.738 9.96409 201.738C5.35422 201.738 1.61719 198.001 1.61719 193.391Z" stroke="#E2063A" stroke-width="1.15929"/>
<path d="M22.9531 193.391C22.9531 188.781 26.6902 185.044 31.3 185.044C35.9099 185.044 39.6469 188.781 39.6469 193.391C39.6469 198.001 35.9099 201.738 31.3 201.738C26.6902 201.738 22.9531 198.001 22.9531 193.391Z" stroke="#E2063A" stroke-width="1.15929"/>
<path d="M44.2812 193.391C44.2812 188.781 48.0183 185.044 52.6282 185.044C57.238 185.044 60.9751 188.781 60.9751 193.391C60.9751 198.001 57.238 201.738 52.6282 201.738C48.0183 201.738 44.2812 198.001 44.2812 193.391Z" stroke="#E2063A" stroke-width="1.15929"/>
<path d="M65.6133 193.391C65.6133 188.781 69.3503 185.044 73.9602 185.044C78.5701 185.044 82.3071 188.781 82.3071 193.391C82.3071 198.001 78.5701 201.738 73.9602 201.738C69.3503 201.738 65.6133 198.001 65.6133 193.391Z" stroke="#E2063A" stroke-width="1.15929"/>
<path d="M86.9453 193.391C86.9453 188.781 90.6823 185.044 95.2922 185.044C99.9021 185.044 103.639 188.781 103.639 193.391C103.639 198.001 99.9021 201.738 95.2922 201.738C90.6823 201.738 86.9453 198.001 86.9453 193.391Z" stroke="#E2063A" stroke-width="1.15929"/>
<path d="M108.273 193.391C108.273 188.781 112.01 185.044 116.62 185.044C121.23 185.044 124.967 188.781 124.967 193.391C124.967 198.001 121.23 201.738 116.62 201.738C112.01 201.738 108.273 198.001 108.273 193.391Z" stroke="#E2063A" stroke-width="1.15929"/>
<path d="M129.605 193.391C129.605 188.781 133.343 185.044 137.952 185.044C142.562 185.044 146.299 188.781 146.299 193.391C146.299 198.001 142.562 201.738 137.952 201.738C133.343 201.738 129.605 198.001 129.605 193.391Z" stroke="#E2063A" stroke-width="1.15929"/>
<path d="M150.938 193.391C150.938 188.781 154.675 185.044 159.284 185.044C163.894 185.044 167.631 188.781 167.631 193.391C167.631 198.001 163.894 201.738 159.284 201.738C154.675 201.738 150.938 198.001 150.938 193.391Z" stroke="#E2063A" stroke-width="1.15929"/>
<path d="M172.27 193.391C172.27 188.781 176.007 185.044 180.616 185.044C185.226 185.044 188.963 188.781 188.963 193.391C188.963 198.001 185.226 201.738 180.616 201.738C176.007 201.738 172.27 198.001 172.27 193.391Z" stroke="#E2063A" stroke-width="1.15929"/>
<path d="M193.598 193.391C193.598 188.781 197.335 185.044 201.945 185.044C206.554 185.044 210.291 188.781 210.291 193.391C210.291 198.001 206.554 201.738 201.945 201.738C197.335 201.738 193.598 198.001 193.598 193.391Z" stroke="#E2063A" stroke-width="1.15929"/>
<path d="M214.93 193.391C214.93 188.781 218.667 185.044 223.277 185.044C227.886 185.044 231.623 188.781 231.623 193.391C231.623 198.001 227.886 201.738 223.277 201.738C218.667 201.738 214.93 198.001 214.93 193.391Z" stroke="#E2063A" stroke-width="1.15929"/>
<path d="M236.258 193.391C236.258 188.781 239.995 185.044 244.605 185.044C249.215 185.044 252.952 188.781 252.952 193.391C252.952 198.001 249.215 201.738 244.605 201.738C239.995 201.738 236.258 198.001 236.258 193.391Z" stroke="#E2063A" stroke-width="1.15929"/>
<path d="M257.594 193.391C257.594 188.781 261.331 185.044 265.941 185.044C270.551 185.044 274.288 188.781 274.288 193.391C274.288 198.001 270.551 201.738 265.941 201.738C261.331 201.738 257.594 198.001 257.594 193.391Z" stroke="#E2063A" stroke-width="1.15929"/>
<path d="M278.922 193.391C278.922 188.781 282.659 185.044 287.269 185.044C291.879 185.044 295.616 188.781 295.616 193.391C295.616 198.001 291.879 201.738 287.269 201.738C282.659 201.738 278.922 198.001 278.922 193.391Z" stroke="#E2063A" stroke-width="1.15929"/>
<path d="M300.254 193.391C300.254 188.781 303.991 185.044 308.601 185.044C313.211 185.044 316.948 188.781 316.948 193.391C316.948 198.001 313.211 201.738 308.601 201.738C303.991 201.738 300.254 198.001 300.254 193.391Z" stroke="#E2063A" stroke-width="1.15929"/>
<path d="M321.586 193.391C321.586 188.781 325.323 185.044 329.933 185.044C334.543 185.044 338.28 188.781 338.28 193.391C338.28 198.001 334.543 201.738 329.933 201.738C325.323 201.738 321.586 198.001 321.586 193.391Z" stroke="#E2063A" stroke-width="1.15929"/>
<path d="M342.914 193.391C342.914 188.781 346.651 185.044 351.261 185.044C355.871 185.044 359.608 188.781 359.608 193.391C359.608 198.001 355.871 201.738 351.261 201.738C346.651 201.738 342.914 198.001 342.914 193.391Z" stroke="#E2063A" stroke-width="1.15929"/>
<path d="M1.61719 215.65C1.61719 211.04 5.35422 207.303 9.96409 207.303C14.574 207.303 18.311 211.04 18.311 215.65C18.311 220.26 14.574 223.997 9.96409 223.997C5.35422 223.997 1.61719 220.26 1.61719 215.65Z" stroke="#E2063A" stroke-width="1.15929"/>
<path d="M22.9531 215.65C22.9531 211.04 26.6902 207.303 31.3 207.303C35.9099 207.303 39.6469 211.04 39.6469 215.65C39.6469 220.26 35.9099 223.997 31.3 223.997C26.6902 223.997 22.9531 220.26 22.9531 215.65Z" stroke="#E2063A" stroke-width="1.15929"/>
<path d="M44.2812 215.65C44.2812 211.04 48.0183 207.303 52.6282 207.303C57.238 207.303 60.9751 211.04 60.9751 215.65C60.9751 220.26 57.238 223.997 52.6282 223.997C48.0183 223.997 44.2812 220.26 44.2812 215.65Z" stroke="#E2063A" stroke-width="1.15929"/>
<path d="M65.6133 215.65C65.6133 211.04 69.3503 207.303 73.9602 207.303C78.5701 207.303 82.3071 211.04 82.3071 215.65C82.3071 220.26 78.5701 223.997 73.9602 223.997C69.3503 223.997 65.6133 220.26 65.6133 215.65Z" stroke="#E2063A" stroke-width="1.15929"/>
<path d="M86.9453 215.65C86.9453 211.04 90.6823 207.303 95.2922 207.303C99.9021 207.303 103.639 211.04 103.639 215.65C103.639 220.26 99.9021 223.997 95.2922 223.997C90.6823 223.997 86.9453 220.26 86.9453 215.65Z" stroke="#E2063A" stroke-width="1.15929"/>
<path d="M108.273 215.65C108.273 211.04 112.01 207.303 116.62 207.303C121.23 207.303 124.967 211.04 124.967 215.65C124.967 220.26 121.23 223.997 116.62 223.997C112.01 223.997 108.273 220.26 108.273 215.65Z" stroke="#E2063A" stroke-width="1.15929"/>
<path d="M129.605 215.65C129.605 211.04 133.343 207.303 137.952 207.303C142.562 207.303 146.299 211.04 146.299 215.65C146.299 220.259 142.562 223.996 137.952 223.996C133.343 223.996 129.605 220.259 129.605 215.65Z" stroke="#E2063A" stroke-width="1.15929"/>
<path d="M150.938 215.65C150.938 211.04 154.675 207.303 159.284 207.303C163.894 207.303 167.631 211.04 167.631 215.65C167.631 220.26 163.894 223.997 159.284 223.997C154.675 223.997 150.938 220.26 150.938 215.65Z" stroke="#E2063A" stroke-width="1.15929"/>
<path d="M172.27 215.65C172.27 211.04 176.007 207.303 180.616 207.303C185.226 207.303 188.963 211.04 188.963 215.65C188.963 220.26 185.226 223.997 180.616 223.997C176.007 223.997 172.27 220.26 172.27 215.65Z" stroke="#E2063A" stroke-width="1.15929"/>
<path d="M193.598 215.65C193.598 211.04 197.335 207.303 201.945 207.303C206.554 207.303 210.291 211.04 210.291 215.65C210.291 220.26 206.554 223.997 201.945 223.997C197.335 223.997 193.598 220.26 193.598 215.65Z" stroke="#E2063A" stroke-width="1.15929"/>
<path d="M214.93 215.65C214.93 211.04 218.667 207.303 223.277 207.303C227.886 207.303 231.623 211.04 231.623 215.65C231.623 220.259 227.886 223.996 223.277 223.996C218.667 223.996 214.93 220.259 214.93 215.65Z" stroke="#E2063A" stroke-width="1.15929"/>
<path d="M236.258 215.65C236.258 211.04 239.995 207.303 244.605 207.303C249.215 207.303 252.952 211.04 252.952 215.65C252.952 220.26 249.215 223.997 244.605 223.997C239.995 223.997 236.258 220.26 236.258 215.65Z" stroke="#E2063A" stroke-width="1.15929"/>
<path d="M257.594 215.65C257.594 211.04 261.331 207.303 265.941 207.303C270.551 207.303 274.288 211.04 274.288 215.65C274.288 220.26 270.551 223.997 265.941 223.997C261.331 223.997 257.594 220.26 257.594 215.65Z" stroke="#E2063A" stroke-width="1.15929"/>
<path d="M278.922 215.65C278.922 211.04 282.659 207.303 287.269 207.303C291.879 207.303 295.616 211.04 295.616 215.65C295.616 220.26 291.879 223.997 287.269 223.997C282.659 223.997 278.922 220.26 278.922 215.65Z" stroke="#E2063A" stroke-width="1.15929"/>
<path d="M300.254 215.65C300.254 211.04 303.991 207.303 308.601 207.303C313.211 207.303 316.948 211.04 316.948 215.65C316.948 220.26 313.211 223.997 308.601 223.997C303.991 223.997 300.254 220.26 300.254 215.65Z" stroke="#E2063A" stroke-width="1.15929"/>
<path d="M321.586 215.65C321.586 211.04 325.323 207.303 329.933 207.303C334.543 207.303 338.28 211.04 338.28 215.65C338.28 220.26 334.543 223.997 329.933 223.997C325.323 223.997 321.586 220.26 321.586 215.65Z" stroke="#E2063A" stroke-width="1.15929"/>
<path d="M342.914 215.65C342.914 211.04 346.651 207.303 351.261 207.303C355.871 207.303 359.608 211.04 359.608 215.65C359.608 220.26 355.871 223.997 351.261 223.997C346.651 223.997 342.914 220.26 342.914 215.65Z" stroke="#E2063A" stroke-width="1.15929"/>
<path d="M1.61719 -6.93433C1.61719 -11.5442 5.35422 -15.2812 9.96409 -15.2812C14.574 -15.2812 18.311 -11.5442 18.311 -6.93433C18.311 -2.32446 14.574 1.41257 9.96409 1.41257C5.35422 1.41257 1.61719 -2.32446 1.61719 -6.93433Z" stroke="#E2063A" stroke-width="1.15929"/>
<path d="M22.9531 -6.93433C22.9531 -11.5442 26.6902 -15.2812 31.3 -15.2812C35.9099 -15.2812 39.6469 -11.5442 39.6469 -6.93433C39.6469 -2.32446 35.9099 1.41257 31.3 1.41257C26.6902 1.41257 22.9531 -2.32446 22.9531 -6.93433Z" stroke="#E2063A" stroke-width="1.15929"/>
<path d="M44.2812 -6.93432C44.2812 -11.5442 48.0183 -15.2812 52.6282 -15.2812C57.238 -15.2812 60.9751 -11.5442 60.9751 -6.93432C60.9751 -2.32445 57.238 1.41259 52.6282 1.41259C48.0183 1.41259 44.2812 -2.32445 44.2812 -6.93432Z" stroke="#E2063A" stroke-width="1.15929"/>
<path d="M65.6133 -6.93432C65.6133 -11.5442 69.3503 -15.2812 73.9602 -15.2812C78.5701 -15.2812 82.3071 -11.5442 82.3071 -6.93432C82.3071 -2.32445 78.5701 1.41259 73.9602 1.41259C69.3503 1.41259 65.6133 -2.32445 65.6133 -6.93432Z" stroke="#E2063A" stroke-width="1.15929"/>
<path d="M86.9453 -6.93433C86.9453 -11.5442 90.6823 -15.2812 95.2922 -15.2812C99.9021 -15.2812 103.639 -11.5442 103.639 -6.93433C103.639 -2.32446 99.9021 1.41257 95.2922 1.41257C90.6823 1.41257 86.9453 -2.32446 86.9453 -6.93433Z" stroke="#E2063A" stroke-width="1.15929"/>
<path d="M108.273 -6.93433C108.273 -11.5442 112.01 -15.2812 116.62 -15.2812C121.23 -15.2812 124.967 -11.5442 124.967 -6.93433C124.967 -2.32446 121.23 1.41257 116.62 1.41257C112.01 1.41257 108.273 -2.32446 108.273 -6.93433Z" stroke="#E2063A" stroke-width="1.15929"/>
<path d="M129.605 -6.93424C129.605 -11.5441 133.343 -15.2811 137.952 -15.2811C142.562 -15.2811 146.299 -11.5441 146.299 -6.93424C146.299 -2.32437 142.562 1.41266 137.952 1.41266C133.343 1.41266 129.605 -2.32437 129.605 -6.93424Z" stroke="#E2063A" stroke-width="1.15929"/>
<path d="M150.938 -6.93432C150.938 -11.5442 154.675 -15.2812 159.284 -15.2812C163.894 -15.2812 167.631 -11.5442 167.631 -6.93432C167.631 -2.32445 163.894 1.41259 159.284 1.41259C154.675 1.41259 150.938 -2.32445 150.938 -6.93432Z" stroke="#E2063A" stroke-width="1.15929"/>
<path d="M172.27 -6.93433C172.27 -11.5442 176.007 -15.2812 180.616 -15.2812C185.226 -15.2812 188.963 -11.5442 188.963 -6.93433C188.963 -2.32446 185.226 1.41257 180.616 1.41257C176.007 1.41257 172.27 -2.32446 172.27 -6.93433Z" stroke="#E2063A" stroke-width="1.15929"/>
<path d="M193.598 -6.93432C193.598 -11.5442 197.335 -15.2812 201.945 -15.2812C206.554 -15.2812 210.291 -11.5442 210.291 -6.93432C210.291 -2.32445 206.554 1.41259 201.945 1.41259C197.335 1.41259 193.598 -2.32445 193.598 -6.93432Z" stroke="#E2063A" stroke-width="1.15929"/>
<path d="M214.93 -6.93424C214.93 -11.5441 218.667 -15.2811 223.277 -15.2811C227.886 -15.2811 231.623 -11.5441 231.623 -6.93424C231.623 -2.32437 227.886 1.41266 223.277 1.41266C218.667 1.41266 214.93 -2.32437 214.93 -6.93424Z" stroke="#E2063A" stroke-width="1.15929"/>
<path d="M236.258 -6.93433C236.258 -11.5442 239.995 -15.2812 244.605 -15.2812C249.215 -15.2812 252.952 -11.5442 252.952 -6.93433C252.952 -2.32446 249.215 1.41257 244.605 1.41257C239.995 1.41257 236.258 -2.32446 236.258 -6.93433Z" stroke="#E2063A" stroke-width="1.15929"/>
<path d="M257.594 -6.93433C257.594 -11.5442 261.331 -15.2812 265.941 -15.2812C270.551 -15.2812 274.288 -11.5442 274.288 -6.93433C274.288 -2.32446 270.551 1.41257 265.941 1.41257C261.331 1.41257 257.594 -2.32446 257.594 -6.93433Z" stroke="#E2063A" stroke-width="1.15929"/>
<path d="M278.922 -6.93432C278.922 -11.5442 282.659 -15.2812 287.269 -15.2812C291.879 -15.2812 295.616 -11.5442 295.616 -6.93432C295.616 -2.32445 291.879 1.41259 287.269 1.41259C282.659 1.41259 278.922 -2.32445 278.922 -6.93432Z" stroke="#E2063A" stroke-width="1.15929"/>
<path d="M300.254 -6.93432C300.254 -11.5442 303.991 -15.2812 308.601 -15.2812C313.211 -15.2812 316.948 -11.5442 316.948 -6.93432C316.948 -2.32445 313.211 1.41259 308.601 1.41259C303.991 1.41259 300.254 -2.32445 300.254 -6.93432Z" stroke="#E2063A" stroke-width="1.15929"/>
<path d="M321.586 -6.93433C321.586 -11.5442 325.323 -15.2812 329.933 -15.2812C334.543 -15.2812 338.28 -11.5442 338.28 -6.93433C338.28 -2.32446 334.543 1.41257 329.933 1.41257C325.323 1.41257 321.586 -2.32446 321.586 -6.93433Z" stroke="#E2063A" stroke-width="1.15929"/>
<path d="M342.914 -6.93433C342.914 -11.5442 346.651 -15.2812 351.261 -15.2812C355.871 -15.2812 359.608 -11.5442 359.608 -6.93433C359.608 -2.32446 355.871 1.41257 351.261 1.41257C346.651 1.41257 342.914 -2.32446 342.914 -6.93433Z" stroke="#E2063A" stroke-width="1.15929"/>
<path d="M1.61719 237.907C1.61719 233.298 5.35422 229.561 9.96409 229.561C14.574 229.561 18.311 233.298 18.311 237.907C18.311 242.517 14.574 246.254 9.96409 246.254C5.35422 246.254 1.61719 242.517 1.61719 237.907Z" stroke="#E2063A" stroke-width="1.15929"/>
<path d="M22.9531 237.907C22.9531 233.298 26.6902 229.561 31.3 229.561C35.9099 229.561 39.6469 233.298 39.6469 237.907C39.6469 242.517 35.9099 246.254 31.3 246.254C26.6902 246.254 22.9531 242.517 22.9531 237.907Z" stroke="#E2063A" stroke-width="1.15929"/>
<path d="M44.2812 237.907C44.2812 233.298 48.0183 229.561 52.6282 229.561C57.238 229.561 60.9751 233.298 60.9751 237.907C60.9751 242.517 57.238 246.254 52.6282 246.254C48.0183 246.254 44.2812 242.517 44.2812 237.907Z" stroke="#E2063A" stroke-width="1.15929"/>
<path d="M65.6133 237.907C65.6133 233.298 69.3503 229.561 73.9602 229.561C78.5701 229.561 82.3071 233.298 82.3071 237.907C82.3071 242.517 78.5701 246.254 73.9602 246.254C69.3503 246.254 65.6133 242.517 65.6133 237.907Z" stroke="#E2063A" stroke-width="1.15929"/>
<path d="M86.9453 237.907C86.9453 233.298 90.6823 229.561 95.2922 229.561C99.9021 229.561 103.639 233.298 103.639 237.907C103.639 242.517 99.9021 246.254 95.2922 246.254C90.6823 246.254 86.9453 242.517 86.9453 237.907Z" stroke="#E2063A" stroke-width="1.15929"/>
<path d="M108.273 237.907C108.273 233.298 112.01 229.561 116.62 229.561C121.23 229.561 124.967 233.298 124.967 237.907C124.967 242.517 121.23 246.254 116.62 246.254C112.01 246.254 108.273 242.517 108.273 237.907Z" stroke="#E2063A" stroke-width="1.15929"/>
<path d="M129.605 237.907C129.605 233.298 133.343 229.561 137.952 229.561C142.562 229.561 146.299 233.298 146.299 237.907C146.299 242.517 142.562 246.254 137.952 246.254C133.343 246.254 129.605 242.517 129.605 237.907Z" stroke="#E2063A" stroke-width="1.15929"/>
<path d="M150.938 237.907C150.938 233.298 154.675 229.561 159.284 229.561C163.894 229.561 167.631 233.298 167.631 237.907C167.631 242.517 163.894 246.254 159.284 246.254C154.675 246.254 150.938 242.517 150.938 237.907Z" stroke="#E2063A" stroke-width="1.15929"/>
<path d="M172.27 237.907C172.27 233.298 176.007 229.561 180.616 229.561C185.226 229.561 188.963 233.298 188.963 237.907C188.963 242.517 185.226 246.254 180.616 246.254C176.007 246.254 172.27 242.517 172.27 237.907Z" stroke="#E2063A" stroke-width="1.15929"/>
<path d="M193.598 237.907C193.598 233.298 197.335 229.561 201.945 229.561C206.554 229.561 210.291 233.298 210.291 237.907C210.291 242.517 206.554 246.254 201.945 246.254C197.335 246.254 193.598 242.517 193.598 237.907Z" stroke="#E2063A" stroke-width="1.15929"/>
<path d="M214.93 237.907C214.93 233.298 218.667 229.561 223.277 229.561C227.886 229.561 231.623 233.298 231.623 237.907C231.623 242.517 227.886 246.254 223.277 246.254C218.667 246.254 214.93 242.517 214.93 237.907Z" stroke="#E2063A" stroke-width="1.15929"/>
<path d="M236.258 237.907C236.258 233.298 239.995 229.561 244.605 229.561C249.215 229.561 252.952 233.298 252.952 237.907C252.952 242.517 249.215 246.254 244.605 246.254C239.995 246.254 236.258 242.517 236.258 237.907Z" stroke="#E2063A" stroke-width="1.15929"/>
<path d="M257.594 237.907C257.594 233.298 261.331 229.561 265.941 229.561C270.551 229.561 274.288 233.298 274.288 237.907C274.288 242.517 270.551 246.254 265.941 246.254C261.331 246.254 257.594 242.517 257.594 237.907Z" stroke="#E2063A" stroke-width="1.15929"/>
<path d="M278.922 237.907C278.922 233.298 282.659 229.561 287.269 229.561C291.879 229.561 295.616 233.298 295.616 237.907C295.616 242.517 291.879 246.254 287.269 246.254C282.659 246.254 278.922 242.517 278.922 237.907Z" stroke="#E2063A" stroke-width="1.15929"/>
<path d="M300.254 237.907C300.254 233.298 303.991 229.561 308.601 229.561C313.211 229.561 316.948 233.298 316.948 237.907C316.948 242.517 313.211 246.254 308.601 246.254C303.991 246.254 300.254 242.517 300.254 237.907Z" stroke="#E2063A" stroke-width="1.15929"/>
<path d="M321.586 237.907C321.586 233.298 325.323 229.561 329.933 229.561C334.543 229.561 338.28 233.298 338.28 237.907C338.28 242.517 334.543 246.254 329.933 246.254C325.323 246.254 321.586 242.517 321.586 237.907Z" stroke="#E2063A" stroke-width="1.15929"/>
<path d="M342.914 237.907C342.914 233.298 346.651 229.561 351.261 229.561C355.871 229.561 359.608 233.298 359.608 237.907C359.608 242.517 355.871 246.254 351.261 246.254C346.651 246.254 342.914 242.517 342.914 237.907Z" stroke="#E2063A" stroke-width="1.15929"/>
<path d="M1.61719 15.3236C1.61719 10.7138 5.35422 6.97675 9.96409 6.97675C14.574 6.97675 18.311 10.7138 18.311 15.3236C18.311 19.9335 14.574 23.6706 9.96409 23.6706C5.35422 23.6706 1.61719 19.9335 1.61719 15.3236Z" stroke="#E2063A" stroke-width="1.15929"/>
<path d="M22.9531 15.3236C22.9531 10.7138 26.6902 6.97675 31.3 6.97675C35.9099 6.97675 39.6469 10.7138 39.6469 15.3236C39.6469 19.9335 35.9099 23.6706 31.3 23.6706C26.6902 23.6706 22.9531 19.9335 22.9531 15.3236Z" stroke="#E2063A" stroke-width="1.15929"/>
<path d="M44.2812 15.3237C44.2812 10.7138 48.0183 6.97676 52.6282 6.97676C57.238 6.97676 60.9751 10.7138 60.9751 15.3237C60.9751 19.9335 57.238 23.6706 52.6282 23.6706C48.0183 23.6706 44.2812 19.9335 44.2812 15.3237Z" stroke="#E2063A" stroke-width="1.15929"/>
<path d="M65.6133 15.3237C65.6133 10.7138 69.3503 6.97676 73.9602 6.97676C78.5701 6.97676 82.3071 10.7138 82.3071 15.3237C82.3071 19.9335 78.5701 23.6706 73.9602 23.6706C69.3503 23.6706 65.6133 19.9335 65.6133 15.3237Z" stroke="#E2063A" stroke-width="1.15929"/>
<path d="M86.9453 15.3236C86.9453 10.7138 90.6823 6.97675 95.2922 6.97675C99.9021 6.97675 103.639 10.7138 103.639 15.3236C103.639 19.9335 99.9021 23.6706 95.2922 23.6706C90.6823 23.6706 86.9453 19.9335 86.9453 15.3236Z" stroke="#E2063A" stroke-width="1.15929"/>
<path d="M108.273 15.3236C108.273 10.7138 112.01 6.97675 116.62 6.97675C121.23 6.97675 124.967 10.7138 124.967 15.3236C124.967 19.9335 121.23 23.6706 116.62 23.6706C112.01 23.6706 108.273 19.9335 108.273 15.3236Z" stroke="#E2063A" stroke-width="1.15929"/>
<path d="M129.605 15.3236C129.605 10.7137 133.343 6.9767 137.952 6.9767C142.562 6.9767 146.299 10.7137 146.299 15.3236C146.299 19.9335 142.562 23.6705 137.952 23.6705C133.343 23.6705 129.605 19.9335 129.605 15.3236Z" stroke="#E2063A" stroke-width="1.15929"/>
<path d="M150.938 15.3237C150.938 10.7138 154.675 6.97676 159.284 6.97676C163.894 6.97676 167.631 10.7138 167.631 15.3237C167.631 19.9335 163.894 23.6706 159.284 23.6706C154.675 23.6706 150.938 19.9335 150.938 15.3237Z" stroke="#E2063A" stroke-width="1.15929"/>
<path d="M172.27 15.3236C172.27 10.7138 176.007 6.97675 180.616 6.97675C185.226 6.97675 188.963 10.7138 188.963 15.3236C188.963 19.9335 185.226 23.6706 180.616 23.6706C176.007 23.6706 172.27 19.9335 172.27 15.3236Z" stroke="#E2063A" stroke-width="1.15929"/>
<path d="M193.598 15.3237C193.598 10.7138 197.335 6.97676 201.945 6.97676C206.554 6.97676 210.291 10.7138 210.291 15.3237C210.291 19.9335 206.554 23.6706 201.945 23.6706C197.335 23.6706 193.598 19.9335 193.598 15.3237Z" stroke="#E2063A" stroke-width="1.15929"/>
<path d="M214.93 15.3236C214.93 10.7137 218.667 6.9767 223.277 6.9767C227.886 6.9767 231.623 10.7137 231.623 15.3236C231.623 19.9335 227.886 23.6705 223.277 23.6705C218.667 23.6705 214.93 19.9335 214.93 15.3236Z" stroke="#E2063A" stroke-width="1.15929"/>
<path d="M236.258 15.3236C236.258 10.7138 239.995 6.97675 244.605 6.97675C249.215 6.97675 252.952 10.7138 252.952 15.3236C252.952 19.9335 249.215 23.6706 244.605 23.6706C239.995 23.6706 236.258 19.9335 236.258 15.3236Z" stroke="#E2063A" stroke-width="1.15929"/>
<path d="M257.594 15.3236C257.594 10.7138 261.331 6.97675 265.941 6.97675C270.551 6.97675 274.288 10.7138 274.288 15.3236C274.288 19.9335 270.551 23.6706 265.941 23.6706C261.331 23.6706 257.594 19.9335 257.594 15.3236Z" stroke="#E2063A" stroke-width="1.15929"/>
<path d="M278.922 15.3237C278.922 10.7138 282.659 6.97676 287.269 6.97676C291.879 6.97676 295.616 10.7138 295.616 15.3237C295.616 19.9335 291.879 23.6706 287.269 23.6706C282.659 23.6706 278.922 19.9335 278.922 15.3237Z" stroke="#E2063A" stroke-width="1.15929"/>
<path d="M300.254 15.3237C300.254 10.7138 303.991 6.97676 308.601 6.97676C313.211 6.97676 316.948 10.7138 316.948 15.3237C316.948 19.9335 313.211 23.6706 308.601 23.6706C303.991 23.6706 300.254 19.9335 300.254 15.3237Z" stroke="#E2063A" stroke-width="1.15929"/>
<path d="M321.586 15.3236C321.586 10.7138 325.323 6.97675 329.933 6.97675C334.543 6.97675 338.28 10.7138 338.28 15.3236C338.28 19.9335 334.543 23.6706 329.933 23.6706C325.323 23.6706 321.586 19.9335 321.586 15.3236Z" stroke="#E2063A" stroke-width="1.15929"/>
<path d="M342.914 15.3236C342.914 10.7138 346.651 6.97675 351.261 6.97675C355.871 6.97675 359.608 10.7138 359.608 15.3236C359.608 19.9335 355.871 23.6706 351.261 23.6706C346.651 23.6706 342.914 19.9335 342.914 15.3236Z" stroke="#E2063A" stroke-width="1.15929"/>
<path d="M1.61719 260.166C1.61719 255.556 5.35422 251.819 9.96409 251.819C14.574 251.819 18.311 255.556 18.311 260.166C18.311 264.776 14.574 268.513 9.96409 268.513C5.35422 268.513 1.61719 264.776 1.61719 260.166Z" stroke="#E2063A" stroke-width="1.15929"/>
<path d="M22.9531 260.166C22.9531 255.556 26.6902 251.819 31.3 251.819C35.9099 251.819 39.6469 255.556 39.6469 260.166C39.6469 264.776 35.9099 268.513 31.3 268.513C26.6902 268.513 22.9531 264.776 22.9531 260.166Z" stroke="#E2063A" stroke-width="1.15929"/>
<path d="M44.2812 260.166C44.2812 255.556 48.0183 251.819 52.6282 251.819C57.238 251.819 60.9751 255.556 60.9751 260.166C60.9751 264.776 57.238 268.513 52.6282 268.513C48.0183 268.513 44.2812 264.776 44.2812 260.166Z" stroke="#E2063A" stroke-width="1.15929"/>
<path d="M65.6133 260.166C65.6133 255.556 69.3503 251.819 73.9602 251.819C78.5701 251.819 82.3071 255.556 82.3071 260.166C82.3071 264.776 78.5701 268.513 73.9602 268.513C69.3503 268.513 65.6133 264.776 65.6133 260.166Z" stroke="#E2063A" stroke-width="1.15929"/>
<path d="M86.9453 260.166C86.9453 255.556 90.6823 251.819 95.2922 251.819C99.9021 251.819 103.639 255.556 103.639 260.166C103.639 264.776 99.9021 268.513 95.2922 268.513C90.6823 268.513 86.9453 264.776 86.9453 260.166Z" stroke="#E2063A" stroke-width="1.15929"/>
<path d="M108.273 260.166C108.273 255.556 112.01 251.819 116.62 251.819C121.23 251.819 124.967 255.556 124.967 260.166C124.967 264.776 121.23 268.513 116.62 268.513C112.01 268.513 108.273 264.776 108.273 260.166Z" stroke="#E2063A" stroke-width="1.15929"/>
<path d="M129.605 260.166C129.605 255.556 133.343 251.819 137.952 251.819C142.562 251.819 146.299 255.556 146.299 260.166C146.299 264.776 142.562 268.513 137.952 268.513C133.343 268.513 129.605 264.776 129.605 260.166Z" stroke="#E2063A" stroke-width="1.15929"/>
<path d="M150.938 260.166C150.938 255.556 154.675 251.819 159.284 251.819C163.894 251.819 167.631 255.556 167.631 260.166C167.631 264.776 163.894 268.513 159.284 268.513C154.675 268.513 150.938 264.776 150.938 260.166Z" stroke="#E2063A" stroke-width="1.15929"/>
<path d="M172.27 260.166C172.27 255.556 176.007 251.819 180.616 251.819C185.226 251.819 188.963 255.556 188.963 260.166C188.963 264.776 185.226 268.513 180.616 268.513C176.007 268.513 172.27 264.776 172.27 260.166Z" stroke="#E2063A" stroke-width="1.15929"/>
<path d="M193.598 260.166C193.598 255.556 197.335 251.819 201.945 251.819C206.554 251.819 210.291 255.556 210.291 260.166C210.291 264.776 206.554 268.513 201.945 268.513C197.335 268.513 193.598 264.776 193.598 260.166Z" stroke="#E2063A" stroke-width="1.15929"/>
<path d="M214.93 260.166C214.93 255.556 218.667 251.819 223.277 251.819C227.886 251.819 231.623 255.556 231.623 260.166C231.623 264.776 227.886 268.513 223.277 268.513C218.667 268.513 214.93 264.776 214.93 260.166Z" stroke="#E2063A" stroke-width="1.15929"/>
<path d="M236.258 260.166C236.258 255.556 239.995 251.819 244.605 251.819C249.215 251.819 252.952 255.556 252.952 260.166C252.952 264.776 249.215 268.513 244.605 268.513C239.995 268.513 236.258 264.776 236.258 260.166Z" stroke="#E2063A" stroke-width="1.15929"/>
<path d="M257.594 260.166C257.594 255.556 261.331 251.819 265.941 251.819C270.551 251.819 274.288 255.556 274.288 260.166C274.288 264.776 270.551 268.513 265.941 268.513C261.331 268.513 257.594 264.776 257.594 260.166Z" stroke="#E2063A" stroke-width="1.15929"/>
<path d="M278.922 260.166C278.922 255.556 282.659 251.819 287.269 251.819C291.879 251.819 295.616 255.556 295.616 260.166C295.616 264.776 291.879 268.513 287.269 268.513C282.659 268.513 278.922 264.776 278.922 260.166Z" stroke="#E2063A" stroke-width="1.15929"/>
<path d="M300.254 260.166C300.254 255.556 303.991 251.819 308.601 251.819C313.211 251.819 316.948 255.556 316.948 260.166C316.948 264.776 313.211 268.513 308.601 268.513C303.991 268.513 300.254 264.776 300.254 260.166Z" stroke="#E2063A" stroke-width="1.15929"/>
<path d="M321.586 260.166C321.586 255.556 325.323 251.819 329.933 251.819C334.543 251.819 338.28 255.556 338.28 260.166C338.28 264.776 334.543 268.513 329.933 268.513C325.323 268.513 321.586 264.776 321.586 260.166Z" stroke="#E2063A" stroke-width="1.15929"/>
<path d="M342.914 260.166C342.914 255.556 346.651 251.819 351.261 251.819C355.871 251.819 359.608 255.556 359.608 260.166C359.608 264.776 355.871 268.513 351.261 268.513C346.651 268.513 342.914 264.776 342.914 260.166Z" stroke="#E2063A" stroke-width="1.15929"/>
<path d="M1.61719 37.5821C1.61719 32.9722 5.35422 29.2352 9.96409 29.2352C14.574 29.2352 18.311 32.9722 18.311 37.5821C18.311 42.1919 14.574 45.929 9.96409 45.929C5.35422 45.929 1.61719 42.1919 1.61719 37.5821Z" stroke="#E2063A" stroke-width="1.15929"/>
<path d="M129.605 37.5821C129.605 32.9723 133.343 29.2352 137.952 29.2352C142.562 29.2352 146.299 32.9723 146.299 37.5821C146.299 42.192 142.562 45.929 137.952 45.929C133.343 45.929 129.605 42.192 129.605 37.5821Z" stroke="#E2063A" stroke-width="1.15929"/>
<path d="M150.938 37.5821C150.938 32.9722 154.675 29.2352 159.284 29.2352C163.894 29.2352 167.631 32.9722 167.631 37.5821C167.631 42.192 163.894 45.929 159.284 45.929C154.675 45.929 150.938 42.192 150.938 37.5821Z" stroke="#E2063A" stroke-width="1.15929"/>
<path d="M172.27 37.5821C172.27 32.9722 176.007 29.2352 180.616 29.2352C185.226 29.2352 188.963 32.9722 188.963 37.5821C188.963 42.1919 185.226 45.929 180.616 45.929C176.007 45.929 172.27 42.1919 172.27 37.5821Z" stroke="#E2063A" stroke-width="1.15929"/>
<path d="M193.598 37.5821C193.598 32.9722 197.335 29.2352 201.945 29.2352C206.554 29.2352 210.291 32.9722 210.291 37.5821C210.291 42.192 206.554 45.929 201.945 45.929C197.335 45.929 193.598 42.192 193.598 37.5821Z" stroke="#E2063A" stroke-width="1.15929"/>
<path d="M214.93 37.5821C214.93 32.9723 218.667 29.2352 223.277 29.2352C227.886 29.2352 231.623 32.9723 231.623 37.5821C231.623 42.192 227.886 45.929 223.277 45.929C218.667 45.929 214.93 42.192 214.93 37.5821Z" stroke="#E2063A" stroke-width="1.15929"/>
<path d="M236.258 37.5821C236.258 32.9722 239.995 29.2352 244.605 29.2352C249.215 29.2352 252.952 32.9722 252.952 37.5821C252.952 42.1919 249.215 45.929 244.605 45.929C239.995 45.929 236.258 42.1919 236.258 37.5821Z" stroke="#E2063A" stroke-width="1.15929"/>
<path d="M257.594 37.5821C257.594 32.9722 261.331 29.2352 265.941 29.2352C270.551 29.2352 274.288 32.9722 274.288 37.5821C274.288 42.1919 270.551 45.929 265.941 45.929C261.331 45.929 257.594 42.1919 257.594 37.5821Z" stroke="#E2063A" stroke-width="1.15929"/>
<path d="M278.922 37.5821C278.922 32.9722 282.659 29.2352 287.269 29.2352C291.879 29.2352 295.616 32.9722 295.616 37.5821C295.616 42.192 291.879 45.929 287.269 45.929C282.659 45.929 278.922 42.192 278.922 37.5821Z" stroke="#E2063A" stroke-width="1.15929"/>
<path d="M300.254 37.5821C300.254 32.9722 303.991 29.2352 308.601 29.2352C313.211 29.2352 316.948 32.9722 316.948 37.5821C316.948 42.192 313.211 45.929 308.601 45.929C303.991 45.929 300.254 42.192 300.254 37.5821Z" stroke="#E2063A" stroke-width="1.15929"/>
<path d="M321.586 37.5821C321.586 32.9722 325.323 29.2352 329.933 29.2352C334.543 29.2352 338.28 32.9722 338.28 37.5821C338.28 42.1919 334.543 45.929 329.933 45.929C325.323 45.929 321.586 42.1919 321.586 37.5821Z" stroke="#E2063A" stroke-width="1.15929"/>
<path d="M342.914 37.5821C342.914 32.9722 346.651 29.2352 351.261 29.2352C355.871 29.2352 359.608 32.9722 359.608 37.5821C359.608 42.1919 355.871 45.929 351.261 45.929C346.651 45.929 342.914 42.1919 342.914 37.5821Z" stroke="#E2063A" stroke-width="1.15929"/>
<path d="M30.4746 36.9881V41.0897H28.834V37.0164L25.0719 31.1893H27.0237L29.0179 34.4989C29.3573 35.0835 29.5695 35.4606 29.6543 35.6303H29.6826C29.8146 35.3569 30.0362 34.975 30.3474 34.4847L32.3557 31.1893H34.3358L30.4746 36.9881ZM36.0269 41.2453C35.3009 41.2453 34.6597 41.0897 34.1034 40.7785C33.5471 40.4674 33.1181 40.0384 32.8164 39.4915C32.5146 38.9352 32.3638 38.3129 32.3638 37.6246C32.3638 36.9268 32.5194 36.2998 32.8305 35.7435C33.1417 35.1777 33.5848 34.7393 34.16 34.4282C34.7352 34.1076 35.3952 33.9473 36.1401 33.9473C36.8661 33.9473 37.5073 34.1029 38.0636 34.414C38.6199 34.7252 39.0442 35.1589 39.3365 35.7152C39.6382 36.2621 39.789 36.8797 39.789 37.568C39.789 38.2657 39.6335 38.8975 39.3223 39.4632C39.0112 40.0195 38.568 40.4579 37.9928 40.7785C37.4271 41.0897 36.7718 41.2453 36.0269 41.2453ZM36.0693 39.8451C36.4936 39.8451 36.8661 39.7461 37.1867 39.548C37.5167 39.35 37.7713 39.0813 37.9504 38.7419C38.1296 38.4024 38.2191 38.03 38.2191 37.6246C38.2191 37.2003 38.1296 36.8184 37.9504 36.4789C37.7807 36.1301 37.5308 35.8566 37.2008 35.6586C36.8802 35.4512 36.5125 35.3475 36.0976 35.3475C35.6733 35.3475 35.2962 35.4465 34.9662 35.6445C34.6456 35.8425 34.3957 36.1112 34.2166 36.4507C34.0374 36.7901 33.9478 37.1625 33.9478 37.568C33.9478 37.9923 34.0327 38.3789 34.2024 38.7277C34.3816 39.0672 34.6314 39.3406 34.952 39.548C35.282 39.7461 35.6545 39.8451 36.0693 39.8451ZM43.221 41.2311C42.3064 41.2311 41.5804 40.9294 41.0429 40.3259C40.5149 39.7225 40.2509 38.9163 40.2509 37.9074V34.1029H41.835V37.865C41.835 38.4684 41.9906 38.9493 42.3017 39.3076C42.6129 39.6565 43.0372 39.8309 43.5746 39.8309C44.1121 39.8309 44.5505 39.6376 44.8899 39.251C45.2388 38.8645 45.4132 38.3742 45.4132 37.7801V34.1029H46.9973V41.0897H45.5405C45.5405 40.5994 45.5547 40.2175 45.583 39.9441H45.5405C45.3142 40.3684 44.9984 40.6889 44.5929 40.9058C44.1969 41.1227 43.7396 41.2311 43.221 41.2311ZM49.0507 31.0903C49.3242 31.0903 49.5363 31.1799 49.6872 31.359C49.8475 31.5288 49.9276 31.7598 49.9276 32.0521C49.9276 32.5895 49.64 33.3768 49.0649 34.414L48.3153 34.0604C48.5322 33.5701 48.6783 33.1175 48.7537 32.7027C48.5746 32.6649 48.4284 32.5754 48.3153 32.4339C48.2116 32.2925 48.1597 32.1275 48.1597 31.9389C48.1597 31.6938 48.2399 31.491 48.4001 31.3308C48.5699 31.1705 48.7867 31.0903 49.0507 31.0903ZM52.0784 34.1029C52.0784 34.4517 52.0643 34.8336 52.036 35.2485H52.0643C52.2151 34.8807 52.4744 34.5743 52.8422 34.3291C53.2099 34.084 53.6483 33.9614 54.1575 33.9614C54.5158 33.9614 54.8317 34.0086 55.1051 34.1029L54.6949 35.503C54.5064 35.4276 54.2754 35.3899 54.0019 35.3899C53.455 35.3899 53.0166 35.5785 52.6866 35.9556C52.3566 36.3328 52.1916 36.8372 52.1916 37.469V41.0897H50.6075V34.1029H52.0784ZM61.5775 37.5255C61.5775 37.6858 61.568 37.898 61.5492 38.162H56.203C56.2501 38.69 56.467 39.1096 56.8536 39.4208C57.2496 39.7319 57.7399 39.8875 58.3245 39.8875C58.6922 39.8875 59.0694 39.8262 59.4559 39.7036C59.8425 39.5716 60.1867 39.3736 60.4884 39.1096L61.238 40.1562C60.8986 40.5145 60.4601 40.788 59.9227 40.9765C59.3852 41.1557 58.8336 41.2453 58.2679 41.2453C57.5419 41.2453 56.9007 41.0991 56.3444 40.8068C55.7975 40.5051 55.3685 40.0808 55.0574 39.5339C54.7556 38.9776 54.6048 38.3317 54.6048 37.5963C54.6048 36.8797 54.7603 36.2479 55.0715 35.7011C55.3921 35.1447 55.8305 34.7157 56.3868 34.414C56.9526 34.1029 57.589 33.9473 58.2962 33.9473C59.2768 33.9473 60.0688 34.2537 60.6723 34.8666C61.2757 35.4795 61.5775 36.3658 61.5775 37.5255ZM58.2396 35.305C57.7022 35.305 57.2543 35.4465 56.896 35.7293C56.5377 36.0028 56.3114 36.4129 56.2171 36.9598H60.0783C60.0405 36.4224 59.8567 36.0122 59.5267 35.7293C59.1967 35.4465 58.7676 35.305 58.2396 35.305ZM72.0214 41.0897L71.088 39.0247H65.8974L64.9639 41.0897H63.1818L67.5946 31.1893H69.4191L73.8318 41.0897H72.0214ZM66.5197 37.5538H70.4657L69.1503 34.3857C69.1126 34.3103 69.0655 34.1971 69.0089 34.0463C68.7072 33.3391 68.5422 32.929 68.5139 32.8158H68.4856L68.3583 33.1128L67.8209 34.3999L66.5197 37.5538ZM74.4012 34.1029L75.2073 36.7477C75.5468 37.8603 75.8108 38.7702 75.9994 39.4773H76.0277C76.2728 38.591 76.5415 37.6953 76.8338 36.7901L77.7107 34.1029H79.0261L79.8747 36.776C80.2518 37.964 80.5205 38.8645 80.6808 39.4773H80.7091C80.8694 38.8362 81.1287 37.931 81.487 36.7618L82.3073 34.1029H83.9621L81.586 41.0897H79.8322L79.2665 39.2369C78.8799 38.0677 78.5829 37.073 78.3755 36.2526H78.3472C78.1774 36.875 77.8757 37.8697 77.442 39.2369L76.8621 41.0897H75.0942L72.7181 34.1029H74.4012ZM90.3791 37.5255C90.3791 37.6858 90.3697 37.898 90.3508 38.162H85.0046C85.0517 38.69 85.2686 39.1096 85.6552 39.4208C86.0512 39.7319 86.5415 39.8875 87.1261 39.8875C87.4938 39.8875 87.871 39.8262 88.2576 39.7036C88.6442 39.5716 88.9883 39.3736 89.29 39.1096L90.0396 40.1562C89.7002 40.5145 89.2618 40.788 88.7243 40.9765C88.1869 41.1557 87.6353 41.2453 87.0695 41.2453C86.3435 41.2453 85.7023 41.0991 85.146 40.8068C84.5992 40.5051 84.1701 40.0808 83.859 39.5339C83.5573 38.9776 83.4064 38.3317 83.4064 37.5963C83.4064 36.8797 83.562 36.2479 83.8731 35.7011C84.1937 35.1447 84.6322 34.7157 85.1885 34.414C85.7542 34.1029 86.3907 33.9473 87.0978 33.9473C88.0784 33.9473 88.8705 34.2537 89.4739 34.8666C90.0774 35.4795 90.3791 36.3658 90.3791 37.5255ZM87.0412 35.305C86.5038 35.305 86.0559 35.4465 85.6976 35.7293C85.3393 36.0028 85.113 36.4129 85.0187 36.9598H88.8799C88.8422 36.4224 88.6583 36.0122 88.3283 35.7293C87.9983 35.4465 87.5693 35.305 87.0412 35.305ZM93.3579 41.2877C92.811 41.2877 92.2877 41.2217 91.788 41.0897C91.2883 40.9482 90.7744 40.7314 90.2464 40.4391L90.897 39.2369C91.755 39.6989 92.5847 39.9299 93.3862 39.9299C93.7728 39.9299 94.0839 39.8498 94.3197 39.6895C94.5554 39.5292 94.6733 39.317 94.6733 39.053C94.6733 38.789 94.5554 38.5863 94.3197 38.4449C94.0934 38.294 93.7351 38.195 93.2448 38.1479C92.3585 38.0536 91.6843 37.832 91.2223 37.4831C90.7697 37.1248 90.5434 36.6534 90.5434 36.0688C90.5434 35.437 90.8027 34.9279 91.3213 34.5413C91.8399 34.1547 92.5187 33.9614 93.3579 33.9614C93.8011 33.9614 94.2395 34.018 94.6733 34.1311C95.1164 34.2349 95.5219 34.3857 95.8896 34.5837L95.3946 35.8001C95.0457 35.6209 94.6874 35.4842 94.3197 35.3899C93.9614 35.2956 93.6266 35.2485 93.3155 35.2485C92.9289 35.2485 92.6272 35.3192 92.4103 35.4606C92.1934 35.6021 92.085 35.7953 92.085 36.0405C92.085 36.2856 92.1887 36.4789 92.3962 36.6204C92.6036 36.7524 92.9383 36.8467 93.4004 36.9032C94.4187 37.0352 95.1447 37.271 95.5784 37.6104C96.0122 37.9404 96.229 38.4307 96.229 39.0813C96.229 39.7413 95.965 40.2741 95.437 40.6795C94.909 41.085 94.216 41.2877 93.3579 41.2877ZM99.9096 41.2453C99.1836 41.2453 98.5424 41.0897 97.9861 40.7785C97.4298 40.4674 97.0008 40.0384 96.6991 39.4915C96.3973 38.9352 96.2465 38.3129 96.2465 37.6246C96.2465 36.9268 96.4021 36.2998 96.7132 35.7435C97.0244 35.1777 97.4675 34.7393 98.0427 34.4282C98.6179 34.1076 99.2779 33.9473 100.023 33.9473C100.749 33.9473 101.39 34.1029 101.946 34.414C102.503 34.7252 102.927 35.1589 103.219 35.7152C103.521 36.2621 103.672 36.8797 103.672 37.568C103.672 38.2657 103.516 38.8975 103.205 39.4632C102.894 40.0195 102.451 40.4579 101.876 40.7785C101.31 41.0897 100.654 41.2453 99.9096 41.2453ZM99.952 39.8451C100.376 39.8451 100.749 39.7461 101.069 39.548C101.399 39.35 101.654 39.0813 101.833 38.7419C102.012 38.4024 102.102 38.03 102.102 37.6246C102.102 37.2003 102.012 36.8184 101.833 36.4789C101.663 36.1301 101.414 35.8566 101.084 35.6586C100.763 35.4512 100.395 35.3475 99.9803 35.3475C99.556 35.3475 99.1789 35.4465 98.8489 35.6445C98.5283 35.8425 98.2784 36.1112 98.0993 36.4507C97.9201 36.7901 97.8305 37.1625 97.8305 37.568C97.8305 37.9923 97.9154 38.3789 98.0851 38.7277C98.2643 39.0672 98.5141 39.3406 98.8347 39.548C99.1647 39.7461 99.5372 39.8451 99.952 39.8451ZM112.591 33.9614C113.468 33.9614 114.157 34.2301 114.656 34.7676C115.156 35.305 115.406 36.0075 115.406 36.875V41.0897H113.822V37.1012C113.822 36.5827 113.69 36.1678 113.426 35.8566C113.162 35.536 112.789 35.3758 112.308 35.3758C111.799 35.3758 111.389 35.5408 111.078 35.8708C110.767 36.2008 110.611 36.6204 110.611 37.1295V41.0897H109.041V37.1154C109.041 36.5874 108.9 36.1678 108.617 35.8566C108.344 35.536 107.962 35.3758 107.471 35.3758C106.981 35.3758 106.585 35.5408 106.283 35.8708C105.982 36.1914 105.831 36.6109 105.831 37.1295V41.0897H104.247V34.1029H105.704C105.704 34.4894 105.661 34.9137 105.576 35.3758H105.619C105.77 34.9232 106.038 34.5743 106.425 34.3291C106.821 34.084 107.278 33.9614 107.797 33.9614C108.315 33.9614 108.773 34.0793 109.169 34.315C109.574 34.5507 109.871 34.9043 110.06 35.3758C110.295 34.876 110.635 34.5177 111.078 34.3009C111.531 34.0746 112.035 33.9614 112.591 33.9614ZM122.813 37.5255C122.813 37.6858 122.804 37.898 122.785 38.162H117.439C117.486 38.69 117.703 39.1096 118.089 39.4208C118.485 39.7319 118.976 39.8875 119.56 39.8875C119.928 39.8875 120.305 39.8262 120.692 39.7036C121.078 39.5716 121.422 39.3736 121.724 39.1096L122.474 40.1562C122.134 40.5145 121.696 40.788 121.158 40.9765C120.621 41.1557 120.069 41.2453 119.504 41.2453C118.778 41.2453 118.136 41.0991 117.58 40.8068C117.033 40.5051 116.604 40.0808 116.293 39.5339C115.991 38.9776 115.841 38.3317 115.841 37.5963C115.841 36.8797 115.996 36.2479 116.307 35.7011C116.628 35.1447 117.066 34.7157 117.623 34.414C118.188 34.1029 118.825 33.9473 119.532 33.9473C120.513 33.9473 121.305 34.2537 121.908 34.8666C122.512 35.4795 122.813 36.3658 122.813 37.5255ZM119.475 35.305C118.938 35.305 118.49 35.4465 118.132 35.7293C117.773 36.0028 117.547 36.4129 117.453 36.9598H121.314C121.276 36.4224 121.092 36.0122 120.762 35.7293C120.432 35.4465 120.003 35.305 119.475 35.305Z" fill="#E2063A"/>
<path d="M1.61719 59.8401C1.61719 55.2302 5.35422 51.4932 9.96409 51.4932C14.574 51.4932 18.311 55.2302 18.311 59.8401C18.311 64.45 14.574 68.187 9.96409 68.187C5.35422 68.187 1.61719 64.45 1.61719 59.8401Z" stroke="#E2063A" stroke-width="1.15929"/>
<path d="M22.9531 59.8401C22.9531 55.2302 26.6902 51.4932 31.3 51.4932C35.9099 51.4932 39.6469 55.2302 39.6469 59.8401C39.6469 64.45 35.9099 68.187 31.3 68.187C26.6902 68.187 22.9531 64.45 22.9531 59.8401Z" stroke="#E2063A" stroke-width="1.15929"/>
<path d="M44.2812 59.8401C44.2812 55.2302 48.0183 51.4932 52.6282 51.4932C57.238 51.4932 60.9751 55.2302 60.9751 59.8401C60.9751 64.45 57.238 68.187 52.6282 68.187C48.0183 68.187 44.2812 64.45 44.2812 59.8401Z" stroke="#E2063A" stroke-width="1.15929"/>
<path d="M65.6133 59.8401C65.6133 55.2302 69.3503 51.4932 73.9602 51.4932C78.5701 51.4932 82.3071 55.2302 82.3071 59.8401C82.3071 64.45 78.5701 68.187 73.9602 68.187C69.3503 68.187 65.6133 64.45 65.6133 59.8401Z" stroke="#E2063A" stroke-width="1.15929"/>
<path d="M86.9453 59.8401C86.9453 55.2302 90.6823 51.4932 95.2922 51.4932C99.9021 51.4932 103.639 55.2302 103.639 59.8401C103.639 64.45 99.9021 68.187 95.2922 68.187C90.6823 68.187 86.9453 64.45 86.9453 59.8401Z" stroke="#E2063A" stroke-width="1.15929"/>
<path d="M108.273 59.8401C108.273 55.2302 112.01 51.4932 116.62 51.4932C121.23 51.4932 124.967 55.2302 124.967 59.8401C124.967 64.45 121.23 68.187 116.62 68.187C112.01 68.187 108.273 64.45 108.273 59.8401Z" stroke="#E2063A" stroke-width="1.15929"/>
<path d="M129.605 59.84C129.605 55.2301 133.343 51.4931 137.952 51.4931C142.562 51.4931 146.299 55.2301 146.299 59.84C146.299 64.4499 142.562 68.1869 137.952 68.1869C133.343 68.1869 129.605 64.4499 129.605 59.84Z" stroke="#E2063A" stroke-width="1.15929"/>
<path d="M150.938 59.8401C150.938 55.2302 154.675 51.4932 159.284 51.4932C163.894 51.4932 167.631 55.2302 167.631 59.8401C167.631 64.45 163.894 68.187 159.284 68.187C154.675 68.187 150.938 64.45 150.938 59.8401Z" stroke="#E2063A" stroke-width="1.15929"/>
<path d="M172.27 59.8401C172.27 55.2302 176.007 51.4932 180.616 51.4932C185.226 51.4932 188.963 55.2302 188.963 59.8401C188.963 64.45 185.226 68.187 180.616 68.187C176.007 68.187 172.27 64.45 172.27 59.8401Z" stroke="#E2063A" stroke-width="1.15929"/>
<path d="M193.598 59.8401C193.598 55.2302 197.335 51.4932 201.945 51.4932C206.554 51.4932 210.291 55.2302 210.291 59.8401C210.291 64.45 206.554 68.187 201.945 68.187C197.335 68.187 193.598 64.45 193.598 59.8401Z" stroke="#E2063A" stroke-width="1.15929"/>
<path d="M214.93 59.84C214.93 55.2301 218.667 51.4931 223.277 51.4931C227.886 51.4931 231.623 55.2301 231.623 59.84C231.623 64.4499 227.886 68.1869 223.277 68.1869C218.667 68.1869 214.93 64.4499 214.93 59.84Z" stroke="#E2063A" stroke-width="1.15929"/>
<path d="M236.258 59.8401C236.258 55.2302 239.995 51.4932 244.605 51.4932C249.215 51.4932 252.952 55.2302 252.952 59.8401C252.952 64.45 249.215 68.187 244.605 68.187C239.995 68.187 236.258 64.45 236.258 59.8401Z" stroke="#E2063A" stroke-width="1.15929"/>
<path d="M257.594 59.8401C257.594 55.2302 261.331 51.4932 265.941 51.4932C270.551 51.4932 274.288 55.2302 274.288 59.8401C274.288 64.45 270.551 68.187 265.941 68.187C261.331 68.187 257.594 64.45 257.594 59.8401Z" stroke="#E2063A" stroke-width="1.15929"/>
<path d="M278.922 59.8401C278.922 55.2302 282.659 51.4932 287.269 51.4932C291.879 51.4932 295.616 55.2302 295.616 59.8401C295.616 64.45 291.879 68.187 287.269 68.187C282.659 68.187 278.922 64.45 278.922 59.8401Z" stroke="#E2063A" stroke-width="1.15929"/>
<path d="M300.254 59.8401C300.254 55.2302 303.991 51.4932 308.601 51.4932C313.211 51.4932 316.948 55.2302 316.948 59.8401C316.948 64.45 313.211 68.187 308.601 68.187C303.991 68.187 300.254 64.45 300.254 59.8401Z" stroke="#E2063A" stroke-width="1.15929"/>
<path d="M321.586 59.8401C321.586 55.2302 325.323 51.4932 329.933 51.4932C334.543 51.4932 338.28 55.2302 338.28 59.8401C338.28 64.45 334.543 68.187 329.933 68.187C325.323 68.187 321.586 64.45 321.586 59.8401Z" stroke="#E2063A" stroke-width="1.15929"/>
<path d="M342.914 59.8401C342.914 55.2302 346.651 51.4932 351.261 51.4932C355.871 51.4932 359.608 55.2302 359.608 59.8401C359.608 64.45 355.871 68.187 351.261 68.187C346.651 68.187 342.914 64.45 342.914 59.8401Z" stroke="#E2063A" stroke-width="1.15929"/>
<path d="M1.61719 82.0989C1.61719 77.489 5.35422 73.752 9.96409 73.752C14.574 73.752 18.311 77.489 18.311 82.0989C18.311 86.7087 14.574 90.4458 9.96409 90.4458C5.35422 90.4458 1.61719 86.7087 1.61719 82.0989Z" stroke="#E2063A" stroke-width="1.15929"/>
<path d="M22.9531 82.0989C22.9531 77.489 26.6902 73.752 31.3 73.752C35.9099 73.752 39.6469 77.489 39.6469 82.0989C39.6469 86.7087 35.9099 90.4458 31.3 90.4458C26.6902 90.4458 22.9531 86.7087 22.9531 82.0989Z" stroke="#E2063A" stroke-width="1.15929"/>
<path d="M44.2812 82.0989C44.2812 77.489 48.0183 73.752 52.6282 73.752C57.238 73.752 60.9751 77.489 60.9751 82.0989C60.9751 86.7088 57.238 90.4458 52.6282 90.4458C48.0183 90.4458 44.2812 86.7088 44.2812 82.0989Z" stroke="#E2063A" stroke-width="1.15929"/>
<path d="M65.6133 82.0989C65.6133 77.489 69.3503 73.752 73.9602 73.752C78.5701 73.752 82.3071 77.489 82.3071 82.0989C82.3071 86.7088 78.5701 90.4458 73.9602 90.4458C69.3503 90.4458 65.6133 86.7088 65.6133 82.0989Z" stroke="#E2063A" stroke-width="1.15929"/>
<path d="M86.9453 82.0989C86.9453 77.489 90.6823 73.752 95.2922 73.752C99.9021 73.752 103.639 77.489 103.639 82.0989C103.639 86.7087 99.9021 90.4458 95.2922 90.4458C90.6823 90.4458 86.9453 86.7087 86.9453 82.0989Z" stroke="#E2063A" stroke-width="1.15929"/>
<path d="M108.273 82.0989C108.273 77.489 112.01 73.752 116.62 73.752C121.23 73.752 124.967 77.489 124.967 82.0989C124.967 86.7087 121.23 90.4458 116.62 90.4458C112.01 90.4458 108.273 86.7087 108.273 82.0989Z" stroke="#E2063A" stroke-width="1.15929"/>
<path d="M129.605 82.0989C129.605 77.489 133.343 73.752 137.952 73.752C142.562 73.752 146.299 77.489 146.299 82.0989C146.299 86.7088 142.562 90.4458 137.952 90.4458C133.343 90.4458 129.605 86.7088 129.605 82.0989Z" stroke="#E2063A" stroke-width="1.15929"/>
<path d="M150.938 82.0989C150.938 77.489 154.675 73.752 159.284 73.752C163.894 73.752 167.631 77.489 167.631 82.0989C167.631 86.7088 163.894 90.4458 159.284 90.4458C154.675 90.4458 150.938 86.7088 150.938 82.0989Z" stroke="#E2063A" stroke-width="1.15929"/>
<path d="M172.27 82.0989C172.27 77.489 176.007 73.752 180.616 73.752C185.226 73.752 188.963 77.489 188.963 82.0989C188.963 86.7087 185.226 90.4458 180.616 90.4458C176.007 90.4458 172.27 86.7087 172.27 82.0989Z" stroke="#E2063A" stroke-width="1.15929"/>
<path d="M193.598 82.0989C193.598 77.489 197.335 73.752 201.945 73.752C206.554 73.752 210.291 77.489 210.291 82.0989C210.291 86.7088 206.554 90.4458 201.945 90.4458C197.335 90.4458 193.598 86.7088 193.598 82.0989Z" stroke="#E2063A" stroke-width="1.15929"/>
<path d="M214.93 82.0989C214.93 77.489 218.667 73.752 223.277 73.752C227.886 73.752 231.623 77.489 231.623 82.0989C231.623 86.7088 227.886 90.4458 223.277 90.4458C218.667 90.4458 214.93 86.7088 214.93 82.0989Z" stroke="#E2063A" stroke-width="1.15929"/>
<path d="M236.258 82.0989C236.258 77.489 239.995 73.752 244.605 73.752C249.215 73.752 252.952 77.489 252.952 82.0989C252.952 86.7087 249.215 90.4458 244.605 90.4458C239.995 90.4458 236.258 86.7087 236.258 82.0989Z" stroke="#E2063A" stroke-width="1.15929"/>
<path d="M257.594 82.0989C257.594 77.489 261.331 73.752 265.941 73.752C270.551 73.752 274.288 77.489 274.288 82.0989C274.288 86.7087 270.551 90.4458 265.941 90.4458C261.331 90.4458 257.594 86.7087 257.594 82.0989Z" stroke="#E2063A" stroke-width="1.15929"/>
<path d="M278.922 82.0989C278.922 77.489 282.659 73.752 287.269 73.752C291.879 73.752 295.616 77.489 295.616 82.0989C295.616 86.7088 291.879 90.4458 287.269 90.4458C282.659 90.4458 278.922 86.7088 278.922 82.0989Z" stroke="#E2063A" stroke-width="1.15929"/>
<path d="M300.254 82.0989C300.254 77.489 303.991 73.752 308.601 73.752C313.211 73.752 316.948 77.489 316.948 82.0989C316.948 86.7088 313.211 90.4458 308.601 90.4458C303.991 90.4458 300.254 86.7088 300.254 82.0989Z" stroke="#E2063A" stroke-width="1.15929"/>
<path d="M321.586 82.0989C321.586 77.489 325.323 73.752 329.933 73.752C334.543 73.752 338.28 77.489 338.28 82.0989C338.28 86.7087 334.543 90.4458 329.933 90.4458C325.323 90.4458 321.586 86.7087 321.586 82.0989Z" stroke="#E2063A" stroke-width="1.15929"/>
<path d="M342.914 82.0989C342.914 77.489 346.651 73.752 351.261 73.752C355.871 73.752 359.608 77.489 359.608 82.0989C359.608 86.7087 355.871 90.4458 351.261 90.4458C346.651 90.4458 342.914 86.7087 342.914 82.0989Z" stroke="#E2063A" stroke-width="1.15929"/>
<path d="M1.61719 104.358C1.61719 99.7478 5.35422 96.0108 9.96409 96.0108C14.574 96.0108 18.311 99.7478 18.311 104.358C18.311 108.968 14.574 112.705 9.96409 112.705C5.35422 112.705 1.61719 108.968 1.61719 104.358Z" stroke="#E2063A" stroke-width="1.15929"/>
<path d="M22.9531 104.358C22.9531 99.7478 26.6902 96.0108 31.3 96.0108C35.9099 96.0108 39.6469 99.7478 39.6469 104.358C39.6469 108.968 35.9099 112.705 31.3 112.705C26.6902 112.705 22.9531 108.968 22.9531 104.358Z" stroke="#E2063A" stroke-width="1.15929"/>
<path d="M44.2812 104.358C44.2812 99.7478 48.0183 96.0108 52.6282 96.0108C57.238 96.0108 60.9751 99.7478 60.9751 104.358C60.9751 108.968 57.238 112.705 52.6282 112.705C48.0183 112.705 44.2812 108.968 44.2812 104.358Z" stroke="#E2063A" stroke-width="1.15929"/>
<path d="M65.6133 104.358C65.6133 99.7478 69.3503 96.0108 73.9602 96.0108C78.5701 96.0108 82.3071 99.7478 82.3071 104.358C82.3071 108.968 78.5701 112.705 73.9602 112.705C69.3503 112.705 65.6133 108.968 65.6133 104.358Z" stroke="#E2063A" stroke-width="1.15929"/>
<path d="M86.9453 104.358C86.9453 99.7478 90.6823 96.0108 95.2922 96.0108C99.9021 96.0108 103.639 99.7478 103.639 104.358C103.639 108.968 99.9021 112.705 95.2922 112.705C90.6823 112.705 86.9453 108.968 86.9453 104.358Z" stroke="#E2063A" stroke-width="1.15929"/>
<path d="M108.273 104.358C108.273 99.7478 112.01 96.0108 116.62 96.0108C121.23 96.0108 124.967 99.7478 124.967 104.358C124.967 108.968 121.23 112.705 116.62 112.705C112.01 112.705 108.273 108.968 108.273 104.358Z" stroke="#E2063A" stroke-width="1.15929"/>
<path d="M129.605 104.358C129.605 99.7477 133.343 96.0106 137.952 96.0106C142.562 96.0106 146.299 99.7477 146.299 104.358C146.299 108.967 142.562 112.704 137.952 112.704C133.343 112.704 129.605 108.967 129.605 104.358Z" stroke="#E2063A" stroke-width="1.15929"/>
<path d="M150.938 104.358C150.938 99.7478 154.675 96.0108 159.284 96.0108C163.894 96.0108 167.631 99.7478 167.631 104.358C167.631 108.968 163.894 112.705 159.284 112.705C154.675 112.705 150.938 108.968 150.938 104.358Z" stroke="#E2063A" stroke-width="1.15929"/>
<path d="M172.27 104.358C172.27 99.7478 176.007 96.0108 180.616 96.0108C185.226 96.0108 188.963 99.7478 188.963 104.358C188.963 108.968 185.226 112.705 180.616 112.705C176.007 112.705 172.27 108.968 172.27 104.358Z" stroke="#E2063A" stroke-width="1.15929"/>
<path d="M193.598 104.358C193.598 99.7478 197.335 96.0108 201.945 96.0108C206.554 96.0108 210.291 99.7478 210.291 104.358C210.291 108.968 206.554 112.705 201.945 112.705C197.335 112.705 193.598 108.968 193.598 104.358Z" stroke="#E2063A" stroke-width="1.15929"/>
<path d="M214.93 104.358C214.93 99.7477 218.667 96.0106 223.277 96.0106C227.886 96.0106 231.623 99.7477 231.623 104.358C231.623 108.967 227.886 112.704 223.277 112.704C218.667 112.704 214.93 108.967 214.93 104.358Z" stroke="#E2063A" stroke-width="1.15929"/>
<path d="M236.258 104.358C236.258 99.7478 239.995 96.0108 244.605 96.0108C249.215 96.0108 252.952 99.7478 252.952 104.358C252.952 108.968 249.215 112.705 244.605 112.705C239.995 112.705 236.258 108.968 236.258 104.358Z" stroke="#E2063A" stroke-width="1.15929"/>
<path d="M257.594 104.358C257.594 99.7478 261.331 96.0108 265.941 96.0108C270.551 96.0108 274.288 99.7478 274.288 104.358C274.288 108.968 270.551 112.705 265.941 112.705C261.331 112.705 257.594 108.968 257.594 104.358Z" stroke="#E2063A" stroke-width="1.15929"/>
<path d="M278.922 104.358C278.922 99.7478 282.659 96.0108 287.269 96.0108C291.879 96.0108 295.616 99.7478 295.616 104.358C295.616 108.968 291.879 112.705 287.269 112.705C282.659 112.705 278.922 108.968 278.922 104.358Z" stroke="#E2063A" stroke-width="1.15929"/>
<path d="M300.254 104.358C300.254 99.7478 303.991 96.0108 308.601 96.0108C313.211 96.0108 316.948 99.7478 316.948 104.358C316.948 108.968 313.211 112.705 308.601 112.705C303.991 112.705 300.254 108.968 300.254 104.358Z" stroke="#E2063A" stroke-width="1.15929"/>
<path d="M321.586 104.358C321.586 99.7478 325.323 96.0108 329.933 96.0108C334.543 96.0108 338.28 99.7478 338.28 104.358C338.28 108.968 334.543 112.705 329.933 112.705C325.323 112.705 321.586 108.968 321.586 104.358Z" stroke="#E2063A" stroke-width="1.15929"/>
<path d="M342.914 104.358C342.914 99.7478 346.651 96.0108 351.261 96.0108C355.871 96.0108 359.608 99.7478 359.608 104.358C359.608 108.968 355.871 112.705 351.261 112.705C346.651 112.705 342.914 108.968 342.914 104.358Z" stroke="#E2063A" stroke-width="1.15929"/>
</svg>
