<svg width="1471" height="956" viewBox="0 0 1471 956" fill="none" xmlns="http://www.w3.org/2000/svg">
<path d="M-36 478C-36 458.118 -19.8822 442 0 442C19.8823 442 36 458.118 36 478C36 497.882 19.8823 514 0 514C-19.8822 514 -36 497.882 -36 478Z" stroke="#E2063A" stroke-width="5"/>
<path d="M56 478C56 458.118 72.1178 442 92 442C111.882 442 128 458.118 128 478C128 497.882 111.882 514 92 514C72.1178 514 56 497.882 56 478Z" stroke="#E2063A" stroke-width="5"/>
<path d="M148 478C148 458.118 164.118 442 184 442C203.882 442 220 458.118 220 478C220 497.882 203.882 514 184 514C164.118 514 148 497.882 148 478Z" stroke="#E2063A" stroke-width="5"/>
<path d="M240 478C240 458.118 256.118 442 276 442C295.882 442 312 458.118 312 478C312 497.882 295.882 514 276 514C256.118 514 240 497.882 240 478Z" stroke="#E2063A" stroke-width="5"/>
<path d="M332 478C332 458.118 348.118 442 368 442C387.882 442 404 458.118 404 478C404 497.882 387.882 514 368 514C348.118 514 332 497.882 332 478Z" stroke="#E2063A" stroke-width="5"/>
<path d="M424 478C424 458.118 440.118 442 460 442C479.882 442 496 458.118 496 478C496 497.882 479.882 514 460 514C440.118 514 424 497.882 424 478Z" stroke="#E2063A" stroke-width="5"/>
<path d="M516 478C516 458.118 532.118 442 552 442C571.882 442 588 458.118 588 478C588 497.882 571.882 514 552 514C532.118 514 516 497.882 516 478Z" stroke="#E2063A" stroke-width="5"/>
<path d="M608 478C608 458.118 624.118 442 644 442C663.882 442 680 458.118 680 478C680 497.882 663.882 514 644 514C624.118 514 608 497.882 608 478Z" stroke="#E2063A" stroke-width="5"/>
<path d="M700 478C700 458.118 716.118 442 736 442C755.882 442 772 458.118 772 478C772 497.882 755.882 514 736 514C716.118 514 700 497.882 700 478Z" stroke="#E2063A" stroke-width="5"/>
<path d="M792 478C792 458.118 808.118 442 828 442C847.882 442 864 458.118 864 478C864 497.882 847.882 514 828 514C808.118 514 792 497.882 792 478Z" stroke="#E2063A" stroke-width="5"/>
<path d="M884 478C884 458.118 900.118 442 920 442C939.882 442 956 458.118 956 478C956 497.882 939.882 514 920 514C900.118 514 884 497.882 884 478Z" stroke="#E2063A" stroke-width="5"/>
<path d="M976 478C976 458.118 992.118 442 1012 442C1031.88 442 1048 458.118 1048 478C1048 497.882 1031.88 514 1012 514C992.118 514 976 497.882 976 478Z" stroke="#E2063A" stroke-width="5"/>
<path d="M1068 478C1068 458.118 1084.12 442 1104 442C1123.88 442 1140 458.118 1140 478C1140 497.882 1123.88 514 1104 514C1084.12 514 1068 497.882 1068 478Z" stroke="#E2063A" stroke-width="5"/>
<path d="M1160 478C1160 458.118 1176.12 442 1196 442C1215.88 442 1232 458.118 1232 478C1232 497.882 1215.88 514 1196 514C1176.12 514 1160 497.882 1160 478Z" stroke="#E2063A" stroke-width="5"/>
<path d="M1252 478C1252 458.118 1268.12 442 1288 442C1307.88 442 1324 458.118 1324 478C1324 497.882 1307.88 514 1288 514C1268.12 514 1252 497.882 1252 478Z" stroke="#E2063A" stroke-width="5"/>
<path d="M1344 478C1344 458.118 1360.12 442 1380 442C1399.88 442 1416 458.118 1416 478C1416 497.882 1399.88 514 1380 514C1360.12 514 1344 497.882 1344 478Z" stroke="#E2063A" stroke-width="5"/>
<path d="M1436 478C1436 458.118 1452.12 442 1472 442C1491.88 442 1508 458.118 1508 478C1508 497.882 1491.88 514 1472 514C1452.12 514 1436 497.882 1436 478Z" stroke="#E2063A" stroke-width="5"/>
<path d="M-36 574C-36 554.118 -19.8822 538 0 538C19.8823 538 36 554.118 36 574C36 593.882 19.8823 610 0 610C-19.8822 610 -36 593.882 -36 574Z" stroke="#E2063A" stroke-width="5"/>
<path d="M56 574C56 554.118 72.1178 538 92 538C111.882 538 128 554.118 128 574C128 593.882 111.882 610 92 610C72.1178 610 56 593.882 56 574Z" stroke="#E2063A" stroke-width="5"/>
<path d="M148 574C148 554.118 164.118 538 184 538C203.882 538 220 554.118 220 574C220 593.882 203.882 610 184 610C164.118 610 148 593.882 148 574Z" stroke="#E2063A" stroke-width="5"/>
<path d="M240 574C240 554.118 256.118 538 276 538C295.882 538 312 554.118 312 574C312 593.882 295.882 610 276 610C256.118 610 240 593.882 240 574Z" stroke="#E2063A" stroke-width="5"/>
<path d="M332 574C332 554.118 348.118 538 368 538C387.882 538 404 554.118 404 574C404 593.882 387.882 610 368 610C348.118 610 332 593.882 332 574Z" stroke="#E2063A" stroke-width="5"/>
<path d="M424 574C424 554.118 440.118 538 460 538C479.882 538 496 554.118 496 574C496 593.882 479.882 610 460 610C440.118 610 424 593.882 424 574Z" stroke="#E2063A" stroke-width="5"/>
<path d="M516 574C516 554.118 532.118 538 552 538C571.882 538 588 554.118 588 574C588 593.882 571.882 610 552 610C532.118 610 516 593.882 516 574Z" stroke="#E2063A" stroke-width="5"/>
<path d="M608 574C608 554.118 624.118 538 644 538C663.882 538 680 554.118 680 574C680 593.882 663.882 610 644 610C624.118 610 608 593.882 608 574Z" stroke="#E2063A" stroke-width="5"/>
<path d="M700 574C700 554.118 716.118 538 736 538C755.882 538 772 554.118 772 574C772 593.882 755.882 610 736 610C716.118 610 700 593.882 700 574Z" stroke="#E2063A" stroke-width="5"/>
<path d="M792 574C792 554.118 808.118 538 828 538C847.882 538 864 554.118 864 574C864 593.882 847.882 610 828 610C808.118 610 792 593.882 792 574Z" stroke="#E2063A" stroke-width="5"/>
<path d="M884 574C884 554.118 900.118 538 920 538C939.882 538 956 554.118 956 574C956 593.882 939.882 610 920 610C900.118 610 884 593.882 884 574Z" stroke="#E2063A" stroke-width="5"/>
<path d="M976 574C976 554.118 992.118 538 1012 538C1031.88 538 1048 554.118 1048 574C1048 593.882 1031.88 610 1012 610C992.118 610 976 593.882 976 574Z" stroke="#E2063A" stroke-width="5"/>
<path d="M1068 574C1068 554.118 1084.12 538 1104 538C1123.88 538 1140 554.118 1140 574C1140 593.882 1123.88 610 1104 610C1084.12 610 1068 593.882 1068 574Z" stroke="#E2063A" stroke-width="5"/>
<path d="M1160 574C1160 554.118 1176.12 538 1196 538C1215.88 538 1232 554.118 1232 574C1232 593.882 1215.88 610 1196 610C1176.12 610 1160 593.882 1160 574Z" stroke="#E2063A" stroke-width="5"/>
<path d="M1252 574C1252 554.118 1268.12 538 1288 538C1307.88 538 1324 554.118 1324 574C1324 593.882 1307.88 610 1288 610C1268.12 610 1252 593.882 1252 574Z" stroke="#E2063A" stroke-width="5"/>
<path d="M1344 574C1344 554.118 1360.12 538 1380 538C1399.88 538 1416 554.118 1416 574C1416 593.882 1399.88 610 1380 610C1360.12 610 1344 593.882 1344 574Z" stroke="#E2063A" stroke-width="5"/>
<path d="M1436 574C1436 554.118 1452.12 538 1472 538C1491.88 538 1508 554.118 1508 574C1508 593.882 1491.88 610 1472 610C1452.12 610 1436 593.882 1436 574Z" stroke="#E2063A" stroke-width="5"/>
<path d="M-36 670C-36 650.118 -19.8822 634 0 634C19.8823 634 36 650.118 36 670C36 689.882 19.8823 706 0 706C-19.8822 706 -36 689.882 -36 670Z" stroke="#E2063A" stroke-width="5"/>
<path d="M56 670C56 650.118 72.1178 634 92 634C111.882 634 128 650.118 128 670C128 689.882 111.882 706 92 706C72.1178 706 56 689.882 56 670Z" stroke="#E2063A" stroke-width="5"/>
<path d="M148 670C148 650.118 164.118 634 184 634C203.882 634 220 650.118 220 670C220 689.882 203.882 706 184 706C164.118 706 148 689.882 148 670Z" stroke="#E2063A" stroke-width="5"/>
<path d="M240 670C240 650.118 256.118 634 276 634C295.882 634 312 650.118 312 670C312 689.882 295.882 706 276 706C256.118 706 240 689.882 240 670Z" stroke="#E2063A" stroke-width="5"/>
<path d="M332 670C332 650.118 348.118 634 368 634C387.882 634 404 650.118 404 670C404 689.882 387.882 706 368 706C348.118 706 332 689.882 332 670Z" stroke="#E2063A" stroke-width="5"/>
<path d="M424 670C424 650.118 440.118 634 460 634C479.882 634 496 650.118 496 670C496 689.882 479.882 706 460 706C440.118 706 424 689.882 424 670Z" stroke="#E2063A" stroke-width="5"/>
<path d="M516 670C516 650.118 532.118 634 552 634C571.882 634 588 650.118 588 670C588 689.882 571.882 706 552 706C532.118 706 516 689.882 516 670Z" stroke="#E2063A" stroke-width="5"/>
<path d="M608 670C608 650.118 624.118 634 644 634C663.882 634 680 650.118 680 670C680 689.882 663.882 706 644 706C624.118 706 608 689.882 608 670Z" stroke="#E2063A" stroke-width="5"/>
<path d="M700 670C700 650.118 716.118 634 736 634C755.882 634 772 650.118 772 670C772 689.882 755.882 706 736 706C716.118 706 700 689.882 700 670Z" stroke="#E2063A" stroke-width="5"/>
<path d="M792 670C792 650.118 808.118 634 828 634C847.882 634 864 650.118 864 670C864 689.882 847.882 706 828 706C808.118 706 792 689.882 792 670Z" stroke="#E2063A" stroke-width="5"/>
<path d="M884 670C884 650.118 900.118 634 920 634C939.882 634 956 650.118 956 670C956 689.882 939.882 706 920 706C900.118 706 884 689.882 884 670Z" stroke="#E2063A" stroke-width="5"/>
<path d="M976 670C976 650.118 992.118 634 1012 634C1031.88 634 1048 650.118 1048 670C1048 689.882 1031.88 706 1012 706C992.118 706 976 689.882 976 670Z" stroke="#E2063A" stroke-width="5"/>
<path d="M1068 670C1068 650.118 1084.12 634 1104 634C1123.88 634 1140 650.118 1140 670C1140 689.882 1123.88 706 1104 706C1084.12 706 1068 689.882 1068 670Z" stroke="#E2063A" stroke-width="5"/>
<path d="M1160 670C1160 650.118 1176.12 634 1196 634C1215.88 634 1232 650.118 1232 670C1232 689.882 1215.88 706 1196 706C1176.12 706 1160 689.882 1160 670Z" stroke="#E2063A" stroke-width="5"/>
<path d="M1252 670C1252 650.118 1268.12 634 1288 634C1307.88 634 1324 650.118 1324 670C1324 689.882 1307.88 706 1288 706C1268.12 706 1252 689.882 1252 670Z" stroke="#E2063A" stroke-width="5"/>
<path d="M1344 670C1344 650.118 1360.12 634 1380 634C1399.88 634 1416 650.118 1416 670C1416 689.882 1399.88 706 1380 706C1360.12 706 1344 689.882 1344 670Z" stroke="#E2063A" stroke-width="5"/>
<path d="M1436 670C1436 650.118 1452.12 634 1472 634C1491.88 634 1508 650.118 1508 670C1508 689.882 1491.88 706 1472 706C1452.12 706 1436 689.882 1436 670Z" stroke="#E2063A" stroke-width="5"/>
<path d="M-36 766C-36 746.118 -19.8822 730 0 730C19.8823 730 36 746.118 36 766C36 785.882 19.8823 802 0 802C-19.8822 802 -36 785.882 -36 766Z" stroke="#E2063A" stroke-width="5"/>
<path d="M56 766C56 746.118 72.1178 730 92 730C111.882 730 128 746.118 128 766C128 785.882 111.882 802 92 802C72.1178 802 56 785.882 56 766Z" stroke="#E2063A" stroke-width="5"/>
<path d="M148 766C148 746.118 164.118 730 184 730C203.882 730 220 746.118 220 766C220 785.882 203.882 802 184 802C164.118 802 148 785.882 148 766Z" stroke="#E2063A" stroke-width="5"/>
<path d="M240 766C240 746.118 256.118 730 276 730C295.882 730 312 746.118 312 766C312 785.882 295.882 802 276 802C256.118 802 240 785.882 240 766Z" stroke="#E2063A" stroke-width="5"/>
<path d="M332 766C332 746.118 348.118 730 368 730C387.882 730 404 746.118 404 766C404 785.882 387.882 802 368 802C348.118 802 332 785.882 332 766Z" stroke="#E2063A" stroke-width="5"/>
<path d="M424 766C424 746.118 440.118 730 460 730C479.882 730 496 746.118 496 766C496 785.882 479.882 802 460 802C440.118 802 424 785.882 424 766Z" stroke="#E2063A" stroke-width="5"/>
<path d="M516 766C516 746.118 532.118 730 552 730C571.882 730 588 746.118 588 766C588 785.882 571.882 802 552 802C532.118 802 516 785.882 516 766Z" stroke="#E2063A" stroke-width="5"/>
<path d="M608 766C608 746.118 624.118 730 644 730C663.882 730 680 746.118 680 766C680 785.882 663.882 802 644 802C624.118 802 608 785.882 608 766Z" stroke="#E2063A" stroke-width="5"/>
<path d="M700 766C700 746.118 716.118 730 736 730C755.882 730 772 746.118 772 766C772 785.882 755.882 802 736 802C716.118 802 700 785.882 700 766Z" stroke="#E2063A" stroke-width="5"/>
<path d="M792 766C792 746.118 808.118 730 828 730C847.882 730 864 746.118 864 766C864 785.882 847.882 802 828 802C808.118 802 792 785.882 792 766Z" stroke="#E2063A" stroke-width="5"/>
<path d="M884 766C884 746.118 900.118 730 920 730C939.882 730 956 746.118 956 766C956 785.882 939.882 802 920 802C900.118 802 884 785.882 884 766Z" stroke="#E2063A" stroke-width="5"/>
<path d="M976 766C976 746.118 992.118 730 1012 730C1031.88 730 1048 746.118 1048 766C1048 785.882 1031.88 802 1012 802C992.118 802 976 785.882 976 766Z" stroke="#E2063A" stroke-width="5"/>
<path d="M1068 766C1068 746.118 1084.12 730 1104 730C1123.88 730 1140 746.118 1140 766C1140 785.882 1123.88 802 1104 802C1084.12 802 1068 785.882 1068 766Z" stroke="#E2063A" stroke-width="5"/>
<path d="M1160 766C1160 746.118 1176.12 730 1196 730C1215.88 730 1232 746.118 1232 766C1232 785.882 1215.88 802 1196 802C1176.12 802 1160 785.882 1160 766Z" stroke="#E2063A" stroke-width="5"/>
<path d="M1252 766C1252 746.118 1268.12 730 1288 730C1307.88 730 1324 746.118 1324 766C1324 785.882 1307.88 802 1288 802C1268.12 802 1252 785.882 1252 766Z" stroke="#E2063A" stroke-width="5"/>
<path d="M1344 766C1344 746.118 1360.12 730 1380 730C1399.88 730 1416 746.118 1416 766C1416 785.882 1399.88 802 1380 802C1360.12 802 1344 785.882 1344 766Z" stroke="#E2063A" stroke-width="5"/>
<path d="M1436 766C1436 746.118 1452.12 730 1472 730C1491.88 730 1508 746.118 1508 766C1508 785.882 1491.88 802 1472 802C1452.12 802 1436 785.882 1436 766Z" stroke="#E2063A" stroke-width="5"/>
<path d="M-36 862C-36 842.118 -19.8822 826 0 826C19.8823 826 36 842.118 36 862C36 881.882 19.8823 898 0 898C-19.8822 898 -36 881.882 -36 862Z" stroke="#E2063A" stroke-width="5"/>
<path d="M56 862C56 842.118 72.1178 826 92 826C111.882 826 128 842.118 128 862C128 881.882 111.882 898 92 898C72.1178 898 56 881.882 56 862Z" stroke="#E2063A" stroke-width="5"/>
<path d="M148 862C148 842.118 164.118 826 184 826C203.882 826 220 842.118 220 862C220 881.882 203.882 898 184 898C164.118 898 148 881.882 148 862Z" stroke="#E2063A" stroke-width="5"/>
<path d="M240 862C240 842.118 256.118 826 276 826C295.882 826 312 842.118 312 862C312 881.882 295.882 898 276 898C256.118 898 240 881.882 240 862Z" stroke="#E2063A" stroke-width="5"/>
<path d="M332 862C332 842.118 348.118 826 368 826C387.882 826 404 842.118 404 862C404 881.882 387.882 898 368 898C348.118 898 332 881.882 332 862Z" stroke="#E2063A" stroke-width="5"/>
<path d="M424 862C424 842.118 440.118 826 460 826C479.882 826 496 842.118 496 862C496 881.882 479.882 898 460 898C440.118 898 424 881.882 424 862Z" stroke="#E2063A" stroke-width="5"/>
<path d="M516 862C516 842.118 532.118 826 552 826C571.882 826 588 842.118 588 862C588 881.882 571.882 898 552 898C532.118 898 516 881.882 516 862Z" stroke="#E2063A" stroke-width="5"/>
<path d="M608 862C608 842.118 624.118 826 644 826C663.882 826 680 842.118 680 862C680 881.882 663.882 898 644 898C624.118 898 608 881.882 608 862Z" stroke="#E2063A" stroke-width="5"/>
<path d="M700 862C700 842.118 716.118 826 736 826C755.882 826 772 842.118 772 862C772 881.882 755.882 898 736 898C716.118 898 700 881.882 700 862Z" stroke="#E2063A" stroke-width="5"/>
<path d="M792 862C792 842.118 808.118 826 828 826C847.882 826 864 842.118 864 862C864 881.882 847.882 898 828 898C808.118 898 792 881.882 792 862Z" stroke="#E2063A" stroke-width="5"/>
<path d="M884 862C884 842.118 900.118 826 920 826C939.882 826 956 842.118 956 862C956 881.882 939.882 898 920 898C900.118 898 884 881.882 884 862Z" stroke="#E2063A" stroke-width="5"/>
<path d="M976 862C976 842.118 992.118 826 1012 826C1031.88 826 1048 842.118 1048 862C1048 881.882 1031.88 898 1012 898C992.118 898 976 881.882 976 862Z" stroke="#E2063A" stroke-width="5"/>
<path d="M1068 862C1068 842.118 1084.12 826 1104 826C1123.88 826 1140 842.118 1140 862C1140 881.882 1123.88 898 1104 898C1084.12 898 1068 881.882 1068 862Z" stroke="#E2063A" stroke-width="5"/>
<path d="M1160 862C1160 842.118 1176.12 826 1196 826C1215.88 826 1232 842.118 1232 862C1232 881.882 1215.88 898 1196 898C1176.12 898 1160 881.882 1160 862Z" stroke="#E2063A" stroke-width="5"/>
<path d="M1252 862C1252 842.118 1268.12 826 1288 826C1307.88 826 1324 842.118 1324 862C1324 881.882 1307.88 898 1288 898C1268.12 898 1252 881.882 1252 862Z" stroke="#E2063A" stroke-width="5"/>
<path d="M1344 862C1344 842.118 1360.12 826 1380 826C1399.88 826 1416 842.118 1416 862C1416 881.882 1399.88 898 1380 898C1360.12 898 1344 881.882 1344 862Z" stroke="#E2063A" stroke-width="5"/>
<path d="M1436 862C1436 842.118 1452.12 826 1472 826C1491.88 826 1508 842.118 1508 862C1508 881.882 1491.88 898 1472 898C1452.12 898 1436 881.882 1436 862Z" stroke="#E2063A" stroke-width="5"/>
<path d="M-36 958C-36 938.118 -19.8822 922 0 922C19.8823 922 36 938.118 36 958C36 977.882 19.8823 994 0 994C-19.8822 994 -36 977.882 -36 958Z" stroke="#E2063A" stroke-width="5"/>
<path d="M56 958C56 938.118 72.1178 922 92 922C111.882 922 128 938.118 128 958C128 977.882 111.882 994 92 994C72.1178 994 56 977.882 56 958Z" stroke="#E2063A" stroke-width="5"/>
<path d="M148 958C148 938.118 164.118 922 184 922C203.882 922 220 938.118 220 958C220 977.882 203.882 994 184 994C164.118 994 148 977.882 148 958Z" stroke="#E2063A" stroke-width="5"/>
<path d="M240 958C240 938.118 256.118 922 276 922C295.882 922 312 938.118 312 958C312 977.882 295.882 994 276 994C256.118 994 240 977.882 240 958Z" stroke="#E2063A" stroke-width="5"/>
<path d="M332 958C332 938.118 348.118 922 368 922C387.882 922 404 938.118 404 958C404 977.882 387.882 994 368 994C348.118 994 332 977.882 332 958Z" stroke="#E2063A" stroke-width="5"/>
<path d="M424 958C424 938.118 440.118 922 460 922C479.882 922 496 938.118 496 958C496 977.882 479.882 994 460 994C440.118 994 424 977.882 424 958Z" stroke="#E2063A" stroke-width="5"/>
<path d="M516 958C516 938.118 532.118 922 552 922C571.882 922 588 938.118 588 958C588 977.882 571.882 994 552 994C532.118 994 516 977.882 516 958Z" stroke="#E2063A" stroke-width="5"/>
<path d="M608 958C608 938.118 624.118 922 644 922C663.882 922 680 938.118 680 958C680 977.882 663.882 994 644 994C624.118 994 608 977.882 608 958Z" stroke="#E2063A" stroke-width="5"/>
<path d="M700 958C700 938.118 716.118 922 736 922C755.882 922 772 938.118 772 958C772 977.882 755.882 994 736 994C716.118 994 700 977.882 700 958Z" stroke="#E2063A" stroke-width="5"/>
<path d="M792 958C792 938.118 808.118 922 828 922C847.882 922 864 938.118 864 958C864 977.882 847.882 994 828 994C808.118 994 792 977.882 792 958Z" stroke="#E2063A" stroke-width="5"/>
<path d="M884 958C884 938.118 900.118 922 920 922C939.882 922 956 938.118 956 958C956 977.882 939.882 994 920 994C900.118 994 884 977.882 884 958Z" stroke="#E2063A" stroke-width="5"/>
<path d="M976 958C976 938.118 992.118 922 1012 922C1031.88 922 1048 938.118 1048 958C1048 977.882 1031.88 994 1012 994C992.118 994 976 977.882 976 958Z" stroke="#E2063A" stroke-width="5"/>
<path d="M1068 958C1068 938.118 1084.12 922 1104 922C1123.88 922 1140 938.118 1140 958C1140 977.882 1123.88 994 1104 994C1084.12 994 1068 977.882 1068 958Z" stroke="#E2063A" stroke-width="5"/>
<path d="M1160 958C1160 938.118 1176.12 922 1196 922C1215.88 922 1232 938.118 1232 958C1232 977.882 1215.88 994 1196 994C1176.12 994 1160 977.882 1160 958Z" stroke="#E2063A" stroke-width="5"/>
<path d="M1252 958C1252 938.118 1268.12 922 1288 922C1307.88 922 1324 938.118 1324 958C1324 977.882 1307.88 994 1288 994C1268.12 994 1252 977.882 1252 958Z" stroke="#E2063A" stroke-width="5"/>
<path d="M1344 958C1344 938.118 1360.12 922 1380 922C1399.88 922 1416 938.118 1416 958C1416 977.882 1399.88 994 1380 994C1360.12 994 1344 977.882 1344 958Z" stroke="#E2063A" stroke-width="5"/>
<path d="M1436 958C1436 938.118 1452.12 922 1472 922C1491.88 922 1508 938.118 1508 958C1508 977.882 1491.88 994 1472 994C1452.12 994 1436 977.882 1436 958Z" stroke="#E2063A" stroke-width="5"/>
<path d="M-36 -2C-36 -21.8822 -19.8822 -38 0 -38C19.8823 -38 36 -21.8822 36 -2C36 17.8823 19.8823 34 0 34C-19.8822 34 -36 17.8823 -36 -2Z" stroke="#E2063A" stroke-width="5"/>
<path d="M56 -2C56 -21.8822 72.1178 -38 92 -38C111.882 -38 128 -21.8822 128 -2C128 17.8823 111.882 34 92 34C72.1178 34 56 17.8823 56 -2Z" stroke="#E2063A" stroke-width="5"/>
<path d="M148 -2C148 -21.8822 164.118 -38 184 -38C203.882 -38 220 -21.8822 220 -2C220 17.8823 203.882 34 184 34C164.118 34 148 17.8823 148 -2Z" stroke="#E2063A" stroke-width="5"/>
<path d="M240 -2C240 -21.8822 256.118 -38 276 -38C295.882 -38 312 -21.8822 312 -2C312 17.8823 295.882 34 276 34C256.118 34 240 17.8823 240 -2Z" stroke="#E2063A" stroke-width="5"/>
<path d="M332 -2C332 -21.8822 348.118 -38 368 -38C387.882 -38 404 -21.8822 404 -2C404 17.8823 387.882 34 368 34C348.118 34 332 17.8823 332 -2Z" stroke="#E2063A" stroke-width="5"/>
<path d="M424 -2C424 -21.8822 440.118 -38 460 -38C479.882 -38 496 -21.8822 496 -2C496 17.8823 479.882 34 460 34C440.118 34 424 17.8823 424 -2Z" stroke="#E2063A" stroke-width="5"/>
<path d="M516 -2C516 -21.8822 532.118 -38 552 -38C571.882 -38 588 -21.8822 588 -2C588 17.8823 571.882 34 552 34C532.118 34 516 17.8823 516 -2Z" stroke="#E2063A" stroke-width="5"/>
<path d="M608 -2C608 -21.8822 624.118 -38 644 -38C663.882 -38 680 -21.8822 680 -2C680 17.8823 663.882 34 644 34C624.118 34 608 17.8823 608 -2Z" stroke="#E2063A" stroke-width="5"/>
<path d="M700 -2C700 -21.8822 716.118 -38 736 -38C755.882 -38 772 -21.8822 772 -2C772 17.8823 755.882 34 736 34C716.118 34 700 17.8823 700 -2Z" stroke="#E2063A" stroke-width="5"/>
<path d="M792 -2C792 -21.8822 808.118 -38 828 -38C847.882 -38 864 -21.8822 864 -2C864 17.8823 847.882 34 828 34C808.118 34 792 17.8823 792 -2Z" stroke="#E2063A" stroke-width="5"/>
<path d="M884 -2C884 -21.8822 900.118 -38 920 -38C939.882 -38 956 -21.8822 956 -2C956 17.8823 939.882 34 920 34C900.118 34 884 17.8823 884 -2Z" stroke="#E2063A" stroke-width="5"/>
<path d="M976 -2C976 -21.8822 992.118 -38 1012 -38C1031.88 -38 1048 -21.8822 1048 -2C1048 17.8823 1031.88 34 1012 34C992.118 34 976 17.8823 976 -2Z" stroke="#E2063A" stroke-width="5"/>
<path d="M1068 -2C1068 -21.8822 1084.12 -38 1104 -38C1123.88 -38 1140 -21.8822 1140 -2C1140 17.8823 1123.88 34 1104 34C1084.12 34 1068 17.8823 1068 -2Z" stroke="#E2063A" stroke-width="5"/>
<path d="M1160 -2C1160 -21.8822 1176.12 -38 1196 -38C1215.88 -38 1232 -21.8822 1232 -2C1232 17.8823 1215.88 34 1196 34C1176.12 34 1160 17.8823 1160 -2Z" stroke="#E2063A" stroke-width="5"/>
<path d="M1252 -2C1252 -21.8822 1268.12 -38 1288 -38C1307.88 -38 1324 -21.8822 1324 -2C1324 17.8823 1307.88 34 1288 34C1268.12 34 1252 17.8823 1252 -2Z" stroke="#E2063A" stroke-width="5"/>
<path d="M1344 -2C1344 -21.8822 1360.12 -38 1380 -38C1399.88 -38 1416 -21.8822 1416 -2C1416 17.8823 1399.88 34 1380 34C1360.12 34 1344 17.8823 1344 -2Z" stroke="#E2063A" stroke-width="5"/>
<path d="M1436 -2C1436 -21.8822 1452.12 -38 1472 -38C1491.88 -38 1508 -21.8822 1508 -2C1508 17.8823 1491.88 34 1472 34C1452.12 34 1436 17.8823 1436 -2Z" stroke="#E2063A" stroke-width="5"/>
<path d="M-36 94C-36 74.1178 -19.8822 58 0 58C19.8823 58 36 74.1178 36 94C36 113.882 19.8823 130 0 130C-19.8822 130 -36 113.882 -36 94Z" stroke="#E2063A" stroke-width="5"/>
<path d="M516 94C516 74.1178 532.118 58 552 58C571.882 58 588 74.1178 588 94C588 113.882 571.882 130 552 130C532.118 130 516 113.882 516 94Z" stroke="#E2063A" stroke-width="5"/>
<path d="M608 94C608 74.1178 624.118 58 644 58C663.882 58 680 74.1178 680 94C680 113.882 663.882 130 644 130C624.118 130 608 113.882 608 94Z" stroke="#E2063A" stroke-width="5"/>
<path d="M700 94C700 74.1178 716.118 58 736 58C755.882 58 772 74.1178 772 94C772 113.882 755.882 130 736 130C716.118 130 700 113.882 700 94Z" stroke="#E2063A" stroke-width="5"/>
<path d="M792 94C792 74.1178 808.118 58 828 58C847.882 58 864 74.1178 864 94C864 113.882 847.882 130 828 130C808.118 130 792 113.882 792 94Z" stroke="#E2063A" stroke-width="5"/>
<path d="M884 94C884 74.1178 900.118 58 920 58C939.882 58 956 74.1178 956 94C956 113.882 939.882 130 920 130C900.118 130 884 113.882 884 94Z" stroke="#E2063A" stroke-width="5"/>
<path d="M976 94C976 74.1178 992.118 58 1012 58C1031.88 58 1048 74.1178 1048 94C1048 113.882 1031.88 130 1012 130C992.118 130 976 113.882 976 94Z" stroke="#E2063A" stroke-width="5"/>
<path d="M1068 94C1068 74.1178 1084.12 58 1104 58C1123.88 58 1140 74.1178 1140 94C1140 113.882 1123.88 130 1104 130C1084.12 130 1068 113.882 1068 94Z" stroke="#E2063A" stroke-width="5"/>
<path d="M1160 94C1160 74.1178 1176.12 58 1196 58C1215.88 58 1232 74.1178 1232 94C1232 113.882 1215.88 130 1196 130C1176.12 130 1160 113.882 1160 94Z" stroke="#E2063A" stroke-width="5"/>
<path d="M1252 94C1252 74.1178 1268.12 58 1288 58C1307.88 58 1324 74.1178 1324 94C1324 113.882 1307.88 130 1288 130C1268.12 130 1252 113.882 1252 94Z" stroke="#E2063A" stroke-width="5"/>
<path d="M1344 94C1344 74.1178 1360.12 58 1380 58C1399.88 58 1416 74.1178 1416 94C1416 113.882 1399.88 130 1380 130C1360.12 130 1344 113.882 1344 94Z" stroke="#E2063A" stroke-width="5"/>
<path d="M1436 94C1436 74.1178 1452.12 58 1472 58C1491.88 58 1508 74.1178 1508 94C1508 113.882 1491.88 130 1472 130C1452.12 130 1436 113.882 1436 94Z" stroke="#E2063A" stroke-width="5"/>
<path d="M66.8644 109.854C63.6111 109.854 60.5408 109.366 57.6534 108.39C54.8068 107.373 52.3464 105.991 50.2724 104.242L53.6884 98.813C55.5591 100.196 57.6128 101.294 59.8494 102.107C62.1268 102.92 64.4651 103.327 66.8644 103.327C69.6298 103.327 71.8868 102.717 73.6354 101.497C75.4248 100.277 76.3194 98.63 76.3194 96.556C76.3194 94.726 75.5671 93.262 74.0624 92.164C72.5578 91.066 70.0364 90.273 66.4984 89.785C61.4151 89.0937 57.6331 87.7923 55.1524 85.881C52.7124 83.929 51.4924 81.306 51.4924 78.012C51.4924 75.5313 52.1634 73.3557 53.5054 71.485C54.8881 69.5737 56.7588 68.0893 59.1174 67.032C61.5168 65.9747 64.2008 65.446 67.1694 65.446C69.9754 65.446 72.5578 65.812 74.9164 66.544C77.2751 67.2353 79.5524 68.3943 81.7484 70.021L78.1494 75.206C76.6448 74.0673 74.9368 73.2133 73.0254 72.644C71.1548 72.0747 69.2638 71.79 67.3524 71.79C64.8311 71.79 62.7368 72.339 61.0694 73.437C59.4428 74.4943 58.6294 75.8973 58.6294 77.646C58.6294 79.2727 59.3614 80.5333 60.8254 81.428C62.3301 82.282 64.8311 83.014 68.3284 83.624C73.6558 84.478 77.4988 85.9623 79.8574 88.077C82.2568 90.151 83.4564 92.9367 83.4564 96.434C83.4564 99.1587 82.7651 101.538 81.3824 103.571C79.9998 105.604 78.0478 107.17 75.5264 108.268C73.0051 109.325 70.1178 109.854 66.8644 109.854ZM95.5811 109.732C92.4498 109.732 90.0708 108.858 88.4441 107.109C86.8581 105.32 86.0651 102.676 86.0651 99.179V66.3H92.8971V98.63C92.8971 100.501 93.2021 101.822 93.8121 102.595C94.4221 103.327 95.4591 103.693 96.9231 103.693C97.7365 103.693 98.5498 103.591 99.3631 103.388L100.766 108.878C98.9361 109.447 97.2078 109.732 95.5811 109.732ZM112.311 78.256C122.234 78.256 127.195 82.2007 127.195 90.09V109H121.217C121.217 106.885 121.278 105.238 121.4 104.059H121.217C120.201 105.808 118.696 107.15 116.703 108.085C114.751 109.02 112.677 109.488 110.481 109.488C107.269 109.488 104.544 108.654 102.307 106.987C100.071 105.32 98.9523 102.9 98.9523 99.728C98.9523 97.532 99.5013 95.6817 100.599 94.177C101.738 92.6723 103.222 91.554 105.052 90.822C106.882 90.09 108.875 89.724 111.03 89.724C112.738 89.724 114.406 89.907 116.032 90.273C117.7 90.5983 119.143 91.127 120.363 91.859V90.212C120.363 88.016 119.57 86.43 117.984 85.454C116.398 84.478 114.345 83.99 111.823 83.99C110.441 83.99 108.956 84.173 107.37 84.539C105.784 84.905 104.28 85.3523 102.856 85.881L101.27 80.574C104.849 79.0287 108.529 78.256 112.311 78.256ZM112.006 103.876C114.162 103.876 116.053 103.307 117.679 102.168C119.347 100.989 120.302 99.3417 120.546 97.227C119.489 96.5357 118.188 95.9867 116.642 95.58C115.097 95.1327 113.674 94.909 112.372 94.909C110.502 94.909 108.936 95.2953 107.675 96.068C106.415 96.8407 105.784 97.959 105.784 99.423C105.784 100.887 106.394 102.005 107.614 102.778C108.875 103.51 110.339 103.876 112.006 103.876ZM158.433 78.866L143.854 115.405C142.715 118.252 141.332 120.326 139.706 121.627C138.12 122.928 136.147 123.579 133.789 123.579C131.633 123.579 129.539 122.989 127.506 121.81L129.824 116.259C130.962 116.95 132.162 117.296 133.423 117.296C134.48 117.296 135.334 116.991 135.985 116.381C136.676 115.812 137.347 114.714 137.998 113.087L139.34 109.854L126.286 78.866H133.728L139.584 93.628C140.641 96.2713 141.698 99.179 142.756 102.351H142.878L143.488 100.521C144.748 96.739 145.521 94.4617 145.806 93.689L151.052 78.866H158.433ZM200.368 109.488L195.122 104.425C193.332 106.052 191.258 107.353 188.9 108.329C186.541 109.264 183.999 109.732 181.275 109.732C178.387 109.732 175.886 109.244 173.772 108.268C171.698 107.292 170.112 105.991 169.014 104.364C167.916 102.737 167.367 100.948 167.367 98.996C167.367 96.556 168.099 94.2583 169.563 92.103C171.067 89.907 173.304 87.955 176.273 86.247C173.182 82.831 171.637 79.5167 171.637 76.304C171.637 74.352 172.145 72.5627 173.162 70.936C174.219 69.2687 175.703 67.947 177.615 66.971C179.567 65.995 181.803 65.507 184.325 65.507C186.521 65.507 188.473 65.9543 190.181 66.849C191.889 67.703 193.21 68.9027 194.146 70.448C195.081 71.9933 195.549 73.7217 195.549 75.633C195.549 80.1063 192.56 84.0307 186.582 87.406L194.695 95.336C195.467 93.9127 196.077 92.4893 196.525 91.066C196.972 89.602 197.236 88.3007 197.318 87.162L203.418 87.955C203.296 89.785 202.869 91.7573 202.137 93.872C201.445 95.9867 200.51 97.959 199.331 99.789L204.821 105.157L200.368 109.488ZM184.02 71.424C182.23 71.424 180.807 71.912 179.75 72.888C178.733 73.8233 178.225 74.9417 178.225 76.243C178.225 77.5037 178.53 78.622 179.14 79.598C179.79 80.574 180.909 81.8347 182.495 83.38C184.609 82.2007 186.216 81.0417 187.314 79.903C188.412 78.7237 188.961 77.402 188.961 75.938C188.961 74.6367 188.513 73.559 187.619 72.705C186.724 71.851 185.524 71.424 184.02 71.424ZM181.58 103.632C184.792 103.632 187.842 102.493 190.73 100.216L180.36 90.273C178.367 91.371 176.862 92.6317 175.846 94.055C174.829 95.4783 174.321 96.922 174.321 98.386C174.321 99.8093 174.971 101.05 176.273 102.107C177.615 103.124 179.384 103.632 181.58 103.632ZM233.909 66.3C238.138 66.3 241.859 67.1947 245.072 68.984C248.284 70.7327 250.785 73.2133 252.575 76.426C254.364 79.6387 255.259 83.3393 255.259 87.528C255.259 91.7573 254.364 95.4987 252.575 98.752C250.785 102.005 248.264 104.527 245.011 106.316C241.757 108.105 238.016 109 233.787 109H217.561V66.3H233.909ZM233.909 102.412C236.715 102.412 239.175 101.802 241.29 100.582C243.445 99.362 245.112 97.654 246.292 95.458C247.471 93.2213 248.061 90.6593 248.061 87.772C248.061 84.844 247.471 82.2617 246.292 80.025C245.112 77.7477 243.445 75.999 241.29 74.779C239.134 73.5183 236.633 72.888 233.787 72.888H224.637V102.412H233.909ZM264.345 78.866C264.345 80.3707 264.284 82.0177 264.162 83.807H264.284C264.934 82.221 266.053 80.8993 267.639 79.842C269.225 78.7847 271.116 78.256 273.312 78.256C274.857 78.256 276.219 78.4593 277.399 78.866L275.63 84.905C274.816 84.5797 273.82 84.417 272.641 84.417C270.282 84.417 268.391 85.2303 266.968 86.857C265.544 88.4837 264.833 90.6593 264.833 93.384V109H258.001V78.866H264.345ZM281.748 74.352C280.487 74.352 279.43 73.9657 278.576 73.193C277.763 72.3797 277.356 71.3833 277.356 70.204C277.356 68.9433 277.763 67.9267 278.576 67.154C279.389 66.3407 280.447 65.934 281.748 65.934C283.049 65.934 284.107 66.3407 284.92 67.154C285.733 67.9267 286.14 68.9433 286.14 70.204C286.14 71.3833 285.713 72.3797 284.859 73.193C284.046 73.9657 283.009 74.352 281.748 74.352ZM278.393 78.866H285.225V109H278.393V78.866ZM296.679 78.866C296.679 79.842 296.557 81.5093 296.313 83.868H296.435C297.248 82.282 298.631 80.94 300.583 79.842C302.535 78.744 304.771 78.195 307.293 78.195C310.058 78.195 312.559 78.8457 314.796 80.147C317.032 81.4483 318.781 83.2987 320.042 85.698C321.302 88.0567 321.933 90.8017 321.933 93.933C321.933 97.0643 321.282 99.8297 319.981 102.229C318.72 104.588 316.951 106.418 314.674 107.719C312.437 109.02 309.916 109.671 307.11 109.671C304.629 109.671 302.474 109.163 300.644 108.146C298.814 107.089 297.472 105.747 296.618 104.12H296.435C296.679 105.991 296.801 108.288 296.801 111.013V122.908H289.969V78.866H296.679ZM305.768 103.632C308.492 103.632 310.729 102.737 312.478 100.948C314.226 99.1587 315.101 96.861 315.101 94.055C315.101 91.1677 314.247 88.809 312.539 86.979C310.831 85.149 308.614 84.234 305.89 84.234C303.206 84.234 301.01 85.149 299.302 86.979C297.594 88.7683 296.74 91.0457 296.74 93.811C296.74 96.6983 297.573 99.057 299.241 100.887C300.949 102.717 303.124 103.632 305.768 103.632ZM345.958 78.256C355.881 78.256 360.842 82.2007 360.842 90.09V109H354.864C354.864 106.885 354.925 105.238 355.047 104.059H354.864C353.847 105.808 352.343 107.15 350.35 108.085C348.398 109.02 346.324 109.488 344.128 109.488C340.915 109.488 338.191 108.654 335.954 106.987C333.717 105.32 332.599 102.9 332.599 99.728C332.599 97.532 333.148 95.6817 334.246 94.177C335.385 92.6723 336.869 91.554 338.699 90.822C340.529 90.09 342.522 89.724 344.677 89.724C346.385 89.724 348.052 89.907 349.679 90.273C351.346 90.5983 352.79 91.127 354.01 91.859V90.212C354.01 88.016 353.217 86.43 351.631 85.454C350.045 84.478 347.991 83.99 345.47 83.99C344.087 83.99 342.603 84.173 341.017 84.539C339.431 84.905 337.926 85.3523 336.503 85.881L334.917 80.574C338.496 79.0287 342.176 78.256 345.958 78.256ZM345.653 103.876C347.808 103.876 349.699 103.307 351.326 102.168C352.993 100.989 353.949 99.3417 354.193 97.227C353.136 96.5357 351.834 95.9867 350.289 95.58C348.744 95.1327 347.32 94.909 346.019 94.909C344.148 94.909 342.583 95.2953 341.322 96.068C340.061 96.8407 339.431 97.959 339.431 99.423C339.431 100.887 340.041 102.005 341.261 102.778C342.522 103.51 343.986 103.876 345.653 103.876ZM374.539 109.732C371.408 109.732 369.029 108.858 367.402 107.109C365.816 105.32 365.023 102.676 365.023 99.179V66.3H371.855V98.63C371.855 100.501 372.16 101.822 372.77 102.595C373.38 103.327 374.417 103.693 375.881 103.693C376.695 103.693 377.508 103.591 378.321 103.388L379.724 108.878C377.894 109.447 376.166 109.732 374.539 109.732ZM389.928 109.732C386.796 109.732 384.417 108.858 382.791 107.109C381.205 105.32 380.412 102.676 380.412 99.179V66.3H387.244V98.63C387.244 100.501 387.549 101.822 388.159 102.595C388.769 103.327 389.806 103.693 391.27 103.693C392.083 103.693 392.896 103.591 393.71 103.388L395.113 108.878C393.283 109.447 391.554 109.732 389.928 109.732ZM424.169 66.3C428.398 66.3 432.119 67.1947 435.332 68.984C438.545 70.7327 441.046 73.2133 442.835 76.426C444.624 79.6387 445.519 83.3393 445.519 87.528C445.519 91.7573 444.624 95.4987 442.835 98.752C441.046 102.005 438.524 104.527 435.271 106.316C432.018 108.105 428.276 109 424.047 109H407.821V66.3H424.169ZM424.169 102.412C426.975 102.412 429.435 101.802 431.55 100.582C433.705 99.362 435.373 97.654 436.552 95.458C437.731 93.2213 438.321 90.6593 438.321 87.772C438.321 84.844 437.731 82.2617 436.552 80.025C435.373 77.7477 433.705 75.999 431.55 74.779C429.395 73.5183 426.894 72.888 424.047 72.888H414.897V102.412H424.169ZM458.999 78.256C468.921 78.256 473.883 82.2007 473.883 90.09V109H467.905C467.905 106.885 467.966 105.238 468.088 104.059H467.905C466.888 105.808 465.383 107.15 463.391 108.085C461.439 109.02 459.365 109.488 457.169 109.488C453.956 109.488 451.231 108.654 448.995 106.987C446.758 105.32 445.64 102.9 445.64 99.728C445.64 97.532 446.189 95.6817 447.287 94.177C448.425 92.6723 449.91 91.554 451.74 90.822C453.57 90.09 455.562 89.724 457.718 89.724C459.426 89.724 461.093 89.907 462.72 90.273C464.387 90.5983 465.831 91.127 467.051 91.859V90.212C467.051 88.016 466.258 86.43 464.672 85.454C463.086 84.478 461.032 83.99 458.511 83.99C457.128 83.99 455.644 84.173 454.058 84.539C452.472 84.905 450.967 85.3523 449.544 85.881L447.958 80.574C451.536 79.0287 455.217 78.256 458.999 78.256ZM458.694 103.876C460.849 103.876 462.74 103.307 464.367 102.168C466.034 100.989 466.99 99.3417 467.234 97.227C466.176 96.5357 464.875 95.9867 463.33 95.58C461.784 95.1327 460.361 94.909 459.06 94.909C457.189 94.909 455.623 95.2953 454.363 96.068C453.102 96.8407 452.472 97.959 452.472 99.423C452.472 100.887 453.082 102.005 454.302 102.778C455.562 103.51 457.026 103.876 458.694 103.876ZM505.12 78.866L490.541 115.405C489.402 118.252 488.02 120.326 486.393 121.627C484.807 122.928 482.835 123.579 480.476 123.579C478.321 123.579 476.226 122.989 474.193 121.81L476.511 116.259C477.65 116.95 478.849 117.296 480.11 117.296C481.167 117.296 482.021 116.991 482.672 116.381C483.363 115.812 484.034 114.714 484.685 113.087L486.027 109.854L472.973 78.866H480.415L486.271 93.628C487.328 96.2713 488.386 99.179 489.443 102.351H489.565L490.175 100.521C491.436 96.739 492.208 94.4617 492.493 93.689L497.739 78.866H505.12Z" fill="#E2063A"/>
<path d="M-36 190C-36 170.118 -19.8822 154 0 154C19.8823 154 36 170.118 36 190C36 209.882 19.8823 226 0 226C-19.8822 226 -36 209.882 -36 190Z" stroke="#E2063A" stroke-width="5"/>
<path d="M56 190C56 170.118 72.1178 154 92 154C111.882 154 128 170.118 128 190C128 209.882 111.882 226 92 226C72.1178 226 56 209.882 56 190Z" stroke="#E2063A" stroke-width="5"/>
<path d="M148 190C148 170.118 164.118 154 184 154C203.882 154 220 170.118 220 190C220 209.882 203.882 226 184 226C164.118 226 148 209.882 148 190Z" stroke="#E2063A" stroke-width="5"/>
<path d="M240 190C240 170.118 256.118 154 276 154C295.882 154 312 170.118 312 190C312 209.882 295.882 226 276 226C256.118 226 240 209.882 240 190Z" stroke="#E2063A" stroke-width="5"/>
<path d="M332 190C332 170.118 348.118 154 368 154C387.882 154 404 170.118 404 190C404 209.882 387.882 226 368 226C348.118 226 332 209.882 332 190Z" stroke="#E2063A" stroke-width="5"/>
<path d="M424 190C424 170.118 440.118 154 460 154C479.882 154 496 170.118 496 190C496 209.882 479.882 226 460 226C440.118 226 424 209.882 424 190Z" stroke="#E2063A" stroke-width="5"/>
<path d="M516 190C516 170.118 532.118 154 552 154C571.882 154 588 170.118 588 190C588 209.882 571.882 226 552 226C532.118 226 516 209.882 516 190Z" stroke="#E2063A" stroke-width="5"/>
<path d="M608 190C608 170.118 624.118 154 644 154C663.882 154 680 170.118 680 190C680 209.882 663.882 226 644 226C624.118 226 608 209.882 608 190Z" stroke="#E2063A" stroke-width="5"/>
<path d="M700 190C700 170.118 716.118 154 736 154C755.882 154 772 170.118 772 190C772 209.882 755.882 226 736 226C716.118 226 700 209.882 700 190Z" stroke="#E2063A" stroke-width="5"/>
<path d="M792 190C792 170.118 808.118 154 828 154C847.882 154 864 170.118 864 190C864 209.882 847.882 226 828 226C808.118 226 792 209.882 792 190Z" stroke="#E2063A" stroke-width="5"/>
<path d="M884 190C884 170.118 900.118 154 920 154C939.882 154 956 170.118 956 190C956 209.882 939.882 226 920 226C900.118 226 884 209.882 884 190Z" stroke="#E2063A" stroke-width="5"/>
<path d="M976 190C976 170.118 992.118 154 1012 154C1031.88 154 1048 170.118 1048 190C1048 209.882 1031.88 226 1012 226C992.118 226 976 209.882 976 190Z" stroke="#E2063A" stroke-width="5"/>
<path d="M1068 190C1068 170.118 1084.12 154 1104 154C1123.88 154 1140 170.118 1140 190C1140 209.882 1123.88 226 1104 226C1084.12 226 1068 209.882 1068 190Z" stroke="#E2063A" stroke-width="5"/>
<path d="M1160 190C1160 170.118 1176.12 154 1196 154C1215.88 154 1232 170.118 1232 190C1232 209.882 1215.88 226 1196 226C1176.12 226 1160 209.882 1160 190Z" stroke="#E2063A" stroke-width="5"/>
<path d="M1252 190C1252 170.118 1268.12 154 1288 154C1307.88 154 1324 170.118 1324 190C1324 209.882 1307.88 226 1288 226C1268.12 226 1252 209.882 1252 190Z" stroke="#E2063A" stroke-width="5"/>
<path d="M1344 190C1344 170.118 1360.12 154 1380 154C1399.88 154 1416 170.118 1416 190C1416 209.882 1399.88 226 1380 226C1360.12 226 1344 209.882 1344 190Z" stroke="#E2063A" stroke-width="5"/>
<path d="M1436 190C1436 170.118 1452.12 154 1472 154C1491.88 154 1508 170.118 1508 190C1508 209.882 1491.88 226 1472 226C1452.12 226 1436 209.882 1436 190Z" stroke="#E2063A" stroke-width="5"/>
<path d="M-36 286C-36 266.118 -19.8822 250 0 250C19.8823 250 36 266.118 36 286C36 305.882 19.8823 322 0 322C-19.8822 322 -36 305.882 -36 286Z" stroke="#E2063A" stroke-width="5"/>
<path d="M56 286C56 266.118 72.1178 250 92 250C111.882 250 128 266.118 128 286C128 305.882 111.882 322 92 322C72.1178 322 56 305.882 56 286Z" stroke="#E2063A" stroke-width="5"/>
<path d="M148 286C148 266.118 164.118 250 184 250C203.882 250 220 266.118 220 286C220 305.882 203.882 322 184 322C164.118 322 148 305.882 148 286Z" stroke="#E2063A" stroke-width="5"/>
<path d="M240 286C240 266.118 256.118 250 276 250C295.882 250 312 266.118 312 286C312 305.882 295.882 322 276 322C256.118 322 240 305.882 240 286Z" stroke="#E2063A" stroke-width="5"/>
<path d="M332 286C332 266.118 348.118 250 368 250C387.882 250 404 266.118 404 286C404 305.882 387.882 322 368 322C348.118 322 332 305.882 332 286Z" stroke="#E2063A" stroke-width="5"/>
<path d="M424 286C424 266.118 440.118 250 460 250C479.882 250 496 266.118 496 286C496 305.882 479.882 322 460 322C440.118 322 424 305.882 424 286Z" stroke="#E2063A" stroke-width="5"/>
<path d="M516 286C516 266.118 532.118 250 552 250C571.882 250 588 266.118 588 286C588 305.882 571.882 322 552 322C532.118 322 516 305.882 516 286Z" stroke="#E2063A" stroke-width="5"/>
<path d="M608 286C608 266.118 624.118 250 644 250C663.882 250 680 266.118 680 286C680 305.882 663.882 322 644 322C624.118 322 608 305.882 608 286Z" stroke="#E2063A" stroke-width="5"/>
<path d="M700 286C700 266.118 716.118 250 736 250C755.882 250 772 266.118 772 286C772 305.882 755.882 322 736 322C716.118 322 700 305.882 700 286Z" stroke="#E2063A" stroke-width="5"/>
<path d="M792 286C792 266.118 808.118 250 828 250C847.882 250 864 266.118 864 286C864 305.882 847.882 322 828 322C808.118 322 792 305.882 792 286Z" stroke="#E2063A" stroke-width="5"/>
<path d="M884 286C884 266.118 900.118 250 920 250C939.882 250 956 266.118 956 286C956 305.882 939.882 322 920 322C900.118 322 884 305.882 884 286Z" stroke="#E2063A" stroke-width="5"/>
<path d="M976 286C976 266.118 992.118 250 1012 250C1031.88 250 1048 266.118 1048 286C1048 305.882 1031.88 322 1012 322C992.118 322 976 305.882 976 286Z" stroke="#E2063A" stroke-width="5"/>
<path d="M1068 286C1068 266.118 1084.12 250 1104 250C1123.88 250 1140 266.118 1140 286C1140 305.882 1123.88 322 1104 322C1084.12 322 1068 305.882 1068 286Z" stroke="#E2063A" stroke-width="5"/>
<path d="M1160 286C1160 266.118 1176.12 250 1196 250C1215.88 250 1232 266.118 1232 286C1232 305.882 1215.88 322 1196 322C1176.12 322 1160 305.882 1160 286Z" stroke="#E2063A" stroke-width="5"/>
<path d="M1252 286C1252 266.118 1268.12 250 1288 250C1307.88 250 1324 266.118 1324 286C1324 305.882 1307.88 322 1288 322C1268.12 322 1252 305.882 1252 286Z" stroke="#E2063A" stroke-width="5"/>
<path d="M1344 286C1344 266.118 1360.12 250 1380 250C1399.88 250 1416 266.118 1416 286C1416 305.882 1399.88 322 1380 322C1360.12 322 1344 305.882 1344 286Z" stroke="#E2063A" stroke-width="5"/>
<path d="M1436 286C1436 266.118 1452.12 250 1472 250C1491.88 250 1508 266.118 1508 286C1508 305.882 1491.88 322 1472 322C1452.12 322 1436 305.882 1436 286Z" stroke="#E2063A" stroke-width="5"/>
<path d="M-36 382C-36 362.118 -19.8822 346 0 346C19.8823 346 36 362.118 36 382C36 401.882 19.8823 418 0 418C-19.8822 418 -36 401.882 -36 382Z" stroke="#E2063A" stroke-width="5"/>
<path d="M56 382C56 362.118 72.1178 346 92 346C111.882 346 128 362.118 128 382C128 401.882 111.882 418 92 418C72.1178 418 56 401.882 56 382Z" stroke="#E2063A" stroke-width="5"/>
<path d="M148 382C148 362.118 164.118 346 184 346C203.882 346 220 362.118 220 382C220 401.882 203.882 418 184 418C164.118 418 148 401.882 148 382Z" stroke="#E2063A" stroke-width="5"/>
<path d="M240 382C240 362.118 256.118 346 276 346C295.882 346 312 362.118 312 382C312 401.882 295.882 418 276 418C256.118 418 240 401.882 240 382Z" stroke="#E2063A" stroke-width="5"/>
<path d="M332 382C332 362.118 348.118 346 368 346C387.882 346 404 362.118 404 382C404 401.882 387.882 418 368 418C348.118 418 332 401.882 332 382Z" stroke="#E2063A" stroke-width="5"/>
<path d="M424 382C424 362.118 440.118 346 460 346C479.882 346 496 362.118 496 382C496 401.882 479.882 418 460 418C440.118 418 424 401.882 424 382Z" stroke="#E2063A" stroke-width="5"/>
<path d="M516 382C516 362.118 532.118 346 552 346C571.882 346 588 362.118 588 382C588 401.882 571.882 418 552 418C532.118 418 516 401.882 516 382Z" stroke="#E2063A" stroke-width="5"/>
<path d="M608 382C608 362.118 624.118 346 644 346C663.882 346 680 362.118 680 382C680 401.882 663.882 418 644 418C624.118 418 608 401.882 608 382Z" stroke="#E2063A" stroke-width="5"/>
<path d="M700 382C700 362.118 716.118 346 736 346C755.882 346 772 362.118 772 382C772 401.882 755.882 418 736 418C716.118 418 700 401.882 700 382Z" stroke="#E2063A" stroke-width="5"/>
<path d="M792 382C792 362.118 808.118 346 828 346C847.882 346 864 362.118 864 382C864 401.882 847.882 418 828 418C808.118 418 792 401.882 792 382Z" stroke="#E2063A" stroke-width="5"/>
<path d="M884 382C884 362.118 900.118 346 920 346C939.882 346 956 362.118 956 382C956 401.882 939.882 418 920 418C900.118 418 884 401.882 884 382Z" stroke="#E2063A" stroke-width="5"/>
<path d="M976 382C976 362.118 992.118 346 1012 346C1031.88 346 1048 362.118 1048 382C1048 401.882 1031.88 418 1012 418C992.118 418 976 401.882 976 382Z" stroke="#E2063A" stroke-width="5"/>
<path d="M1068 382C1068 362.118 1084.12 346 1104 346C1123.88 346 1140 362.118 1140 382C1140 401.882 1123.88 418 1104 418C1084.12 418 1068 401.882 1068 382Z" stroke="#E2063A" stroke-width="5"/>
<path d="M1160 382C1160 362.118 1176.12 346 1196 346C1215.88 346 1232 362.118 1232 382C1232 401.882 1215.88 418 1196 418C1176.12 418 1160 401.882 1160 382Z" stroke="#E2063A" stroke-width="5"/>
<path d="M1252 382C1252 362.118 1268.12 346 1288 346C1307.88 346 1324 362.118 1324 382C1324 401.882 1307.88 418 1288 418C1268.12 418 1252 401.882 1252 382Z" stroke="#E2063A" stroke-width="5"/>
<path d="M1344 382C1344 362.118 1360.12 346 1380 346C1399.88 346 1416 362.118 1416 382C1416 401.882 1399.88 418 1380 418C1360.12 418 1344 401.882 1344 382Z" stroke="#E2063A" stroke-width="5"/>
<path d="M1436 382C1436 362.118 1452.12 346 1472 346C1491.88 346 1508 362.118 1508 382C1508 401.882 1491.88 418 1472 418C1452.12 418 1436 401.882 1436 382Z" stroke="#E2063A" stroke-width="5"/>
</svg>
