<svg width="54" height="54" viewBox="0 0 54 54" fill="none" xmlns="http://www.w3.org/2000/svg">
<path d="M45.4761 45.4761C44.7161 46.2361 43.4839 46.2361 42.7239 45.4761L33.2714 36.0236C31.3708 34.123 28.3859 34.0729 25.9487 34.9478C24.5186 35.4612 22.9946 35.7188 21.375 35.7188C17.3603 35.7188 13.973 34.3315 11.1957 31.5543C8.41846 28.777 7.03125 25.3897 7.03125 21.375C7.03125 17.3603 8.41846 13.973 11.1957 11.1957C13.973 8.41846 17.3603 7.03125 21.375 7.03125C25.3897 7.03125 28.777 8.41846 31.5543 11.1957C34.3315 13.973 35.7188 17.3603 35.7188 21.375C35.7188 22.9946 35.4612 24.5186 34.9478 25.9487C34.0729 28.3859 34.123 31.3708 36.0236 33.2714L45.4761 42.7239C46.2361 43.4839 46.2361 44.7161 45.4761 45.4761ZM21.375 31.7812C24.2612 31.7812 26.7237 30.7678 28.7457 28.7457C30.7678 26.7237 31.7812 24.2612 31.7812 21.375C31.7812 18.4888 30.7678 16.0263 28.7457 14.0043C26.7237 11.9822 24.2612 10.9688 21.375 10.9688C18.4888 10.9688 16.0263 11.9822 14.0043 14.0043C11.9822 16.0263 10.9688 18.4888 10.9688 21.375C10.9688 24.2612 11.9822 26.7237 14.0043 28.7457C16.0263 30.7678 18.4888 31.7812 21.375 31.7812ZM20.3146 25.1035C19.4134 25.8019 18.1478 24.9281 18.4815 23.8378L18.5323 23.672C18.7466 22.9719 18.512 22.2119 17.9402 21.7545L17.6696 21.538C16.7415 20.7955 17.269 19.2937 18.4629 19.2937C19.2467 19.2937 19.9436 18.7898 20.1871 18.0441C20.5623 16.8951 22.1877 16.8951 22.5629 18.0441C22.8064 18.7898 23.5033 19.2937 24.2871 19.2937C25.481 19.2937 26.0085 20.7955 25.0804 21.538L24.8098 21.7545C24.238 22.2119 24.0034 22.9719 24.2177 23.672L24.2685 23.8378C24.6022 24.9281 23.3366 25.8019 22.4354 25.1035C21.8112 24.6197 20.9388 24.6197 20.3146 25.1035Z" fill="#DDDDDD" stroke="white" stroke-width="0.5625"/>
</svg>
