<svg width="48" height="49" viewBox="0 0 48 49" fill="none" xmlns="http://www.w3.org/2000/svg">
<g clip-path="url(#clip0_3340_19189)">
<path d="M16.168 12.4678C16.1742 13.2581 15.8691 14.0192 15.3186 14.5864C14.7681 15.1535 14.0165 15.4812 13.2263 15.4986C12.4377 15.47 11.6903 15.1395 11.1386 14.5754C10.5868 14.0113 10.2729 13.2568 10.2617 12.4678C10.2958 11.6989 10.6211 10.9717 11.1717 10.4339C11.7222 9.89608 12.4568 9.58786 13.2263 9.57178C13.9935 9.58816 14.7255 9.89716 15.2723 10.4355C15.8192 10.9739 16.1396 11.7009 16.168 12.4678ZM10.5794 20.8838C10.5794 19.1421 11.688 19.4141 13.2263 19.4141C14.7646 19.4141 15.8503 19.1421 15.8503 20.8838V37.8529C15.8503 39.6175 14.7417 39.2564 13.2263 39.2564C11.7109 39.2564 10.5794 39.6175 10.5794 37.8529V20.8838ZM20.4217 20.8861C20.4217 19.9123 20.7829 19.5489 21.3474 19.4369C21.9143 19.3226 23.8594 19.4369 24.5383 19.4369C25.2171 19.4369 25.4891 20.5455 25.4663 21.3821C26.0469 20.6029 26.8176 19.9858 27.7048 19.5896C28.592 19.1934 29.566 19.0315 30.5337 19.1192C31.484 19.0612 32.4359 19.2037 33.3275 19.5375C34.2191 19.8713 35.0305 20.3889 35.7091 21.0566C36.3877 21.7244 36.9182 22.5275 37.2662 23.4136C37.6142 24.2998 37.7719 25.2493 37.7291 26.2003V37.7844C37.7291 39.5489 36.6434 39.1878 35.1029 39.1878C33.5646 39.1878 32.4789 39.5489 32.4789 37.7844V28.7352C32.5187 28.2695 32.4579 27.8008 32.3005 27.3607C32.1431 26.9206 31.8929 26.5196 31.5668 26.1848C31.2406 25.85 30.8463 25.5893 30.4105 25.4204C29.9747 25.2516 29.5077 25.1785 29.0411 25.2061C28.5764 25.1938 28.1144 25.2805 27.6857 25.4604C27.257 25.6403 26.8714 25.9092 26.5546 26.2494C26.2377 26.5896 25.9968 26.9933 25.8478 27.4337C25.6988 27.8741 25.6451 28.3411 25.6903 28.8038V37.8529C25.6903 39.6175 24.5817 39.2564 23.0434 39.2564C21.5051 39.2564 20.4194 39.6175 20.4194 37.8529V20.8838L20.4217 20.8861Z" stroke="#9A9A9A" stroke-width="1.5" stroke-linecap="round" stroke-linejoin="round"/>
</g>
<defs>
<clipPath id="clip0_3340_19189">
<rect width="32" height="32" fill="white" transform="translate(8 8.42871)"/>
</clipPath>
</defs>
</svg>
