<svg width="32" height="32" viewBox="0 0 32 32" fill="none" xmlns="http://www.w3.org/2000/svg">
<rect width="32" height="32" rx="16" fill="#1F1F1F"/>
<path d="M15.9983 17.3359C14.5146 17.3359 13.3023 16.1303 13.3023 14.6399C13.3023 13.1508 14.5132 11.9519 15.9983 11.9519C17.4821 11.9519 18.6943 13.1575 18.6943 14.6479C18.6943 16.1369 17.4835 17.3359 15.9983 17.3359ZM15.9983 12.3519C14.7385 12.3519 13.7023 13.3779 13.7023 14.6479C13.7023 15.9168 14.7294 16.9439 15.9983 16.9439C17.2673 16.9439 18.2943 15.9168 18.2943 14.6479C18.2943 13.3779 17.2582 12.3519 15.9983 12.3519Z" stroke="white" stroke-width="0.8"/>
<path d="M9.09938 13.1529L9.09948 13.1524C9.93632 9.46585 13.1519 7.7999 15.9974 7.7999H15.9974H15.9974H15.9974H15.9974H15.9974H15.9974H15.9974H15.9974H15.9974H15.9974H15.9974H15.9975H15.9975H15.9975H15.9975H15.9975H15.9975H15.9975H15.9975H15.9975H15.9975H15.9975H15.9975H15.9975H15.9975H15.9975H15.9975H15.9975H15.9975H15.9975H15.9975H15.9976H15.9976H15.9976H15.9976H15.9976H15.9976H15.9976H15.9976H15.9976H15.9976H15.9976H15.9976H15.9976H15.9976H15.9976H15.9976H15.9976H15.9976H15.9976H15.9976H15.9976H15.9977H15.9977H15.9977H15.9977H15.9977H15.9977H15.9977H15.9977H15.9977H15.9977H15.9977H15.9977H15.9977H15.9977H15.9977H15.9977H15.9977H15.9977H15.9977H15.9977H15.9978H15.9978H15.9978H15.9978H15.9978H15.9978H15.9978H15.9978H15.9978H15.9978H15.9978H15.9978H15.9978H15.9978H15.9978H15.9978H15.9979H15.9979H15.9979H15.9979H15.9979H15.9979H15.9979H15.9979H15.9979H15.9979H15.9979H15.9979H15.9979H15.998H15.998H15.998H15.998H15.998H15.998H15.998H15.998H15.998H15.998H15.998H15.998H15.998H15.9981H15.9981H15.9981H15.9981H15.9981H15.9981H15.9981H15.9981H15.9981H15.9981H15.9982H15.9982H15.9982H15.9982H15.9982H15.9982H15.9982H15.9982H15.9982H15.9982H15.9983H15.9983H15.9983H15.9983H15.9983H15.9983H15.9983H15.9983H15.9983H15.9983H15.9984H15.9984H15.9984H15.9984H15.9984H15.9984H15.9984H15.9984H15.9985H15.9985H15.9985H15.9985H15.9985H15.9985H15.9985H15.9985H15.9986H15.9986H15.9986H15.9986H15.9986H15.9986H15.9986H15.9986H15.9987H15.9987H15.9987H15.9987H15.9987H15.9987H15.9987H15.9988H15.9988H15.9988H15.9988H15.9988H15.9988H15.9988H15.9989H15.9989H15.9989H15.9989H15.9989H15.9989H15.999H15.999H15.999H15.999H15.999H15.999H15.999H15.9991H15.9991H15.9991H15.9991H15.9991H15.9991H15.9992H15.9992H15.9992H15.9992H15.9992H15.9993H15.9993H15.9993H15.9993H15.9993H15.9993H15.9994H15.9994H15.9994H15.9994H15.9994H15.9995H15.9995H15.9995H15.9995H15.9995H15.9995H15.9996H15.9996H15.9996H15.9996H15.9996H15.9997H15.9997H15.9997H15.9997H15.9997H15.9998H15.9998H15.9998H15.9998H15.9999H15.9999H15.9999H15.9999H15.9999H16H16H16H16H16.0001H16.0001H16.0001H16.0001H16.0001H16.0002H16.0002H16.0002H16.0002H16.0003H16.0003H16.0003H16.0003H16.0004H16.0004H16.0004H16.0004H16.0005H16.0005H16.0005H16.0005H16.0005H16.0006H16.0006H16.0006H16.0007H16.0007H16.0007H16.0007H16.0008H16.0008H16.0008H16.0008H16.0009H16.0009H16.0009H16.0009H16.001H16.001H16.001H16.0011H16.0011H16.0011H16.0011H16.0012H16.0012H16.0012H16.0012H16.0013H16.0013H16.0013H16.0014H16.0014H16.0014H16.0015H16.0015H16.0015H16.0015H16.0016H16.0016H16.0016H16.0017H16.0017H16.0017H16.0018H16.0018H16.0018H16.0019H16.0019H16.0019H16.0019H16.002H16.002H16.002H16.0021H16.0021H16.0021H16.0022H16.0022H16.0022H16.0023H16.0023H16.0023H16.0024H16.0024H16.0024H16.0025H16.0025H16.0026H16.0026H16.0026H16.0027H16.0027H16.0027H16.0028H16.0028H16.0028H16.0029H16.0029H16.0029H16.003H16.003H16.0031H16.0031H16.0031H16.0032H16.0032H16.0032H16.0033H16.0033H16.0034H16.0034H16.0034H16.0035H16.0035H16.0036H16.0036H16.0036H16.0037H16.0037H16.0038H16.0038H16.0038H16.0039H16.0039H16.004H16.004H16.004H16.0041H16.0041H16.0042H16.0042H16.0042H16.0043H16.0043H16.0044H16.0044H16.0045H16.0045H16.0045H16.0046H16.0046H16.0047H16.0047H16.0048H16.0048H16.0049H16.0049H16.0049H16.005H16.005H16.0051H16.0051H16.0052H16.0052H16.0053H16.0053H16.0054H16.0054C18.8506 7.7999 22.0663 9.4656 22.9033 13.1603C23.8303 17.256 21.3607 20.734 19.0244 22.9833C18.1725 23.7982 17.0805 24.2079 15.9974 24.2079C14.9144 24.2079 13.8223 23.7982 12.9704 22.9833C10.6343 20.7342 8.16477 17.2485 9.09938 13.1529ZM22.5156 13.2401L22.5153 13.2385C21.6602 9.51026 18.4444 8.1999 15.9974 8.1999C13.5502 8.1999 10.3422 9.51058 9.49543 13.2389C8.58121 17.2269 11.0933 20.614 13.2561 22.6881C14.7949 24.1732 17.2079 24.1732 18.7468 22.6881C20.9015 20.6141 23.413 17.2275 22.5156 13.2401Z" fill="#292D32" stroke="white" stroke-width="0.8"/>
</svg>
