<svg width="145" height="48" viewBox="0 0 145 48" fill="none" xmlns="http://www.w3.org/2000/svg">
<path d="M7.3717 41.5498H5.9917V40.5418H10.017V41.5498H8.6437V45.0351H7.37303V41.5498H7.3717Z" fill="white"/>
<path d="M15.4797 40.5418V45.0351H14.2091V43.2831H12.4757V45.0351H11.2051V40.5418H12.4757V42.2298H14.2091V40.5418H15.4797Z" fill="white"/>
<path d="M20.6998 44.0538V45.0365H17.0918V40.5431H20.6158V41.5258H18.3491V42.2831H20.3451V43.2338H18.3491V44.0551H20.6985L20.6998 44.0538Z" fill="white"/>
<path d="M28.7559 45.0351L28.7426 42.6538L27.5866 44.5924H27.0213L25.8719 42.7178V45.0351H24.6973V40.5418H25.7439L27.3226 43.1351L28.8639 40.5418H29.9106L29.9239 45.0351H28.7559Z" fill="white"/>
<path d="M34.5468 44.1631H32.6468L32.2934 45.0365H30.9961L32.9801 40.5431H34.2321L36.2228 45.0365H34.9001L34.5468 44.1631ZM34.1748 43.2258L33.5974 41.7885L33.0201 43.2258H34.1761H34.1748Z" fill="white"/>
<path d="M39.2584 43.8418H38.5651V45.0365H37.2944V40.5431H39.3491C39.7558 40.5431 40.1091 40.6111 40.4078 40.7458C40.7078 40.8805 40.9384 41.0738 41.1011 41.3231C41.2638 41.5738 41.3451 41.8685 41.3451 42.2058C41.3451 42.5431 41.2691 42.8151 41.1171 43.0565C40.9651 43.2978 40.7478 43.4871 40.4651 43.6245L41.4344 45.0365H40.0731L39.2584 43.8418ZM39.8611 41.7165C39.7278 41.6005 39.5318 41.5431 39.2704 41.5431H38.5638V42.8591H39.2704C39.5318 42.8591 39.7278 42.8018 39.8611 42.6885C39.9931 42.5751 40.0598 42.4138 40.0598 42.2031C40.0598 41.9925 39.9931 41.8311 39.8611 41.7151V41.7165Z" fill="white"/>
<path d="M44.4907 43.4058L44.016 43.9125V45.0365H42.7573V40.5431H44.016V42.4111L45.756 40.5431H47.156L45.32 42.5338L47.252 45.0378H45.776L44.492 43.4071L44.4907 43.4058Z" fill="white"/>
<path d="M51.9054 44.0538V45.0365H48.2974V40.5431H51.8214V41.5258H49.5547V42.2831H51.5507V43.2338H49.5547V44.0551H51.904L51.9054 44.0538Z" fill="white"/>
<path d="M54.2799 41.5498H52.8999V40.5418H56.9252V41.5498H55.5519V45.0351H54.2812V41.5498H54.2799Z" fill="white"/>
<path d="M63.8063 40.7445C64.1063 40.8791 64.337 41.0725 64.4997 41.3218C64.6623 41.5725 64.7437 41.8671 64.7437 42.2045C64.7437 42.5418 64.6623 42.8351 64.4997 43.0845C64.337 43.3325 64.1063 43.5245 63.8063 43.6591C63.5063 43.7938 63.1543 43.8618 62.7477 43.8618H61.965V45.0365H60.6943V40.5431H62.749C63.1557 40.5431 63.509 40.6111 63.8077 40.7458L63.8063 40.7445ZM63.261 42.6898C63.393 42.5765 63.4597 42.4151 63.4597 42.2045C63.4597 41.9938 63.393 41.8325 63.261 41.7165C63.129 41.6005 62.9317 41.5431 62.6703 41.5431H61.9637V42.8591H62.6703C62.9317 42.8591 63.1277 42.8018 63.261 42.6885V42.6898Z" fill="white"/>
<path d="M66.0732 40.5418H67.3439V44.0271H69.4879V45.0351H66.0732V40.5418Z" fill="white"/>
<path d="M73.7626 44.1631H71.8626L71.5092 45.0365H70.2119L72.1959 40.5431H73.4479L75.4386 45.0365H74.1159L73.7626 44.1631ZM73.3906 43.2258L72.8132 41.7885L72.2359 43.2258H73.3919H73.3906Z" fill="white"/>
<path d="M77.4184 44.8271C77.0437 44.6284 76.749 44.3511 76.5357 43.9951C76.321 43.6404 76.2144 43.2378 76.2144 42.7884C76.2144 42.3391 76.321 41.9364 76.5357 41.5818C76.749 41.2271 77.0437 40.9498 77.4184 40.7498C77.793 40.5511 78.2157 40.4511 78.6864 40.4511C79.097 40.4511 79.4677 40.5244 79.797 40.6698C80.1264 40.8151 80.401 41.0244 80.6184 41.2991L79.809 42.0311C79.5184 41.6804 79.165 41.5044 78.7504 41.5044C78.5064 41.5044 78.289 41.5578 78.0984 41.6644C77.9077 41.7711 77.7597 41.9218 77.6557 42.1164C77.5504 42.3111 77.4984 42.5351 77.4984 42.7871C77.4984 43.0391 77.5504 43.2631 77.6557 43.4578C77.761 43.6524 77.9077 43.8031 78.0984 43.9098C78.289 44.0164 78.5064 44.0698 78.7504 44.0698C79.165 44.0698 79.5184 43.8938 79.809 43.5431L80.6184 44.2751C80.3997 44.5484 80.1264 44.7591 79.797 44.9044C79.4677 45.0498 79.097 45.1231 78.6864 45.1231C78.2157 45.1231 77.793 45.0231 77.4184 44.8244V44.8271Z" fill="white"/>
<path d="M85.504 44.0538V45.0365H81.896V40.5431H85.42V41.5258H83.1533V42.2831H85.1493V43.2338H83.1533V44.0551H85.5027L85.504 44.0538Z" fill="white"/>
<path d="M27.4628 13.4485C25.5241 12.3605 23.3721 11.8165 21.0068 11.8165C17.7588 11.8165 15.2055 12.8418 13.3455 14.8911V2.54712H5.9668V37.6405H13.0135V34.7084C14.8415 36.9164 17.5068 38.0191 21.0068 38.0191C23.3721 38.0191 25.5241 37.4751 27.4628 36.3871C27.4681 36.3845 27.4748 36.3805 27.4801 36.3778V13.4591C27.4801 13.4591 27.4681 13.4525 27.4628 13.4498V13.4485ZM24.3881 30.0498C23.1748 31.3271 21.6215 31.9658 19.7295 31.9658C17.8375 31.9658 16.2841 31.3271 15.0708 30.0498C13.8561 28.7724 13.2495 27.0631 13.2495 24.9178C13.2495 22.7725 13.8561 21.0631 15.0708 19.7858C16.2841 18.5085 17.8375 17.8711 19.7295 17.8711C21.6215 17.8711 23.1748 18.5098 24.3881 19.7858C25.6015 21.0631 26.2095 22.7738 26.2095 24.9178C26.2095 27.0618 25.6015 28.7724 24.3881 30.0498Z" fill="white"/>
<path d="M55.5692 13.4591C53.1705 12.2711 50.2239 11.5338 47.0212 11.4418C46.9479 11.4445 46.8732 11.4471 46.7972 11.4498H46.7945C45.8612 11.4498 44.9879 11.4885 44.1719 11.5605C43.8612 11.5631 43.5519 11.5765 43.2452 11.5965V17.8765C43.9599 17.7685 44.7065 17.7111 45.4732 17.7111C48.7225 17.7111 51.5985 18.7351 53.3492 20.3031C54.0212 20.9045 54.4132 21.7631 54.4159 22.6658V22.6938H48.5519C46.2905 22.6938 44.3892 22.9445 42.8425 23.4445C41.8452 23.7671 40.9972 24.1951 40.2985 24.7271C39.2065 25.5591 38.4492 26.5791 38.0265 27.7898C37.8079 28.4138 37.6799 29.0885 37.6385 29.8138C37.6292 29.9765 37.6252 30.1405 37.6252 30.3071C37.6252 31.7898 38.0039 33.1138 38.7599 34.2805C39.5172 35.4471 40.6132 36.3618 42.0465 37.0231C43.4812 37.6858 45.1759 38.0165 47.1319 38.0165C50.9145 38.0165 53.4999 36.8338 54.8879 34.4698V37.6378H59.5825V16.4205C58.5532 15.2671 57.1839 14.2591 55.5639 13.4578L55.5692 13.4591ZM54.4185 29.5978C54.3479 29.7965 54.2665 29.9858 54.1785 30.1671C53.7572 31.0258 53.1452 31.6951 52.3385 32.1765C51.3599 32.7605 50.2412 33.0511 48.9799 33.0511C47.7185 33.0511 46.6705 32.7751 45.9292 32.2231C45.6652 32.0271 45.4479 31.8045 45.2785 31.5578C44.9772 31.1205 44.8252 30.6045 44.8185 30.0098C44.8185 29.9991 44.8185 29.9885 44.8185 29.9778C44.8185 27.9911 46.3319 26.9978 49.3585 26.9978H54.4185V29.5991V29.5978ZM36.2439 13.4591C35.9345 13.5991 35.6372 13.7391 35.3572 13.8778V13.4591H28.3105V37.6378H35.6879V25.6245C35.6879 24.9951 35.7305 24.4085 35.8145 23.8631C35.8145 22.9218 36.1479 22.0298 36.7412 21.2325V21.2298C37.3972 20.3498 38.3692 19.5845 39.5665 18.9951C39.6412 18.9671 39.7172 18.9405 39.7945 18.9151C39.7945 18.9151 39.7945 18.9151 39.7972 18.9151C39.8265 18.9018 40.0772 18.7925 40.4985 18.6391C40.9239 18.4845 41.5225 18.2858 42.2479 18.0938V11.6965C39.9905 11.9885 37.9119 12.7098 36.2425 13.4605L36.2439 13.4591Z" fill="white"/>
<path d="M67.5678 13.4591V14.1658C67.8171 13.9151 68.1185 13.6791 68.4638 13.4591C70.0305 12.4644 72.5131 11.8218 75.3091 11.8218C75.3971 11.8218 75.4851 11.8218 75.5718 11.8244C77.9318 11.8578 80.0531 12.3511 81.5625 13.1231C82.0531 13.3738 82.4785 13.6538 82.8265 13.9578C83.1025 14.1738 83.3691 14.4071 83.6238 14.6564C84.0611 15.0831 84.4491 15.5564 84.7878 16.0751C84.4331 16.5484 84.1078 17.0511 83.8118 17.5844C82.6398 19.6938 82.0451 22.1618 82.0451 24.9191C82.0451 27.6764 82.6398 30.1458 83.8118 32.2538C84.5425 33.5684 85.4531 34.7044 86.5331 35.6511V37.6404H79.1545V24.2084C79.1545 23.0738 79.0145 22.1004 78.7345 21.2898C78.7265 21.2658 78.7185 21.2404 78.7091 21.2164C78.6971 21.1844 78.6851 21.1511 78.6731 21.1191C78.4971 20.6671 78.2265 20.2484 77.8798 19.8778C76.9398 18.8724 75.4371 18.2218 73.7438 18.2218C73.2985 18.2218 72.8665 18.2671 72.4545 18.3524C72.4131 18.3604 72.3718 18.3684 72.3305 18.3791C72.2905 18.3884 72.2491 18.3978 72.2091 18.4084C72.1278 18.4284 72.0491 18.4498 71.9691 18.4738C71.8905 18.4964 71.8118 18.5204 71.7345 18.5471C71.5798 18.5991 71.4305 18.6564 71.2838 18.7204C71.2478 18.7364 71.2118 18.7524 71.1758 18.7698C71.1398 18.7858 71.1038 18.8031 71.0691 18.8191C71.0305 18.8378 70.9931 18.8564 70.9558 18.8764C70.9265 18.8911 70.8971 18.9071 70.8678 18.9231C70.6625 19.0324 70.4691 19.1551 70.2865 19.2858C70.1011 19.4191 69.9265 19.5644 69.7678 19.7191C69.7625 19.7244 69.7571 19.7284 69.7518 19.7338C69.6851 19.7951 69.6198 19.8604 69.5558 19.9271C68.4518 21.0791 67.8998 22.7884 67.8998 25.0591V37.6391H60.5225V13.4578H67.5691L67.5678 13.4591Z" fill="white"/>
<path d="M103.269 2.54712V14.8911C101.44 12.8418 98.9011 11.8165 95.6544 11.8165C93.2584 11.8165 91.0904 12.3525 89.1518 13.4245C87.5864 14.2898 86.2944 15.4525 85.2731 16.9125C85.0291 17.2618 84.7998 17.6285 84.5878 18.0125C83.4838 19.9991 82.9331 22.3005 82.9331 24.9178C82.9331 27.5351 83.4851 29.8365 84.5878 31.8231C85.1331 32.8071 85.7824 33.6791 86.5344 34.4378C87.3011 35.2125 88.1731 35.8698 89.1518 36.4111C91.0904 37.4831 93.2584 38.0191 95.6544 38.0191C99.1224 38.0191 101.772 36.9164 103.6 34.7084V37.6405H110.646V2.54712H103.268H103.269ZM101.566 30.0498C100.337 31.3271 98.7918 31.9658 96.9318 31.9658C95.0718 31.9658 93.4798 31.3271 92.2504 30.0498C91.0211 28.7724 90.4064 27.0631 90.4064 24.9178C90.4064 22.7725 91.0211 21.0631 92.2504 19.7858C93.4798 18.5085 95.0411 17.8711 96.9318 17.8711C98.8224 17.8711 100.337 18.5098 101.566 19.7858C102.796 21.0631 103.412 22.7738 103.412 24.9178C103.412 27.0618 102.797 28.7724 101.566 30.0498Z" fill="white"/>
<path d="M118.027 12.1951H110.648V37.6405H118.027V12.1951Z" fill="#E3063B"/>
<path d="M135.477 17.8805V12.2058H129.329V6.0098H121.951V12.2058H118.025V17.8805H121.951V28.3338C121.951 31.3298 122.779 33.5991 124.433 35.1445C126.088 36.6898 128.429 37.4618 131.456 37.4618C131.864 37.4618 132.265 37.4458 132.659 37.4125C131.653 36.5938 131.012 35.3458 131.012 33.9525C131.012 33.0618 131.275 32.2311 131.727 31.5338C131.081 31.4191 130.557 31.1485 130.156 30.7231C129.604 30.1405 129.328 29.3125 129.328 28.2405V17.8818H135.476L135.477 17.8805Z" fill="#E3063B"/>
<path d="M114.336 9.92579C116.373 9.92579 118.025 8.27402 118.025 6.23645C118.025 4.19889 116.373 2.54712 114.336 2.54712C112.298 2.54712 110.646 4.19889 110.646 6.23645C110.646 8.27402 112.298 9.92579 114.336 9.92579Z" fill="white"/>
<path d="M139.167 33.9511C139.167 35.9884 137.515 37.6404 135.477 37.6404C134.892 37.6404 134.337 37.5031 133.845 37.2604C132.627 36.6578 131.788 35.4031 131.788 33.9511C131.788 33.0551 132.108 32.2338 132.64 31.5938C133.316 30.7804 134.336 30.2618 135.479 30.2618C137.516 30.2618 139.168 31.9138 139.168 33.9511H139.167Z" fill="white"/>
</svg>
