<svg width="2700" height="900" viewBox="0 0 2700 900" fill="none" xmlns="http://www.w3.org/2000/svg">
<path d="M128.85 779.058H102.975V760.158H178.45V779.058H152.7V844.408H128.875V779.058H128.85Z" fill="black"/>
<path d="M280.875 760.158V844.408H257.05V811.558H224.55V844.408H200.725V760.158H224.55V791.808H257.05V760.158H280.875Z" fill="black"/>
<path d="M378.75 826.008V844.433H311.1V760.183H377.175V778.608H334.675V792.808H372.1V810.633H334.675V826.033H378.725L378.75 826.008Z" fill="black"/>
<path d="M529.8 844.408L529.55 799.758L507.875 836.108H497.275L475.725 800.958V844.408H453.7V760.158H473.325L502.925 808.783L531.825 760.158H551.45L551.7 844.408H529.8Z" fill="black"/>
<path d="M638.375 828.058H602.75L596.125 844.433H571.8L609 760.183H632.475L669.8 844.433H645L638.375 828.058ZM631.4 810.483L620.575 783.533L609.75 810.483H631.425H631.4Z" fill="black"/>
<path d="M726.725 822.033H713.725V844.433H689.9V760.183H728.425C736.05 760.183 742.675 761.458 748.275 763.983C753.9 766.508 758.225 770.134 761.275 774.809C764.325 779.509 765.85 785.033 765.85 791.358C765.85 797.683 764.425 802.784 761.575 807.309C758.725 811.834 754.65 815.383 749.35 817.958L767.525 844.433H742L726.725 822.033ZM738.025 782.183C735.525 780.008 731.85 778.933 726.95 778.933H713.7V803.608H726.95C731.85 803.608 735.525 802.533 738.025 800.408C740.5 798.283 741.75 795.258 741.75 791.308C741.75 787.358 740.5 784.334 738.025 782.159V782.183Z" fill="black"/>
<path d="M824.825 813.858L815.925 823.358V844.433H792.325V760.183H815.925V795.208L848.55 760.183H874.8L840.375 797.508L876.6 844.458H848.925L824.85 813.884L824.825 813.858Z" fill="black"/>
<path d="M963.85 826.008V844.433H896.2V760.183H962.275V778.608H919.775V792.808H957.2V810.633H919.775V826.033H963.825L963.85 826.008Z" fill="black"/>
<path d="M1008.38 779.058H982.5V760.158H1057.98V779.058H1032.23V844.408H1008.4V779.058H1008.38Z" fill="black"/>
<path d="M1187 763.958C1192.62 766.483 1196.95 770.108 1200 774.783C1203.05 779.483 1204.57 785.008 1204.57 791.333C1204.57 797.658 1203.05 803.158 1200 807.833C1196.95 812.483 1192.62 816.083 1187 818.608C1181.37 821.133 1174.77 822.408 1167.15 822.408H1152.47V844.433H1128.65V760.183H1167.17C1174.8 760.183 1181.42 761.458 1187.02 763.983L1187 763.958ZM1176.77 800.434C1179.25 798.309 1180.5 795.283 1180.5 791.333C1180.5 787.383 1179.25 784.358 1176.77 782.183C1174.3 780.008 1170.6 778.933 1165.7 778.933H1152.45V803.608H1165.7C1170.6 803.608 1174.27 802.533 1176.77 800.408V800.434Z" fill="black"/>
<path d="M1229.5 760.158H1253.32V825.508H1293.52V844.408H1229.5V760.158Z" fill="black"/>
<path d="M1373.67 828.058H1338.05L1331.42 844.433H1307.1L1344.3 760.183H1367.77L1405.1 844.433H1380.3L1373.67 828.058ZM1366.7 810.483L1355.87 783.533L1345.05 810.483H1366.72H1366.7Z" fill="black"/>
<path d="M1442.22 840.508C1435.2 836.783 1429.67 831.583 1425.67 824.908C1421.65 818.258 1419.65 810.708 1419.65 802.283C1419.65 793.858 1421.65 786.308 1425.67 779.658C1429.67 773.008 1435.2 767.808 1442.22 764.058C1449.25 760.333 1457.17 758.458 1466 758.458C1473.7 758.458 1480.65 759.833 1486.82 762.558C1493 765.283 1498.15 769.208 1502.22 774.358L1487.05 788.083C1481.6 781.508 1474.97 778.208 1467.2 778.208C1462.62 778.208 1458.55 779.208 1454.97 781.208C1451.4 783.208 1448.62 786.033 1446.67 789.683C1444.7 793.333 1443.72 797.533 1443.72 802.258C1443.72 806.983 1444.7 811.183 1446.67 814.833C1448.65 818.483 1451.4 821.308 1454.97 823.308C1458.55 825.308 1462.62 826.308 1467.2 826.308C1474.97 826.308 1481.6 823.008 1487.05 816.433L1502.22 830.158C1498.12 835.283 1493 839.233 1486.82 841.958C1480.65 844.683 1473.7 846.058 1466 846.058C1457.17 846.058 1449.25 844.183 1442.22 840.458V840.508Z" fill="black"/>
<path d="M1593.83 826.008V844.433H1526.17V760.183H1592.25V778.608H1549.75V792.808H1587.17V810.633H1549.75V826.033H1593.8L1593.83 826.008Z" fill="black"/>
<path d="M505.55 252.159C469.2 231.759 428.85 221.559 384.5 221.559C323.6 221.559 275.725 240.784 240.85 279.209V47.7585H102.5V705.759H234.625V650.783C268.9 692.183 318.875 712.859 384.5 712.859C428.85 712.859 469.2 702.659 505.55 682.259C505.65 682.209 505.775 682.133 505.875 682.083V252.359C505.875 252.359 505.65 252.234 505.55 252.184V252.159ZM447.9 563.433C425.15 587.383 396.025 599.358 360.55 599.358C325.075 599.358 295.95 587.383 273.2 563.433C250.425 539.483 239.05 507.433 239.05 467.208C239.05 426.983 250.425 394.934 273.2 370.984C295.95 347.034 325.075 335.084 360.55 335.084C396.025 335.084 425.15 347.059 447.9 370.984C470.65 394.934 482.05 427.008 482.05 467.208C482.05 507.408 470.65 539.483 447.9 563.433Z" fill="black"/>
<path d="M1032.55 252.359C987.575 230.084 932.325 216.259 872.275 214.534C870.9 214.584 869.5 214.634 868.075 214.684H868.025C850.525 214.684 834.15 215.409 818.85 216.759C813.025 216.809 807.225 217.059 801.475 217.434V335.184C814.875 333.159 828.875 332.084 843.25 332.084C904.175 332.084 958.1 351.284 990.925 380.684C1003.53 391.959 1010.88 408.059 1010.93 424.984V425.509H900.975C858.575 425.509 822.925 430.209 793.925 439.584C775.225 445.634 759.325 453.659 746.225 463.634C725.75 479.234 711.55 498.359 703.625 521.059C699.525 532.759 697.125 545.409 696.35 559.009C696.175 562.059 696.1 565.134 696.1 568.259C696.1 596.059 703.2 620.884 717.375 642.759C731.575 664.634 752.125 681.784 779 694.184C805.9 706.609 837.675 712.809 874.35 712.809C945.275 712.809 993.75 690.634 1019.78 646.309V705.709H1107.8V307.884C1088.5 286.259 1062.83 267.359 1032.45 252.334L1032.55 252.359ZM1010.98 554.959C1009.65 558.684 1008.13 562.234 1006.48 565.634C998.575 581.734 987.1 594.284 971.975 603.309C953.625 614.259 932.65 619.709 909 619.709C885.35 619.709 865.7 614.534 851.8 604.184C846.85 600.509 842.775 596.334 839.6 591.709C833.95 583.509 831.1 573.834 830.975 562.684C830.975 562.484 830.975 562.284 830.975 562.084C830.975 524.834 859.35 506.209 916.1 506.209H1010.98V554.984V554.959ZM670.2 252.359C664.4 254.984 658.825 257.609 653.575 260.209V252.359H521.45V705.709H659.775V480.459C659.775 468.659 660.575 457.659 662.15 447.434C662.15 429.784 668.4 413.059 679.525 398.109V398.059C691.825 381.559 710.05 367.209 732.5 356.159C733.9 355.634 735.325 355.134 736.775 354.659C736.775 354.659 736.775 354.659 736.825 354.659C737.375 354.409 742.075 352.359 749.975 349.484C757.95 346.584 769.175 342.859 782.775 339.259V219.309C740.45 224.784 701.475 238.309 670.175 252.384L670.2 252.359Z" fill="black"/>
<path d="M1257.52 252.359V265.609C1262.2 260.909 1267.85 256.484 1274.32 252.359C1303.7 233.709 1350.25 221.659 1402.67 221.659C1404.32 221.659 1405.97 221.659 1407.6 221.709C1451.85 222.334 1491.62 231.584 1519.92 246.059C1529.12 250.759 1537.1 256.009 1543.62 261.709C1548.8 265.759 1553.8 270.134 1558.57 274.809C1566.77 282.809 1574.05 291.684 1580.4 301.409C1573.75 310.284 1567.65 319.709 1562.1 329.709C1540.12 369.259 1528.97 415.534 1528.97 467.234C1528.97 518.934 1540.12 565.234 1562.1 604.759C1575.8 629.409 1592.87 650.709 1613.12 668.459V705.759H1474.77V453.909C1474.77 432.634 1472.15 414.384 1466.9 399.184C1466.75 398.734 1466.6 398.259 1466.42 397.809C1466.2 397.209 1465.97 396.584 1465.75 395.984C1462.45 387.509 1457.37 379.659 1450.87 372.709C1433.25 353.859 1405.07 341.659 1373.32 341.659C1364.97 341.659 1356.87 342.509 1349.15 344.109C1348.37 344.259 1347.6 344.409 1346.82 344.609C1346.07 344.784 1345.3 344.959 1344.55 345.159C1343.02 345.534 1341.55 345.934 1340.05 346.384C1338.57 346.809 1337.1 347.259 1335.65 347.759C1332.75 348.734 1329.95 349.809 1327.2 351.009C1326.52 351.309 1325.85 351.609 1325.17 351.934C1324.5 352.234 1323.82 352.559 1323.17 352.859C1322.45 353.209 1321.75 353.559 1321.05 353.934C1320.5 354.209 1319.95 354.509 1319.4 354.809C1315.55 356.859 1311.92 359.159 1308.5 361.609C1305.02 364.109 1301.75 366.834 1298.77 369.734C1298.67 369.834 1298.57 369.909 1298.47 370.009C1297.22 371.159 1296 372.384 1294.8 373.634C1274.1 395.234 1263.75 427.284 1263.75 469.859V705.734H1125.42V252.334H1257.55L1257.52 252.359Z" fill="black"/>
<path d="M1926.93 47.7585V279.209C1892.63 240.784 1845.02 221.559 1784.15 221.559C1739.22 221.559 1698.58 231.609 1662.23 251.709C1632.88 267.934 1608.65 289.734 1589.5 317.109C1584.92 323.659 1580.62 330.534 1576.65 337.734C1555.95 374.984 1545.62 418.133 1545.62 467.208C1545.62 516.283 1555.97 559.434 1576.65 596.684C1586.87 615.134 1599.05 631.484 1613.15 645.709C1627.53 660.234 1643.88 672.559 1662.23 682.708C1698.58 702.809 1739.22 712.859 1784.15 712.859C1849.17 712.859 1898.85 692.183 1933.12 650.783V705.759H2065.25V47.7585H1926.9H1926.93ZM1895 563.433C1871.95 587.383 1842.97 599.358 1808.1 599.358C1773.22 599.358 1743.38 587.383 1720.33 563.433C1697.28 539.483 1685.75 507.433 1685.75 467.208C1685.75 426.983 1697.28 394.934 1720.33 370.984C1743.38 347.034 1772.65 335.084 1808.1 335.084C1843.55 335.084 1871.95 347.059 1895 370.984C1918.05 394.934 1929.6 427.008 1929.6 467.208C1929.6 507.408 1918.08 539.483 1895 563.433Z" fill="black"/>
<path d="M2203.63 228.658H2065.27V705.759H2203.63V228.658Z" fill="#E3063B"/>
<path d="M2530.82 335.258V228.858H2415.55V112.683H2277.2V228.858H2203.6V335.258H2277.2V531.258C2277.2 587.433 2292.72 629.983 2323.75 658.958C2354.77 687.933 2398.67 702.408 2455.42 702.408C2463.07 702.408 2470.6 702.108 2477.97 701.483C2459.12 686.133 2447.1 662.733 2447.1 636.608C2447.1 619.908 2452.02 604.333 2460.5 591.258C2448.4 589.108 2438.57 584.034 2431.05 576.059C2420.7 565.134 2415.52 549.609 2415.52 529.509V335.283H2530.8L2530.82 335.258Z" fill="#E3063B"/>
<path d="M2134.43 186.109C2172.63 186.109 2203.6 155.138 2203.6 116.934C2203.6 78.7292 2172.63 47.7585 2134.43 47.7585C2096.22 47.7585 2065.25 78.7292 2065.25 116.934C2065.25 155.138 2096.22 186.109 2134.43 186.109Z" fill="black"/>
<path d="M2600 636.583C2600 674.783 2569.02 705.759 2530.82 705.759C2519.85 705.759 2509.45 703.183 2500.22 698.633C2477.37 687.333 2461.65 663.808 2461.65 636.583C2461.65 619.783 2467.65 604.383 2477.62 592.383C2490.3 577.133 2509.42 567.408 2530.85 567.408C2569.05 567.408 2600.02 598.383 2600.02 636.583H2600Z" fill="black"/>
</svg>
