<svg width="49" height="49" viewBox="0 0 49 49" fill="none" xmlns="http://www.w3.org/2000/svg">
<path d="M0.5 24.5C0.5 11.2452 11.2452 0.5 24.5 0.5C37.7548 0.5 48.5 11.2452 48.5 24.5C48.5 37.7548 37.7548 48.5 24.5 48.5C11.2452 48.5 0.5 37.7548 0.5 24.5Z" fill="#E2063A"/>
<rect x="4.5" y="4.5" width="40" height="40" rx="20" fill="#1F1F1F"/>
<path d="M29.5 33H19.5C16.5 33 14.5 31.5 14.5 28V21C14.5 17.5 16.5 16 19.5 16H29.5C32.5 16 34.5 17.5 34.5 21V28C34.5 31.5 32.5 33 29.5 33Z" stroke="white" stroke-width="1.5" stroke-miterlimit="10" stroke-linecap="round" stroke-linejoin="round"/>
<path d="M29.5 21.5L26.37 24C25.34 24.82 23.65 24.82 22.62 24L19.5 21.5" stroke="white" stroke-width="1.5" stroke-miterlimit="10" stroke-linecap="round" stroke-linejoin="round"/>
</svg>
