<svg width="48" height="48" viewBox="0 0 48 48" fill="none" xmlns="http://www.w3.org/2000/svg">
<path d="M28.6166 20.925C29.7488 20.925 30.6666 20.0072 30.6666 18.875C30.6666 17.7428 29.7488 16.825 28.6166 16.825C27.4845 16.825 26.5667 17.7428 26.5667 18.875C26.5667 20.0072 27.4845 20.925 28.6166 20.925Z" stroke="#1F1F1F" stroke-width="1.5" stroke-miterlimit="10" stroke-linecap="round" stroke-linejoin="round"/>
<path d="M19.3834 20.925C20.5156 20.925 21.4334 20.0072 21.4334 18.875C21.4334 17.7428 20.5156 16.825 19.3834 16.825C18.2512 16.825 17.3334 17.7428 17.3334 18.875C17.3334 20.0072 18.2512 20.925 19.3834 20.925Z" stroke="#1F1F1F" stroke-width="1.5" stroke-miterlimit="10" stroke-linecap="round" stroke-linejoin="round"/>
<path d="M28.6166 31.175C29.7488 31.175 30.6666 30.2572 30.6666 29.125C30.6666 27.9928 29.7488 27.075 28.6166 27.075C27.4845 27.075 26.5667 27.9928 26.5667 29.125C26.5667 30.2572 27.4845 31.175 28.6166 31.175Z" stroke="#1F1F1F" stroke-width="1.5" stroke-miterlimit="10" stroke-linecap="round" stroke-linejoin="round"/>
<path d="M19.3834 31.175C20.5156 31.175 21.4334 30.2572 21.4334 29.125C21.4334 27.9928 20.5156 27.075 19.3834 27.075C18.2512 27.075 17.3334 27.9928 17.3334 29.125C17.3334 30.2572 18.2512 31.175 19.3834 31.175Z" stroke="#1F1F1F" stroke-width="1.5" stroke-miterlimit="10" stroke-linecap="round" stroke-linejoin="round"/>
</svg>
