<svg width="54" height="54" viewBox="0 0 54 54" fill="none" xmlns="http://www.w3.org/2000/svg">
<path d="M39.3348 11.5152L42.5411 14.7214L43.0714 14.1911L39.8652 10.9848L39.3348 11.5152ZM36.7152 20.4911L35.1402 18.9161L33.5089 17.2848L33.2434 17.0193L32.9782 17.2852L10.9845 39.3352L10.875 39.445V39.6V42.75V43.125H11.25H14.4H14.555L14.6648 43.0155L36.7148 21.0218L36.9807 20.7566L36.7152 20.4911ZM19.5357 24.9035L19.8024 25.1685L20.0667 24.9011L24.9042 20.0074L25.164 19.7446L24.905 19.4809L21.755 16.2747L21.4899 16.0048L21.2223 16.2723L19.0125 18.4822L16.3898 15.8595L18.5494 13.6496L18.8085 13.3845L18.5464 13.1223L16.0152 10.5911L15.75 10.3259L15.4848 10.5911L10.5911 15.4848L10.3251 15.7508L10.5919 16.016L19.5357 24.9035ZM37.984 43.4081L38.2492 43.6749L38.5152 43.4089L43.4089 38.5152L43.6741 38.25L43.4089 37.9848L40.8777 35.4536L40.6155 35.1915L40.3504 35.4506L38.1405 37.6102L35.5148 34.9845L37.6744 32.7746L37.9359 32.5071L37.6691 32.245L34.4628 29.095L34.1977 28.8345L33.9348 29.0973L29.0973 33.9348L28.833 34.1992L29.0965 34.4643L37.984 43.4081ZM37.1411 26.4214L48.9697 38.25L38.25 48.9697L26.4214 37.1411L26.1562 36.8759L25.8911 37.1411L16.1572 46.875H7.125V37.8428L16.8589 28.1089L17.1241 27.8438L16.8589 27.5786L5.03033 15.75L15.75 5.03033L27.6348 16.9152L27.9009 17.1812L28.166 16.9143L36.6589 8.36516C36.659 8.36503 36.6592 8.3649 36.6593 8.36477C37.0751 7.94903 37.539 7.64081 38.0518 7.43568C38.5704 7.22822 39.1044 7.125 39.6562 7.125C40.2081 7.125 40.7421 7.22822 41.2607 7.43568C41.7733 7.64069 42.2368 7.94869 42.6525 8.36407C42.6529 8.36444 42.6532 8.3648 42.6536 8.36516L45.6324 11.4002L45.6348 11.4027C46.0508 11.8186 46.3591 12.2825 46.5643 12.7955C46.7718 13.3142 46.875 13.8482 46.875 14.4C46.875 14.9518 46.7718 15.4749 46.566 15.9722C46.3613 16.4668 46.0528 16.9231 45.6348 17.3411L45.634 17.342L37.1402 25.892L36.8768 26.1571L37.1411 26.4214Z" fill="#DDDDDD" stroke="#DDDDDD" stroke-width="0.75"/>
</svg>
