<svg width="288" height="96" viewBox="0 0 288 96" fill="none" xmlns="http://www.w3.org/2000/svg">
<g opacity="0.4">
<path d="M13.744 83.0986H10.984V81.0826H19.0347V83.0986H16.288V90.0693H13.7467L13.7467 83.0986H13.744Z" fill="#E6E6E6"/>
<path d="M29.96 81.0826V90.0693H27.4186V86.5653H23.952V90.0693H21.4106V81.0826H23.952V84.4586H27.4186V81.0826H29.96Z" fill="#E6E6E6"/>
<path d="M40.4 88.1066V90.0719H33.184V81.0852H40.232V83.0506H35.6986V84.5652H39.6906V86.4666H35.6986V88.1092H40.3973L40.4 88.1066Z" fill="#E6E6E6"/>
<path d="M56.512 90.0693L56.4853 85.3066L54.1733 89.1839H53.0427L50.744 85.4346V90.0693H48.3947V81.0826H50.488L53.6453 86.2693L56.728 81.0826H58.8213L58.848 90.0693H56.512Z" fill="#E6E6E6"/>
<path d="M68.0934 88.3252H64.2934L63.5867 90.0719H60.9921L64.9601 81.0852H67.4641L71.4454 90.0719H68.8001L68.0934 88.3252ZM67.3494 86.4506L66.1947 83.5759L65.0401 86.4506H67.3521H67.3494Z" fill="#E6E6E6"/>
<path d="M77.5174 87.6826H76.1307V90.0719H73.5894V81.0852H77.6987C78.512 81.0852 79.2187 81.2212 79.816 81.4906C80.416 81.7599 80.8774 82.1466 81.2027 82.6452C81.528 83.1466 81.6907 83.7359 81.6907 84.4106C81.6907 85.0852 81.5387 85.6292 81.2347 86.1119C80.9307 86.5946 80.496 86.9732 79.9307 87.2479L81.8694 90.0719H79.1467L77.5174 87.6826ZM78.7227 83.4319C78.456 83.1999 78.064 83.0852 77.5414 83.0852H76.128V85.7172H77.5414C78.064 85.7172 78.456 85.6026 78.7227 85.3759C78.9867 85.1492 79.12 84.8266 79.12 84.4052C79.12 83.9839 78.9867 83.6612 78.7227 83.4292V83.4319Z" fill="#E6E6E6"/>
<path d="M87.9813 86.8106L87.032 87.8239V90.0719H84.5146V81.0852H87.032V84.8212L90.512 81.0852H93.312L89.64 85.0666L93.504 90.0746H90.552L87.984 86.8132L87.9813 86.8106Z" fill="#E6E6E6"/>
<path d="M102.811 88.1066V90.0719H95.5947V81.0852H102.643V83.0506H98.1094V84.5652H102.101V86.4666H98.1094V88.1092H102.808L102.811 88.1066Z" fill="#E6E6E6"/>
<path d="M107.56 83.0986H104.8V81.0826H112.851V83.0986H110.104V90.0693H107.563V83.0986H107.56Z" fill="#E6E6E6"/>
<path d="M126.613 81.4879C127.213 81.7572 127.675 82.1439 128 82.6426C128.325 83.1439 128.488 83.7332 128.488 84.4079C128.488 85.0826 128.325 85.6692 128 86.1679C127.675 86.6639 127.213 87.0479 126.613 87.3172C126.013 87.5866 125.309 87.7226 124.496 87.7226H122.931V90.0719H120.389V81.0852H124.499C125.312 81.0852 126.019 81.2212 126.616 81.4906L126.613 81.4879ZM125.523 85.3786C125.787 85.1519 125.92 84.8292 125.92 84.4079C125.92 83.9866 125.787 83.6639 125.523 83.4319C125.259 83.1999 124.864 83.0852 124.341 83.0852H122.928V85.7172H124.341C124.864 85.7172 125.256 85.6026 125.523 85.3759V85.3786Z" fill="#E6E6E6"/>
<path d="M131.147 81.0826H133.688V88.0533H137.976V90.0693H131.147V81.0826Z" fill="#E6E6E6"/>
<path d="M146.525 88.3252H142.725L142.019 90.0719H139.424L143.392 81.0852H145.896L149.877 90.0719H147.232L146.525 88.3252ZM145.781 86.4506L144.627 83.5759L143.472 86.4506H145.784H145.781Z" fill="#E6E6E6"/>
<path d="M153.837 89.6534C153.088 89.256 152.499 88.7014 152.072 87.9894C151.643 87.28 151.429 86.4747 151.429 85.576C151.429 84.6774 151.643 83.872 152.072 83.1627C152.499 82.4534 153.088 81.8987 153.837 81.4987C154.587 81.1014 155.432 80.9014 156.373 80.9014C157.195 80.9014 157.936 81.048 158.595 81.3387C159.253 81.6294 159.803 82.048 160.237 82.5974L158.619 84.0614C158.037 83.36 157.331 83.008 156.501 83.008C156.013 83.008 155.579 83.1147 155.197 83.328C154.816 83.5414 154.52 83.8427 154.312 84.232C154.101 84.6214 153.997 85.0694 153.997 85.5734C153.997 86.0774 154.101 86.5254 154.312 86.9147C154.523 87.304 154.816 87.6054 155.197 87.8187C155.579 88.032 156.013 88.1387 156.501 88.1387C157.331 88.1387 158.037 87.7867 158.619 87.0854L160.237 88.5494C159.8 89.096 159.253 89.5174 158.595 89.808C157.936 90.0987 157.195 90.2454 156.373 90.2454C155.432 90.2454 154.587 90.0454 153.837 89.648V89.6534Z" fill="#E6E6E6"/>
<path d="M170.008 88.1066V90.0719H162.792V81.0852H169.84V83.0506H165.307V84.5652H169.299V86.4666H165.307V88.1092H170.005L170.008 88.1066Z" fill="#E6E6E6"/>
<path d="M53.9254 26.896C50.048 24.72 45.744 23.632 41.0134 23.632C34.5174 23.632 29.4107 25.6827 25.6907 29.7814L25.6907 5.09335L10.9333 5.09335L10.9333 75.28H25.0267V69.416C28.6827 73.832 34.0134 76.0374 41.0134 76.0374C45.744 76.0374 50.048 74.9494 53.9254 72.7734C53.936 72.768 53.9494 72.76 53.96 72.7547L53.96 26.9174C53.96 26.9174 53.936 26.904 53.9254 26.8987V26.896ZM47.776 60.0987C45.3494 62.6534 42.2427 63.9307 38.4587 63.9307C34.6747 63.9307 31.568 62.6534 29.1413 60.0987C26.712 57.544 25.4987 54.1254 25.4987 49.8347C25.4987 45.544 26.712 42.1254 29.1413 39.5707C31.568 37.016 34.6747 35.7414 38.4587 35.7414C42.2427 35.7414 45.3494 37.0187 47.776 39.5707C50.2027 42.1254 51.4187 45.5467 51.4187 49.8347C51.4187 54.1227 50.2027 57.544 47.776 60.0987Z" fill="#E6E6E6"/>
<path d="M110.139 26.9176C105.341 24.5416 99.448 23.0669 93.0427 22.8829C92.896 22.8883 92.7467 22.8936 92.5947 22.8989H92.5893C90.7227 22.8989 88.976 22.9763 87.344 23.1203C86.7227 23.1256 86.104 23.1523 85.4907 23.1923V35.7523C86.92 35.5363 88.4133 35.4216 89.9467 35.4216C96.4453 35.4216 102.197 37.4696 105.699 40.6056C107.043 41.8083 107.827 43.5256 107.832 45.3309V45.3869H96.104C91.5813 45.3869 87.7787 45.8883 84.6853 46.8883C82.6907 47.5336 80.9947 48.3896 79.5973 49.4536C77.4133 51.1176 75.8987 53.1576 75.0533 55.5789C74.616 56.8269 74.36 58.1763 74.2773 59.6269C74.2587 59.9523 74.2507 60.2803 74.2507 60.6136C74.2507 63.5789 75.008 66.2269 76.52 68.5603C78.0347 70.8936 80.2267 72.7229 83.0933 74.0456C85.9627 75.3709 89.352 76.0323 93.264 76.0323C100.829 76.0323 106 73.6669 108.776 68.9389V75.2749H118.165V32.8403C116.107 30.5336 113.368 28.5176 110.128 26.9149L110.139 26.9176ZM107.837 59.1949C107.696 59.5923 107.533 59.9709 107.357 60.3336C106.515 62.0509 105.291 63.3896 103.677 64.3523C101.72 65.5203 99.4827 66.1016 96.96 66.1016C94.4373 66.1016 92.3413 65.5496 90.8587 64.4456C90.3307 64.0536 89.896 63.6083 89.5573 63.1149C88.9547 62.2403 88.6507 61.2083 88.6373 60.0189C88.6373 59.9976 88.6373 59.9763 88.6373 59.9549C88.6373 55.9816 91.664 53.9949 97.7173 53.9949H107.837V59.1976V59.1949ZM71.488 26.9176C70.8693 27.1976 70.2747 27.4776 69.7147 27.7549V26.9176L55.6213 26.9176L55.6213 75.2749H70.376L70.376 51.2483C70.376 49.9896 70.4613 48.8163 70.6293 47.7256C70.6293 45.8429 71.296 44.0589 72.4827 42.4643V42.4589C73.7947 40.6989 75.7387 39.1683 78.1333 37.9896C78.2827 37.9336 78.4347 37.8803 78.5893 37.8296C78.5893 37.8296 78.5893 37.8296 78.5947 37.8296C78.6533 37.8029 79.1547 37.5843 79.9973 37.2776C80.848 36.9683 82.0453 36.5709 83.496 36.1869V23.3923C78.9813 23.9763 74.824 25.4189 71.4853 26.9203L71.488 26.9176Z" fill="#E6E6E6"/>
<path d="M134.136 26.9175V28.3308C134.635 27.8295 135.237 27.3575 135.928 26.9175C139.061 24.9282 144.027 23.6428 149.619 23.6428C149.795 23.6428 149.971 23.6428 150.144 23.6482C154.864 23.7148 159.107 24.7015 162.125 26.2455C163.107 26.7468 163.957 27.3068 164.653 27.9148C165.205 28.3468 165.739 28.8135 166.248 29.3122C167.123 30.1655 167.899 31.1122 168.576 32.1495C167.867 33.0962 167.216 34.1015 166.624 35.1682C164.28 39.3868 163.091 44.3228 163.091 49.8375C163.091 55.3522 164.28 60.2908 166.624 64.5068C168.085 67.1362 169.907 69.4082 172.067 71.3015V75.2802H157.309V48.4162C157.309 46.1468 157.029 44.2002 156.469 42.5788C156.453 42.5308 156.437 42.4802 156.419 42.4322C156.395 42.3682 156.371 42.3015 156.347 42.2375C155.995 41.3335 155.453 40.4962 154.76 39.7548C152.88 37.7442 149.875 36.4428 146.488 36.4428C145.597 36.4428 144.733 36.5335 143.909 36.7042C143.827 36.7202 143.744 36.7362 143.661 36.7575C143.581 36.7762 143.499 36.7948 143.419 36.8162C143.256 36.8562 143.099 36.8988 142.939 36.9468C142.781 36.9922 142.624 37.0402 142.469 37.0935C142.16 37.1975 141.861 37.3122 141.568 37.4402C141.496 37.4722 141.424 37.5042 141.352 37.5388C141.28 37.5708 141.208 37.6055 141.139 37.6375C141.061 37.6748 140.987 37.7122 140.912 37.7522C140.853 37.7815 140.795 37.8135 140.736 37.8455C140.325 38.0642 139.939 38.3095 139.573 38.5708C139.203 38.8375 138.853 39.1282 138.536 39.4375C138.525 39.4482 138.515 39.4562 138.504 39.4668C138.371 39.5895 138.24 39.7202 138.112 39.8535C135.904 42.1575 134.8 45.5762 134.8 50.1175V75.2775H120.045L120.045 26.9148L134.139 26.9148L134.136 26.9175Z" fill="#E6E6E6"/>
<path d="M205.539 5.09335V29.7814C201.88 25.6827 196.803 23.632 190.309 23.632C185.517 23.632 181.181 24.704 177.304 26.848C174.173 28.5787 171.589 30.904 169.547 33.824C169.059 34.5227 168.6 35.256 168.176 36.024C165.968 39.9974 164.867 44.6 164.867 49.8347C164.867 55.0694 165.971 59.672 168.176 63.6454C169.267 65.6134 170.565 67.3574 172.069 68.8747C173.603 70.424 175.347 71.7387 177.304 72.8214C181.181 74.9654 185.517 76.0374 190.309 76.0374C197.245 76.0374 202.544 73.832 206.2 69.416V75.28L220.293 75.28V5.09335L205.536 5.09335H205.539ZM202.133 60.0987C199.675 62.6534 196.584 63.9307 192.864 63.9307C189.144 63.9307 185.96 62.6534 183.501 60.0987C181.043 57.544 179.813 54.1254 179.813 49.8347C179.813 45.544 181.043 42.1254 183.501 39.5707C185.96 37.016 189.083 35.7414 192.864 35.7414C196.645 35.7414 199.675 37.0187 202.133 39.5707C204.592 42.1254 205.824 45.5467 205.824 49.8347C205.824 54.1227 204.595 57.544 202.133 60.0987Z" fill="#E6E6E6"/>
<path d="M235.053 24.3895L220.296 24.3895V75.2802H235.053V24.3895Z" fill="#E6E6E6"/>
<path d="M269.955 35.76V24.4107L257.659 24.4107V12.0187L242.901 12.0187V24.4107H235.051V35.76H242.901V56.6667C242.901 62.6587 244.557 67.1973 247.867 70.288C251.176 73.3787 255.859 74.9227 261.912 74.9227C262.728 74.9227 263.531 74.8907 264.317 74.824C262.307 73.1867 261.024 70.6907 261.024 67.904C261.024 66.1227 261.549 64.4613 262.453 63.0667C261.163 62.8373 260.115 62.296 259.312 61.4454C258.208 60.28 257.656 58.624 257.656 56.48V35.7627L269.952 35.7627L269.955 35.76Z" fill="#E6E6E6"/>
<path d="M227.672 19.8502C231.747 19.8502 235.051 16.5467 235.051 12.4716C235.051 8.39644 231.747 5.0929 227.672 5.0929C223.597 5.0929 220.293 8.39644 220.293 12.4716C220.293 16.5467 223.597 19.8502 227.672 19.8502Z" fill="#E6E6E6"/>
<path d="M277.334 67.9007C277.334 71.9754 274.03 75.2794 269.955 75.2794C268.784 75.2794 267.675 75.0047 266.691 74.5194C264.254 73.3141 262.576 70.8047 262.576 67.9007C262.576 66.1087 263.216 64.4661 264.28 63.1861C265.632 61.5594 267.672 60.5221 269.958 60.5221C274.032 60.5221 277.336 63.8261 277.336 67.9007H277.334Z" fill="#E6E6E6"/>
</g>
</svg>
