<svg width="54" height="54" viewBox="0 0 54 54" fill="none" xmlns="http://www.w3.org/2000/svg">
<path d="M4.875 22.6918L19.875 16.3168V20.25V20.8039L20.3893 20.5982L31.125 16.3039V22.5V22.875H31.5H37.8252H38.25H49.125V49.125H4.875V22.6918ZM49.0752 22.125H38.6748L40.831 4.875H46.919L49.0752 22.125ZM8.625 45V45.375H9H45H45.375V45V27V26.625H45H27.375V22.3875V21.8336L26.8607 22.0393L16.125 26.3336V22.5V21.9244L15.5985 22.157L8.84849 25.1382L8.625 25.2369V25.4812V45ZM28.875 31.875V40.125H25.125V31.875H28.875ZM19.875 31.875V40.125H16.125V31.875H19.875ZM37.875 31.875V40.125H34.125V31.875H37.875Z" fill="#DDDDDD" stroke="#DDDDDD" stroke-width="0.75"/>
</svg>
