<svg width="54" height="54" viewBox="0 0 54 54" fill="none" xmlns="http://www.w3.org/2000/svg">
<path d="M42.75 25.0312H47.25C48.3373 25.0312 49.2188 25.9127 49.2188 27C49.2188 28.0873 48.3373 28.9688 47.25 28.9688H42.75C41.6627 28.9688 40.7812 28.0873 40.7812 27C40.7812 25.9127 41.6627 25.0312 42.75 25.0312ZM41.5687 43.425L37.9688 40.725C37.0989 40.0726 36.9226 38.8386 37.575 37.9688C38.2274 37.0989 39.4614 36.9226 40.3312 37.575L43.9312 40.275C44.8011 40.9274 44.9774 42.1614 44.325 43.0312C43.6726 43.9011 42.4386 44.0774 41.5687 43.425ZM37.9688 13.275L41.5687 10.575C42.4386 9.92261 43.6726 10.0989 44.325 10.9688C44.9774 11.8386 44.8011 13.0726 43.9312 13.725L40.3312 16.425C39.4614 17.0774 38.2274 16.9011 37.575 16.0312C36.9226 15.1614 37.0989 13.9274 37.9688 13.275ZM11.5312 40.5V36C11.5312 34.602 10.398 33.4688 9 33.4688C7.83769 33.4688 6.84967 33.0582 6.02075 32.2292C5.19182 31.4003 4.78125 30.4123 4.78125 29.25V24.75C4.78125 23.5877 5.19182 22.5997 6.02075 21.7707C6.84967 20.9418 7.83769 20.5312 9 20.5312H17.221C17.7817 20.5312 18.3319 20.3789 18.8127 20.0904L25.1352 16.2969C26.8223 15.2846 28.9688 16.4999 28.9688 18.4674V35.5326C28.9688 37.5001 26.8223 38.7154 25.1352 37.7031L18.5632 33.7599C18.2456 33.5694 17.8823 33.4688 17.512 33.4688C16.3835 33.4688 15.4688 34.3835 15.4688 35.512V40.5C15.4688 41.5873 14.5873 42.4688 13.5 42.4688C12.4127 42.4688 11.5312 41.5873 11.5312 40.5ZM20.3618 23.7578L19.7568 24.1158C19.3665 24.3469 18.9212 24.4688 18.4676 24.4688H11.25C9.85203 24.4688 8.71875 25.602 8.71875 27C8.71875 28.398 9.85203 29.5312 11.25 29.5312H18.4676C18.9212 29.5312 19.3665 29.6531 19.7568 29.8842L20.3618 30.2422C22.4241 31.4628 25.0312 29.9762 25.0312 27.5798V26.4202C25.0312 24.0238 22.4241 22.5372 20.3618 23.7578ZM31.7812 30.4093V23.5907C31.7812 22.8957 32.1585 22.4406 32.5602 22.2955C32.7608 22.223 32.9704 22.225 33.161 22.3081C33.3511 22.3909 33.5449 22.5645 33.6931 22.8745C34.2925 24.1276 34.5938 25.5014 34.5938 27C34.5938 28.4986 34.2925 29.8724 33.6931 31.1255C33.5449 31.4355 33.3511 31.6091 33.161 31.6919C32.9704 31.775 32.7608 31.777 32.5602 31.7045C32.1585 31.5594 31.7812 31.1043 31.7812 30.4093Z" fill="#DDDDDD" stroke="white" stroke-width="0.5625"/>
</svg>
