<svg width="145" height="144" viewBox="0 0 145 144" fill="none" xmlns="http://www.w3.org/2000/svg">
<path d="M72.2012 130.5C64.199 130.5 56.6519 128.964 49.5455 125.898C42.4139 122.82 36.1985 118.626 30.8868 113.314C25.5751 108.003 21.3807 101.787 18.3034 94.6557C15.237 87.5493 13.7012 80.0022 13.7012 72C13.7012 63.9019 15.2853 56.3106 18.4465 49.2101C21.6215 42.0786 25.9133 35.8878 31.3222 30.6251C36.7344 25.3592 43.0524 21.1855 50.2887 18.1052C57.4947 15.0377 65.1939 13.5 73.4012 13.5C81.2254 13.5 88.5909 14.844 95.5094 17.5237C102.447 20.211 108.512 23.9165 113.719 28.6363C118.92 33.3517 123.053 38.9414 126.121 45.4171C129.171 51.8571 130.701 58.8115 130.701 66.3C130.701 77.478 127.313 85.848 120.711 91.6481C114.006 97.5392 105.866 100.5 96.2012 100.5H85.1012C83.9572 100.5 82.7442 100.823 81.9973 101.89C81.4741 102.637 81.2012 103.487 81.2012 104.4C81.2012 105.289 81.4725 106.236 81.8881 107.192C82.3102 108.163 82.9232 109.237 83.7031 110.407C85.0268 112.393 85.7012 114.674 85.7012 117.3C85.7012 122.034 84.4055 125.249 82.0899 127.27C79.6727 129.379 76.4263 130.5 72.2012 130.5ZM44.5905 74.3893C43.1961 75.7837 41.4391 76.5 39.2012 76.5C36.9632 76.5 35.2062 75.7837 33.8118 74.3893C32.4175 72.995 31.7012 71.2379 31.7012 69C31.7012 66.7621 32.4175 65.005 33.8118 63.6107C35.2062 62.2163 36.9632 61.5 39.2012 61.5C41.4391 61.5 43.1961 62.2163 44.5905 63.6107C45.9849 65.005 46.7012 66.7621 46.7012 69C46.7012 71.238 45.9849 72.995 44.5905 74.3893ZM62.5905 50.3893C61.1961 51.7837 59.4391 52.5 57.2012 52.5C54.9632 52.5 53.2062 51.7837 51.8118 50.3893C50.4175 48.995 49.7012 47.2379 49.7012 45C49.7012 42.7621 50.4175 41.005 51.8118 39.6107C53.2062 38.2163 54.9632 37.5 57.2012 37.5C59.4391 37.5 61.1961 38.2163 62.5905 39.6107C63.9849 41.005 64.7012 42.7621 64.7012 45C64.7012 47.2379 63.9849 48.995 62.5905 50.3893ZM92.5905 50.3893C91.1961 51.7837 89.4391 52.5 87.2012 52.5C84.9632 52.5 83.2062 51.7837 81.8118 50.3893C80.4175 48.995 79.7012 47.2379 79.7012 45C79.7012 42.7621 80.4175 41.005 81.8118 39.6107C83.2062 38.2163 84.9632 37.5 87.2012 37.5C89.4391 37.5 91.1961 38.2163 92.5905 39.6107C93.9849 41.005 94.7012 42.7621 94.7012 45C94.7012 47.238 93.9849 48.995 92.5905 50.3893ZM110.591 74.3893C109.196 75.7837 107.439 76.5 105.201 76.5C102.963 76.5 101.206 75.7837 99.8118 74.3893C98.4175 72.995 97.7012 71.2379 97.7012 69C97.7012 66.7621 98.4175 65.005 99.8118 63.6107C101.206 62.2163 102.963 61.5 105.201 61.5C107.439 61.5 109.196 62.2163 110.591 63.6107C111.985 65.005 112.701 66.7621 112.701 69C112.701 71.2379 111.985 72.995 110.591 74.3893ZM72.2012 121.5C73.3916 121.5 74.5034 121.162 75.3852 120.36C76.2737 119.552 76.7012 118.486 76.7012 117.3C76.7012 115.393 75.7002 113.411 74.1285 111.421C72.927 109.899 72.2012 107.443 72.2012 103.8C72.2012 99.9887 73.4956 97.0714 76.0306 94.8861C78.6312 92.6442 81.8232 91.5 85.7012 91.5H96.2012C103.116 91.5 109.11 89.4745 114.102 85.3854C119.257 81.1626 121.701 74.6896 121.701 66.3C121.701 53.7594 116.883 43.274 107.311 34.9435C97.7774 26.6468 86.449 22.5 73.4012 22.5C59.4192 22.5 47.4427 27.2963 37.5575 36.8726C27.665 46.456 22.7012 58.1951 22.7012 72C22.7012 85.6952 27.5324 97.4025 37.1655 107.036C46.7987 116.669 58.506 121.5 72.2012 121.5Z" fill="#E2063A" stroke="white" stroke-width="3"/>
</svg>
