<svg width="550" height="19" viewBox="0 0 550 19" fill="none" xmlns="http://www.w3.org/2000/svg">
<path d="M1 9.5C16.2222 -1.83333 31.4444 -1.83333 46.6667 9.5C61.8889 20.8333 77.1111 20.8333 92.3333 9.5C107.556 -1.83333 122.778 -1.83333 138 9.5C153.222 20.8333 168.444 20.8333 183.667 9.5C198.889 -1.83333 214.111 -1.83333 229.333 9.5C244.556 20.8333 259.778 20.8333 275 9.5C290.222 -1.83333 305.444 -1.83333 320.667 9.5C335.889 20.8333 351.111 20.8333 366.333 9.5C381.556 -1.83333 396.778 -1.83333 412 9.5C427.222 20.8333 442.444 20.8333 457.667 9.5C472.889 -1.83333 488.111 -1.83333 503.333 9.5C518.556 20.8333 533.778 20.8333 549 9.5" stroke="#DDDDDD" stroke-width="2"/>
</svg>
