<svg width="115" height="32" viewBox="0 0 115 32" fill="none" xmlns="http://www.w3.org/2000/svg">
<g clip-path="url(#clip0_4377_60719)">
<path d="M15.3405 8.29816H0.88096C0.419484 8.29816 -0.00353586 8.67943 -0.00353586 9.17509V10.7765C-0.00353586 11.2721 0.419484 11.6915 0.88096 11.6915H15.3405C15.8405 11.6915 16.225 11.2721 16.2635 10.7765V9.21322C16.2635 8.67943 15.8405 8.29816 15.3405 8.29816ZM15.3405 17.2963H0.88096C0.650222 17.2963 0.419484 17.4107 0.227202 17.5632C0.0733768 17.7157 -0.0419922 17.9445 -0.0419922 18.2113V19.8127C-0.0419922 20.3084 0.381027 20.7278 0.842503 20.7278H15.3021C15.802 20.7278 16.1866 20.3465 16.225 19.8127V18.2113C16.2635 17.6776 15.8405 17.2963 15.3405 17.2963ZM9.0337 21.7572H0.88096C0.650222 21.7572 0.419484 21.8335 0.265658 22.0241C0.111833 22.1766 -0.00353586 22.4054 -0.00353586 22.6723V24.2736C-0.00353586 24.7693 0.419484 25.1887 0.88096 25.1887H8.99525C9.49518 25.1887 9.87974 24.7693 9.87974 24.2736V22.6342C9.9182 22.1766 9.53364 21.7572 9.0337 21.7572ZM16.2635 12.7972H0.88096C0.650222 12.7972 0.419484 12.8735 0.265658 13.0641C0.111833 13.2166 -0.00353586 13.4454 -0.00353586 13.7123V15.3136C-0.00353586 15.8093 0.419484 16.2287 0.88096 16.2287H16.225C16.725 16.2287 17.1095 15.8093 17.1095 15.3136V13.7123C17.148 13.1785 16.7634 12.7972 16.2635 12.7972Z" fill="#00C3F7"/>
<path d="M33.0669 11.9203C32.6055 11.4628 32.1055 11.1197 31.4902 10.8528C30.9134 10.5859 30.2596 10.4715 29.6059 10.4715C28.9906 10.4715 28.3753 10.5859 27.7984 10.8528C27.4139 11.0434 27.0678 11.2722 26.7986 11.5772V11.3103C26.7986 11.1578 26.7216 11.0434 26.6447 10.929C26.5294 10.8146 26.414 10.7384 26.2602 10.7384H24.222C24.0682 10.7384 23.9143 10.8146 23.8374 10.929C23.7221 11.0434 23.6836 11.1578 23.6836 11.3103V24.655C23.6836 24.8075 23.7605 24.9219 23.8374 25.0362C23.9528 25.1506 24.0682 25.1888 24.222 25.1888H26.2602C26.414 25.1888 26.5294 25.1506 26.6447 25.0362C26.7601 24.9219 26.7986 24.8075 26.7986 24.655V20.0797C27.1062 20.3847 27.4523 20.6516 27.8753 20.766C28.4137 20.9566 28.9906 21.071 29.529 21.071C30.1827 21.071 30.8365 20.9566 31.4133 20.6897C32.0286 20.4609 32.567 20.0797 32.99 19.6221C33.4515 19.1265 33.8361 18.5545 34.0668 17.9445C34.336 17.2582 34.4898 16.4957 34.4514 15.7712C34.4514 15.0087 34.336 14.2842 34.0668 13.5598C33.913 12.9879 33.5284 12.416 33.0669 11.9203ZM31.2595 16.7625C31.1441 17.0294 30.9903 17.2963 30.798 17.5251C30.375 17.9826 29.7982 18.2114 29.1829 18.2114C28.8752 18.2114 28.5675 18.1351 28.2984 18.0208C28.0292 17.9064 27.76 17.7157 27.5677 17.5251C27.3754 17.2963 27.1831 17.0294 27.0678 16.7625C26.837 16.1525 26.837 15.5043 27.0678 14.8943C27.1831 14.6274 27.3369 14.3605 27.5677 14.1317C27.7984 13.903 28.0292 13.7505 28.2984 13.598C28.5675 13.4836 28.8752 13.4073 29.1829 13.4073C29.4905 13.4073 29.7982 13.4836 30.1058 13.598C30.375 13.7123 30.6057 13.903 30.8365 14.0936C31.0288 14.3224 31.1826 14.5511 31.2979 14.8562C31.4902 15.4662 31.4902 16.1525 31.2595 16.7625ZM45.5652 10.7765H43.5271C43.3732 10.7765 43.2579 10.8528 43.1425 10.929C43.0271 11.0434 42.9887 11.1959 42.9887 11.3484V11.5772C42.7195 11.2722 42.4118 11.0434 42.0657 10.8909C41.5273 10.624 40.912 10.5096 40.2967 10.5096C38.9892 10.5096 37.7202 11.0434 36.7972 11.9585C36.3357 12.4541 35.9512 13.026 35.682 13.6361C35.3743 14.3224 35.2589 15.0849 35.2589 15.8475C35.2589 16.61 35.3743 17.3726 35.682 18.0589C35.9512 18.6689 36.3357 19.2408 36.7972 19.7365C37.7202 20.6516 38.9508 21.1854 40.2583 21.1854C40.8736 21.1854 41.4889 21.071 42.0273 20.8041C42.3734 20.6134 42.7195 20.3847 42.9502 20.1178V20.3847C42.9502 20.5372 43.0271 20.6516 43.104 20.766C43.2194 20.8422 43.3348 20.9185 43.4886 20.9185H45.5268C45.6806 20.9185 45.796 20.8422 45.9114 20.766C46.0267 20.6516 46.0652 20.5372 46.0652 20.3847V11.3484C46.0652 11.1959 46.0267 11.0815 45.9114 10.9671C45.8344 10.8146 45.7191 10.7765 45.5652 10.7765ZM42.7964 16.7244C42.681 16.9913 42.5272 17.2582 42.3349 17.487C42.1426 17.6776 41.8734 17.8682 41.6042 18.0208C41.0274 18.2877 40.3736 18.2877 39.7968 18.0208C39.5276 17.9064 39.2584 17.7157 39.0661 17.487C38.8738 17.2582 38.6816 16.9913 38.6047 16.7244C38.3739 16.1144 38.3739 15.4662 38.6047 14.8562C38.72 14.5893 38.8738 14.3224 39.0661 14.0936C39.2584 13.8648 39.5276 13.7123 39.7968 13.5598C40.3736 13.2929 41.0274 13.2929 41.6042 13.5598C41.8734 13.6742 42.1042 13.8648 42.3349 14.0555C42.5272 14.2842 42.681 14.513 42.7964 14.818C43.0656 15.4662 43.0656 16.1525 42.7964 16.7244ZM65.8317 15.5425C65.5241 15.2756 65.2164 15.0849 64.8319 14.9324C64.4473 14.7799 64.0627 14.6655 63.6397 14.5893L62.1015 14.2842C61.7169 14.208 61.4093 14.0936 61.2554 13.9792C61.1401 13.903 61.0632 13.7505 61.0632 13.598C61.0632 13.4454 61.1401 13.2929 61.3708 13.1785C61.64 13.026 61.9476 12.9498 62.2168 12.9879C62.6014 12.9879 63.0244 13.0642 63.3705 13.2167C63.7166 13.3692 64.0627 13.5598 64.3704 13.7505C64.8319 14.0174 65.2164 13.9792 65.4856 13.6742L66.2163 12.8354C66.3701 12.6829 66.447 12.4922 66.447 12.3016C66.447 12.111 66.3317 11.8822 66.1778 11.7678C65.8702 11.5009 65.3703 11.1959 64.678 10.929C64.0243 10.6621 63.1782 10.5096 62.1784 10.5096C61.5631 10.5096 60.9862 10.5859 60.4094 10.7765C59.9095 10.929 59.448 11.1578 59.0634 11.4628C58.6789 11.7297 58.4097 12.111 58.1789 12.5304C57.9866 12.9498 57.8713 13.3692 57.8713 13.8267C57.8713 14.6655 58.1405 15.3518 58.6404 15.8475C59.1403 16.3431 59.7941 16.6863 60.6401 16.8388L62.2553 17.182C62.6014 17.2582 62.9475 17.3345 63.2936 17.487C63.4859 17.5632 63.6013 17.7157 63.6013 17.9445C63.6013 18.1351 63.5244 18.2877 63.2936 18.4402C63.1013 18.5927 62.7552 18.6689 62.3322 18.6689C61.9092 18.6689 61.4477 18.5927 61.0632 18.402C60.6786 18.2114 60.3325 17.9826 60.0248 17.7157C59.871 17.6014 59.7172 17.5251 59.5634 17.4488C59.3711 17.4107 59.1403 17.4488 58.9096 17.6395L58.0251 18.3258C57.7944 18.5164 57.6405 18.8214 57.7175 19.0883C57.7559 19.3934 58.0251 19.6602 58.4481 20.0034C59.5634 20.766 60.9093 21.1472 62.2553 21.1091C62.8706 21.1091 63.5244 21.0328 64.1012 20.8422C64.6396 20.6897 65.1011 20.4609 65.5241 20.1178C65.9086 19.8128 66.2548 19.4315 66.447 19.0121C66.6778 18.5927 66.7547 18.1351 66.7547 17.6395C66.7547 17.2201 66.6778 16.8007 66.4855 16.3813C66.3317 16.1144 66.1009 15.8094 65.8317 15.5425ZM74.6767 17.9826C74.5998 17.8301 74.4075 17.7157 74.2152 17.6776C74.0229 17.6776 73.8307 17.7539 73.6768 17.8301C73.4461 17.9826 73.1384 18.097 72.8308 18.097C72.7539 18.097 72.6385 18.097 72.5231 18.0589C72.4078 18.0589 72.3309 17.9826 72.2539 17.9064C72.177 17.8301 72.1001 17.7157 72.0232 17.6014C71.9463 17.4488 71.9078 17.2582 71.9463 17.0676V13.4073H74.5998C74.7536 13.4073 74.9074 13.3311 75.0228 13.2167C75.1382 13.1023 75.2151 12.9879 75.2151 12.8354V11.2722C75.2151 11.1197 75.1382 10.9671 75.0228 10.8909C74.9074 10.7765 74.7921 10.7384 74.6382 10.7384H71.9847V8.26008C71.9847 8.10757 71.9463 7.95506 71.8309 7.8788C71.7156 7.76442 71.6002 7.72629 71.4464 7.72629H69.4082C69.2543 7.72629 69.1005 7.76442 69.0236 7.8788C68.9082 7.99318 68.8698 8.1457 68.8698 8.26008V10.7765H67.7161C67.5623 10.7765 67.4084 10.8528 67.3315 10.9671C67.2162 11.0815 67.1777 11.1959 67.1777 11.3484V12.9117C67.1777 13.0642 67.2162 13.1785 67.3315 13.2929C67.4084 13.4073 67.5623 13.4836 67.7161 13.4836H68.8698V17.8301C68.8698 18.3639 68.9467 18.8596 69.1774 19.3171C69.3697 19.6984 69.6389 20.0415 69.9466 20.3084C70.2542 20.5753 70.6388 20.766 71.0618 20.8803C71.4848 20.9947 71.9078 21.071 72.3309 21.071C72.9077 21.071 73.4461 20.9947 73.9845 20.8041C74.4844 20.6516 74.9459 20.3465 75.292 20.0034C75.5227 19.7746 75.5612 19.3934 75.3689 19.1265L74.6767 17.9826ZM85.829 10.7765H83.7908C83.637 10.7765 83.5216 10.8528 83.4063 10.929C83.2909 11.0434 83.2524 11.1959 83.2524 11.3484V11.5772C82.9833 11.2722 82.6756 11.0434 82.3295 10.8909C81.7911 10.624 81.1758 10.5096 80.5605 10.5096C79.253 10.5096 78.0224 11.0434 77.0994 11.9585C76.638 12.4541 76.2534 13.026 75.9842 13.6361C75.6766 14.3224 75.5612 15.0849 75.5612 15.8094C75.5612 16.5719 75.6766 17.2963 75.9842 18.0208C76.2534 18.6308 76.638 19.2027 77.0994 19.6984C78.0224 20.6134 79.253 21.1472 80.5605 21.1472C81.1758 21.1472 81.7911 21.0328 82.3295 20.766C82.6756 20.5753 83.0217 20.3465 83.2524 20.0797V20.3465C83.2524 20.4991 83.2909 20.6134 83.4063 20.7278C83.5216 20.8422 83.637 20.8803 83.7908 20.8803H85.829C86.1367 20.8803 86.3674 20.6516 86.3674 20.3465V11.3484C86.3674 11.1959 86.329 11.0815 86.2136 10.9671C86.0982 10.8146 85.9829 10.7765 85.829 10.7765ZM83.0602 16.7244C82.9448 16.9913 82.791 17.2582 82.5987 17.487C82.368 17.6776 82.1372 17.8682 81.868 18.0208C81.5988 18.1351 81.2527 18.2114 80.9451 18.2114C80.6374 18.2114 80.3298 18.1351 80.0606 18.0208C79.7914 17.9064 79.5222 17.7157 79.3299 17.487C79.1376 17.2582 78.9453 16.9913 78.8684 16.7244C78.6377 16.1144 78.6377 15.4662 78.8684 14.8562C78.9838 14.5893 79.1376 14.3224 79.3299 14.0936C79.5606 13.8648 79.7914 13.7123 80.0606 13.5598C80.3298 13.4454 80.6374 13.3692 80.9451 13.3692C81.2527 13.3692 81.5604 13.4454 81.868 13.5598C82.1372 13.6742 82.368 13.8648 82.5987 14.0555C82.791 14.2842 82.9833 14.513 83.0602 14.818C83.3294 15.4662 83.3294 16.1525 83.0602 16.7244ZM96.9814 17.8301L95.8277 16.9532C95.5969 16.7625 95.4047 16.7244 95.2124 16.8007C95.0585 16.8769 94.9047 16.9913 94.7894 17.1057C94.5202 17.4107 94.251 17.6776 93.9049 17.9064C93.5588 18.097 93.1742 18.2114 92.7512 18.1733C92.2897 18.1733 91.8667 18.0589 91.4821 17.792C91.0975 17.5251 90.8284 17.1438 90.6745 16.7244C90.5592 16.4194 90.5207 16.1144 90.5207 15.8094C90.5207 15.5043 90.5592 15.1612 90.6745 14.8562C90.7899 14.5893 90.9437 14.3224 91.136 14.0936C91.3667 13.8648 91.5975 13.7123 91.8667 13.598C92.1359 13.4836 92.482 13.4073 92.7896 13.4073C93.1742 13.4073 93.5972 13.4836 93.9049 13.6742C94.251 13.903 94.5202 14.1699 94.7894 14.4749C94.9047 14.5893 95.0585 14.7037 95.2124 14.7799C95.4047 14.8562 95.5969 14.818 95.8277 14.6274L96.9814 13.7505C97.1352 13.6361 97.2506 13.5217 97.289 13.3692C97.3659 13.1785 97.3275 12.9879 97.2506 12.8354C96.7891 12.1491 96.1738 11.5772 95.4431 11.1578C94.674 10.7384 93.751 10.5096 92.7127 10.5096C91.982 10.5096 91.2514 10.6621 90.5976 10.929C89.9439 11.1959 89.367 11.5772 88.8671 12.0728C88.3671 12.5685 87.9826 13.1404 87.7134 13.7505C87.175 15.0849 87.175 16.61 87.7134 17.9445C87.9826 18.5927 88.3671 19.1646 88.8671 19.6221C89.9054 20.6134 91.2514 21.1472 92.7127 21.1472C93.751 21.1472 94.674 20.9185 95.4431 20.4991C96.1738 20.0797 96.7891 19.5077 97.2506 18.8214C97.3659 18.6689 97.3659 18.4783 97.289 18.2877C97.2121 18.097 97.0967 17.9445 96.9814 17.8301ZM107.788 19.9271L104.596 15.2374L107.326 11.6534C107.441 11.5009 107.48 11.2722 107.441 11.0815C107.403 10.929 107.249 10.7765 106.942 10.7765H104.788C104.673 10.7765 104.557 10.8146 104.442 10.8528C104.288 10.929 104.211 11.0053 104.134 11.1578L101.942 14.208H101.404V7.00187C101.404 6.84936 101.365 6.73497 101.25 6.62059C101.135 6.50621 101.019 6.46808 100.865 6.46808H98.8273C98.6734 6.46808 98.5581 6.50621 98.4427 6.62059C98.3273 6.73497 98.2889 6.84936 98.2889 7.00187V20.2703C98.2889 20.4228 98.3658 20.5753 98.4427 20.6516C98.5581 20.766 98.6734 20.8041 98.8273 20.8041H100.865C101.019 20.8041 101.135 20.7278 101.25 20.6516C101.365 20.5372 101.404 20.4228 101.404 20.2703V16.7625H101.981L104.365 20.4228C104.519 20.6897 104.788 20.8422 105.057 20.8422H107.326C107.672 20.8422 107.826 20.6897 107.865 20.5372C107.941 20.3465 107.903 20.1178 107.788 19.9271ZM57.1021 10.7765H54.8332C54.6794 10.7765 54.4871 10.8146 54.3717 10.9671C54.2564 11.0815 54.1795 11.1959 54.1795 11.3484L52.4874 17.5251H52.0644L50.2569 11.3103C50.2185 11.1959 50.18 11.0434 50.0646 10.929C49.9493 10.8146 49.7954 10.7384 49.6416 10.7384H47.2958C46.9881 10.7384 46.7959 10.8528 46.7189 11.0434C46.642 11.234 46.642 11.4247 46.7189 11.5772L49.6032 20.3084C49.6416 20.4228 49.7185 20.5753 49.8339 20.6516C49.9493 20.766 50.1031 20.8041 50.2569 20.8041H51.4875L51.3722 21.071L51.103 21.8717C51.026 22.1004 50.8722 22.3292 50.6415 22.5198C50.4492 22.6723 50.2185 22.7486 49.9493 22.7486C49.757 22.7486 49.5263 22.7105 49.334 22.6342C49.1417 22.558 48.9494 22.4436 48.7956 22.3292C48.6418 22.2148 48.4495 22.1767 48.2956 22.1767H48.2572C48.0265 22.1767 47.8342 22.2911 47.7573 22.4817L47.0266 23.5493C46.7189 24.0068 46.9112 24.3118 47.1035 24.4643C47.4881 24.8075 47.9495 25.0744 48.4495 25.265C48.9879 25.4557 49.5647 25.5319 50.18 25.5319C51.2183 25.5319 52.1028 25.265 52.7566 24.6931C53.4488 24.0831 53.9487 23.2824 54.2179 22.4054L57.5636 11.6153C57.6405 11.4247 57.6405 11.234 57.5636 11.0434C57.5636 10.8909 57.4098 10.7765 57.1021 10.7765Z" fill="black"/>
</g>
<defs>
<clipPath id="clip0_4377_60719">
<rect width="107.908" height="19.0638" fill="white" transform="translate(0 6.46808)"/>
</clipPath>
</defs>
</svg>
