<svg width="168" height="47" viewBox="0 0 168 47" fill="none" xmlns="http://www.w3.org/2000/svg">
<g clip-path="url(#clip0_3325_48121)">
<path d="M22.5316 12.188H1.29406C0.616269 12.188 -0.0050407 12.748 -0.0050407 13.476V15.828C-0.0050407 16.556 0.616269 17.172 1.29406 17.172H22.5316C23.2658 17.172 23.8307 16.556 23.8872 15.828V13.532C23.8872 12.748 23.2658 12.188 22.5316 12.188ZM22.5316 25.404H1.29406C0.955166 25.404 0.616269 25.572 0.333856 25.796C0.107925 26.02 -0.0615234 26.356 -0.0615234 26.748V29.1C-0.0615234 29.828 0.559787 30.444 1.23758 30.444H22.4751C23.2094 30.444 23.7742 29.884 23.8307 29.1V26.748C23.8872 25.964 23.2658 25.404 22.5316 25.404ZM13.2684 31.956H1.29406C0.955166 31.956 0.616269 32.068 0.390338 32.348C0.164408 32.572 -0.0050407 32.908 -0.0050407 33.3V35.652C-0.0050407 36.38 0.616269 36.996 1.29406 36.996H13.2119C13.9462 36.996 14.511 36.38 14.511 35.652V33.244C14.5675 32.572 14.0027 31.956 13.2684 31.956ZM23.8872 18.796H1.29406C0.955166 18.796 0.616269 18.908 0.390338 19.188C0.164408 19.412 -0.0050407 19.748 -0.0050407 20.14V22.492C-0.0050407 23.22 0.616269 23.836 1.29406 23.836H23.8307C24.5649 23.836 25.1298 23.22 25.1298 22.492V20.14C25.1863 19.356 24.6214 18.796 23.8872 18.796Z" fill="#00C3F7"/>
<path d="M48.5669 17.508C47.8892 16.836 47.1549 16.332 46.2512 15.94C45.4039 15.548 44.4437 15.38 43.4835 15.38C42.5798 15.38 41.6761 15.548 40.8288 15.94C40.264 16.22 39.7556 16.556 39.3603 17.004V16.612C39.3603 16.388 39.2473 16.22 39.1343 16.052C38.9649 15.884 38.7954 15.772 38.5695 15.772H35.5759C35.35 15.772 35.1241 15.884 35.0111 16.052C34.8416 16.22 34.7852 16.388 34.7852 16.612V36.212C34.7852 36.436 34.8981 36.604 35.0111 36.772C35.1805 36.94 35.35 36.996 35.5759 36.996H38.5695C38.7954 36.996 38.9649 36.94 39.1343 36.772C39.3038 36.604 39.3603 36.436 39.3603 36.212V29.492C39.8121 29.94 40.3205 30.332 40.9418 30.5C41.7325 30.78 42.5798 30.948 43.3705 30.948C44.3307 30.948 45.2909 30.78 46.1382 30.388C47.0419 30.052 47.8327 29.492 48.454 28.82C49.1318 28.092 49.6966 27.252 50.0355 26.356C50.4309 25.348 50.6568 24.228 50.6003 23.164C50.6003 22.044 50.4309 20.98 50.0355 19.916C49.8096 19.076 49.2447 18.236 48.5669 17.508ZM45.9123 24.62C45.7428 25.012 45.5169 25.404 45.2345 25.74C44.6132 26.412 43.7659 26.748 42.8622 26.748C42.4103 26.748 41.9585 26.636 41.5631 26.468C41.1677 26.3 40.7723 26.02 40.4899 25.74C40.2075 25.404 39.9251 25.012 39.7556 24.62C39.4167 23.724 39.4167 22.772 39.7556 21.876C39.9251 21.484 40.151 21.092 40.4899 20.756C40.8288 20.42 41.1677 20.196 41.5631 19.972C41.9585 19.804 42.4103 19.692 42.8622 19.692C43.3141 19.692 43.7659 19.804 44.2178 19.972C44.6132 20.14 44.952 20.42 45.2909 20.7C45.5734 21.036 45.7993 21.372 45.9687 21.82C46.2512 22.716 46.2512 23.724 45.9123 24.62ZM66.9238 15.828H63.9302C63.7043 15.828 63.5349 15.94 63.3654 16.052C63.196 16.22 63.1395 16.444 63.1395 16.668V17.004C62.7441 16.556 62.2923 16.22 61.7839 15.996C60.9931 15.604 60.0894 15.436 59.1857 15.436C57.2653 15.436 55.4014 16.22 54.0458 17.564C53.368 18.292 52.8032 19.132 52.4078 20.028C51.9559 21.036 51.7865 22.156 51.7865 23.276C51.7865 24.396 51.9559 25.516 52.4078 26.524C52.8032 27.42 53.368 28.26 54.0458 28.988C55.4014 30.332 57.2088 31.116 59.1292 31.116C60.0329 31.116 60.9367 30.948 61.7274 30.556C62.2358 30.276 62.7441 29.94 63.083 29.548V29.94C63.083 30.164 63.196 30.332 63.3089 30.5C63.4784 30.612 63.6478 30.724 63.8738 30.724H66.8674C67.0933 30.724 67.2627 30.612 67.4322 30.5C67.6016 30.332 67.6581 30.164 67.6581 29.94V16.668C67.6581 16.444 67.6016 16.276 67.4322 16.108C67.3192 15.884 67.1498 15.828 66.9238 15.828ZM62.8571 24.564C62.6876 24.956 62.4617 25.348 62.1793 25.684C61.8969 25.964 61.5015 26.244 61.1061 26.468C60.2589 26.86 59.2987 26.86 58.4514 26.468C58.056 26.3 57.6607 26.02 57.3783 25.684C57.0958 25.348 56.8134 24.956 56.7005 24.564C56.3616 23.668 56.3616 22.716 56.7005 21.82C56.8699 21.428 57.0958 21.036 57.3783 20.7C57.6607 20.364 58.056 20.14 58.4514 19.916C59.2987 19.524 60.2589 19.524 61.1061 19.916C61.5015 20.084 61.8404 20.364 62.1793 20.644C62.4617 20.98 62.6876 21.316 62.8571 21.764C63.2525 22.716 63.2525 23.724 62.8571 24.564ZM96.6902 22.828C96.2384 22.436 95.7865 22.156 95.2217 21.932C94.6569 21.708 94.092 21.54 93.4707 21.428L91.2114 20.98C90.6466 20.868 90.1947 20.7 89.9688 20.532C89.7993 20.42 89.6864 20.196 89.6864 19.972C89.6864 19.748 89.7993 19.524 90.1382 19.356C90.5336 19.132 90.9855 19.02 91.3809 19.076C91.9457 19.076 92.567 19.188 93.0753 19.412C93.5837 19.636 94.092 19.916 94.5439 20.196C95.2217 20.588 95.7865 20.532 96.1819 20.084L97.2551 18.852C97.481 18.628 97.594 18.348 97.594 18.068C97.594 17.788 97.4245 17.452 97.1986 17.284C96.7467 16.892 96.0124 16.444 94.9958 16.052C94.0355 15.66 92.7929 15.436 91.3244 15.436C90.4207 15.436 89.5734 15.548 88.7262 15.828C87.9919 16.052 87.3141 16.388 86.7493 16.836C86.1845 17.228 85.7891 17.788 85.4502 18.404C85.1678 19.02 84.9983 19.636 84.9983 20.308C84.9983 21.54 85.3937 22.548 86.128 23.276C86.8622 24.004 87.8224 24.508 89.0651 24.732L91.4373 25.236C91.9457 25.348 92.454 25.46 92.9624 25.684C93.2448 25.796 93.4142 26.02 93.4142 26.356C93.4142 26.636 93.3013 26.86 92.9624 27.084C92.68 27.308 92.1716 27.42 91.5503 27.42C90.929 27.42 90.2512 27.308 89.6864 27.028C89.1216 26.748 88.6132 26.412 88.1613 26.02C87.9354 25.852 87.7095 25.74 87.4835 25.628C87.2011 25.572 86.8622 25.628 86.5233 25.908L85.2242 26.916C84.8853 27.196 84.6594 27.644 84.7724 28.036C84.8289 28.484 85.2242 28.876 85.8456 29.38C87.4836 30.5 89.4604 31.06 91.4373 31.004C92.3411 31.004 93.3013 30.892 94.1485 30.612C94.9393 30.388 95.6171 30.052 96.2384 29.548C96.8032 29.1 97.3116 28.54 97.594 27.924C97.9329 27.308 98.0458 26.636 98.0458 25.908C98.0458 25.292 97.9329 24.676 97.6504 24.06C97.4245 23.668 97.0856 23.22 96.6902 22.828ZM109.681 26.412C109.568 26.188 109.286 26.02 109.003 25.964C108.721 25.964 108.439 26.076 108.213 26.188C107.874 26.412 107.422 26.58 106.97 26.58C106.857 26.58 106.688 26.58 106.518 26.524C106.349 26.524 106.236 26.412 106.123 26.3C106.01 26.188 105.897 26.02 105.784 25.852C105.671 25.628 105.615 25.348 105.671 25.068V19.692H109.568C109.794 19.692 110.02 19.58 110.19 19.412C110.359 19.244 110.472 19.076 110.472 18.852V16.556C110.472 16.332 110.359 16.108 110.19 15.996C110.02 15.828 109.851 15.772 109.625 15.772H105.727V12.132C105.727 11.908 105.671 11.684 105.502 11.572C105.332 11.404 105.163 11.348 104.937 11.348H101.943C101.717 11.348 101.491 11.404 101.378 11.572C101.209 11.74 101.152 11.964 101.152 12.132V15.828H99.4579C99.232 15.828 99.006 15.94 98.8931 16.108C98.7236 16.276 98.6671 16.444 98.6671 16.668V18.964C98.6671 19.188 98.7236 19.356 98.8931 19.524C99.006 19.692 99.232 19.804 99.4579 19.804H101.152V26.188C101.152 26.972 101.265 27.7 101.604 28.372C101.887 28.932 102.282 29.436 102.734 29.828C103.186 30.22 103.751 30.5 104.372 30.668C104.993 30.836 105.615 30.948 106.236 30.948C107.083 30.948 107.874 30.836 108.665 30.556C109.399 30.332 110.077 29.884 110.585 29.38C110.924 29.044 110.98 28.484 110.698 28.092L109.681 26.412ZM126.061 15.828H123.068C122.842 15.828 122.672 15.94 122.503 16.052C122.333 16.22 122.277 16.444 122.277 16.668V17.004C121.882 16.556 121.43 16.22 120.921 15.996C120.131 15.604 119.227 15.436 118.323 15.436C116.403 15.436 114.595 16.22 113.24 17.564C112.562 18.292 111.997 19.132 111.602 20.028C111.15 21.036 110.98 22.156 110.98 23.22C110.98 24.34 111.15 25.404 111.602 26.468C111.997 27.364 112.562 28.204 113.24 28.932C114.595 30.276 116.403 31.06 118.323 31.06C119.227 31.06 120.131 30.892 120.921 30.5C121.43 30.22 121.938 29.884 122.277 29.492V29.884C122.277 30.108 122.333 30.276 122.503 30.444C122.672 30.612 122.842 30.668 123.068 30.668H126.061C126.513 30.668 126.852 30.332 126.852 29.884V16.668C126.852 16.444 126.796 16.276 126.626 16.108C126.457 15.884 126.287 15.828 126.061 15.828ZM121.994 24.564C121.825 24.956 121.599 25.348 121.317 25.684C120.978 25.964 120.639 26.244 120.244 26.468C119.848 26.636 119.34 26.748 118.888 26.748C118.436 26.748 117.984 26.636 117.589 26.468C117.193 26.3 116.798 26.02 116.516 25.684C116.233 25.348 115.951 24.956 115.838 24.564C115.499 23.668 115.499 22.716 115.838 21.82C116.007 21.428 116.233 21.036 116.516 20.7C116.855 20.364 117.193 20.14 117.589 19.916C117.984 19.748 118.436 19.636 118.888 19.636C119.34 19.636 119.792 19.748 120.244 19.916C120.639 20.084 120.978 20.364 121.317 20.644C121.599 20.98 121.882 21.316 121.994 21.764C122.39 22.716 122.39 23.724 121.994 24.564ZM142.441 26.188L140.747 24.9C140.408 24.62 140.125 24.564 139.843 24.676C139.617 24.788 139.391 24.956 139.222 25.124C138.826 25.572 138.431 25.964 137.923 26.3C137.414 26.58 136.849 26.748 136.228 26.692C135.55 26.692 134.929 26.524 134.364 26.132C133.799 25.74 133.404 25.18 133.178 24.564C133.009 24.116 132.952 23.668 132.952 23.22C132.952 22.772 133.009 22.268 133.178 21.82C133.348 21.428 133.573 21.036 133.856 20.7C134.195 20.364 134.534 20.14 134.929 19.972C135.324 19.804 135.833 19.692 136.285 19.692C136.849 19.692 137.471 19.804 137.923 20.084C138.431 20.42 138.826 20.812 139.222 21.26C139.391 21.428 139.617 21.596 139.843 21.708C140.125 21.82 140.408 21.764 140.747 21.484L142.441 20.196C142.667 20.028 142.837 19.86 142.893 19.636C143.006 19.356 142.95 19.076 142.837 18.852C142.159 17.844 141.255 17.004 140.182 16.388C139.052 15.772 137.697 15.436 136.172 15.436C135.099 15.436 134.025 15.66 133.065 16.052C132.105 16.444 131.258 17.004 130.523 17.732C129.789 18.46 129.224 19.3 128.829 20.196C128.038 22.156 128.038 24.396 128.829 26.356C129.224 27.308 129.789 28.148 130.523 28.82C132.048 30.276 134.025 31.06 136.172 31.06C137.697 31.06 139.052 30.724 140.182 30.108C141.255 29.492 142.159 28.652 142.837 27.644C143.006 27.42 143.006 27.14 142.893 26.86C142.78 26.58 142.611 26.356 142.441 26.188ZM158.313 29.268L153.625 22.38L157.635 17.116C157.805 16.892 157.861 16.556 157.805 16.276C157.748 16.052 157.522 15.828 157.07 15.828H153.907C153.738 15.828 153.568 15.884 153.399 15.94C153.173 16.052 153.06 16.164 152.947 16.388L149.728 20.868H148.937V10.284C148.937 10.06 148.88 9.89202 148.711 9.72402C148.541 9.55602 148.372 9.50002 148.146 9.50002H145.152C144.926 9.50002 144.757 9.55602 144.588 9.72402C144.418 9.89202 144.362 10.06 144.362 10.284V29.772C144.362 29.996 144.475 30.22 144.588 30.332C144.757 30.5 144.926 30.556 145.152 30.556H148.146C148.372 30.556 148.541 30.444 148.711 30.332C148.88 30.164 148.937 29.996 148.937 29.772V24.62H149.784L153.286 29.996C153.512 30.388 153.907 30.612 154.303 30.612H157.635C158.143 30.612 158.369 30.388 158.426 30.164C158.539 29.884 158.482 29.548 158.313 29.268ZM83.8687 15.828H80.5362C80.3102 15.828 80.0278 15.884 79.8584 16.108C79.6889 16.276 79.576 16.444 79.576 16.668L77.0907 25.74H76.4694L73.8147 16.612C73.7582 16.444 73.7018 16.22 73.5323 16.052C73.3629 15.884 73.1369 15.772 72.911 15.772H69.4656C69.0137 15.772 68.7313 15.94 68.6183 16.22C68.5054 16.5 68.5054 16.78 68.6183 17.004L72.8545 29.828C72.911 29.996 73.024 30.22 73.1934 30.332C73.3629 30.5 73.5888 30.556 73.8147 30.556H75.6222L75.4527 30.948L75.0573 32.124C74.9444 32.46 74.7185 32.796 74.3796 33.076C74.0971 33.3 73.7582 33.412 73.3629 33.412C73.0805 33.412 72.7416 33.356 72.4591 33.244C72.1767 33.132 71.8943 32.964 71.6684 32.796C71.4425 32.628 71.16 32.572 70.9341 32.572H70.8776C70.5387 32.572 70.2563 32.74 70.1433 33.02L69.0702 34.588C68.6183 35.26 68.9007 35.708 69.1831 35.932C69.748 36.436 70.4258 36.828 71.16 37.108C71.9508 37.388 72.798 37.5 73.7018 37.5C75.2268 37.5 76.5259 37.108 77.4861 36.268C78.5028 35.372 79.2371 34.196 79.6325 32.908L84.5464 17.06C84.6594 16.78 84.6594 16.5 84.5464 16.22C84.5464 15.996 84.3205 15.828 83.8687 15.828Z" fill="black"/>
</g>
<defs>
<clipPath id="clip0_3325_48121">
<rect width="158.491" height="28" fill="white" transform="translate(0 9.5)"/>
</clipPath>
</defs>
</svg>
