<svg width="48" height="48" viewBox="0 0 48 48" fill="none" xmlns="http://www.w3.org/2000/svg">
<path d="M1.5 24C1.5 11.5736 11.5736 1.5 24 1.5C36.4264 1.5 46.5 11.5736 46.5 24C46.5 36.4264 36.4264 46.5 24 46.5C11.5736 46.5 1.5 36.4264 1.5 24Z" fill="#F2F2F2"/>
<path d="M1.5 24C1.5 11.5736 11.5736 1.5 24 1.5C36.4264 1.5 46.5 11.5736 46.5 24C46.5 36.4264 36.4264 46.5 24 46.5C11.5736 46.5 1.5 36.4264 1.5 24Z" stroke="white" stroke-width="3"/>
<path d="M19.6322 32.3327H28.3655C30.6655 32.3327 31.5822 30.9243 31.6905 29.2077L32.1238 22.3243C32.2405 20.5243 30.8072 18.9993 28.9988 18.9993C28.4905 18.9993 28.0238 18.7077 27.7905 18.2577L27.1905 17.0493C26.8072 16.291 25.8072 15.666 24.9572 15.666H23.0488C22.1905 15.666 21.1905 16.291 20.8072 17.0493L20.2072 18.2577C19.9738 18.7077 19.5072 18.9993 18.9988 18.9993C17.1905 18.9993 15.7572 20.5243 15.8738 22.3243L16.3072 29.2077C16.4072 30.9243 17.3322 32.3327 19.6322 32.3327Z" stroke="#1F1F1F" stroke-width="1.5" stroke-linecap="round" stroke-linejoin="round"/>
<path d="M22.75 20.666H25.25" stroke="#1F1F1F" stroke-width="1.5" stroke-linecap="round" stroke-linejoin="round"/>
<path d="M24.0013 29.0007C25.493 29.0007 26.7096 27.784 26.7096 26.2923C26.7096 24.8007 25.493 23.584 24.0013 23.584C22.5096 23.584 21.293 24.8007 21.293 26.2923C21.293 27.784 22.5096 29.0007 24.0013 29.0007Z" stroke="#292D32" stroke-width="1.5" stroke-linecap="round" stroke-linejoin="round"/>
</svg>
