<svg width="54" height="54" viewBox="0 0 54 54" fill="none" xmlns="http://www.w3.org/2000/svg">
<path d="M14.6179 23.7691L15.6581 24.2093C16.5714 24.5956 17.6174 24.2026 18.0763 23.3362C18.3966 22.7315 18.7235 22.1402 19.0569 21.5623C19.2488 21.2296 19.4474 20.8968 19.6527 20.5639C20.3495 19.434 19.745 17.9021 18.4121 17.6403L18.295 17.6173C17.6821 17.4969 17.0495 17.6896 16.6078 18.1313L14.0226 20.7165C13.082 21.6571 13.3928 23.2508 14.6179 23.7691ZM21.13 28.1784L26.1627 33.167C26.6822 33.6819 27.4694 33.8613 28.159 33.5547C29.4995 32.9587 30.9093 32.1507 32.3882 31.1339C34.2075 29.8832 35.9126 28.4622 37.5034 26.8713C40.1581 24.2167 42.2374 21.265 43.7381 18.0166C45.0001 15.2849 45.6726 12.7164 45.7394 10.3147C45.7661 9.35147 44.9867 8.57213 44.0235 8.59882C41.6193 8.66546 39.0416 9.33792 36.2943 10.5998C33.027 12.1004 30.0656 14.1798 27.4106 16.8348C25.8197 18.4256 24.3987 20.1307 23.148 21.95C22.1335 23.4257 21.3268 24.8326 20.7311 26.1705C20.4217 26.8656 20.6063 27.6593 21.13 28.1784ZM30.9784 23.3035C30.1886 22.5137 29.7945 21.5507 29.7945 20.3906C29.7945 19.2304 30.1886 18.2675 30.9784 17.4776C31.7672 16.6889 32.739 16.2937 33.9195 16.2937C35.1001 16.2937 36.0719 16.6889 36.8606 17.4776C37.6505 18.2675 38.0445 19.2304 38.0445 20.3906C38.0445 21.5507 37.6505 22.5137 36.8606 23.3035C36.0719 24.0922 35.1001 24.4874 33.9195 24.4874C32.739 24.4874 31.7672 24.0922 30.9784 23.3035ZM33.6295 40.3078L36.2069 37.7304C36.6486 37.2887 36.8413 36.6561 36.7209 36.0432L36.6979 35.9261C36.4359 34.5921 34.9046 33.9909 33.7718 34.6749C33.4413 34.8745 33.1109 35.0664 32.7806 35.2505C32.2006 35.574 31.6071 35.8942 31.0001 36.2112C30.132 36.6645 29.7392 37.7074 30.1199 38.6188L30.5735 39.7047C31.0877 40.9355 32.6863 41.251 33.6295 40.3078ZM49.1642 6.02012C49.6438 10.1187 49.1611 14.1138 47.7148 18.0101C46.2202 22.0368 43.693 25.8993 40.1205 29.5965C39.6882 30.0439 39.4929 30.677 39.6175 31.2942L40.5831 36.0735C40.721 36.763 40.6862 37.43 40.4807 38.0808C40.2737 38.7362 39.9302 39.3026 39.4481 39.7848L31.5679 47.665C31.0044 48.2284 30.05 48.0437 29.7375 47.3108L25.9971 38.5386C25.9031 38.3181 25.7677 38.1177 25.5982 37.9482L16.39 28.74C16.2205 28.5706 16.0201 28.4351 15.7996 28.3411L7.02087 24.5979C6.28925 24.286 6.10354 23.334 6.66426 22.7699L14.4972 14.8901C14.4973 14.8899 14.4975 14.8898 14.4977 14.8896C14.978 14.4095 15.5523 14.0659 16.2267 13.8583C16.8982 13.6517 17.5755 13.6174 18.2642 13.755C18.2644 13.7551 18.2646 13.7551 18.2647 13.7551L23.0441 14.7207C23.6611 14.8453 24.2943 14.6501 24.7417 14.2175C28.4385 10.6438 32.2923 8.10693 36.3019 6.59455C40.1803 5.13166 44.1653 4.63978 48.2619 5.11789C48.7361 5.17324 49.1087 5.54578 49.1642 6.02012ZM9.0972 36.2088C10.3387 34.9673 11.8473 34.3396 13.6451 34.3218C15.4404 34.304 16.946 34.9129 18.1856 36.1526C19.4253 37.3923 20.0342 38.8978 20.0164 40.6931C19.9986 42.4909 19.3709 43.9995 18.1294 45.241C17.2561 46.1143 15.7597 46.8981 13.5874 47.5665C11.802 48.1159 9.44433 48.6183 6.50816 49.0717C5.77883 49.1843 5.15394 48.5594 5.26655 47.8301C5.7199 44.8939 6.22235 42.5362 6.7717 40.7508C7.44011 38.5785 8.22389 37.0822 9.0972 36.2088ZM11.7731 38.8285C11.3388 39.2628 10.9411 40.0109 10.5624 41.0144C10.4292 41.3674 10.3098 41.7217 10.2042 42.0774C9.8325 43.3294 10.9544 44.4459 12.2032 44.0901C12.5574 43.9893 12.9102 43.8758 13.2617 43.7498C14.2659 43.3898 15.0169 43.0016 15.4534 42.5651C15.9686 42.0499 16.251 41.4195 16.2939 40.6907C16.3376 39.9467 16.092 39.2983 15.5659 38.7723C15.0427 38.2491 14.399 37.9939 13.6585 38.0157C12.9256 38.0373 12.2909 38.3107 11.7731 38.8285Z" fill="#DDDDDD" stroke="#DDDDDD" stroke-width="0.75"/>
</svg>
