<svg width="362" height="195" viewBox="0 0 362 195" fill="none" xmlns="http://www.w3.org/2000/svg">
<g clip-path="url(#clip0_6056_55088)">
<path d="M0 97.5C0 43.6522 43.6522 0 97.5 0H330C347.673 0 362 14.3269 362 32V163C362 180.673 347.673 195 330 195H97.5C43.6522 195 0 151.348 0 97.5V97.5Z" fill="#1F1F1F"/>
<g opacity="0.4">
<path d="M78.5667 115.567C94.5774 123.158 113.71 116.332 121.302 100.321C128.893 84.3108 122.067 65.1777 106.056 57.5867C90.0457 49.9956 70.9126 56.8211 63.3216 72.8318C55.7305 88.8425 62.556 107.976 78.5667 115.567Z" stroke="#E2063A" stroke-width="9.625" stroke-linecap="round" stroke-linejoin="round"/>
<path d="M100.886 197.151C111.525 174.713 97.8068 145.982 70.3243 132.952C42.8418 119.921 11.9153 127.486 1.27674 149.924" stroke="#E2063A" stroke-width="9.625" stroke-linecap="round" stroke-linejoin="round"/>
</g>
</g>
<defs>
<clipPath id="clip0_6056_55088">
<path d="M0 97.5C0 43.6522 43.6522 0 97.5 0H330C347.673 0 362 14.3269 362 32V163C362 180.673 347.673 195 330 195H97.5C43.6522 195 0 151.348 0 97.5V97.5Z" fill="white"/>
</clipPath>
</defs>
</svg>
