<svg width="148" height="148" viewBox="0 0 148 148" fill="none" xmlns="http://www.w3.org/2000/svg">
<path d="M0 74C0 33.1309 33.1309 0 74 0C114.869 0 148 33.1309 148 74C148 114.869 114.869 148 74 148C33.1309 148 0 114.869 0 74Z" fill="#F2F2F2"/>
<path d="M74.0043 73.9989C79.6806 73.9989 84.2821 69.3974 84.2821 63.7211C84.2821 58.0449 79.6806 53.4434 74.0043 53.4434C68.3281 53.4434 63.7266 58.0449 63.7266 63.7211C63.7266 69.3974 68.3281 73.9989 74.0043 73.9989Z" stroke="#9A9A9A" stroke-width="3.08333" stroke-linecap="round" stroke-linejoin="round"/>
<path d="M91.6582 94.5549C91.6582 86.5999 83.7443 80.166 74.001 80.166C64.2576 80.166 56.3438 86.5999 56.3438 94.5549" stroke="#9A9A9A" stroke-width="3.08333" stroke-linecap="round" stroke-linejoin="round"/>
</svg>
