<svg width="72" height="72" viewBox="0 0 72 72" fill="none" xmlns="http://www.w3.org/2000/svg">
<path d="M0 36C0 16.1178 16.1178 0 36 0C55.8823 0 72 16.1178 72 36C72 55.8823 55.8823 72 36 72C16.1178 72 0 55.8823 0 36Z" fill="#F2F2F2"/>
<path d="M36 36C38.7614 36 41 33.7614 41 31C41 28.2386 38.7614 26 36 26C33.2386 26 31 28.2386 31 31C31 33.7614 33.2386 36 36 36Z" stroke="#9A9A9A" stroke-width="1.5" stroke-linecap="round" stroke-linejoin="round"/>
<path d="M44.5901 46C44.5901 42.13 40.7402 39 36.0002 39C31.2602 39 27.4102 42.13 27.4102 46" stroke="#9A9A9A" stroke-width="1.5" stroke-linecap="round" stroke-linejoin="round"/>
</svg>
