<svg width="251" height="250" viewBox="0 0 251 250" fill="none" xmlns="http://www.w3.org/2000/svg">
<path d="M3 125C3 57.3451 57.8451 2.5 125.5 2.5C193.155 2.5 248 57.3451 248 125C248 192.655 193.155 247.5 125.5 247.5C57.8451 247.5 3 192.655 3 125Z" fill="white"/>
<path d="M3 125C3 57.3451 57.8451 2.5 125.5 2.5C193.155 2.5 248 57.3451 248 125C248 192.655 193.155 247.5 125.5 247.5C57.8451 247.5 3 192.655 3 125Z" stroke="#E2063A" stroke-width="5"/>
<path d="M95.912 120.548C89.732 114.364 86.64 111.276 85.492 107.264C84.34 103.252 85.324 98.992 87.292 90.476L88.424 85.564C90.076 78.396 90.904 74.812 93.356 72.356C95.812 69.904 99.396 69.076 106.564 67.424L111.476 66.288C119.996 64.324 124.252 63.34 128.264 64.488C132.276 65.64 135.364 68.732 141.544 74.912L148.864 82.232C159.628 92.992 165 98.368 165 105.048C165 111.732 159.624 117.108 148.868 127.864C138.108 138.624 132.732 144 126.048 144C119.368 144 113.988 138.624 103.232 127.868L95.912 120.548Z" stroke="black" stroke-width="5"/>
<path d="M117.085 97.173C120.209 94.0488 120.209 88.9835 117.085 85.8593C113.961 82.7351 108.895 82.7351 105.771 85.8593C102.647 88.9835 102.647 94.0488 105.771 97.173C108.895 100.297 113.961 100.297 117.085 97.173Z" stroke="black" stroke-width="5"/>
<path d="M123.168 130L151.084 102.08" stroke="black" stroke-width="5" stroke-linecap="round"/>
<path d="M99.6673 184.392L97.2913 181.992C95.8673 182.904 94.1873 183.36 92.2513 183.36C90.5713 183.36 89.0753 183 87.7633 182.28C86.4673 181.544 85.4593 180.52 84.7393 179.208C84.0193 177.88 83.6593 176.36 83.6593 174.648C83.6593 172.904 84.0193 171.368 84.7393 170.04C85.4753 168.712 86.5073 167.68 87.8353 166.944C89.1633 166.208 90.6913 165.84 92.4193 165.84C94.0993 165.84 95.5873 166.208 96.8833 166.944C98.1793 167.664 99.1873 168.688 99.9073 170.016C100.627 171.328 100.987 172.84 100.987 174.552C100.987 176.776 100.403 178.648 99.2353 180.168L101.563 182.472L99.6673 184.392ZM86.5393 174.552C86.5393 175.784 86.7793 176.872 87.2593 177.816C87.7393 178.76 88.4113 179.496 89.2753 180.024C90.1553 180.536 91.1633 180.792 92.2993 180.792C93.4833 180.792 94.5233 180.512 95.4193 179.952L92.2513 176.784L93.9793 175.032L97.1713 178.224C97.7953 177.2 98.1073 176.008 98.1073 174.648C98.1073 173.416 97.8673 172.328 97.3873 171.384C96.9073 170.44 96.2273 169.712 95.3473 169.2C94.4833 168.672 93.4833 168.408 92.3473 168.408C91.2113 168.408 90.2033 168.672 89.3233 169.2C88.4433 169.712 87.7553 170.432 87.2593 171.36C86.7793 172.288 86.5393 173.352 86.5393 174.552ZM108.726 183.24C107.174 183.24 105.942 182.728 105.03 181.704C104.134 180.68 103.686 179.312 103.686 177.6V171.144H106.374V177.528C106.374 178.552 106.638 179.368 107.166 179.976C107.694 180.568 108.414 180.864 109.326 180.864C110.238 180.864 110.982 180.536 111.558 179.88C112.15 179.224 112.446 178.392 112.446 177.384V171.144H115.134V183H112.662C112.662 182.168 112.686 181.52 112.734 181.056H112.662C112.278 181.776 111.742 182.32 111.054 182.688C110.382 183.056 109.606 183.24 108.726 183.24ZM122.938 170.904C126.842 170.904 128.794 172.456 128.794 175.56V183H126.442C126.442 182.168 126.466 181.52 126.514 181.056H126.442C126.042 181.744 125.45 182.272 124.666 182.64C123.898 183.008 123.082 183.192 122.218 183.192C120.954 183.192 119.882 182.864 119.002 182.208C118.122 181.552 117.682 180.6 117.682 179.352C117.682 178.488 117.898 177.76 118.33 177.168C118.778 176.576 119.362 176.136 120.082 175.848C120.802 175.56 121.586 175.416 122.434 175.416C123.106 175.416 123.762 175.488 124.402 175.632C125.058 175.76 125.626 175.968 126.106 176.256V175.608C126.106 174.744 125.794 174.12 125.17 173.736C124.546 173.352 123.738 173.16 122.746 173.16C122.202 173.16 121.618 173.232 120.994 173.376C120.37 173.52 119.778 173.696 119.218 173.904L118.594 171.816C120.002 171.208 121.45 170.904 122.938 170.904ZM122.818 180.984C123.666 180.984 124.41 180.76 125.05 180.312C125.706 179.848 126.082 179.2 126.178 178.368C125.762 178.096 125.25 177.88 124.642 177.72C124.034 177.544 123.474 177.456 122.962 177.456C122.226 177.456 121.61 177.608 121.114 177.912C120.618 178.216 120.37 178.656 120.37 179.232C120.37 179.808 120.61 180.248 121.09 180.552C121.586 180.84 122.162 180.984 122.818 180.984ZM135.863 183.288C134.631 183.288 133.695 182.944 133.055 182.256C132.431 181.552 132.119 180.512 132.119 179.136V166.2H134.807V178.92C134.807 179.656 134.927 180.176 135.167 180.48C135.407 180.768 135.815 180.912 136.391 180.912C136.711 180.912 137.031 180.872 137.351 180.792L137.903 182.952C137.183 183.176 136.503 183.288 135.863 183.288ZM141.198 169.368C140.702 169.368 140.286 169.216 139.95 168.912C139.63 168.592 139.47 168.2 139.47 167.736C139.47 167.24 139.63 166.84 139.95 166.536C140.27 166.216 140.686 166.056 141.198 166.056C141.71 166.056 142.126 166.216 142.446 166.536C142.766 166.84 142.926 167.24 142.926 167.736C142.926 168.2 142.758 168.592 142.422 168.912C142.102 169.216 141.694 169.368 141.198 169.368ZM139.878 171.144H142.566V183H139.878V171.144ZM153.864 182.592C153.4 182.8 152.96 182.944 152.544 183.024C152.144 183.12 151.696 183.168 151.2 183.168C149.952 183.168 148.992 182.808 148.32 182.088C147.648 181.368 147.312 180.32 147.312 178.944V173.376H145.08V171.144H147.312V168.048L149.976 167.76V171.144H153.384V173.376H149.976V178.872C149.976 180.184 150.528 180.84 151.632 180.84C152.112 180.84 152.608 180.712 153.12 180.456L153.864 182.592ZM167.186 171.144L161.45 185.52C161.002 186.64 160.458 187.456 159.818 187.968C159.194 188.48 158.418 188.736 157.49 188.736C156.642 188.736 155.818 188.504 155.018 188.04L155.93 185.856C156.378 186.128 156.85 186.264 157.346 186.264C157.762 186.264 158.098 186.144 158.354 185.904C158.626 185.68 158.89 185.248 159.146 184.608L159.674 183.336L154.538 171.144H157.466L159.77 176.952C160.186 177.992 160.602 179.136 161.018 180.384H161.066L161.306 179.664C161.802 178.176 162.106 177.28 162.218 176.976L164.282 171.144H167.186Z" fill="#3A3A3A"/>
</svg>
