<svg width="33" height="32" viewBox="0 0 33 32" fill="none" xmlns="http://www.w3.org/2000/svg">
<rect x="0.5" width="32" height="32" rx="16" fill="#E2063A"/>
<path d="M12.8984 12.5361V11.7601C12.8984 9.96008 14.3464 8.19208 16.1464 8.02408C18.2904 7.81608 20.0984 9.50408 20.0984 11.6081V12.7121" stroke="white" stroke-width="1.5" stroke-miterlimit="10" stroke-linecap="round" stroke-linejoin="round"/>
<path d="M14.0967 24H18.8967C22.1127 24 22.6887 22.712 22.8567 21.144L23.4567 16.344C23.6727 14.392 23.1127 12.8 19.6967 12.8H13.2967C9.88074 12.8 9.32074 14.392 9.53674 16.344L10.1367 21.144C10.3047 22.712 10.8807 24 14.0967 24Z" stroke="white" stroke-width="1.5" stroke-miterlimit="10" stroke-linecap="round" stroke-linejoin="round"/>
<path d="M19.294 16H19.3012" stroke="white" stroke-width="2" stroke-linecap="round" stroke-linejoin="round"/>
<path d="M13.6925 16H13.6997" stroke="white" stroke-width="2" stroke-linecap="round" stroke-linejoin="round"/>
</svg>
