<svg width="33" height="32" viewBox="0 0 33 32" fill="none" xmlns="http://www.w3.org/2000/svg">
<rect x="0.5" width="32" height="32" rx="16" fill="#E2063A"/>
<path d="M24.476 21.064C24.476 21.352 24.412 21.648 24.276 21.936C24.14 22.224 23.964 22.496 23.732 22.752C23.34 23.184 22.908 23.496 22.42 23.696C21.94 23.896 21.42 24 20.86 24C20.044 24 19.172 23.808 18.252 23.416C17.332 23.024 16.412 22.496 15.5 21.832C14.58 21.16 13.708 20.416 12.876 19.592C12.052 18.76 11.308 17.888 10.644 16.976C9.988 16.064 9.46 15.152 9.076 14.248C8.692 13.336 8.5 12.464 8.5 11.632C8.5 11.088 8.596 10.568 8.788 10.088C8.98 9.6 9.284 9.152 9.708 8.752C10.22 8.248 10.78 8 11.372 8C11.596 8 11.82 8.048 12.02 8.144C12.228 8.24 12.412 8.384 12.556 8.592L14.412 11.208C14.556 11.408 14.66 11.592 14.732 11.768C14.804 11.936 14.844 12.104 14.844 12.256C14.844 12.448 14.788 12.64 14.676 12.824C14.572 13.008 14.42 13.2 14.228 13.392L13.62 14.024C13.532 14.112 13.492 14.216 13.492 14.344C13.492 14.408 13.5 14.464 13.516 14.528C13.54 14.592 13.564 14.64 13.58 14.688C13.724 14.952 13.972 15.296 14.324 15.712C14.684 16.128 15.068 16.552 15.484 16.976C15.916 17.4 16.332 17.792 16.756 18.152C17.172 18.504 17.516 18.744 17.788 18.888C17.828 18.904 17.876 18.928 17.932 18.952C17.996 18.976 18.06 18.984 18.132 18.984C18.268 18.984 18.372 18.936 18.46 18.848L19.068 18.248C19.268 18.048 19.46 17.896 19.644 17.8C19.828 17.688 20.012 17.632 20.212 17.632C20.364 17.632 20.524 17.664 20.7 17.736C20.876 17.808 21.06 17.912 21.26 18.048L23.908 19.928C24.116 20.072 24.26 20.24 24.348 20.44C24.428 20.64 24.476 20.84 24.476 21.064Z" stroke="white" stroke-width="1.5" stroke-miterlimit="10"/>
</svg>
