<svg width="49" height="48" viewBox="0 0 49 48" fill="none" xmlns="http://www.w3.org/2000/svg">
  <path d="M0.25 24C0.25 10.7452 10.9952 0 24.25 0C37.5048 0 48.25 10.7452 48.25 24C48.25 37.2548 37.5048 48 24.25 48C10.9952 48 0.25 37.2548 0.25 24Z" fill="#E2063A"/>
  <rect x="4.25" y="4" width="40" height="40" rx="20" fill="#1F1F1F"/>
  <path d="M23.8966 31.7935L24.2501 32.1471L24.6037 31.7935L30.1437 26.2535C30.2384 26.1588 30.4018 26.1588 30.4966 26.2535C30.5913 26.3483 30.5913 26.5117 30.4966 26.6064L24.4266 32.6764C24.3753 32.7277 24.3147 32.75 24.2501 32.75C24.1856 32.75 24.125 32.7277 24.0737 32.6764L18.0037 26.6064C17.9089 26.5117 17.9089 26.3483 18.0037 26.2535C18.0984 26.1588 18.2618 26.1588 18.3566 26.2535L23.8966 31.7935Z" stroke="white"/>
  <path d="M24.25 32.58C24.1161 32.58 24 32.4639 24 32.33V15.5C24 15.3661 24.1161 15.25 24.25 15.25C24.3839 15.25 24.5 15.3661 24.5 15.5V32.33C24.5 32.4639 24.3839 32.58 24.25 32.58Z" stroke="white"/>
</svg>