<svg width="32" height="32" viewBox="0 0 32 32" fill="none" xmlns="http://www.w3.org/2000/svg">
<rect width="32" height="32" rx="16" fill="#1F1F1F"/>
<path d="M16.0004 24.1C11.5325 24.1 7.90039 20.4679 7.90039 16C7.90039 11.5322 11.5325 7.90002 16.0004 7.90002C16.0237 7.90002 16.0487 7.90948 16.0698 7.93058C16.0909 7.95168 16.1004 7.97671 16.1004 8.00002C16.1004 8.02334 16.0909 8.04837 16.0698 8.06947C16.0487 8.09057 16.0237 8.10002 16.0004 8.10002C11.6442 8.10002 8.10039 11.6439 8.10039 16C8.10039 20.3562 11.6442 23.9 16.0004 23.9C20.3565 23.9 23.9004 20.3562 23.9004 16C23.9004 15.9767 23.9098 15.9517 23.9309 15.9306C23.952 15.9095 23.9771 15.9 24.0004 15.9C24.0237 15.9 24.0487 15.9095 24.0698 15.9306C24.0909 15.9517 24.1004 15.9767 24.1004 16C24.1004 20.4679 20.4682 24.1 16.0004 24.1Z" stroke="white"/>
<path d="M16.8011 15.3C16.7866 15.3 16.7743 15.2974 16.7639 15.2932C16.7541 15.2892 16.7429 15.2826 16.7307 15.2704C16.714 15.2537 16.7031 15.2294 16.7031 15.2C16.7031 15.1706 16.714 15.1462 16.7307 15.1295L23.2907 8.56955C23.3074 8.55285 23.3317 8.54199 23.3611 8.54199C23.3906 8.54199 23.4149 8.55285 23.4316 8.56955C23.4483 8.58624 23.4591 8.61056 23.4591 8.63999C23.4591 8.66943 23.4483 8.69375 23.4316 8.71044L16.8716 15.2704C16.8594 15.2826 16.8482 15.2892 16.8383 15.2932C16.828 15.2974 16.8156 15.3 16.8011 15.3Z" fill="white" stroke="white"/>
<path d="M24.0011 12.464C23.6731 12.464 23.4011 12.192 23.4011 11.864V8.60002H20.1371C19.8091 8.60002 19.5371 8.32802 19.5371 8.00002C19.5371 7.67202 19.8091 7.40002 20.1371 7.40002H24.0011C24.3291 7.40002 24.6011 7.67202 24.6011 8.00002V11.864C24.6011 12.192 24.3291 12.464 24.0011 12.464Z" fill="white"/>
</svg>
