<svg width="33" height="32" viewBox="0 0 33 32" fill="none" xmlns="http://www.w3.org/2000/svg">
<rect x="0.5" width="32" height="32" rx="16" fill="#E2063A"/>
<path d="M9.86457 12.1096L9.86458 12.1096L14.1764 8.74972C14.1765 8.74968 14.1765 8.74964 14.1766 8.7496C14.715 8.32981 15.42 8.12792 16.1021 8.11312C16.7843 8.09831 17.4985 8.26945 18.0588 8.66251L9.86457 12.1096ZM9.86457 12.1096L9.86226 12.1114C9.5016 12.3959 9.19227 12.8306 8.97435 13.2731C8.75674 13.7149 8.5999 14.2262 8.5999 14.688V20.616C8.5999 22.4183 10.0619 23.892 11.8679 23.892H21.1319C22.936 23.892 24.3999 22.4281 24.3999 20.624V14.8C24.3999 14.3106 24.229 13.7723 23.9882 13.3108C23.7482 12.8507 23.4052 12.4024 23.0006 12.125L18.0591 8.66272L9.86457 12.1096ZM9.74287 11.9547L9.74323 11.9544L14.0549 8.59468C14.055 8.5946 14.0551 8.59452 14.0552 8.59444C14.0552 8.59443 14.0552 8.59442 14.0552 8.5944C15.1773 7.72195 17.0079 7.67915 18.1725 8.49716L18.173 8.49749L23.117 11.9615L23.1179 11.9621C23.513 12.2377 23.8885 12.6907 24.1657 13.2215C24.4429 13.7522 24.5999 14.3189 24.5999 14.8V20.624C24.5999 22.5325 23.0471 24.092 21.1319 24.092H11.8679C9.95335 24.092 8.3999 22.5332 8.3999 20.616V14.688C8.3999 14.2385 8.54137 13.7002 8.7927 13.1884C9.04396 12.6768 9.38459 12.2333 9.74287 11.9547Z" stroke="white"/>
<path d="M17.6998 20.9H15.2998C13.9199 20.9 12.7998 19.7799 12.7998 18.4V16C12.7998 14.6201 13.9199 13.5 15.2998 13.5H17.6998C19.0797 13.5 20.1998 14.6201 20.1998 16V18.4C20.1998 19.7799 19.0797 20.9 17.6998 20.9ZM15.2998 13.7C14.0317 13.7 12.9998 14.7319 12.9998 16V18.4C12.9998 19.6681 14.0317 20.7 15.2998 20.7H17.6998C18.9679 20.7 19.9998 19.6681 19.9998 18.4V16C19.9998 14.7319 18.9679 13.7 17.6998 13.7H15.2998Z" fill="white" stroke="white"/>
<path d="M16.4999 21.4C16.1719 21.4 15.8999 21.128 15.8999 20.8V13.6C15.8999 13.272 16.1719 13 16.4999 13C16.8279 13 17.0999 13.272 17.0999 13.6V20.8C17.0999 21.128 16.8279 21.4 16.4999 21.4Z" fill="white"/>
<path d="M20.0998 17.8H12.8998C12.5718 17.8 12.2998 17.528 12.2998 17.2C12.2998 16.872 12.5718 16.6 12.8998 16.6H20.0998C20.4278 16.6 20.6998 16.872 20.6998 17.2C20.6998 17.528 20.4278 17.8 20.0998 17.8Z" fill="white"/>
</svg>
