<svg width="25" height="24" viewBox="0 0 25 24" fill="none" xmlns="http://www.w3.org/2000/svg">
<path d="M12.5 19.5C8.36421 19.5 5 16.1358 5 12M12.5 19.5C16.6358 19.5 20 16.1358 20 12M12.5 19.5C16.6342 19.5 20 16.1342 20 12M12.5 19.5C8.36579 19.5 5 16.1342 5 12M5 12C5 7.86421 8.36421 4.5 12.5 4.5M5 12C5 7.86579 8.36579 4.5 12.5 4.5M20 12C20 7.86421 16.6358 4.5 12.5 4.5M20 12C20 7.86579 16.6342 4.5 12.5 4.5" fill="#9A9A9A" stroke="#9A9A9A" stroke-width="1.5"/>
<path d="M12.5 15.75C10.43 15.75 8.75 14.07 8.75 12C8.75 9.93 10.43 8.25 12.5 8.25C14.57 8.25 16.25 9.93 16.25 12C16.25 14.07 14.57 15.75 12.5 15.75ZM12.5 9.75C11.26 9.75 10.25 10.76 10.25 12C10.25 13.24 11.26 14.25 12.5 14.25C13.74 14.25 14.75 13.24 14.75 12C14.75 10.76 13.74 9.75 12.5 9.75Z" fill="#9A9A9A"/>
<path d="M12.5 4.75C12.09 4.75 11.75 4.41 11.75 4V2C11.75 1.59 12.09 1.25 12.5 1.25C12.91 1.25 13.25 1.59 13.25 2V4C13.25 4.41 12.91 4.75 12.5 4.75Z" fill="#9A9A9A"/>
<path d="M4.5 12.75H2.5C2.09 12.75 1.75 12.41 1.75 12C1.75 11.59 2.09 11.25 2.5 11.25H4.5C4.91 11.25 5.25 11.59 5.25 12C5.25 12.41 4.91 12.75 4.5 12.75Z" fill="#9A9A9A"/>
<path d="M12.5 22.75C12.09 22.75 11.75 22.41 11.75 22V20C11.75 19.59 12.09 19.25 12.5 19.25C12.91 19.25 13.25 19.59 13.25 20V22C13.25 22.41 12.91 22.75 12.5 22.75Z" fill="#9A9A9A"/>
<path d="M22.5 12.75H20.5C20.09 12.75 19.75 12.41 19.75 12C19.75 11.59 20.09 11.25 20.5 11.25H22.5C22.91 11.25 23.25 11.59 23.25 12C23.25 12.41 22.91 12.75 22.5 12.75Z" fill="#9A9A9A"/>
</svg>
