<svg width="145" height="144" viewBox="0 0 145 144" fill="none" xmlns="http://www.w3.org/2000/svg">
<path d="M106.457 23.8929L106.448 23.915L106.44 23.9374C106.031 25.0631 105.647 26.2134 105.29 27.3883L106.725 27.825L105.29 27.3883C104.999 28.3442 104.757 29.316 104.565 30.3035L106.037 30.5904L104.565 30.3035C104.372 31.2906 104.706 32.2773 105.385 32.9565L118.05 45.6213C118.612 46.1839 119.375 46.5 120.171 46.5H131.1L131.1 85.7628L115.928 90.7304C114.994 91.0362 114.269 91.7801 113.988 92.7217L115.425 93.1516L113.988 92.7217L104.483 124.5L74.0996 124.5V115.5C74.0996 113.843 72.7565 112.5 71.0996 112.5H62.0996C60.4428 112.5 59.0996 113.843 59.0996 115.5V124.5H28.7177C25.4282 113.462 22.1856 102.447 18.99 91.4562C15.7298 80.2432 14.0996 68.7593 14.0996 57C14.0996 48.1905 17.1467 40.7742 23.2603 34.6607C29.3738 28.5471 36.7901 25.5 45.5996 25.5H74.8574C75.7993 25.5 76.6633 25.0585 77.2284 24.3511C79.9082 20.9964 83.1134 18.3802 86.8519 16.4884C90.7851 14.4981 95.0271 13.5 99.5996 13.5C101.706 13.5 103.448 14.2202 104.914 15.6857C106.379 17.1512 107.1 18.8933 107.1 21C107.1 21.4736 107.041 21.9515 106.919 22.4362C106.783 22.9799 106.628 23.4643 106.457 23.8929ZM99.8139 63.2143C98.9591 64.0692 97.9219 64.5 96.5996 64.5C95.2774 64.5 94.2401 64.0692 93.3853 63.2143C92.5305 62.3595 92.0996 61.3222 92.0996 60C92.0996 58.6778 92.5305 57.6405 93.3853 56.7857C94.2401 55.9309 95.2774 55.5 96.5996 55.5C97.9219 55.5 98.9591 55.9308 99.8139 56.7857C100.669 57.6405 101.1 58.6777 101.1 60C101.1 61.3223 100.669 62.3595 99.8139 63.2143ZM95.1037 35.3828C95.1268 33.6671 95.2464 32.0151 95.4611 30.4259C95.5944 29.4396 95.7646 28.4447 95.9721 27.4409C96.1985 26.3452 95.8137 25.2836 95.0777 24.6014C94.3227 23.9015 93.1791 23.5959 92.0547 24.0705C89.9993 24.938 88.1309 26.1167 86.4547 27.6025C84.3365 29.4799 82.7296 31.7626 81.638 34.4312C81.625 34.4628 81.6057 34.4833 81.5911 34.4935C81.5848 34.498 81.5807 34.4996 81.5795 34.5H45.5996C39.4019 34.5 34.0703 36.7079 29.689 41.0893C25.3076 45.4707 23.0996 50.8023 23.0996 57C23.0996 66.9398 24.4692 76.6549 27.2085 86.1412C29.802 95.1223 32.3493 104.173 34.8506 113.293C35.2079 114.596 36.3922 115.5 37.7442 115.5H47.0996C48.7565 115.5 50.0996 114.157 50.0996 112.5V103.5H83.0996V112.5C83.0996 114.157 84.4428 115.5 86.0996 115.5H95.4846C96.8084 115.5 97.9758 114.632 98.3573 113.365L107.113 84.2743L120.057 79.9155C121.278 79.5045 122.1 78.3603 122.1 77.0723V58.5C122.1 56.8431 120.756 55.5 119.1 55.5H115.221L95.1037 35.3828ZM77.0996 52.5H50.0996V43.5H77.0996V52.5Z" fill="#E2063A" stroke="white" stroke-width="3"/>
</svg>
