<svg width="40" height="40" viewBox="0 0 40 40" fill="none" xmlns="http://www.w3.org/2000/svg">
<path d="M26.3476 29.5237C25.6209 29.5237 24.924 29.235 24.4102 28.7212C23.8964 28.2074 23.6077 27.5105 23.6077 26.7838C23.6077 26.0571 23.8964 25.3602 24.4102 24.8464C24.924 24.3326 25.6209 24.0439 26.3476 24.0439C27.0742 24.0439 27.7711 24.3326 28.285 24.8464C28.7988 25.3602 29.0875 26.0571 29.0875 26.7838C29.0875 27.5105 28.7988 28.2074 28.285 28.7212C27.7711 29.235 27.0742 29.5237 26.3476 29.5237ZM13.57 29.5237C12.8433 29.5237 12.1464 29.235 11.6326 28.7212C11.1187 28.2074 10.8301 27.5105 10.8301 26.7838C10.8301 26.0571 11.1187 25.3602 11.6326 24.8464C12.1464 24.3326 12.8433 24.0439 13.57 24.0439C14.2966 24.0439 14.9935 24.3326 15.5074 24.8464C16.0212 25.3602 16.3098 26.0571 16.3098 26.7838C16.3098 27.5105 16.0212 28.2074 15.5074 28.7212C14.9935 29.235 14.2966 29.5237 13.57 29.5237Z" stroke="black" stroke-width="1.66667" stroke-linecap="round" stroke-linejoin="round"/>
<path d="M10.8338 26.7856H8.0957V23.1349C8.0957 22.1667 8.48033 21.2381 9.16498 20.5534C9.84963 19.8688 10.7782 19.4841 11.7464 19.4841H15.3972C16.3654 19.4841 17.294 19.8688 17.9787 20.5534C18.6633 21.2381 19.0479 22.1667 19.0479 23.1349V24.0476C19.0479 24.7738 19.3364 25.4702 19.8499 25.9837C20.3634 26.4972 21.0598 26.7856 21.786 26.7856H23.6114H16.3099M29.0875 26.7856H30.0002C31.0078 26.7856 31.8475 25.9606 31.6576 24.9712C31.0534 21.817 28.8429 19.4841 25.4367 19.4841H24.5241" stroke="black" stroke-width="1.66667" stroke-linecap="round" stroke-linejoin="round"/>
<path d="M21.7871 11.27H24.5252V24.7394" stroke="black" stroke-width="1.66667" stroke-linecap="round" stroke-linejoin="round"/>
<path d="M28.1752 13.0953H26.3498C25.8657 13.0953 25.4014 13.2876 25.0591 13.63C24.7167 13.9723 24.5244 14.4366 24.5244 14.9207C24.5244 15.4048 24.7167 15.8691 25.0591 16.2114C25.4014 16.5538 25.8657 16.7461 26.3498 16.7461H28.1752V13.0953Z" stroke="black" stroke-width="1.66667" stroke-linecap="round" stroke-linejoin="round"/>
<path d="M9.92108 19.4841H14.4845C14.9686 19.4841 15.4329 19.2918 15.7752 18.9495C16.1176 18.6072 16.3099 18.1429 16.3099 17.6588V13.0953C16.3099 12.6112 16.1176 12.1469 15.7752 11.8046C15.4329 11.4623 14.9686 11.27 14.4845 11.27H9.92108C9.43696 11.27 8.97267 11.4623 8.63034 11.8046C8.28802 12.1469 8.0957 12.6112 8.0957 13.0953V17.6588C8.0957 18.1429 8.28802 18.6072 8.63034 18.9495C8.97267 19.2918 9.43696 19.4841 9.92108 19.4841Z" stroke="black" stroke-width="1.66667" stroke-linecap="round"/>
</svg>