<svg width="28" height="28" viewBox="0 0 28 28" fill="none" xmlns="http://www.w3.org/2000/svg">
<path d="M17.2025 2.625C17.2025 2.625 15.9567 3.0625 14 3.0625C12.0433 3.0625 10.7975 2.625 10.7975 2.625C10.6007 2.62507 10.4052 2.65835 10.2195 2.72344L1.75 5.6875L2.65945 10.5L5.33258 10.8019C5.65994 10.8389 5.96139 10.9977 6.17708 11.2467C6.39277 11.4958 6.50693 11.8168 6.49688 12.1461L6.125 25.375H21.875L21.5031 12.1461C21.4931 11.8168 21.6072 11.4958 21.8229 11.2467C22.0386 10.9977 22.3401 10.8389 22.6674 10.8019L25.3405 10.5L26.25 5.6875L17.7805 2.72344C17.5948 2.65835 17.3993 2.62507 17.2025 2.625Z" stroke="#DDDDDD" stroke-width="1.75" stroke-linecap="round" stroke-linejoin="round"/>
<path d="M18.2292 2.87988C17.9812 3.81185 17.4323 4.63576 16.6677 5.22351C15.9031 5.81126 14.9657 6.12991 14.0013 6.12991C13.0369 6.12991 12.0996 5.81126 11.335 5.22351C10.5704 4.63576 10.0214 3.81185 9.77344 2.87988" stroke="#DDDDDD" stroke-width="1.75" stroke-linecap="round" stroke-linejoin="round"/>
</svg>
