<svg width="28" height="28" viewBox="0 0 28 28" fill="none" xmlns="http://www.w3.org/2000/svg">
<path fill-rule="evenodd" clip-rule="evenodd" d="M21.1774 5.83331C21.6974 5.83326 22.2026 6.00692 22.6126 6.32672C23.0227 6.64651 23.3141 7.09412 23.4408 7.59848L23.4793 7.78281L25.4229 19.4495C25.4764 19.7695 25.4625 20.0972 25.3821 20.4116C25.3017 20.726 25.1567 21.0202 24.9562 21.2753C24.7557 21.5305 24.5042 21.741 24.2178 21.8935C23.9313 22.046 23.6162 22.137 23.2926 22.1608L23.1223 22.1666H16.9564C16.6051 22.1666 16.2584 22.0873 15.942 21.9346C15.6257 21.7819 15.3479 21.5597 15.1294 21.2846L15.0151 21.1271L13.9989 19.6035L12.9828 21.1271C12.7879 21.4195 12.5295 21.6642 12.2269 21.8428C11.9243 22.0213 11.5853 22.1293 11.2351 22.1585L11.0414 22.1666H4.87559C4.55123 22.1665 4.23046 22.0988 3.93374 21.9678C3.63703 21.8368 3.37089 21.6453 3.15231 21.4057C2.93374 21.166 2.76753 20.8834 2.6643 20.5759C2.56107 20.2684 2.52308 19.9428 2.55276 19.6198L2.57492 19.4495L4.51859 7.78281C4.60403 7.26972 4.85847 6.79989 5.24148 6.44795C5.62449 6.09601 6.11412 5.88214 6.63259 5.84031L6.82042 5.83331H21.1774ZM21.7608 11.6666H6.23709L4.87559 19.8333H11.0414L13.0283 16.8525C13.1348 16.6927 13.2791 16.5617 13.4485 16.4711C13.6178 16.3805 13.8069 16.3331 13.9989 16.3331C14.191 16.3331 14.38 16.3805 14.5494 16.4711C14.7187 16.5617 14.863 16.6927 14.9696 16.8525L16.9564 19.8333H23.1223L21.7608 11.6666ZM21.1774 8.16665H6.82042L6.62559 9.33331H21.3723L21.1774 8.16665Z" fill="#DDDDDD"/>
</svg>
