<svg width="33" height="32" viewBox="0 0 33 32" fill="none" xmlns="http://www.w3.org/2000/svg">
<rect x="0.5" width="32" height="32" rx="16" fill="#1F1F1F"/>
<path d="M13.7539 10.5464C13.5587 10.3512 13.2421 10.3512 13.0468 10.5464L10.0468 13.5464C9.85158 13.7417 9.85158 14.0583 10.0468 14.2535C10.2421 14.4488 10.5587 14.4488 10.7539 14.2535L12.9004 12.1071V21.9C12.9004 22.1761 13.1242 22.4 13.4004 22.4C13.6765 22.4 13.9004 22.1761 13.9004 21.9V12.1071L16.0468 14.2535C16.2421 14.4488 16.5587 14.4488 16.7539 14.2535C16.9492 14.0583 16.9492 13.7417 16.7539 13.5464L13.7539 10.5464ZM20.0529 22.2595C20.2467 22.4468 20.5541 22.4468 20.7479 22.2595L23.7479 19.3594C23.9464 19.1675 23.9518 18.8509 23.7599 18.6524C23.568 18.4538 23.2514 18.4485 23.0529 18.6404L20.9004 20.7212L20.9004 10.9001C20.9004 10.6239 20.6765 10.4001 20.4004 10.4001C20.1243 10.4001 19.9004 10.6239 19.9004 10.9001L19.9004 20.7212L17.7479 18.6404C17.5494 18.4485 17.2328 18.4538 17.0409 18.6524C16.849 18.8509 16.8543 19.1675 17.0529 19.3594L20.0529 22.2595Z" fill="white" stroke="white" stroke-width="0.8" stroke-linecap="round" stroke-linejoin="round"/>
</svg>
