<svg width="32" height="32" viewBox="0 0 32 32" fill="none" xmlns="http://www.w3.org/2000/svg">
<rect width="32" height="32" rx="16" fill="#1F1F1F"/>
<path d="M15.9992 21.5999C18.6472 21.5999 20.7992 19.4479 20.7992 16.7999V12.7999C20.7992 10.1519 18.6472 7.99988 15.9992 7.99988C13.3512 7.99988 11.1992 10.1519 11.1992 12.7999V16.7999C11.1992 19.4479 13.3512 21.5999 15.9992 21.5999Z" stroke="white" stroke-width="1.2" stroke-linecap="round" stroke-linejoin="round"/>
<path d="M8.79883 15.2V16.8C8.79883 20.776 12.0228 24 15.9988 24C19.9748 24 23.1988 20.776 23.1988 16.8V15.2" stroke="white" stroke-width="1.2" stroke-linecap="round" stroke-linejoin="round"/>
<path d="M13.6855 12.3839C15.1095 11.8639 16.6615 11.8639 18.0855 12.3839" stroke="white" stroke-width="1.2" stroke-linecap="round" stroke-linejoin="round"/>
<path d="M14.4219 14.7839C15.3819 14.5199 16.3979 14.5199 17.3579 14.7839" stroke="white" stroke-width="1.2" stroke-linecap="round" stroke-linejoin="round"/>
</svg>
