<svg width="251" height="250" viewBox="0 0 251 250" fill="none" xmlns="http://www.w3.org/2000/svg">
<path d="M3 125C3 57.3451 57.8451 2.5 125.5 2.5C193.155 2.5 248 57.3451 248 125C248 192.655 193.155 247.5 125.5 247.5C57.8451 247.5 3 192.655 3 125Z" fill="white"/>
<path d="M3 125C3 57.3451 57.8451 2.5 125.5 2.5C193.155 2.5 248 57.3451 248 125C248 192.655 193.155 247.5 125.5 247.5C57.8451 247.5 3 192.655 3 125Z" stroke="#E2063A" stroke-width="5"/>
<path d="M126 125.6C123.587 125.6 121.261 124.692 119.488 123.055C117.714 121.418 116.622 119.174 116.429 116.768C110.026 114.502 104.631 110.046 101.194 104.189C97.7568 98.331 96.4998 91.4474 97.6446 84.7531C98.7894 78.0587 102.262 71.984 107.451 67.6013C112.639 63.2186 119.208 60.8097 126 60.7998C133.223 60.7988 140.184 63.5122 145.5 68.4022C150.817 73.2921 154.102 80.0014 154.704 87.1998C154.724 87.512 154.679 87.825 154.572 88.1189C154.464 88.4128 154.297 88.6811 154.08 88.9068C153.863 89.1325 153.602 89.3106 153.313 89.43C153.024 89.5493 152.713 89.6071 152.4 89.5998C151.757 89.5826 151.144 89.3277 150.678 88.8844C150.213 88.441 149.928 87.8408 149.88 87.1998C149.452 82.9558 147.902 78.9024 145.387 75.457C142.873 72.0115 139.485 69.2984 135.574 67.597C131.662 65.8957 127.368 65.2675 123.133 65.7771C118.898 66.2868 114.876 67.9159 111.48 70.4968C108.083 73.0776 105.437 76.5169 103.811 80.4606C102.186 84.4043 101.641 88.7099 102.233 92.9341C102.824 97.1584 104.531 101.149 107.177 104.494C109.824 107.84 113.314 110.419 117.288 111.968C118.011 110.405 119.141 109.066 120.56 108.09C121.979 107.114 123.634 106.538 125.352 106.422C127.07 106.305 128.787 106.653 130.324 107.429C131.862 108.204 133.162 109.379 134.089 110.83C135.017 112.281 135.537 113.955 135.595 115.675C135.653 117.396 135.247 119.101 134.42 120.611C133.593 122.122 132.375 123.381 130.893 124.259C129.412 125.137 127.722 125.6 126 125.6ZM102.043 113.6H102.48C104.352 115.429 106.43 117.041 108.682 118.4H102.043C99.3504 118.4 97.2 120.545 97.2 123.2C97.2 129.483 100.186 134.163 105.23 137.374C110.366 140.653 117.672 142.4 126 142.4C134.328 142.4 141.634 140.653 146.77 137.374C151.81 134.158 154.8 129.488 154.8 123.2C154.8 121.927 154.294 120.706 153.394 119.806C152.494 118.906 151.273 118.4 150 118.4H140.203C140.47 116.811 140.47 115.189 140.203 113.6H150C152.546 113.6 154.988 114.611 156.788 116.412C158.589 118.212 159.6 120.654 159.6 123.2C159.6 131.317 155.602 137.437 149.352 141.425C143.198 145.347 134.904 147.2 126 147.2C117.096 147.2 108.802 145.347 102.648 141.425C96.3984 137.441 92.4 131.312 92.4 123.2C92.4 117.857 96.7344 113.6 102.043 113.6ZM145.2 89.5998C145.202 92.8479 144.38 96.0435 142.81 98.887C141.24 101.731 138.974 104.129 136.224 105.857C134.942 104.566 133.427 103.528 131.76 102.8C134.792 101.476 137.276 99.1495 138.794 96.2102C140.312 93.2709 140.772 89.8984 140.096 86.6599C139.42 83.4214 137.65 80.5145 135.083 78.4278C132.516 76.3411 129.308 75.202 126 75.202C122.692 75.202 119.484 76.3411 116.917 78.4278C114.35 80.5145 112.58 83.4214 111.904 86.6599C111.228 89.8984 111.688 93.2709 113.206 96.2102C114.724 99.1495 117.208 101.476 120.24 102.8C118.56 103.534 117.048 104.576 115.776 105.857C112.133 103.561 109.365 100.11 107.914 96.0558C107.174 93.9839 106.797 91.7998 106.8 89.5998C106.8 84.5076 108.823 79.6241 112.424 76.0234C116.024 72.4227 120.908 70.3998 126 70.3998C131.092 70.3998 135.976 72.4227 139.576 76.0234C143.177 79.6241 145.2 84.5076 145.2 89.5998Z" fill="#1F1F1F"/>
<path d="M86.1075 183.336C84.8275 183.336 83.6195 183.144 82.4835 182.76C81.3635 182.36 80.3955 181.816 79.5795 181.128L80.9235 178.992C81.6595 179.536 82.4675 179.968 83.3475 180.288C84.2435 180.608 85.1635 180.768 86.1075 180.768C87.1955 180.768 88.0835 180.528 88.7715 180.048C89.4755 179.568 89.8275 178.92 89.8275 178.104C89.8275 177.384 89.5315 176.808 88.9395 176.376C88.3475 175.944 87.3555 175.632 85.9635 175.44C83.9635 175.168 82.4755 174.656 81.4995 173.904C80.5395 173.136 80.0595 172.104 80.0595 170.808C80.0595 169.832 80.3235 168.976 80.8515 168.24C81.3955 167.488 82.1315 166.904 83.0595 166.488C84.0035 166.072 85.0595 165.864 86.2275 165.864C87.3315 165.864 88.3475 166.008 89.2755 166.296C90.2035 166.568 91.0995 167.024 91.9635 167.664L90.5475 169.704C89.9555 169.256 89.2835 168.92 88.5315 168.696C87.7955 168.472 87.0515 168.36 86.2995 168.36C85.3075 168.36 84.4835 168.576 83.8275 169.008C83.1875 169.424 82.8675 169.976 82.8675 170.664C82.8675 171.304 83.1555 171.8 83.7315 172.152C84.3235 172.488 85.3075 172.776 86.6835 173.016C88.7795 173.352 90.2915 173.936 91.2195 174.768C92.1635 175.584 92.6355 176.68 92.6355 178.056C92.6355 179.128 92.3635 180.064 91.8195 180.864C91.2755 181.664 90.5075 182.28 89.5155 182.712C88.5235 183.128 87.3875 183.336 86.1075 183.336ZM100.073 183.24C98.5212 183.24 97.2892 182.728 96.3772 181.704C95.4812 180.68 95.0332 179.312 95.0332 177.6V171.144H97.7212V177.528C97.7212 178.552 97.9852 179.368 98.5132 179.976C99.0412 180.568 99.7612 180.864 100.673 180.864C101.585 180.864 102.329 180.536 102.905 179.88C103.497 179.224 103.793 178.392 103.793 177.384V171.144H106.481V183H104.009C104.009 182.168 104.033 181.52 104.081 181.056H104.009C103.625 181.776 103.089 182.32 102.401 182.688C101.729 183.056 100.953 183.24 100.073 183.24ZM112.678 171.144C112.678 171.528 112.63 172.184 112.534 173.112H112.582C112.902 172.488 113.446 171.96 114.214 171.528C114.982 171.096 115.862 170.88 116.854 170.88C117.942 170.88 118.926 171.136 119.806 171.648C120.686 172.16 121.374 172.888 121.87 173.832C122.366 174.76 122.614 175.84 122.614 177.072C122.614 178.304 122.358 179.392 121.846 180.336C121.35 181.264 120.654 181.984 119.758 182.496C118.878 183.008 117.886 183.264 116.782 183.264C115.806 183.264 114.958 183.064 114.238 182.664C113.518 182.248 112.99 181.72 112.654 181.08H112.582C112.678 181.816 112.726 182.72 112.726 183.792V188.472H110.038V171.144H112.678ZM116.254 180.888C117.326 180.888 118.206 180.536 118.894 179.832C119.582 179.128 119.926 178.224 119.926 177.12C119.926 175.984 119.59 175.056 118.918 174.336C118.246 173.616 117.374 173.256 116.302 173.256C115.246 173.256 114.382 173.616 113.71 174.336C113.038 175.04 112.702 175.936 112.702 177.024C112.702 178.16 113.03 179.088 113.686 179.808C114.358 180.528 115.214 180.888 116.254 180.888ZM127.889 171.144C127.889 171.528 127.841 172.184 127.745 173.112H127.793C128.113 172.488 128.657 171.96 129.425 171.528C130.193 171.096 131.073 170.88 132.065 170.88C133.153 170.88 134.137 171.136 135.017 171.648C135.897 172.16 136.585 172.888 137.081 173.832C137.577 174.76 137.825 175.84 137.825 177.072C137.825 178.304 137.569 179.392 137.057 180.336C136.561 181.264 135.865 181.984 134.969 182.496C134.089 183.008 133.097 183.264 131.993 183.264C131.017 183.264 130.169 183.064 129.449 182.664C128.729 182.248 128.201 181.72 127.865 181.08H127.793C127.889 181.816 127.937 182.72 127.937 183.792V188.472H125.249V171.144H127.889ZM131.465 180.888C132.537 180.888 133.417 180.536 134.105 179.832C134.793 179.128 135.137 178.224 135.137 177.12C135.137 175.984 134.801 175.056 134.129 174.336C133.457 173.616 132.585 173.256 131.513 173.256C130.457 173.256 129.593 173.616 128.921 174.336C128.249 175.04 127.913 175.936 127.913 177.024C127.913 178.16 128.241 179.088 128.897 179.808C129.569 180.528 130.425 180.888 131.465 180.888ZM145.764 183.264C144.532 183.264 143.444 183 142.5 182.472C141.556 181.944 140.828 181.216 140.316 180.288C139.804 179.344 139.548 178.288 139.548 177.12C139.548 175.936 139.812 174.872 140.34 173.928C140.868 172.968 141.62 172.224 142.596 171.696C143.572 171.152 144.692 170.88 145.956 170.88C147.188 170.88 148.276 171.144 149.22 171.672C150.164 172.2 150.884 172.936 151.38 173.88C151.892 174.808 152.148 175.856 152.148 177.024C152.148 178.208 151.884 179.28 151.356 180.24C150.828 181.184 150.076 181.928 149.1 182.472C148.14 183 147.028 183.264 145.764 183.264ZM145.836 180.888C146.556 180.888 147.188 180.72 147.732 180.384C148.292 180.048 148.724 179.592 149.028 179.016C149.332 178.44 149.484 177.808 149.484 177.12C149.484 176.4 149.332 175.752 149.028 175.176C148.74 174.584 148.316 174.12 147.756 173.784C147.212 173.432 146.588 173.256 145.884 173.256C145.164 173.256 144.524 173.424 143.964 173.76C143.42 174.096 142.996 174.552 142.692 175.128C142.388 175.704 142.236 176.336 142.236 177.024C142.236 177.744 142.38 178.4 142.668 178.992C142.972 179.568 143.396 180.032 143.94 180.384C144.5 180.72 145.132 180.888 145.836 180.888ZM157.299 171.144C157.299 171.736 157.275 172.384 157.227 173.088H157.275C157.531 172.464 157.971 171.944 158.595 171.528C159.219 171.112 159.963 170.904 160.827 170.904C161.435 170.904 161.971 170.984 162.435 171.144L161.739 173.52C161.419 173.392 161.027 173.328 160.563 173.328C159.635 173.328 158.891 173.648 158.331 174.288C157.771 174.928 157.491 175.784 157.491 176.856V183H154.803V171.144H157.299ZM172.258 182.592C171.794 182.8 171.354 182.944 170.938 183.024C170.538 183.12 170.09 183.168 169.594 183.168C168.346 183.168 167.386 182.808 166.714 182.088C166.042 181.368 165.706 180.32 165.706 178.944V173.376H163.474V171.144H165.706V168.048L168.37 167.76V171.144H171.778V173.376H168.37V178.872C168.37 180.184 168.922 180.84 170.026 180.84C170.506 180.84 171.002 180.712 171.514 180.456L172.258 182.592Z" fill="black"/>
</svg>
