<svg width="48" height="49" viewBox="0 0 48 49" fill="none" xmlns="http://www.w3.org/2000/svg">
<g clip-path="url(#clip0_3340_19193)">
<path d="M34.0312 15.4714L34.0313 15.4714C35.1535 16.2018 36.46 16.674 37.8646 16.7989V20.8113C35.4575 20.6676 33.2336 19.8369 31.3862 18.513L30.1993 17.6625V19.1227V30.303C30.1993 35.4712 25.9873 39.6787 20.8091 39.6787C18.8082 39.6787 16.9537 39.0497 15.428 37.9798L15.4278 37.9796C13.0027 36.2798 11.418 33.4725 11.418 30.303C11.418 25.1341 15.6301 20.9266 20.8083 20.9266C21.0143 20.9266 21.2196 20.9347 21.4248 20.9497V24.9653C21.2234 24.941 21.0177 24.9281 20.8083 24.9281C17.842 24.9281 15.4274 27.3378 15.4274 30.303C15.4274 32.3701 16.6024 34.1617 18.3115 35.0598C19.0578 35.4519 19.907 35.6772 20.8091 35.6772C23.7088 35.6772 26.0731 33.3744 26.1805 30.5045L26.1811 30.4906L26.1811 30.4767L26.1896 9.17871H30.2339C30.2581 9.44379 30.2947 9.70465 30.342 9.96075L30.3422 9.96144C30.7698 12.265 32.1375 14.2389 34.0312 15.4714Z" stroke="#9A9A9A" stroke-width="1.5"/>
</g>
<defs>
<clipPath id="clip0_3340_19193">
<rect width="27.9467" height="32" fill="white" transform="translate(10.668 8.42871)"/>
</clipPath>
</defs>
</svg>
