<svg width="357" height="63" viewBox="0 0 357 63" fill="none" xmlns="http://www.w3.org/2000/svg">
<g clip-path="url(#clip0_2564_801)">
<path d="M55.9224 18C49.7816 18 44.2681 21.1953 44.2681 27.0588C44.2681 33.8118 54.0075 34.2729 54.0075 37.6329C54.0075 39.0494 52.3568 40.3341 49.5835 40.3341C45.6217 40.3341 42.6504 38.5553 42.6504 38.5553L41.3958 44.4847C41.3958 44.4847 44.7964 46 49.3524 46C56.0875 46 61.3698 42.6729 61.3698 36.6776C61.3698 29.5624 51.5974 29.1012 51.5974 25.9718C51.5974 24.8518 52.951 23.6329 55.7243 23.6329C58.8607 23.6329 61.4359 24.9176 61.4359 24.9176L62.6904 19.1859C62.6574 19.1859 59.8511 18 55.9224 18ZM-0.334926 18.4282L-0.5 19.2847C-0.5 19.2847 2.07516 19.7459 4.41921 20.7012C7.42356 21.7882 7.62165 22.4141 8.14989 24.3576L13.6634 45.5388H21.0587L32.3828 18.4282H25.0205L17.7242 36.8753L14.7529 21.2282C14.4887 19.4494 13.1021 18.4282 11.3853 18.4282H-0.334926ZM35.3541 18.4282L29.5765 45.5388H36.6087L42.3533 18.4282H35.3541ZM74.5097 18.4282C72.826 18.4282 71.9346 19.3176 71.2743 20.8988L60.9737 45.5388H68.336L69.7556 41.4212H78.7356L79.594 45.5388H86.098L80.4524 18.4282H74.5097ZM75.4672 25.7741L77.6462 35.9529H71.8025L75.4672 25.7741Z" fill="#DDDDDD"/>
</g>
<g clip-path="url(#clip1_2564_801)">
<path d="M130.53 19.271H117.15V43.2836H130.53V19.271Z" fill="#9A9A9A"/>
<path d="M118 31.277C118 26.6103 120.166 22.1556 123.819 19.2707C117.193 14.0525 107.593 15.1979 102.369 21.8587C97.1441 28.477 98.2909 38.065 104.96 43.2833C110.524 47.6531 118.297 47.6531 123.861 43.2833C120.166 40.3984 118 35.9438 118 31.277Z" fill="#DDDDDD"/>
<path d="M148.582 31.277C148.582 39.7196 141.744 46.55 133.291 46.55C129.851 46.55 126.537 45.4046 123.861 43.2833C130.488 38.065 131.635 28.477 126.41 21.8162C125.645 20.8829 124.796 19.992 123.861 19.2707C130.488 14.0525 140.13 15.1979 145.312 21.8587C147.436 24.5314 148.582 27.8406 148.582 31.277Z" fill="#DDDDDD"/>
<path d="M147.138 40.738V40.2289H147.351V40.144H146.841V40.2289H147.053V40.738H147.138ZM148.115 40.738V40.144H147.945L147.775 40.5683L147.606 40.144H147.436V40.738H147.563V40.2713L147.733 40.6531H147.86L148.03 40.2713V40.738H148.115Z" fill="#DDDDDD"/>
</g>
<path fill-rule="evenodd" clip-rule="evenodd" d="M274.937 32.2477C274.937 25.22 271.542 19.6748 265.053 19.6748C258.536 19.6748 254.593 25.22 254.593 32.1928C254.593 40.4557 259.248 44.6284 265.929 44.6284C269.187 44.6284 271.651 43.8872 273.513 42.844V37.3537C271.651 38.2871 269.516 38.8635 266.805 38.8635C264.149 38.8635 261.794 37.9302 261.493 34.6909H274.882C274.882 34.334 274.937 32.9065 274.937 32.2477ZM261.411 29.6398C261.411 26.5377 263.3 25.2475 265.025 25.2475C266.696 25.2475 268.475 26.5377 268.475 29.6398H261.411Z" fill="#DDDDDD"/>
<path fill-rule="evenodd" clip-rule="evenodd" d="M244.025 19.6748C241.341 19.6748 239.616 20.9376 238.658 21.816L238.302 20.114H232.279V52.1227L239.124 50.6678L239.151 42.8989C240.137 43.6127 241.588 44.6284 243.997 44.6284C248.898 44.6284 253.361 40.6753 253.361 31.9732C253.334 24.0122 248.816 19.6748 244.025 19.6748ZM242.382 38.589C240.766 38.589 239.808 38.0125 239.151 37.2988L239.124 27.1142C239.835 26.3181 240.821 25.7691 242.382 25.7691C244.873 25.7691 246.598 28.5691 246.598 32.1653C246.598 35.8438 244.901 38.589 242.382 38.589Z" fill="#DDDDDD"/>
<path fill-rule="evenodd" clip-rule="evenodd" d="M222.86 18.0551L229.732 16.5727V11L222.86 12.4549V18.0551Z" fill="#DDDDDD"/>
<path d="M229.732 20.1416H222.86V44.1618H229.732V20.1416Z" fill="#DDDDDD"/>
<path fill-rule="evenodd" clip-rule="evenodd" d="M215.494 22.1726L215.056 20.1412H209.142V44.1614H215.987V27.8826C217.603 25.7688 220.341 26.1531 221.189 26.4551V20.1412C220.313 19.8118 217.11 19.2078 215.494 22.1726Z" fill="#DDDDDD"/>
<path fill-rule="evenodd" clip-rule="evenodd" d="M201.804 14.1846L195.123 15.6121L195.096 37.6009C195.096 41.6637 198.135 44.6559 202.188 44.6559C204.433 44.6559 206.076 44.2442 206.979 43.75V38.1773C206.103 38.5342 201.777 39.797 201.777 35.7341V25.9888H206.979V20.1416H201.777L201.804 14.1846Z" fill="#DDDDDD"/>
<path fill-rule="evenodd" clip-rule="evenodd" d="M183.295 27.1142C183.295 26.0436 184.171 25.6318 185.622 25.6318C187.703 25.6318 190.332 26.2632 192.413 27.3887V20.9376C190.14 20.0317 187.895 19.6748 185.622 19.6748C180.064 19.6748 176.368 22.5847 176.368 27.4436C176.368 35.0203 186.772 33.8124 186.772 37.0792C186.772 38.342 185.677 38.7537 184.144 38.7537C181.871 38.7537 178.969 37.8204 176.669 36.5576V43.0911C179.215 44.1892 181.789 44.6558 184.144 44.6558C189.839 44.6558 193.754 41.8283 193.754 36.9145C193.727 28.7339 183.295 30.1888 183.295 27.1142Z" fill="#DDDDDD"/>
<defs>
<clipPath id="clip0_2564_801">
<rect width="86.598" height="28" fill="white" transform="translate(0 17.5)"/>
</clipPath>
<clipPath id="clip1_2564_801">
<rect width="49.4845" height="30.546" fill="white" transform="translate(99.598 16.2271)"/>
</clipPath>
</defs>
</svg>
