<svg width="49" height="49" viewBox="0 0 49 49" fill="none" xmlns="http://www.w3.org/2000/svg">
<path d="M0.5 24.5C0.5 11.2452 11.2452 0.5 24.5 0.5C37.7548 0.5 48.5 11.2452 48.5 24.5C48.5 37.7548 37.7548 48.5 24.5 48.5C11.2452 48.5 0.5 37.7548 0.5 24.5Z" fill="#E2063A"/>
<rect x="4.5" y="4.5" width="40" height="40" rx="20" fill="#1F1F1F"/>
<path d="M19.4 33.1C20.9 34 22.7 34.5 24.5 34.5C30 34.5 34.5 30 34.5 24.5C34.5 19 30 14.5 24.5 14.5C19 14.5 14.5 19 14.5 24.5C14.5 26.3 15 28 15.8 29.5L14.9404 32.806C14.7457 33.5549 15.4389 34.2317 16.183 34.0191L19.4 33.1Z" stroke="white" stroke-width="1.5" stroke-miterlimit="10" stroke-linecap="round" stroke-linejoin="round"/>
<path d="M29 27.3485C29 27.5105 28.9639 27.677 28.8873 27.839C28.8107 28.001 28.7116 28.154 28.5809 28.298C28.36 28.541 28.1167 28.7165 27.8418 28.829C27.5714 28.9415 27.2784 29 26.9629 29C26.5033 29 26.012 28.892 25.4937 28.6715C24.9755 28.451 24.4572 28.154 23.9434 27.7805C23.4251 27.4025 22.9339 26.984 22.4652 26.5205C22.001 26.0525 21.5819 25.562 21.2078 25.049C20.8383 24.536 20.5408 24.023 20.3245 23.5145C20.1082 23.0015 20 22.511 20 22.043C20 21.737 20.0541 21.4445 20.1622 21.1745C20.2704 20.9 20.4417 20.648 20.6805 20.423C20.969 20.1395 21.2844 20 21.6179 20C21.7441 20 21.8703 20.027 21.983 20.081C22.1002 20.135 22.2038 20.216 22.2849 20.333L23.3305 21.8045C23.4116 21.917 23.4702 22.0205 23.5108 22.1195C23.5513 22.214 23.5739 22.3085 23.5739 22.394C23.5739 22.502 23.5423 22.61 23.4792 22.7135C23.4206 22.817 23.335 22.925 23.2268 23.033L22.8843 23.3885C22.8348 23.438 22.8122 23.4965 22.8122 23.5685C22.8122 23.6045 22.8167 23.636 22.8257 23.672C22.8393 23.708 22.8528 23.735 22.8618 23.762C22.9429 23.9105 23.0826 24.104 23.2809 24.338C23.4837 24.572 23.7 24.8105 23.9344 25.049C24.1778 25.2875 24.4121 25.508 24.651 25.7105C24.8853 25.9085 25.0791 26.0435 25.2323 26.1245C25.2549 26.1335 25.2819 26.147 25.3135 26.1605C25.3495 26.174 25.3856 26.1785 25.4261 26.1785C25.5028 26.1785 25.5613 26.1515 25.6109 26.102L25.9534 25.7645C26.0661 25.652 26.1743 25.5665 26.2779 25.5125C26.3816 25.4495 26.4852 25.418 26.5979 25.418C26.6835 25.418 26.7737 25.436 26.8728 25.4765C26.972 25.517 27.0756 25.5755 27.1883 25.652L28.68 26.7095C28.7972 26.7905 28.8783 26.885 28.9279 26.9975C28.973 27.11 29 27.2225 29 27.3485Z" stroke="white" stroke-width="1.5" stroke-miterlimit="10"/>
</svg>
