<svg width="48" height="49" viewBox="0 0 48 49" fill="none" xmlns="http://www.w3.org/2000/svg">
<path d="M17.3346 35.8455H30.668C32.8384 35.8455 34.7054 35.1188 36.0316 33.7925C37.3579 32.4663 38.0846 30.5993 38.0846 28.4289V20.4289C38.0846 18.2584 37.3579 16.3915 36.0316 15.0652C34.7054 13.739 32.8384 13.0122 30.668 13.0122H17.3346C15.1642 13.0122 13.2972 13.739 11.971 15.0652C10.6447 16.3915 9.91797 18.2584 9.91797 20.4289V28.4289C9.91797 30.5993 10.6447 32.4663 11.971 33.7925C13.2972 35.1188 15.1642 35.8455 17.3346 35.8455Z" stroke="#9A9A9A" stroke-width="1.5" stroke-miterlimit="10" stroke-linecap="round" stroke-linejoin="round"/>
<path d="M23.2008 21.0956L26.5341 23.0956C27.7341 23.8956 27.7341 25.0956 26.5341 25.8956L23.2008 27.8956C21.8674 28.6956 20.8008 28.029 20.8008 26.5623V22.5623C20.8008 20.829 21.8674 20.2956 23.2008 21.0956Z" stroke="#9A9A9A" stroke-width="1.5" stroke-miterlimit="10" stroke-linecap="round" stroke-linejoin="round"/>
</svg>
