<svg width="112" height="112" viewBox="0 0 112 112" fill="none" xmlns="http://www.w3.org/2000/svg">
<path d="M0 56C0 25.0721 25.0721 0 56 0C86.9279 0 112 25.0721 112 56C112 86.9279 86.9279 112 56 112C25.0721 112 0 86.9279 0 56Z" fill="white"/>
<path d="M12.5802 67.6998H11.6602V67.0278H14.3437V67.6998H13.4282V70.0234H12.581V67.6998H12.5802Z" fill="black"/>
<path d="M17.9865 67.0278V70.0234H17.1394V68.8554H15.9838V70.0234H15.1367V67.0278H15.9838V68.1532H17.1394V67.0278H17.9865Z" fill="black"/>
<path d="M21.4639 69.3691V70.0242H19.0586V67.0287H21.4079V67.6838H19.8968V68.1887H21.2275V68.8225H19.8968V69.37H21.463L21.4639 69.3691Z" fill="black"/>
<path d="M26.8347 70.0234L26.8258 68.4358L26.0551 69.7283H25.6782L24.912 68.4785V70.0234H24.1289V67.0278H24.8267L25.8791 68.7567L26.9067 67.0278H27.6045L27.6134 70.0234H26.8347Z" fill="black"/>
<path d="M30.6952 69.442H29.4286L29.193 70.0242H28.3281L29.6508 67.0287H30.4855L31.8126 70.0242H30.9308L30.6952 69.442ZM30.4472 68.8171L30.0623 67.8589L29.6775 68.8171H30.4481H30.4472Z" fill="black"/>
<path d="M33.8367 69.2278H33.3745V70.0242H32.5273V67.0287H33.8971C34.1682 67.0287 34.4038 67.074 34.6029 67.1638C34.8029 67.2536 34.9567 67.3825 35.0651 67.5487C35.1736 67.7158 35.2278 67.9122 35.2278 68.1371C35.2278 68.362 35.1771 68.5434 35.0758 68.7042C34.9745 68.8651 34.8296 68.9914 34.6411 69.0829L35.2873 70.0242H34.3798L33.8367 69.2278ZM34.2385 67.8109C34.1496 67.7336 34.0189 67.6954 33.8447 67.6954H33.3736V68.5727H33.8447C34.0189 68.5727 34.1496 68.5345 34.2385 68.4589C34.3265 68.3834 34.3709 68.2758 34.3709 68.1354C34.3709 67.9949 34.3265 67.8874 34.2385 67.81V67.8109Z" fill="black"/>
<path d="M37.3274 68.9371L37.011 69.2749V70.0242H36.1719V67.0287H37.011V68.274L38.171 67.0287H39.1043L37.8803 68.3558L39.1683 70.0251H38.1843L37.3283 68.938L37.3274 68.9371Z" fill="black"/>
<path d="M42.2686 69.3691V70.0242H39.8633V67.0287H42.2126V67.6838H40.7015V68.1887H42.0322V68.8225H40.7015V69.37H42.2677L42.2686 69.3691Z" fill="black"/>
<path d="M43.8536 67.6998H42.9336V67.0278H45.6171V67.6998H44.7016V70.0234H43.8545V67.6998H43.8536Z" fill="black"/>
<path d="M50.2036 67.1629C50.4036 67.2527 50.5574 67.3816 50.6658 67.5478C50.7742 67.7149 50.8285 67.9114 50.8285 68.1362C50.8285 68.3611 50.7742 68.5567 50.6658 68.7229C50.5574 68.8882 50.4036 69.0162 50.2036 69.106C50.0036 69.1958 49.7689 69.2411 49.4978 69.2411H48.976V70.0242H48.1289V67.0287H49.4987C49.7698 67.0287 50.0054 67.074 50.2045 67.1638L50.2036 67.1629ZM49.84 68.4598C49.928 68.3842 49.9725 68.2767 49.9725 68.1362C49.9725 67.9958 49.928 67.8882 49.84 67.8109C49.752 67.7336 49.6205 67.6954 49.4462 67.6954H48.9751V68.5727H49.4462C49.6205 68.5727 49.7511 68.5345 49.84 68.4589V68.4598Z" fill="black"/>
<path d="M51.7148 67.0278H52.562V69.3514H53.9913V70.0234H51.7148V67.0278Z" fill="black"/>
<path d="M56.8398 69.442H55.5731L55.3375 70.0242H54.4727L55.7953 67.0287H56.63L57.9571 70.0242H57.0753L56.8398 69.442ZM56.5918 68.8171L56.2069 67.8589L55.822 68.8171H56.5927H56.5918Z" fill="black"/>
<path d="M59.2792 69.8847C59.0295 69.7523 58.833 69.5674 58.6908 69.3301C58.5477 69.0936 58.4766 68.8252 58.4766 68.5256C58.4766 68.2261 58.5477 67.9576 58.6908 67.7212C58.833 67.4847 59.0295 67.2999 59.2792 67.1665C59.529 67.0341 59.8108 66.9674 60.1246 66.9674C60.3983 66.9674 60.6455 67.0163 60.865 67.1132C61.0846 67.2101 61.2677 67.3496 61.4126 67.5327L60.873 68.0207C60.6792 67.787 60.4437 67.6696 60.1672 67.6696C60.0046 67.6696 59.8597 67.7052 59.7326 67.7763C59.6055 67.8474 59.5068 67.9479 59.4375 68.0776C59.3672 68.2074 59.3326 68.3567 59.3326 68.5247C59.3326 68.6927 59.3672 68.8421 59.4375 68.9719C59.5077 69.1016 59.6055 69.2021 59.7326 69.2732C59.8597 69.3443 60.0046 69.3799 60.1672 69.3799C60.4437 69.3799 60.6792 69.2625 60.873 69.0287L61.4126 69.5167C61.2668 69.699 61.0846 69.8394 60.865 69.9363C60.6455 70.0332 60.3983 70.0821 60.1246 70.0821C59.8108 70.0821 59.529 70.0154 59.2792 69.883V69.8847Z" fill="black"/>
<path d="M64.6671 69.3691V70.0242H62.2617V67.0287H64.6111V67.6838H63.0999V68.1887H64.4306V68.8225H63.0999V69.37H64.6662L64.6671 69.3691Z" fill="black"/>
<path d="M25.9752 48.9657C24.6828 48.2403 23.2481 47.8777 21.6712 47.8777C19.5059 47.8777 17.8036 48.5612 16.5636 49.9275V41.6981H11.6445V65.0937H16.3423V63.139C17.561 64.611 19.3379 65.3461 21.6712 65.3461C23.2481 65.3461 24.6828 64.9835 25.9752 64.2581C25.9788 64.2563 25.9832 64.2537 25.9868 64.2519V48.9728C25.9868 48.9728 25.9788 48.9683 25.9752 48.9666V48.9657ZM23.9254 60.0332C23.1165 60.8848 22.081 61.3106 20.8196 61.3106C19.5583 61.3106 18.5228 60.8848 17.7139 60.0332C16.9041 59.1817 16.4996 58.0421 16.4996 56.6119C16.4996 55.1817 16.9041 54.0421 17.7139 53.1906C18.5228 52.339 19.5583 51.9141 20.8196 51.9141C22.081 51.9141 23.1165 52.3399 23.9254 53.1906C24.7343 54.0421 25.1396 55.1826 25.1396 56.6119C25.1396 58.0412 24.7343 59.1817 23.9254 60.0332Z" fill="black"/>
<path d="M44.7115 48.9728C43.1124 48.1808 41.148 47.6893 39.0128 47.6279C38.964 47.6297 38.9142 47.6315 38.8635 47.6333H38.8617C38.2395 47.6333 37.6573 47.659 37.1133 47.707C36.9062 47.7088 36.7 47.7177 36.4955 47.731V51.9177C36.972 51.8457 37.4697 51.8075 37.9808 51.8075C40.1471 51.8075 42.0644 52.4902 43.2315 53.5355C43.6795 53.9364 43.9408 54.5088 43.9426 55.1106V55.1293H40.0333C38.5257 55.1293 37.2582 55.2964 36.2271 55.6297C35.5622 55.8448 34.9968 56.1301 34.5311 56.4848C33.8031 57.0395 33.2982 57.7195 33.0164 58.5266C32.8706 58.9426 32.7853 59.3924 32.7577 59.8759C32.7515 59.9844 32.7488 60.0937 32.7488 60.2048C32.7488 61.1933 33.0013 62.0759 33.5053 62.8537C34.0102 63.6315 34.7408 64.2413 35.6964 64.6822C36.6528 65.1239 37.7826 65.3444 39.0866 65.3444C41.6084 65.3444 43.332 64.5559 44.2573 62.9799V65.0919H47.3871V50.947C46.7008 50.1782 45.788 49.5062 44.708 48.9719L44.7115 48.9728ZM43.9444 59.7319C43.8973 59.8644 43.8431 59.9906 43.7844 60.1115C43.5035 60.6839 43.0955 61.1301 42.5577 61.451C41.9053 61.8404 41.1595 62.0341 40.3186 62.0341C39.4777 62.0341 38.7791 61.8502 38.2848 61.4822C38.1088 61.3515 37.964 61.203 37.8511 61.0386C37.6502 60.747 37.5488 60.403 37.5444 60.0066C37.5444 59.9995 37.5444 59.9924 37.5444 59.9853C37.5444 58.6608 38.5533 57.9986 40.5711 57.9986H43.9444V59.7328V59.7319ZM31.8279 48.9728C31.6217 49.0662 31.4235 49.1595 31.2368 49.2519V48.9728H26.5391V65.0919H31.4573V57.083C31.4573 56.6635 31.4857 56.2724 31.5417 55.9088C31.5417 55.2813 31.764 54.6866 32.1595 54.155V54.1533C32.5968 53.5666 33.2448 53.0564 34.0431 52.6635C34.0928 52.6448 34.1435 52.627 34.1951 52.6102C34.1951 52.6102 34.1951 52.6102 34.1968 52.6102C34.2164 52.6013 34.3835 52.5284 34.6644 52.4261C34.9479 52.323 35.3471 52.1906 35.8306 52.0626V47.7977C34.3257 47.9924 32.94 48.4733 31.8271 48.9737L31.8279 48.9728Z" fill="black"/>
<path d="M52.7125 48.9728V49.4439C52.8787 49.2768 53.0796 49.1194 53.3098 48.9728C54.3543 48.3097 56.0094 47.8812 57.8734 47.8812C57.9321 47.8812 57.9907 47.8812 58.0485 47.883C59.6218 47.9052 61.0361 48.2341 62.0423 48.7488C62.3694 48.9159 62.653 49.1026 62.885 49.3052C63.069 49.4492 63.2467 49.6048 63.4165 49.771C63.7081 50.0554 63.9667 50.371 64.1925 50.7168C63.9561 51.0323 63.7392 51.3674 63.5418 51.723C62.7605 53.1292 62.3641 54.7746 62.3641 56.6128C62.3641 58.451 62.7605 60.0972 63.5418 61.5026C64.029 62.379 64.6361 63.1363 65.3561 63.7674V65.0937H60.437V56.139C60.437 55.3826 60.3436 54.7337 60.157 54.1932C60.1516 54.1772 60.1463 54.1603 60.1401 54.1443C60.1321 54.123 60.1241 54.1008 60.1161 54.0794C59.9987 53.7781 59.8183 53.499 59.5872 53.2519C58.9605 52.5817 57.9587 52.1479 56.8298 52.1479C56.533 52.1479 56.245 52.1781 55.9703 52.235C55.9427 52.2403 55.9152 52.2457 55.8876 52.2528C55.861 52.259 55.8334 52.2652 55.8067 52.2723C55.7525 52.2857 55.7001 52.2999 55.6467 52.3159C55.5943 52.331 55.5418 52.347 55.4903 52.3648C55.3872 52.3994 55.2876 52.4377 55.1898 52.4803C55.1658 52.491 55.1418 52.5017 55.1178 52.5132C55.0938 52.5239 55.0698 52.5354 55.0467 52.5461C55.021 52.5586 54.9961 52.571 54.9712 52.5843C54.9516 52.5941 54.9321 52.6048 54.9125 52.6154C54.7756 52.6883 54.6467 52.7701 54.525 52.8572C54.4014 52.9461 54.285 53.043 54.1792 53.1461C54.1756 53.1497 54.1721 53.1523 54.1685 53.1559C54.1241 53.1968 54.0805 53.2403 54.0378 53.2848C53.3018 54.0528 52.9338 55.1923 52.9338 56.7061V65.0928H48.0156V48.9719H52.7134L52.7125 48.9728Z" fill="black"/>
<path d="M76.5144 41.6981V49.9275C75.2948 48.5612 73.6024 47.8777 71.4379 47.8777C69.8406 47.8777 68.3953 48.235 67.1028 48.9497C66.0593 49.5266 65.1979 50.3017 64.517 51.275C64.3544 51.5079 64.2015 51.7523 64.0601 52.0083C63.3241 53.3328 62.957 54.867 62.957 56.6119C62.957 58.3568 63.325 59.891 64.0601 61.2155C64.4237 61.8715 64.8566 62.4528 65.3579 62.9586C65.869 63.475 66.4504 63.9132 67.1028 64.2741C68.3953 64.9888 69.8406 65.3461 71.4379 65.3461C73.7499 65.3461 75.5161 64.611 76.7348 63.139V65.0937H81.4326V41.6981H76.5135H76.5144ZM75.3793 60.0332C74.5597 60.8848 73.5295 61.3106 72.2895 61.3106C71.0495 61.3106 69.9881 60.8848 69.1686 60.0332C68.349 59.1817 67.9393 58.0421 67.9393 56.6119C67.9393 55.1817 68.349 54.0421 69.1686 53.1906C69.9881 52.339 71.029 51.9141 72.2895 51.9141C73.5499 51.9141 74.5597 52.3399 75.3793 53.1906C76.1988 54.0421 76.6095 55.1826 76.6095 56.6119C76.6095 58.0412 76.1997 59.1817 75.3793 60.0332Z" fill="black"/>
<path d="M86.3527 48.1301H81.4336V65.0937H86.3527V48.1301Z" fill="#E3063B"/>
<path d="M97.9862 51.9204V48.1373H93.8876V44.0066H88.9685V48.1373H86.3516V51.9204H88.9685V58.8893C88.9685 60.8866 89.5205 62.3995 90.6236 63.4297C91.7267 64.4599 93.2876 64.9746 95.3053 64.9746C95.5773 64.9746 95.8449 64.9639 96.1071 64.9417C95.4369 64.3959 95.0093 63.5639 95.0093 62.635C95.0093 62.0413 95.1845 61.4875 95.4858 61.0226C95.0556 60.9461 94.7062 60.7657 94.4387 60.4821C94.0707 60.0937 93.8867 59.5417 93.8867 58.827V51.9213H97.9853L97.9862 51.9204Z" fill="#E3063B"/>
<path d="M83.8932 46.6172C85.2515 46.6172 86.3527 45.5161 86.3527 44.1577C86.3527 42.7993 85.2515 41.6981 83.8932 41.6981C82.5348 41.6981 81.4336 42.7993 81.4336 44.1577C81.4336 45.5161 82.5348 46.6172 83.8932 46.6172Z" fill="black"/>
<path d="M100.446 62.6341C100.446 63.9923 99.3451 65.0937 97.9869 65.0937C97.5967 65.0937 97.2269 65.0021 96.8989 64.8403C96.0865 64.4386 95.5273 63.6021 95.5273 62.6341C95.5273 62.0368 95.7407 61.4892 96.0953 61.0626C96.546 60.5203 97.226 60.1746 97.9878 60.1746C99.346 60.1746 100.447 61.2759 100.447 62.6341H100.446Z" fill="black"/>
</svg>